<svg width="15" height="17" viewBox="0 0 15 17" fill="none" xmlns="http://www.w3.org/2000/svg">
<path d="M3.95833 7.43558C4.2346 7.43558 4.49955 7.55081 4.6949 7.75593C4.89025 7.96105 5 8.23925 5 8.52933C5 8.81941 4.89025 9.09761 4.6949 9.30272C4.49955 9.50784 4.2346 9.62308 3.95833 9.62308C3.68207 9.62308 3.41711 9.50784 3.22176 9.30272C3.02641 9.09761 2.91667 8.81941 2.91667 8.52933C2.91667 8.23925 3.02641 7.96105 3.22176 7.75593C3.41711 7.55081 3.68207 7.43558 3.95833 7.43558ZM7.5 7.43558C7.77627 7.43558 8.04122 7.55081 8.23657 7.75593C8.43192 7.96105 8.54167 8.23925 8.54167 8.52933C8.54167 8.81941 8.43192 9.09761 8.23657 9.30272C8.04122 9.50784 7.77627 9.62308 7.5 9.62308C7.22373 9.62308 6.95878 9.50784 6.76343 9.30272C6.56808 9.09761 6.45833 8.81941 6.45833 8.52933C6.45833 8.23925 6.56808 7.96105 6.76343 7.75593C6.95878 7.55081 7.22373 7.43558 7.5 7.43558ZM12.0833 8.52933C12.0833 8.23925 11.9736 7.96105 11.7782 7.75593C11.5829 7.55081 11.3179 7.43558 11.0417 7.43558C10.7654 7.43558 10.5004 7.55081 10.3051 7.75593C10.1097 7.96105 10 8.23925 10 8.52933C10 8.81941 10.1097 9.09761 10.3051 9.30272C10.5004 9.50784 10.7654 9.62308 11.0417 9.62308C11.3179 9.62308 11.5829 9.50784 11.7782 9.30272C11.9736 9.09761 12.0833 8.81941 12.0833 8.52933ZM5 12.0293C5 11.7392 4.89025 11.461 4.6949 11.2559C4.49955 11.0508 4.2346 10.9356 3.95833 10.9356C3.68207 10.9356 3.41711 11.0508 3.22176 11.2559C3.02641 11.461 2.91667 11.7392 2.91667 12.0293C2.91667 12.3194 3.02641 12.5976 3.22176 12.8027C3.41711 13.0078 3.68207 13.1231 3.95833 13.1231C4.2346 13.1231 4.49955 13.0078 4.6949 12.8027C4.89025 12.5976 5 12.3194 5 12.0293ZM8.54167 12.0293C8.54167 11.7392 8.43192 11.461 8.23657 11.2559C8.04122 11.0508 7.77627 10.9356 7.5 10.9356C7.22373 10.9356 6.95878 11.0508 6.76343 11.2559C6.56808 11.461 6.45833 11.7392 6.45833 12.0293C6.45833 12.3194 6.56808 12.5976 6.76343 12.8027C6.95878 13.0078 7.22373 13.1231 7.5 13.1231C7.77627 13.1231 8.04122 13.0078 8.23657 12.8027C8.43192 12.5976 8.54167 12.3194 8.54167 12.0293ZM11.0417 10.9356C11.3179 10.9356 11.5829 11.0508 11.7782 11.2559C11.9736 11.461 12.0833 11.7392 12.0833 12.0293C12.0833 12.3194 11.9736 12.5976 11.7782 12.8027C11.5829 13.0078 11.3179 13.1231 11.0417 13.1231C10.7654 13.1231 10.5004 13.0078 10.3051 12.8027C10.1097 12.5976 10 12.3194 10 12.0293C10 11.7392 10.1097 11.461 10.3051 11.2559C10.5004 11.0508 10.7654 10.9356 11.0417 10.9356ZM6.28083 0.465326C6.61896 0.16516 7.04734 0.000320766 7.49011 4.67655e-07C7.93289 -0.000319831 8.36148 0.1639 8.7 0.463576L14.3333 5.44933C14.7558 5.82295 15 6.3742 15 6.95433V15.091C15.0001 15.2921 14.9625 15.4913 14.8892 15.6772C14.816 15.8631 14.7086 16.032 14.5732 16.1743C14.4377 16.3166 14.2769 16.4294 14.0999 16.5064C13.923 16.5834 13.7332 16.6231 13.5417 16.6231H1.45833C1.07156 16.6231 0.700627 16.4617 0.427136 16.1746C0.153645 15.8874 0 15.4979 0 15.0918V6.95433C0 6.37508 0.243333 5.82558 0.664167 5.45108L6.28083 0.465326ZM7.89417 1.4672C7.78137 1.36715 7.63849 1.31226 7.49083 1.31226C7.34318 1.31226 7.20029 1.36715 7.0875 1.4672L1.47083 6.45295C1.40153 6.51464 1.34587 6.59146 1.30773 6.67805C1.26959 6.76464 1.24989 6.85892 1.25 6.95433V15.0918C1.25 15.2126 1.34333 15.3106 1.45833 15.3106H13.5417C13.5969 15.3106 13.6499 15.2875 13.689 15.2465C13.7281 15.2055 13.75 15.1498 13.75 15.0918V6.95433C13.7499 6.85879 13.7299 6.76442 13.6915 6.67782C13.6531 6.59122 13.5971 6.51448 13.5275 6.45295L7.89417 1.4672Z" fill="#030303"/>
</svg>
