<svg width="87" height="32" viewBox="0 0 87 32" fill="none" xmlns="http://www.w3.org/2000/svg">
<rect width="87" height="32" rx="8" fill="#000D2B"/>
<path d="M20.375 17.4062C20.375 17.5731 20.3255 17.7362 20.2328 17.875C20.1401 18.0137 20.0083 18.1219 19.8541 18.1858C19.7 18.2496 19.5303 18.2663 19.3666 18.2338C19.203 18.2012 19.0526 18.1209 18.9346 18.0029C18.8166 17.8849 18.7363 17.7345 18.7037 17.5708C18.6712 17.4072 18.6879 17.2375 18.7517 17.0833C18.8156 16.9292 18.9237 16.7974 19.0625 16.7047C19.2012 16.612 19.3644 16.5625 19.5313 16.5625C19.755 16.5625 19.9696 16.6514 20.1279 16.8096C20.2861 16.9678 20.375 17.1825 20.375 17.4062ZM14.4688 16.5625C14.3019 16.5625 14.1387 16.612 14 16.7047C13.8612 16.7974 13.7531 16.9292 13.6892 17.0833C13.6254 17.2375 13.6087 17.4072 13.6412 17.5708C13.6738 17.7345 13.7541 17.8849 13.8721 18.0029C13.9901 18.1209 14.1405 18.2012 14.3041 18.2338C14.4678 18.2663 14.6375 18.2496 14.7916 18.1858C14.9458 18.1219 15.0776 18.0137 15.1703 17.875C15.263 17.7362 15.3125 17.5731 15.3125 17.4062C15.3125 17.1825 15.2236 16.9678 15.0654 16.8096C14.9071 16.6514 14.6925 16.5625 14.4688 16.5625ZM24.875 18.25V19.9375C24.875 20.2358 24.7565 20.522 24.5455 20.733C24.3345 20.944 24.0484 21.0625 23.75 21.0625H10.25C9.95163 21.0625 9.66549 20.944 9.45451 20.733C9.24353 20.522 9.125 20.2358 9.125 19.9375V18.3294C9.124 17.2451 9.34422 16.1719 9.7722 15.1756C10.2002 14.1793 10.8269 13.2808 11.6141 12.535L9.85203 10.7729C9.74649 10.6674 9.68719 10.5242 9.68719 10.375C9.68719 10.2257 9.74649 10.0826 9.85203 9.97701C9.95758 9.87146 10.1007 9.81217 10.25 9.81217C10.3993 9.81217 10.5424 9.87146 10.648 9.97701L12.4873 11.8164C13.8081 10.8809 15.3861 10.3773 17.0046 10.3749C18.623 10.3725 20.2025 10.8714 21.526 11.803L23.3541 9.9749C23.4597 9.86935 23.6028 9.81006 23.7521 9.81006C23.9014 9.81006 24.0445 9.86935 24.1501 9.9749C24.2556 10.0805 24.3149 10.2236 24.3149 10.3729C24.3149 10.5221 24.2556 10.6653 24.1501 10.7708L22.4014 12.5195C22.4541 12.5694 22.5069 12.6201 22.5589 12.6721C23.2954 13.4019 23.8794 14.2709 24.277 15.2285C24.6746 16.1861 24.8779 17.2131 24.875 18.25ZM23.75 18.25C23.75 16.4598 23.0388 14.7429 21.773 13.477C20.5071 12.2111 18.7902 11.5 17 11.5H16.9761C13.2671 11.5126 10.25 14.5762 10.25 18.3294V19.9375H23.75V18.25Z" fill="white"/>
<path d="M33.9815 20.5H32.294L35.3665 11.7727H37.3182L40.3949 20.5H38.7074L36.3764 13.5625H36.3082L33.9815 20.5ZM34.0369 17.0781H38.6392V18.348H34.0369V17.0781ZM43.0188 16.6648V20.5H41.4762V13.9545H42.9506V15.0668H43.0273C43.1779 14.7003 43.418 14.4091 43.7475 14.1932C44.0799 13.9773 44.4904 13.8693 44.979 13.8693C45.4308 13.8693 45.8242 13.9659 46.1594 14.1591C46.4975 14.3523 46.7589 14.6321 46.9435 14.9986C47.131 15.3651 47.2234 15.8097 47.2205 16.3324V20.5H45.6779V16.571C45.6779 16.1335 45.5643 15.7912 45.337 15.544C45.1126 15.2969 44.8015 15.1733 44.4038 15.1733C44.1339 15.1733 43.8938 15.233 43.6836 15.3523C43.4762 15.4687 43.3129 15.6378 43.1935 15.8594C43.0771 16.081 43.0188 16.3494 43.0188 16.6648ZM51.2177 20.6151C50.7035 20.6151 50.2433 20.483 49.837 20.2188C49.4308 19.9545 49.1097 19.571 48.8739 19.0682C48.6381 18.5653 48.5202 17.9545 48.5202 17.2358C48.5202 16.5085 48.6396 15.8949 48.8782 15.3949C49.1197 14.892 49.445 14.5128 49.854 14.2571C50.2631 13.9986 50.7191 13.8693 51.2219 13.8693C51.6055 13.8693 51.9208 13.9347 52.168 14.0653C52.4151 14.1932 52.6112 14.348 52.756 14.5298C52.9009 14.7088 53.0131 14.8778 53.0927 15.0369H53.1566V11.7727H54.7035V20.5H53.1864V19.4688H53.0927C53.0131 19.6278 52.8981 19.7969 52.7475 19.9759C52.5969 20.152 52.3981 20.3026 52.1509 20.4276C51.9038 20.5526 51.5927 20.6151 51.2177 20.6151ZM51.6481 19.3494C51.9748 19.3494 52.2532 19.2614 52.4833 19.0852C52.7134 18.9062 52.8881 18.6577 53.0075 18.3395C53.1268 18.0213 53.1864 17.6506 53.1864 17.2273C53.1864 16.804 53.1268 16.4361 53.0075 16.1236C52.891 15.8111 52.7177 15.5682 52.4876 15.3949C52.2603 15.2216 51.9805 15.1349 51.6481 15.1349C51.3043 15.1349 51.0174 15.2244 50.7873 15.4034C50.5572 15.5824 50.3839 15.8295 50.2674 16.1449C50.1509 16.4602 50.0927 16.821 50.0927 17.2273C50.0927 17.6364 50.1509 18.0014 50.2674 18.3224C50.3867 18.6406 50.5614 18.892 50.7915 19.0767C51.0245 19.2585 51.31 19.3494 51.6481 19.3494ZM56.3473 20.5V13.9545H57.843V15.0455H57.9112C58.0305 14.6676 58.2351 14.3764 58.5249 14.1719C58.8175 13.9645 59.1513 13.8608 59.5263 13.8608C59.6115 13.8608 59.7067 13.8651 59.8118 13.8736C59.9197 13.8793 60.0092 13.8892 60.0803 13.9034V15.3224C60.0149 15.2997 59.9112 15.2798 59.7692 15.2628C59.63 15.2429 59.495 15.233 59.3643 15.233C59.0831 15.233 58.8303 15.294 58.6058 15.4162C58.3842 15.5355 58.2095 15.7017 58.0817 15.9148C57.9538 16.1278 57.8899 16.3736 57.8899 16.652V20.5H56.3473ZM63.6907 20.6278C63.0515 20.6278 62.4975 20.4872 62.0288 20.206C61.56 19.9247 61.1964 19.5312 60.9379 19.0256C60.6822 18.5199 60.5543 17.929 60.5543 17.2528C60.5543 16.5767 60.6822 15.9844 60.9379 15.4759C61.1964 14.9673 61.56 14.5724 62.0288 14.2912C62.4975 14.0099 63.0515 13.8693 63.6907 13.8693C64.3299 13.8693 64.8839 14.0099 65.3526 14.2912C65.8214 14.5724 66.1836 14.9673 66.4393 15.4759C66.6978 15.9844 66.8271 16.5767 66.8271 17.2528C66.8271 17.929 66.6978 18.5199 66.4393 19.0256C66.1836 19.5312 65.8214 19.9247 65.3526 20.206C64.8839 20.4872 64.3299 20.6278 63.6907 20.6278ZM63.6992 19.392C64.0458 19.392 64.3356 19.2969 64.5685 19.1065C64.8015 18.9134 64.9748 18.6548 65.0884 18.331C65.2049 18.0071 65.2631 17.6463 65.2631 17.2486C65.2631 16.848 65.2049 16.4858 65.0884 16.1619C64.9748 15.8352 64.8015 15.5753 64.5685 15.3821C64.3356 15.1889 64.0458 15.0923 63.6992 15.0923C63.3441 15.0923 63.0487 15.1889 62.8129 15.3821C62.5799 15.5753 62.4052 15.8352 62.2887 16.1619C62.1751 16.4858 62.1183 16.848 62.1183 17.2486C62.1183 17.6463 62.1751 18.0071 62.2887 18.331C62.4052 18.6548 62.5799 18.9134 62.8129 19.1065C63.0487 19.2969 63.3441 19.392 63.6992 19.392ZM68.1364 20.5V13.9545H69.679V20.5H68.1364ZM68.9119 13.0256C68.6676 13.0256 68.4574 12.9446 68.2812 12.7827C68.1051 12.6179 68.017 12.4205 68.017 12.1903C68.017 11.9574 68.1051 11.7599 68.2812 11.598C68.4574 11.4332 68.6676 11.3509 68.9119 11.3509C69.1591 11.3509 69.3693 11.4332 69.5426 11.598C69.7188 11.7599 69.8068 11.9574 69.8068 12.1903C69.8068 12.4205 69.7188 12.6179 69.5426 12.7827C69.3693 12.9446 69.1591 13.0256 68.9119 13.0256ZM73.6942 20.6151C73.18 20.6151 72.7198 20.483 72.3136 20.2188C71.9073 19.9545 71.5863 19.571 71.3505 19.0682C71.1147 18.5653 70.9968 17.9545 70.9968 17.2358C70.9968 16.5085 71.1161 15.8949 71.3548 15.3949C71.5962 14.892 71.9215 14.5128 72.3306 14.2571C72.7397 13.9986 73.1957 13.8693 73.6985 13.8693C74.082 13.8693 74.3974 13.9347 74.6445 14.0653C74.8917 14.1932 75.0877 14.348 75.2326 14.5298C75.3775 14.7088 75.4897 14.8778 75.5692 15.0369H75.6332V11.7727H77.18V20.5H75.663V19.4688H75.5692C75.4897 19.6278 75.3746 19.7969 75.2241 19.9759C75.0735 20.152 74.8746 20.3026 74.6275 20.4276C74.3803 20.5526 74.0692 20.6151 73.6942 20.6151ZM74.1246 19.3494C74.4513 19.3494 74.7298 19.2614 74.9599 19.0852C75.19 18.9062 75.3647 18.6577 75.484 18.3395C75.6033 18.0213 75.663 17.6506 75.663 17.2273C75.663 16.804 75.6033 16.4361 75.484 16.1236C75.3675 15.8111 75.1942 15.5682 74.9641 15.3949C74.7369 15.2216 74.457 15.1349 74.1246 15.1349C73.7809 15.1349 73.494 15.2244 73.2638 15.4034C73.0337 15.5824 72.8604 15.8295 72.744 16.1449C72.6275 16.4602 72.5692 16.821 72.5692 17.2273C72.5692 17.6364 72.6275 18.0014 72.744 18.3224C72.8633 18.6406 73.038 18.892 73.2681 19.0767C73.5011 19.2585 73.7866 19.3494 74.1246 19.3494Z" fill="white"/>
</svg>
