<svg width="17" height="9" viewBox="0 0 17 9" fill="none" xmlns="http://www.w3.org/2000/svg">
<path fill-rule="evenodd" clip-rule="evenodd" d="M8.0625 1.125C4.63901 1.125 2.71704 2.56917 1.7872 3.57229C1.32059 4.07566 1.125 4.83742 1.125 5.70031C1.125 6.94064 2.16776 7.71279 3.11441 7.44429L4.11919 7.15931C4.75652 6.97855 5.25 6.32761 5.25 5.52637C5.25 5.45256 5.26554 4.98197 5.67701 4.52809C6.09797 4.06373 6.83579 3.72291 8.0625 3.72291C9.28919 3.72291 10.027 4.06372 10.448 4.52807C10.8594 4.98194 10.875 5.45253 10.875 5.52637V5.52638C10.875 6.32761 11.3685 6.97855 12.0058 7.15931L13.0106 7.4443C13.9572 7.71279 15 6.94065 15 5.70032C15 4.83743 14.8044 4.07566 14.3378 3.57229C13.408 2.56917 11.486 1.125 8.0625 1.125ZM0.962136 2.8075C2.06831 1.61416 4.27582 0 8.0625 0C11.8492 0 14.0567 1.61416 15.1629 2.8075C15.9057 3.60889 16.125 4.70663 16.125 5.70032C16.125 7.54972 14.4954 9.0348 12.7036 8.5266L11.6988 8.24162C10.5278 7.9095 9.75683 6.78132 9.75005 5.54286C9.74725 5.52354 9.72746 5.40829 9.6145 5.28368C9.47296 5.12755 9.08577 4.84791 8.0625 4.84791C7.03922 4.84791 6.65203 5.12756 6.51049 5.28369C6.39753 5.40829 6.37775 5.52355 6.37495 5.54286C6.36817 6.78132 5.59716 7.90949 4.42616 8.24162L3.42139 8.5266C1.62961 9.0348 0 7.54972 0 5.70031C0 4.70663 0.219288 3.60889 0.962136 2.8075Z" fill="black"/>
</svg>
