<svg width="45" height="45" viewBox="0 0 45 45" fill="none" xmlns="http://www.w3.org/2000/svg">
<circle cx="22.2885" cy="22.2885" r="22.2885" fill="#001C27"/>
<path d="M22.2885 27.7891C23.5225 27.7891 24.5685 27.36 25.4266 26.5019C26.2847 25.6438 26.7138 24.5978 26.7138 23.3639C26.7138 22.1299 26.2847 21.0839 25.4266 20.2258C24.5685 19.3677 23.5225 18.9386 22.2885 18.9386C21.0546 18.9386 20.0086 19.3677 19.1505 20.2258C18.2924 21.0839 17.8633 22.1299 17.8633 23.3639C17.8633 24.5978 18.2924 25.6438 19.1505 26.5019C20.0086 27.36 21.0546 27.7891 22.2885 27.7891ZM22.2885 26.1764C21.4944 26.1764 20.8272 25.9061 20.2868 25.3656C19.7463 24.8252 19.476 24.158 19.476 23.3639C19.476 22.5697 19.7463 21.9025 20.2868 21.3622C20.8272 20.8216 21.4944 20.5514 22.2885 20.5514C23.0827 20.5514 23.7499 20.8216 24.2903 21.3622C24.8308 21.9025 25.101 22.5697 25.101 23.3639C25.101 24.158 24.8308 24.8252 24.2903 25.3656C23.7499 25.9061 23.0827 26.1764 22.2885 26.1764ZM14.0169 31.4288C13.4737 31.4288 13.0139 31.2406 12.6375 30.8642C12.2612 30.4879 12.073 30.0281 12.073 29.4849V17.2429C12.073 16.6997 12.2612 16.2399 12.6375 15.8635C13.0139 15.4871 13.4737 15.299 14.0169 15.299H17.3007L19.29 13.1483H25.2871L27.2764 15.299H30.5602C31.1034 15.299 31.5632 15.4871 31.9395 15.8635C32.3159 16.2399 32.5041 16.6997 32.5041 17.2429V29.4849C32.5041 30.0281 32.3159 30.4879 31.9395 30.8642C31.5632 31.2406 31.1034 31.4288 30.5602 31.4288H14.0169ZM14.0169 29.8158H30.5602C30.6568 29.8158 30.7361 29.7848 30.7981 29.7228C30.8601 29.6608 30.8911 29.5815 30.8911 29.4849V17.2429C30.8911 17.1463 30.8601 17.067 30.7981 17.005C30.7361 16.9429 30.6568 16.9119 30.5602 16.9119H26.5568L24.5838 14.7613H19.9933L18.0203 16.9119H14.0169C13.9203 16.9119 13.841 16.9429 13.779 17.005C13.717 17.067 13.686 17.1463 13.686 17.2429V29.4849C13.686 29.5815 13.717 29.6608 13.779 29.7228C13.841 29.7848 13.9203 29.8158 14.0169 29.8158Z" fill="white"/>
</svg>
