<svg width="20" height="21" viewBox="0 0 20 21" fill="none" xmlns="http://www.w3.org/2000/svg">
<g clip-path="url(#clip0_1850_456)">
<path d="M19.52 16.6965H18.7196V6.65502C18.7196 6.52404 18.669 6.39843 18.579 6.30582C18.4889 6.21321 18.3668 6.16118 18.2394 6.16118H13.117C12.9896 6.16118 12.8675 6.21321 12.7774 6.30582C12.6873 6.39843 12.6368 6.52404 12.6368 6.65502V10.1119H8.47479V2.70429C8.47479 2.57332 8.4242 2.4477 8.33414 2.35509C8.24408 2.26248 8.12193 2.21045 7.99457 2.21045H2.87216C2.74479 2.21045 2.62265 2.26248 2.53259 2.35509C2.44253 2.4477 2.39193 2.57332 2.39193 2.70429V16.6965H1.59155C1.46419 16.6965 1.34204 16.7485 1.25198 16.8411C1.16192 16.9337 1.11133 17.0593 1.11133 17.1903C1.11133 17.3213 1.16192 17.4469 1.25198 17.5395C1.34204 17.6321 1.46419 17.6841 1.59155 17.6841H19.52C19.6474 17.6841 19.7695 17.6321 19.8596 17.5395C19.9496 17.4469 20.0002 17.3213 20.0002 17.1903C20.0002 17.0593 19.9496 16.9337 19.8596 16.8411C19.7695 16.7485 19.6474 16.6965 19.52 16.6965ZM13.5972 7.14886H17.7592V16.6965H13.5972V7.14886ZM12.6368 11.0996V16.6965H8.47479V11.0996H12.6368ZM3.35238 3.19813H7.51434V16.6965H3.35238V3.19813ZM5.91359 5.33811V6.65502C5.91359 6.78599 5.86299 6.9116 5.77293 7.00422C5.68287 7.09683 5.56073 7.14886 5.43336 7.14886C5.306 7.14886 5.18385 7.09683 5.09379 7.00422C5.00373 6.9116 4.95314 6.78599 4.95314 6.65502V5.33811C4.95314 5.20713 5.00373 5.08152 5.09379 4.98891C5.18385 4.8963 5.306 4.84427 5.43336 4.84427C5.56073 4.84427 5.68287 4.8963 5.77293 4.98891C5.86299 5.08152 5.91359 5.20713 5.91359 5.33811ZM5.91359 9.28884V10.6057C5.91359 10.7367 5.86299 10.8623 5.77293 10.9549C5.68287 11.0476 5.56073 11.0996 5.43336 11.0996C5.306 11.0996 5.18385 11.0476 5.09379 10.9549C5.00373 10.8623 4.95314 10.7367 4.95314 10.6057V9.28884C4.95314 9.15786 5.00373 9.03225 5.09379 8.93964C5.18385 8.84703 5.306 8.795 5.43336 8.795C5.56073 8.795 5.68287 8.84703 5.77293 8.93964C5.86299 9.03225 5.91359 9.15786 5.91359 9.28884ZM5.91359 13.2396V14.5565C5.91359 14.6874 5.86299 14.8131 5.77293 14.9057C5.68287 14.9983 5.56073 15.0503 5.43336 15.0503C5.306 15.0503 5.18385 14.9983 5.09379 14.9057C5.00373 14.8131 4.95314 14.6874 4.95314 14.5565V13.2396C4.95314 13.1086 5.00373 12.983 5.09379 12.8904C5.18385 12.7978 5.306 12.7457 5.43336 12.7457C5.56073 12.7457 5.68287 12.7978 5.77293 12.8904C5.86299 12.983 5.91359 13.1086 5.91359 13.2396ZM10.0755 14.5565V13.2396C10.0755 13.1086 10.1261 12.983 10.2162 12.8904C10.3063 12.7978 10.4284 12.7457 10.5558 12.7457C10.6831 12.7457 10.8053 12.7978 10.8953 12.8904C10.9854 12.983 11.036 13.1086 11.036 13.2396V14.5565C11.036 14.6874 10.9854 14.8131 10.8953 14.9057C10.8053 14.9983 10.6831 15.0503 10.5558 15.0503C10.4284 15.0503 10.3063 14.9983 10.2162 14.9057C10.1261 14.8131 10.0755 14.6874 10.0755 14.5565ZM15.198 14.5565V13.2396C15.198 13.1086 15.2486 12.983 15.3386 12.8904C15.4287 12.7978 15.5508 12.7457 15.6782 12.7457C15.8055 12.7457 15.9277 12.7978 16.0178 12.8904C16.1078 12.983 16.1584 13.1086 16.1584 13.2396V14.5565C16.1584 14.6874 16.1078 14.8131 16.0178 14.9057C15.9277 14.9983 15.8055 15.0503 15.6782 15.0503C15.5508 15.0503 15.4287 14.9983 15.3386 14.9057C15.2486 14.8131 15.198 14.6874 15.198 14.5565ZM15.198 10.6057V9.28884C15.198 9.15786 15.2486 9.03225 15.3386 8.93964C15.4287 8.84703 15.5508 8.795 15.6782 8.795C15.8055 8.795 15.9277 8.84703 16.0178 8.93964C16.1078 9.03225 16.1584 9.15786 16.1584 9.28884V10.6057C16.1584 10.7367 16.1078 10.8623 16.0178 10.9549C15.9277 11.0476 15.8055 11.0996 15.6782 11.0996C15.5508 11.0996 15.4287 11.0476 15.3386 10.9549C15.2486 10.8623 15.198 10.7367 15.198 10.6057Z" fill="#030303" stroke="#030303" stroke-width="0.05625"/>
</g>
<defs>
<clipPath id="clip0_1850_456">
<rect width="20" height="21" fill="white"/>
</clipPath>
</defs>
</svg>
