<svg width="18" height="19" viewBox="0 0 18 19" fill="none" xmlns="http://www.w3.org/2000/svg">
<g clip-path="url(#clip0_1850_437)">
<path d="M4.10199 7.54516L1.85199 5.17016C1.79969 5.11502 1.7582 5.04954 1.72989 4.97746C1.70158 4.90538 1.68701 4.82811 1.68701 4.75009C1.68701 4.67206 1.70158 4.5948 1.72989 4.52272C1.7582 4.45063 1.79969 4.38515 1.85199 4.33001L4.10199 1.95501C4.20753 1.8436 4.35069 1.78101 4.49995 1.78101C4.64922 1.78101 4.79238 1.8436 4.89792 1.95501C5.00347 2.06642 5.06277 2.21753 5.06277 2.37509C5.06277 2.53265 5.00347 2.68375 4.89792 2.79516L3.04519 4.75009L4.89792 6.70501C5.00347 6.81642 5.06277 6.96753 5.06277 7.12509C5.06277 7.28265 5.00347 7.43375 4.89792 7.54516C4.79237 7.65658 4.64922 7.71917 4.49995 7.71917C4.35069 7.71917 4.20753 7.65658 4.10199 7.54516ZM6.91449 7.54516C6.96673 7.60037 7.02876 7.64416 7.09705 7.67404C7.16534 7.70392 7.23853 7.7193 7.31245 7.7193C7.38638 7.7193 7.45957 7.70392 7.52786 7.67404C7.59614 7.64416 7.65818 7.60037 7.71042 7.54516L9.96042 5.17016C10.0127 5.11502 10.0542 5.04954 10.0825 4.97746C10.1108 4.90538 10.1254 4.82811 10.1254 4.75009C10.1254 4.67206 10.1108 4.5948 10.0825 4.52272C10.0542 4.45063 10.0127 4.38515 9.96042 4.33001L7.71042 1.95501C7.60488 1.8436 7.46172 1.78101 7.31245 1.78101C7.16319 1.78101 7.02003 1.8436 6.91449 1.95501C6.80894 2.06642 6.74964 2.21753 6.74964 2.37509C6.74964 2.53265 6.80894 2.68375 6.91449 2.79516L8.76722 4.75009L6.91449 6.70501C6.86219 6.76015 6.8207 6.82563 6.79239 6.89772C6.76408 6.9698 6.74951 7.04706 6.74951 7.12509C6.74951 7.20311 6.76408 7.28038 6.79239 7.35246C6.8207 7.42454 6.86219 7.49002 6.91449 7.54516ZM14.0625 2.96884H12.375C12.2258 2.96884 12.0827 3.03139 11.9772 3.14274C11.8717 3.25409 11.8125 3.40511 11.8125 3.56259C11.8125 3.72006 11.8717 3.87108 11.9772 3.98243C12.0827 4.09378 12.2258 4.15634 12.375 4.15634H14.0625V14.8438H3.93745V10.0938C3.93745 9.93636 3.87819 9.78534 3.7727 9.67399C3.66721 9.56264 3.52414 9.50009 3.37495 9.50009C3.22577 9.50009 3.0827 9.56264 2.97721 9.67399C2.87172 9.78534 2.81245 9.93636 2.81245 10.0938V14.8438C2.81245 15.1588 2.93098 15.4608 3.14196 15.6835C3.35294 15.9062 3.63909 16.0313 3.93745 16.0313H14.0625C14.3608 16.0313 14.647 15.9062 14.8579 15.6835C15.0689 15.4608 15.1875 15.1588 15.1875 14.8438V4.15634C15.1875 3.84139 15.0689 3.53935 14.8579 3.31665C14.647 3.09395 14.3608 2.96884 14.0625 2.96884Z" fill="#030303" stroke="#030303" stroke-width="0.05625"/>
</g>
<defs>
<clipPath id="clip0_1850_437">
<rect width="18" height="19" fill="white"/>
</clipPath>
</defs>
</svg>
