<svg width="45" height="45" viewBox="0 0 45 45" fill="none" xmlns="http://www.w3.org/2000/svg">
<g filter="url(#filter0_d_1586_1110)">
<circle cx="22.5" cy="22.5" r="19.5" fill="#000D2B"/>
<circle cx="22.5" cy="22.5" r="20" stroke="#F0F0F3"/>
</g>
<path d="M19.8255 27.2185L20.9996 26.01L18.6039 23.6143L20.9996 21.2186L19.8255 20.0101L16.2213 23.6143L19.8255 27.2185ZM25.174 27.2185L28.7782 23.6143L25.174 20.0101L23.9999 21.2186L26.3956 23.6143L23.9999 26.01L25.174 27.2185ZM15.0427 33.0857C14.487 33.0857 14.0123 32.889 13.6186 32.4954C13.2251 32.1017 13.0283 31.627 13.0283 31.0714V16.1572C13.0283 15.6016 13.2251 15.1269 13.6186 14.7332C14.0123 14.3396 14.487 14.1429 15.0427 14.1429H20.0012C20.0713 13.5243 20.3413 12.9982 20.8113 12.5648C21.2812 12.1311 21.844 11.9143 22.4997 11.9143C23.1626 11.9143 23.729 12.1311 24.199 12.5648C24.6691 12.9982 24.9355 13.5243 24.9983 14.1429H29.9568C30.5125 14.1429 30.9872 14.3396 31.3809 14.7332C31.7744 15.1269 31.9712 15.6016 31.9712 16.1572V31.0714C31.9712 31.627 31.7744 32.1017 31.3809 32.4954C30.9872 32.889 30.5125 33.0857 29.9568 33.0857H15.0427ZM15.0427 31.4143H29.9568C30.0426 31.4143 30.1212 31.3786 30.1925 31.3071C30.264 31.2357 30.2997 31.1572 30.2997 31.0714V16.1572C30.2997 16.0714 30.264 15.9929 30.1925 15.9216C30.1212 15.8501 30.0426 15.8143 29.9568 15.8143H15.0427C14.9569 15.8143 14.8783 15.8501 14.807 15.9216C14.7355 15.9929 14.6997 16.0714 14.6997 16.1572V31.0714C14.6997 31.1572 14.7355 31.2357 14.807 31.3071C14.8783 31.3786 14.9569 31.4143 15.0427 31.4143ZM22.4997 15.0858C22.7412 15.0858 22.9408 15.0069 23.0987 14.8491C23.2565 14.6912 23.3355 14.4916 23.3355 14.2501C23.3355 14.0087 23.2565 13.8091 23.0987 13.6512C22.9408 13.4933 22.7412 13.4144 22.4997 13.4144C22.2583 13.4144 22.0587 13.4933 21.9008 13.6512C21.743 13.8091 21.664 14.0087 21.664 14.2501C21.664 14.4916 21.743 14.6912 21.9008 14.8491C22.0587 15.0069 22.2583 15.0858 22.4997 15.0858Z" fill="#F0F0F3"/>
<defs>
<filter id="filter0_d_1586_1110" x="0" y="0" width="45" height="45" filterUnits="userSpaceOnUse" color-interpolation-filters="sRGB">
<feFlood flood-opacity="0" result="BackgroundImageFix"/>
<feColorMatrix in="SourceAlpha" type="matrix" values="0 0 0 0 0 0 0 0 0 0 0 0 0 0 0 0 0 0 127 0" result="hardAlpha"/>
<feOffset/>
<feGaussianBlur stdDeviation="1"/>
<feComposite in2="hardAlpha" operator="out"/>
<feColorMatrix type="matrix" values="0 0 0 0 0 0 0 0 0 0 0 0 0 0 0 0 0 0 0.25 0"/>
<feBlend mode="normal" in2="BackgroundImageFix" result="effect1_dropShadow_1586_1110"/>
<feBlend mode="normal" in="SourceGraphic" in2="effect1_dropShadow_1586_1110" result="shape"/>
</filter>
</defs>
</svg>
