<svg width="25" height="24" viewBox="0 0 25 24" fill="none" xmlns="http://www.w3.org/2000/svg">
<path d="M1.5625 4.5C1.5625 4.10218 1.72712 3.72064 2.02015 3.43934C2.31317 3.15804 2.7106 3 3.125 3H21.875C22.2894 3 22.6868 3.15804 22.9799 3.43934C23.2729 3.72064 23.4375 4.10218 23.4375 4.5H1.5625ZM12.5 16.5C13.3288 16.5 14.1237 16.1839 14.7097 15.6213C15.2958 15.0587 15.625 14.2956 15.625 13.5C15.625 12.7044 15.2958 11.9413 14.7097 11.3787C14.1237 10.8161 13.3288 10.5 12.5 10.5C11.6712 10.5 10.8763 10.8161 10.2903 11.3787C9.70424 11.9413 9.375 12.7044 9.375 13.5C9.375 14.2956 9.70424 15.0587 10.2903 15.6213C10.8763 16.1839 11.6712 16.5 12.5 16.5Z" fill="black"/>
<path d="M0 7.5C0 7.10218 0.16462 6.72064 0.457646 6.43934C0.750671 6.15804 1.1481 6 1.5625 6H23.4375C23.8519 6 24.2493 6.15804 24.5424 6.43934C24.8354 6.72064 25 7.10218 25 7.5V19.5C25 19.8978 24.8354 20.2794 24.5424 20.5607C24.2493 20.842 23.8519 21 23.4375 21H1.5625C1.1481 21 0.750671 20.842 0.457646 20.5607C0.16462 20.2794 0 19.8978 0 19.5V7.5ZM4.6875 7.5C4.6875 8.29565 4.35826 9.05871 3.77221 9.62132C3.18616 10.1839 2.3913 10.5 1.5625 10.5V16.5C2.3913 16.5 3.18616 16.8161 3.77221 17.3787C4.35826 17.9413 4.6875 18.7044 4.6875 19.5H20.3125C20.3125 18.7044 20.6417 17.9413 21.2278 17.3787C21.8138 16.8161 22.6087 16.5 23.4375 16.5V10.5C22.6087 10.5 21.8138 10.1839 21.2278 9.62132C20.6417 9.05871 20.3125 8.29565 20.3125 7.5H4.6875Z" fill="black"/>
</svg>
