<svg width="83" height="76" viewBox="0 0 83 76" fill="none" xmlns="http://www.w3.org/2000/svg">
<rect x="19.6353" width="43" height="43" rx="10" fill="white"/>
<g clip-path="url(#clip0_2114_667)">
<path d="M41.8736 35.5175L41.8599 35.52L41.7715 35.5636L41.7466 35.5686L41.7291 35.5636L41.6407 35.52C41.6275 35.5159 41.6175 35.518 41.6109 35.5263L41.6059 35.5387L41.5847 36.0716L41.5909 36.0965L41.6034 36.1127L41.7329 36.2048L41.7516 36.2098L41.7665 36.2048L41.896 36.1127L41.9109 36.0928L41.9159 36.0716L41.8947 35.54C41.8914 35.5267 41.8844 35.5192 41.8736 35.5175ZM42.2035 35.3768L42.1873 35.3793L41.957 35.4951L41.9445 35.5076L41.9408 35.5213L41.9632 36.0567L41.9694 36.0716L41.9794 36.0803L42.2297 36.1961C42.2454 36.2003 42.2575 36.197 42.2658 36.1862L42.2708 36.1687L42.2284 35.4042C42.2243 35.3893 42.216 35.3802 42.2035 35.3768ZM41.3133 35.3793C41.3078 35.376 41.3012 35.3749 41.295 35.3763C41.2887 35.3777 41.2832 35.3815 41.2797 35.3868L41.2722 35.4042L41.2299 36.1687C41.2307 36.1837 41.2377 36.1936 41.251 36.1986L41.2697 36.1961L41.52 36.0803L41.5324 36.0704L41.5374 36.0567L41.5586 35.5213L41.5548 35.5063L41.5424 35.4939L41.3133 35.3793Z" fill="#403F3F"/>
<path d="M43.6255 22.7452C43.9304 22.7453 44.2248 22.8572 44.4527 23.0599C44.6806 23.2625 44.8262 23.5418 44.8618 23.8446L44.8706 23.9903V31.4609C44.8702 31.7783 44.7487 32.0835 44.5308 32.3143C44.313 32.5451 44.0152 32.6839 43.6984 32.7025C43.3816 32.7211 43.0697 32.618 42.8263 32.4144C42.5829 32.2107 42.4265 31.9217 42.3891 31.6066L42.3804 31.4609V23.9903C42.3804 23.6601 42.5115 23.3434 42.745 23.1099C42.9785 22.8764 43.2952 22.7452 43.6255 22.7452ZM47.3608 28.3482C47.691 28.3482 48.0077 28.4794 48.2412 28.7129C48.4747 28.9464 48.6059 29.2631 48.6059 29.5933V31.4609C48.6059 31.7912 48.4747 32.1079 48.2412 32.3414C48.0077 32.5749 47.691 32.706 47.3608 32.706C47.0305 32.706 46.7138 32.5749 46.4803 32.3414C46.2468 32.1079 46.1157 31.7912 46.1157 31.4609V29.5933C46.1157 29.2631 46.2468 28.9464 46.4803 28.7129C46.7138 28.4794 47.0305 28.3482 47.3608 28.3482ZM51.0961 22.7452C51.401 22.7453 51.6954 22.8572 51.9233 23.0599C52.1512 23.2625 52.2968 23.5418 52.3325 23.8446L52.3412 23.9903V31.4609C52.3408 31.7783 52.2193 32.0835 52.0015 32.3143C51.7836 32.5451 51.4858 32.6839 51.169 32.7025C50.8522 32.7211 50.5403 32.618 50.2969 32.4144C50.0536 32.2107 49.8972 31.9217 49.8597 31.6066L49.851 31.4609V23.9903C49.851 23.6601 49.9821 23.3434 50.2157 23.1099C50.4492 22.8764 50.7659 22.7452 51.0961 22.7452ZM37.3999 22.7452C38.0604 22.7452 38.6938 23.0076 39.1608 23.4746C39.6278 23.9416 39.8901 24.575 39.8901 25.2354V30.2158C39.8901 30.8763 39.6278 31.5097 39.1608 31.9767C38.6938 32.4437 38.0604 32.706 37.3999 32.706H32.4195C31.7591 32.706 31.1257 32.4437 30.6587 31.9767C30.1917 31.5097 29.9293 30.8763 29.9293 30.2158V25.2354C29.9293 24.575 30.1917 23.9416 30.6587 23.4746C31.1257 23.0076 31.7591 22.7452 32.4195 22.7452H37.3999ZM47.3608 22.7452C47.6657 22.7453 47.9601 22.8572 48.188 23.0599C48.4159 23.2625 48.5615 23.5418 48.5972 23.8446L48.6059 23.9903V25.858C48.6055 26.1753 48.484 26.4806 48.2661 26.7113C48.0483 26.9421 47.7505 27.081 47.4337 27.0996C47.1169 27.1182 46.805 27.0151 46.5616 26.8114C46.3183 26.6077 46.1619 26.3188 46.1244 26.0037L46.1157 25.858V23.9903C46.1157 23.6601 46.2468 23.3434 46.4803 23.1099C46.7138 22.8764 47.0305 22.7452 47.3608 22.7452ZM37.3999 10.2942C38.0604 10.2942 38.6938 10.5565 39.1608 11.0236C39.6278 11.4906 39.8901 12.124 39.8901 12.7844V17.7648C39.8901 18.4253 39.6278 19.0586 39.1608 19.5256C38.6938 19.9927 38.0604 20.255 37.3999 20.255H32.4195C31.7591 20.255 31.1257 19.9927 30.6587 19.5256C30.1917 19.0586 29.9293 18.4253 29.9293 17.7648V12.7844C29.9293 12.124 30.1917 11.4906 30.6587 11.0236C31.1257 10.5565 31.7591 10.2942 32.4195 10.2942H37.3999ZM49.851 10.2942C50.5114 10.2942 51.1448 10.5565 51.6118 11.0236C52.0788 11.4906 52.3412 12.124 52.3412 12.7844V17.7648C52.3412 18.4253 52.0788 19.0586 51.6118 19.5256C51.1448 19.9927 50.5114 20.255 49.851 20.255H44.8706C44.2101 20.255 43.5767 19.9927 43.1097 19.5256C42.6427 19.0586 42.3804 18.4253 42.3804 17.7648V12.7844C42.3804 12.124 42.6427 11.4906 43.1097 11.0236C43.5767 10.5565 44.2101 10.2942 44.8706 10.2942H49.851Z" fill="#403F3F"/>
</g>
<path d="M10.0561 62.0682H11.4879L12.3359 63.1676L12.941 63.8835L14.3942 65.75H12.8601L11.8714 64.4972L11.4496 63.9006L10.0561 62.0682ZM14.603 60.6364C14.603 61.5767 14.4268 62.3821 14.0746 63.0526C13.7251 63.7202 13.2479 64.2315 12.6428 64.5866C12.0405 64.9418 11.3572 65.1193 10.593 65.1193C9.82883 65.1193 9.14417 64.9418 8.53906 64.5866C7.93679 64.2287 7.45951 63.7159 7.10724 63.0483C6.75781 62.3778 6.58309 61.5739 6.58309 60.6364C6.58309 59.696 6.75781 58.892 7.10724 58.2244C7.45951 57.554 7.93679 57.0412 8.53906 56.6861C9.14417 56.331 9.82883 56.1534 10.593 56.1534C11.3572 56.1534 12.0405 56.331 12.6428 56.6861C13.2479 57.0412 13.7251 57.554 14.0746 58.2244C14.4268 58.892 14.603 59.696 14.603 60.6364ZM13.0135 60.6364C13.0135 59.9744 12.9098 59.4162 12.7024 58.9616C12.4979 58.5043 12.2138 58.1591 11.8501 57.9261C11.4865 57.6903 11.0675 57.5724 10.593 57.5724C10.1186 57.5724 9.69957 57.6903 9.33594 57.9261C8.9723 58.1591 8.68679 58.5043 8.4794 58.9616C8.27486 59.4162 8.17258 59.9744 8.17258 60.6364C8.17258 61.2983 8.27486 61.858 8.4794 62.3153C8.68679 62.7699 8.9723 63.1151 9.33594 63.3509C9.69957 63.5838 10.1186 63.7003 10.593 63.7003C11.0675 63.7003 11.4865 63.5838 11.8501 63.3509C12.2138 63.1151 12.4979 62.7699 12.7024 62.3153C12.9098 61.858 13.0135 61.2983 13.0135 60.6364ZM16.1094 65V56.2727H19.3821C20.0526 56.2727 20.6151 56.3892 21.0696 56.6222C21.527 56.8551 21.8722 57.1818 22.1051 57.6023C22.3409 58.0199 22.4588 58.5071 22.4588 59.0639C22.4588 59.6236 22.3395 60.1094 22.1009 60.5213C21.8651 60.9304 21.517 61.2472 21.0568 61.4716C20.5966 61.6932 20.0312 61.804 19.3608 61.804H17.0298V60.4915H19.1477C19.5398 60.4915 19.8608 60.4375 20.1108 60.3295C20.3608 60.2187 20.5455 60.0582 20.6648 59.848C20.7869 59.6349 20.848 59.3736 20.848 59.0639C20.848 58.7543 20.7869 58.4901 20.6648 58.2713C20.5426 58.0497 20.3565 57.8821 20.1065 57.7685C19.8565 57.652 19.5341 57.5938 19.1392 57.5938H17.6903V65H16.1094ZM20.6179 61.0455L22.7784 65H21.0142L18.892 61.0455H20.6179ZM34.3608 59.2173H32.767C32.7216 58.956 32.6378 58.7244 32.5156 58.5227C32.3935 58.3182 32.2415 58.1449 32.0597 58.0028C31.8778 57.8608 31.6705 57.7543 31.4375 57.6832C31.2074 57.6094 30.9588 57.5724 30.6918 57.5724C30.2173 57.5724 29.7969 57.6918 29.4304 57.9304C29.0639 58.1662 28.777 58.5128 28.5696 58.9702C28.3622 59.4247 28.2585 59.9801 28.2585 60.6364C28.2585 61.304 28.3622 61.8665 28.5696 62.3239C28.7798 62.7784 29.0668 63.1222 29.4304 63.3551C29.7969 63.5852 30.2159 63.7003 30.6875 63.7003C30.9489 63.7003 31.1932 63.6662 31.4205 63.598C31.6506 63.527 31.8565 63.4233 32.0384 63.2869C32.223 63.1506 32.3778 62.983 32.5028 62.7841C32.6307 62.5852 32.7187 62.358 32.767 62.1023L34.3608 62.1108C34.3011 62.5256 34.1719 62.9148 33.973 63.2784C33.777 63.642 33.5199 63.9631 33.2017 64.2415C32.8835 64.517 32.5114 64.733 32.0852 64.8892C31.6591 65.0426 31.1861 65.1193 30.6662 65.1193C29.8991 65.1193 29.2145 64.9418 28.6122 64.5866C28.0099 64.2315 27.5355 63.7188 27.1889 63.0483C26.8423 62.3778 26.669 61.5739 26.669 60.6364C26.669 59.696 26.8437 58.892 27.1932 58.2244C27.5426 57.554 28.0185 57.0412 28.6207 56.6861C29.223 56.331 29.9048 56.1534 30.6662 56.1534C31.152 56.1534 31.6037 56.2216 32.0213 56.358C32.4389 56.4943 32.8111 56.6946 33.1378 56.9588C33.4645 57.2202 33.733 57.5412 33.9432 57.9219C34.1562 58.2997 34.2955 58.7315 34.3608 59.2173ZM38.5955 65.1278C37.9563 65.1278 37.4023 64.9872 36.9336 64.706C36.4648 64.4247 36.1012 64.0312 35.8427 63.5256C35.587 63.0199 35.4592 62.429 35.4592 61.7528C35.4592 61.0767 35.587 60.4844 35.8427 59.9759C36.1012 59.4673 36.4648 59.0724 36.9336 58.7912C37.4023 58.5099 37.9563 58.3693 38.5955 58.3693C39.2347 58.3693 39.7887 58.5099 40.2575 58.7912C40.7262 59.0724 41.0884 59.4673 41.3441 59.9759C41.6026 60.4844 41.7319 61.0767 41.7319 61.7528C41.7319 62.429 41.6026 63.0199 41.3441 63.5256C41.0884 64.0312 40.7262 64.4247 40.2575 64.706C39.7887 64.9872 39.2347 65.1278 38.5955 65.1278ZM38.604 63.892C38.9506 63.892 39.2404 63.7969 39.4734 63.6065C39.7063 63.4134 39.8796 63.1548 39.9933 62.831C40.1097 62.5071 40.168 62.1463 40.168 61.7486C40.168 61.348 40.1097 60.9858 39.9933 60.6619C39.8796 60.3352 39.7063 60.0753 39.4734 59.8821C39.2404 59.6889 38.9506 59.5923 38.604 59.5923C38.2489 59.5923 37.9535 59.6889 37.7177 59.8821C37.4847 60.0753 37.31 60.3352 37.1935 60.6619C37.0799 60.9858 37.0231 61.348 37.0231 61.7486C37.0231 62.1463 37.0799 62.5071 37.1935 62.831C37.31 63.1548 37.4847 63.4134 37.7177 63.6065C37.9535 63.7969 38.2489 63.892 38.604 63.892ZM45.4702 65.1151C44.956 65.1151 44.4957 64.983 44.0895 64.7188C43.6832 64.4545 43.3622 64.071 43.1264 63.5682C42.8906 63.0653 42.7727 62.4545 42.7727 61.7358C42.7727 61.0085 42.892 60.3949 43.1307 59.8949C43.3722 59.392 43.6974 59.0128 44.1065 58.7571C44.5156 58.4986 44.9716 58.3693 45.4744 58.3693C45.858 58.3693 46.1733 58.4347 46.4205 58.5653C46.6676 58.6932 46.8636 58.848 47.0085 59.0298C47.1534 59.2088 47.2656 59.3778 47.3452 59.5369H47.4091V56.2727H48.956V65H47.4389V63.9688H47.3452C47.2656 64.1278 47.1506 64.2969 47 64.4759C46.8494 64.652 46.6506 64.8026 46.4034 64.9276C46.1562 65.0526 45.8452 65.1151 45.4702 65.1151ZM45.9006 63.8494C46.2273 63.8494 46.5057 63.7614 46.7358 63.5852C46.9659 63.4062 47.1406 63.1577 47.2599 62.8395C47.3793 62.5213 47.4389 62.1506 47.4389 61.7273C47.4389 61.304 47.3793 60.9361 47.2599 60.6236C47.1435 60.3111 46.9702 60.0682 46.7401 59.8949C46.5128 59.7216 46.233 59.6349 45.9006 59.6349C45.5568 59.6349 45.2699 59.7244 45.0398 59.9034C44.8097 60.0824 44.6364 60.3295 44.5199 60.6449C44.4034 60.9602 44.3452 61.321 44.3452 61.7273C44.3452 62.1364 44.4034 62.5014 44.5199 62.8224C44.6392 63.1406 44.8139 63.392 45.044 63.5767C45.277 63.7585 45.5625 63.8494 45.9006 63.8494ZM53.4975 65.1278C52.8413 65.1278 52.2745 64.9915 51.7972 64.7188C51.3228 64.4432 50.9577 64.054 50.7021 63.5511C50.4464 63.0455 50.3185 62.4503 50.3185 61.7656C50.3185 61.0923 50.4464 60.5014 50.7021 59.9929C50.9606 59.4815 51.3214 59.0838 51.7844 58.7997C52.2475 58.5128 52.7915 58.3693 53.4165 58.3693C53.82 58.3693 54.2006 58.4347 54.5586 58.5653C54.9194 58.6932 55.2376 58.892 55.5131 59.1619C55.7915 59.4318 56.0103 59.7756 56.1694 60.1932C56.3285 60.608 56.408 61.1023 56.408 61.6761V62.1491H51.043V61.1094H54.9293C54.9265 60.8139 54.8626 60.5511 54.7376 60.321C54.6126 60.0881 54.4379 59.9048 54.2134 59.7713C53.9918 59.6378 53.7333 59.571 53.4379 59.571C53.1225 59.571 52.8455 59.6477 52.6069 59.8011C52.3683 59.9517 52.1822 60.1506 52.0486 60.3977C51.918 60.642 51.8512 60.9105 51.8484 61.2031V62.1108C51.8484 62.4915 51.918 62.8182 52.0572 63.0909C52.1964 63.3608 52.391 63.5682 52.641 63.7131C52.891 63.8551 53.1836 63.9261 53.5188 63.9261C53.7433 63.9261 53.9464 63.8949 54.1282 63.8324C54.31 63.767 54.4677 63.6719 54.6012 63.5469C54.7347 63.4219 54.8356 63.267 54.9038 63.0824L56.3441 63.2443C56.2532 63.625 56.0799 63.9574 55.8242 64.2415C55.5714 64.5227 55.2475 64.7415 54.8526 64.8977C54.4577 65.0511 54.006 65.1278 53.4975 65.1278ZM64.2223 56.2727V65H62.6413V57.8111H62.5902L60.549 59.1151V57.6662L62.718 56.2727H64.2223ZM66.9251 65.0938C66.6665 65.0938 66.445 65.0028 66.2603 64.821C66.0756 64.6392 65.9847 64.4176 65.9876 64.1562C65.9847 63.9006 66.0756 63.6818 66.2603 63.5C66.445 63.3182 66.6665 63.2273 66.9251 63.2273C67.1751 63.2273 67.3924 63.3182 67.5771 63.5C67.7646 63.6818 67.8597 63.9006 67.8626 64.1562C67.8597 64.3295 67.8143 64.4872 67.7262 64.6293C67.641 64.7713 67.5273 64.8849 67.3853 64.9702C67.2461 65.0526 67.0927 65.0938 66.9251 65.0938ZM72.3242 65.1662C71.6225 65.1662 71.0202 64.9886 70.5174 64.6335C70.0174 64.2756 69.6325 63.7599 69.3626 63.0866C69.0955 62.4105 68.962 61.5966 68.962 60.6449C68.9648 59.6932 69.0998 58.8835 69.3668 58.2159C69.6367 57.5455 70.0217 57.0341 70.5217 56.6818C71.0245 56.3295 71.6254 56.1534 72.3242 56.1534C73.0231 56.1534 73.6239 56.3295 74.1268 56.6818C74.6296 57.0341 75.0146 57.5455 75.2816 58.2159C75.5515 58.8864 75.6864 59.696 75.6864 60.6449C75.6864 61.5994 75.5515 62.4148 75.2816 63.0909C75.0146 63.7642 74.6296 64.2784 74.1268 64.6335C73.6268 64.9886 73.0259 65.1662 72.3242 65.1662ZM72.3242 63.8324C72.8697 63.8324 73.3001 63.5639 73.6154 63.027C73.9336 62.4872 74.0927 61.6932 74.0927 60.6449C74.0927 59.9517 74.0202 59.3693 73.8754 58.8977C73.7305 58.4261 73.5259 58.071 73.2617 57.8324C72.9975 57.5909 72.685 57.4702 72.3242 57.4702C71.7816 57.4702 71.3526 57.7401 71.0373 58.2798C70.7219 58.8168 70.5629 59.6051 70.56 60.6449C70.5572 61.3409 70.6268 61.9261 70.7688 62.4006C70.9137 62.875 71.1183 63.233 71.3825 63.4744C71.6467 63.7131 71.9606 63.8324 72.3242 63.8324Z" fill="#000D2B"/>
<defs>
<clipPath id="clip0_2114_667">
<rect width="29.8825" height="29.8825" fill="white" transform="translate(26.194 6.55884)"/>
</clipPath>
</defs>
</svg>
