<svg width="83" height="81" viewBox="0 0 83 81" fill="none" xmlns="http://www.w3.org/2000/svg">
<rect x="19.6353" width="43" height="43" rx="10" fill="white"/>
<g clip-path="url(#clip0_2114_676)">
<path d="M43.6255 22.7452C43.9304 22.7453 44.2248 22.8572 44.4527 23.0599C44.6806 23.2625 44.8262 23.5418 44.8618 23.8446L44.8706 23.9903V31.4609C44.8702 31.7783 44.7487 32.0835 44.5308 32.3143C44.313 32.5451 44.0152 32.6839 43.6984 32.7025C43.3816 32.7211 43.0697 32.618 42.8263 32.4144C42.5829 32.2107 42.4265 31.9217 42.3891 31.6066L42.3804 31.4609V23.9903C42.3804 23.6601 42.5115 23.3434 42.745 23.1099C42.9785 22.8764 43.2952 22.7452 43.6255 22.7452ZM47.3608 28.3482C47.691 28.3482 48.0077 28.4794 48.2412 28.7129C48.4747 28.9464 48.6059 29.2631 48.6059 29.5933V31.4609C48.6059 31.7912 48.4747 32.1079 48.2412 32.3414C48.0077 32.5749 47.691 32.706 47.3608 32.706C47.0305 32.706 46.7138 32.5749 46.4803 32.3414C46.2468 32.1079 46.1157 31.7912 46.1157 31.4609V29.5933C46.1157 29.2631 46.2468 28.9464 46.4803 28.7129C46.7138 28.4794 47.0305 28.3482 47.3608 28.3482ZM51.0961 22.7452C51.401 22.7453 51.6954 22.8572 51.9233 23.0599C52.1512 23.2625 52.2968 23.5418 52.3325 23.8446L52.3412 23.9903V31.4609C52.3408 31.7783 52.2193 32.0835 52.0015 32.3143C51.7836 32.5451 51.4858 32.6839 51.169 32.7025C50.8522 32.7211 50.5403 32.618 50.2969 32.4144C50.0536 32.2107 49.8972 31.9217 49.8597 31.6066L49.851 31.4609V23.9903C49.851 23.6601 49.9821 23.3434 50.2157 23.1099C50.4492 22.8764 50.7659 22.7452 51.0961 22.7452ZM37.3999 22.7452C38.0604 22.7452 38.6938 23.0076 39.1608 23.4746C39.6278 23.9416 39.8901 24.575 39.8901 25.2354V30.2158C39.8901 30.8763 39.6278 31.5097 39.1608 31.9767C38.6938 32.4437 38.0604 32.706 37.3999 32.706H32.4195C31.7591 32.706 31.1257 32.4437 30.6587 31.9767C30.1917 31.5097 29.9293 30.8763 29.9293 30.2158V25.2354C29.9293 24.575 30.1917 23.9416 30.6587 23.4746C31.1257 23.0076 31.7591 22.7452 32.4195 22.7452H37.3999ZM47.3608 22.7452C47.6657 22.7453 47.9601 22.8572 48.188 23.0599C48.4159 23.2625 48.5615 23.5418 48.5972 23.8446L48.6059 23.9903V25.858C48.6055 26.1753 48.484 26.4806 48.2661 26.7113C48.0483 26.9421 47.7505 27.081 47.4337 27.0996C47.1169 27.1182 46.805 27.0151 46.5616 26.8114C46.3183 26.6077 46.1619 26.3188 46.1244 26.0037L46.1157 25.858V23.9903C46.1157 23.6601 46.2468 23.3434 46.4803 23.1099C46.7138 22.8764 47.0305 22.7452 47.3608 22.7452ZM37.3999 10.2942C38.0604 10.2942 38.6938 10.5565 39.1608 11.0236C39.6278 11.4906 39.8901 12.124 39.8901 12.7844V17.7648C39.8901 18.4253 39.6278 19.0586 39.1608 19.5256C38.6938 19.9927 38.0604 20.255 37.3999 20.255H32.4195C31.7591 20.255 31.1257 19.9927 30.6587 19.5256C30.1917 19.0586 29.9293 18.4253 29.9293 17.7648V12.7844C29.9293 12.124 30.1917 11.4906 30.6587 11.0236C31.1257 10.5565 31.7591 10.2942 32.4195 10.2942H37.3999ZM49.851 10.2942C50.5114 10.2942 51.1448 10.5565 51.6118 11.0236C52.0788 11.4906 52.3412 12.124 52.3412 12.7844V17.7648C52.3412 18.4253 52.0788 19.0586 51.6118 19.5256C51.1448 19.9927 50.5114 20.255 49.851 20.255H44.8706C44.2101 20.255 43.5767 19.9927 43.1097 19.5256C42.6427 19.0586 42.3804 18.4253 42.3804 17.7648V12.7844C42.3804 12.124 42.6427 11.4906 43.1097 11.0236C43.5767 10.5565 44.2101 10.2942 44.8706 10.2942H49.851Z" fill="#403F3F"/>
</g>
<path d="M4.83008 65V56.2727H8.1028C8.77326 56.2727 9.33576 56.3892 9.7903 56.6222C10.2477 56.8551 10.5929 57.1818 10.8258 57.6023C11.0616 58.0199 11.1795 58.5071 11.1795 59.0639C11.1795 59.6236 11.0602 60.1094 10.8216 60.5213C10.5858 60.9304 10.2377 61.2472 9.77752 61.4716C9.31729 61.6932 8.75195 61.804 8.0815 61.804H5.75053V60.4915H7.86843C8.26047 60.4915 8.5815 60.4375 8.8315 60.3295C9.0815 60.2187 9.26616 60.0582 9.38547 59.848C9.50763 59.6349 9.56871 59.3736 9.56871 59.0639C9.56871 58.7543 9.50763 58.4901 9.38547 58.2713C9.26331 58.0497 9.07723 57.8821 8.82723 57.7685C8.57723 57.652 8.25479 57.5938 7.85991 57.5938H6.41104V65H4.83008ZM9.3386 61.0455L11.4991 65H9.73491L7.61275 61.0455H9.3386ZM16.7385 62.2472V58.4545H18.2811V65H16.7853V63.8366H16.7171C16.5694 64.2031 16.3265 64.5028 15.9885 64.7358C15.6532 64.9687 15.2399 65.0852 14.7484 65.0852C14.3194 65.0852 13.9402 64.9901 13.6106 64.7997C13.2839 64.6065 13.0282 64.3267 12.8436 63.9602C12.6589 63.5909 12.5666 63.1449 12.5666 62.6222V58.4545H14.1092V62.3835C14.1092 62.7983 14.2228 63.1278 14.4501 63.3722C14.6774 63.6165 14.9757 63.7386 15.345 63.7386C15.5723 63.7386 15.7924 63.6832 16.0055 63.5724C16.2186 63.4616 16.3933 63.2969 16.5296 63.0781C16.6689 62.8565 16.7385 62.5795 16.7385 62.2472ZM21.41 61.1648V65H19.8674V58.4545H21.3418V59.5668H21.4185C21.5691 59.2003 21.8091 58.9091 22.1387 58.6932C22.4711 58.4773 22.8816 58.3693 23.3702 58.3693C23.8219 58.3693 24.2154 58.4659 24.5506 58.6591C24.8887 58.8523 25.15 59.1321 25.3347 59.4986C25.5222 59.8651 25.6145 60.3097 25.6117 60.8324V65H24.0691V61.071C24.0691 60.6335 23.9554 60.2912 23.7282 60.044C23.5037 59.7969 23.1926 59.6733 22.7949 59.6733C22.525 59.6733 22.285 59.733 22.0747 59.8523C21.8674 59.9687 21.704 60.1378 21.5847 60.3594C21.4682 60.581 21.41 60.8494 21.41 61.1648ZM28.7225 61.1648V65H27.1799V58.4545H28.6543V59.5668H28.731C28.8816 59.2003 29.1216 58.9091 29.4512 58.6932C29.7836 58.4773 30.1941 58.3693 30.6827 58.3693C31.1344 58.3693 31.5279 58.4659 31.8631 58.6591C32.2012 58.8523 32.4625 59.1321 32.6472 59.4986C32.8347 59.8651 32.927 60.3097 32.9242 60.8324V65H31.3816V61.071C31.3816 60.6335 31.2679 60.2912 31.0407 60.044C30.8162 59.7969 30.5051 59.6733 30.1074 59.6733C29.8375 59.6733 29.5975 59.733 29.3872 59.8523C29.1799 59.9687 29.0165 60.1378 28.8972 60.3594C28.7807 60.581 28.7225 60.8494 28.7225 61.1648ZM34.4924 65V58.4545H36.035V65H34.4924ZM35.2679 57.5256C35.0236 57.5256 34.8134 57.4446 34.6372 57.2827C34.4611 57.1179 34.373 56.9205 34.373 56.6903C34.373 56.4574 34.4611 56.2599 34.6372 56.098C34.8134 55.9332 35.0236 55.8509 35.2679 55.8509C35.5151 55.8509 35.7253 55.9332 35.8986 56.098C36.0747 56.2599 36.1628 56.4574 36.1628 56.6903C36.1628 56.9205 36.0747 57.1179 35.8986 57.2827C35.7253 57.4446 35.5151 57.5256 35.2679 57.5256ZM39.1639 61.1648V65H37.6213V58.4545H39.0957V59.5668H39.1724C39.323 59.2003 39.563 58.9091 39.8926 58.6932C40.225 58.4773 40.6355 58.3693 41.1241 58.3693C41.5758 58.3693 41.9693 58.4659 42.3045 58.6591C42.6426 58.8523 42.9039 59.1321 43.0886 59.4986C43.2761 59.8651 43.3684 60.3097 43.3656 60.8324V65H41.823V61.071C41.823 60.6335 41.7093 60.2912 41.4821 60.044C41.2576 59.7969 40.9466 59.6733 40.5488 59.6733C40.2789 59.6733 40.0389 59.733 39.8287 59.8523C39.6213 59.9687 39.4579 60.1378 39.3386 60.3594C39.2221 60.581 39.1639 60.8494 39.1639 61.1648ZM47.7804 67.5909C47.2264 67.5909 46.7505 67.5156 46.3528 67.3651C45.9551 67.2173 45.6355 67.0185 45.394 66.7685C45.1525 66.5185 44.9849 66.2415 44.8912 65.9375L46.2804 65.6009C46.3429 65.7287 46.4338 65.8551 46.5531 65.9801C46.6724 66.108 46.8329 66.2131 47.0346 66.2955C47.2392 66.3807 47.4963 66.4233 47.8059 66.4233C48.2434 66.4233 48.6056 66.3168 48.8926 66.1037C49.1795 65.8935 49.323 65.5469 49.323 65.0639V63.8239H49.2463C49.1667 63.983 49.0502 64.1463 48.8968 64.3139C48.7463 64.4815 48.546 64.6222 48.296 64.7358C48.0488 64.8494 47.7377 64.9062 47.3627 64.9062C46.8599 64.9062 46.4039 64.7884 45.9948 64.5526C45.5886 64.3139 45.2647 63.9588 45.0233 63.4872C44.7846 63.0128 44.6653 62.419 44.6653 61.706C44.6653 60.9872 44.7846 60.3807 45.0233 59.8864C45.2647 59.3892 45.59 59.0128 45.9991 58.7571C46.4082 58.4986 46.8642 58.3693 47.367 58.3693C47.7505 58.3693 48.0659 58.4347 48.313 58.5653C48.563 58.6932 48.7619 58.848 48.9096 59.0298C49.0573 59.2088 49.1696 59.3778 49.2463 59.5369H49.3315V58.4545H50.8528V65.1065C50.8528 65.6662 50.7193 66.1293 50.4522 66.4957C50.1852 66.8622 49.8201 67.1364 49.3571 67.3182C48.894 67.5 48.3684 67.5909 47.7804 67.5909ZM47.7931 63.696C48.1198 63.696 48.3983 63.6165 48.6284 63.4574C48.8585 63.2983 49.0332 63.0696 49.1525 62.7713C49.2718 62.473 49.3315 62.1151 49.3315 61.6974C49.3315 61.2855 49.2718 60.9247 49.1525 60.6151C49.036 60.3054 48.8627 60.0653 48.6326 59.8949C48.4054 59.7216 48.1255 59.6349 47.7931 59.6349C47.4494 59.6349 47.1625 59.7244 46.9323 59.9034C46.7022 60.0824 46.5289 60.3281 46.4125 60.6406C46.296 60.9503 46.2377 61.3026 46.2377 61.6974C46.2377 62.098 46.296 62.4489 46.4125 62.75C46.5318 63.0483 46.7065 63.2812 46.9366 63.4489C47.1696 63.6136 47.4551 63.696 47.7931 63.696ZM56.5993 65H54.9118L57.9842 56.2727H59.9359L63.0126 65H61.3251L58.9941 58.0625H58.926L56.5993 65ZM56.6546 61.5781H61.2569V62.848H56.6546V61.5781ZM64.0939 67.4545V58.4545H65.611V59.5369H65.7005C65.78 59.3778 65.8922 59.2088 66.0371 59.0298C66.182 58.848 66.378 58.6932 66.6252 58.5653C66.8723 58.4347 67.1877 58.3693 67.5712 58.3693C68.0769 58.3693 68.5328 58.4986 68.9391 58.7571C69.3482 59.0128 69.6721 59.392 69.9107 59.8949C70.1522 60.3949 70.2729 61.0085 70.2729 61.7358C70.2729 62.4545 70.155 63.0653 69.9192 63.5682C69.6834 64.071 69.3624 64.4545 68.9561 64.7188C68.5499 64.983 68.0897 65.1151 67.5755 65.1151C67.2005 65.1151 66.8894 65.0526 66.6422 64.9276C66.3951 64.8026 66.1962 64.652 66.0456 64.4759C65.8979 64.2969 65.7828 64.1278 65.7005 63.9688H65.6365V67.4545H64.0939ZM65.6067 61.7273C65.6067 62.1506 65.6664 62.5213 65.7857 62.8395C65.9078 63.1577 66.0826 63.4062 66.3098 63.5852C66.5399 63.7614 66.8184 63.8494 67.1451 63.8494C67.486 63.8494 67.7715 63.7585 68.0016 63.5767C68.2317 63.392 68.405 63.1406 68.5215 62.8224C68.6408 62.5014 68.7005 62.1364 68.7005 61.7273C68.7005 61.321 68.6422 60.9602 68.5257 60.6449C68.4093 60.3295 68.236 60.0824 68.0059 59.9034C67.7757 59.7244 67.4888 59.6349 67.1451 59.6349C66.8155 59.6349 66.5357 59.7216 66.3056 59.8949C66.0755 60.0682 65.9007 60.3111 65.7814 60.6236C65.6649 60.9361 65.6067 61.304 65.6067 61.7273ZM71.5939 67.4545V58.4545H73.111V59.5369H73.2005C73.28 59.3778 73.3922 59.2088 73.5371 59.0298C73.682 58.848 73.878 58.6932 74.1252 58.5653C74.3723 58.4347 74.6877 58.3693 75.0712 58.3693C75.5769 58.3693 76.0328 58.4986 76.4391 58.7571C76.8482 59.0128 77.1721 59.392 77.4107 59.8949C77.6522 60.3949 77.7729 61.0085 77.7729 61.7358C77.7729 62.4545 77.655 63.0653 77.4192 63.5682C77.1834 64.071 76.8624 64.4545 76.4561 64.7188C76.0499 64.983 75.5897 65.1151 75.0755 65.1151C74.7005 65.1151 74.3894 65.0526 74.1422 64.9276C73.8951 64.8026 73.6962 64.652 73.5456 64.4759C73.3979 64.2969 73.2828 64.1278 73.2005 63.9688H73.1365V67.4545H71.5939ZM73.1067 61.7273C73.1067 62.1506 73.1664 62.5213 73.2857 62.8395C73.4078 63.1577 73.5826 63.4062 73.8098 63.5852C74.04 63.7614 74.3184 63.8494 74.6451 63.8494C74.986 63.8494 75.2715 63.7585 75.5016 63.5767C75.7317 63.392 75.905 63.1406 76.0215 62.8224C76.1408 62.5014 76.2005 62.1364 76.2005 61.7273C76.2005 61.321 76.1422 60.9602 76.0257 60.6449C75.9093 60.3295 75.736 60.0824 75.5059 59.9034C75.2757 59.7244 74.9888 59.6349 74.6451 59.6349C74.3155 59.6349 74.0357 59.7216 73.8056 59.8949C73.5755 60.0682 73.4007 60.3111 73.2814 60.6236C73.165 60.9361 73.1067 61.304 73.1067 61.7273ZM36.6928 77.0682H38.1246L38.9727 78.1676L39.5778 78.8835L41.0309 80.75H39.4968L38.5082 79.4972L38.0863 78.9006L36.6928 77.0682ZM41.2397 75.6364C41.2397 76.5767 41.0636 77.3821 40.7113 78.0526C40.3619 78.7202 39.8846 79.2315 39.2795 79.5866C38.6772 79.9418 37.994 80.1193 37.2298 80.1193C36.4656 80.1193 35.7809 79.9418 35.1758 79.5866C34.5735 79.2287 34.0962 78.7159 33.744 78.0483C33.3945 77.3778 33.2198 76.5739 33.2198 75.6364C33.2198 74.696 33.3945 73.892 33.744 73.2244C34.0962 72.554 34.5735 72.0412 35.1758 71.6861C35.7809 71.331 36.4656 71.1534 37.2298 71.1534C37.994 71.1534 38.6772 71.331 39.2795 71.6861C39.8846 72.0412 40.3619 72.554 40.7113 73.2244C41.0636 73.892 41.2397 74.696 41.2397 75.6364ZM39.6502 75.6364C39.6502 74.9744 39.5465 74.4162 39.3391 73.9616C39.1346 73.5043 38.8505 73.1591 38.4869 72.9261C38.1232 72.6903 37.7042 72.5724 37.2298 72.5724C36.7553 72.5724 36.3363 72.6903 35.9727 72.9261C35.609 73.1591 35.3235 73.5043 35.1161 73.9616C34.9116 74.4162 34.8093 74.9744 34.8093 75.6364C34.8093 76.2983 34.9116 76.858 35.1161 77.3153C35.3235 77.7699 35.609 78.1151 35.9727 78.3509C36.3363 78.5838 36.7553 78.7003 37.2298 78.7003C37.7042 78.7003 38.1232 78.5838 38.4869 78.3509C38.8505 78.1151 39.1346 77.7699 39.3391 77.3153C39.5465 76.858 39.6502 76.2983 39.6502 75.6364ZM42.7461 80V71.2727H46.0188C46.6893 71.2727 47.2518 71.3892 47.7063 71.6222C48.1637 71.8551 48.5089 72.1818 48.7418 72.6023C48.9776 73.0199 49.0955 73.5071 49.0955 74.0639C49.0955 74.6236 48.9762 75.1094 48.7376 75.5213C48.5018 75.9304 48.1538 76.2472 47.6935 76.4716C47.2333 76.6932 46.668 76.804 45.9975 76.804H43.6665V75.4915H45.7844C46.1765 75.4915 46.4975 75.4375 46.7475 75.3295C46.9975 75.2187 47.1822 75.0582 47.3015 74.848C47.4236 74.6349 47.4847 74.3736 47.4847 74.0639C47.4847 73.7543 47.4236 73.4901 47.3015 73.2713C47.1793 73.0497 46.9933 72.8821 46.7433 72.7685C46.4933 72.652 46.1708 72.5938 45.7759 72.5938H44.3271V80H42.7461ZM47.2546 76.0455L49.4151 80H47.6509L45.5288 76.0455H47.2546Z" fill="#000D2B"/>
<defs>
<clipPath id="clip0_2114_676">
<rect width="29.8825" height="29.8825" fill="white" transform="translate(26.194 6.55884)"/>
</clipPath>
</defs>
</svg>
