<svg width="83" height="72" viewBox="0 0 83 72" fill="none" xmlns="http://www.w3.org/2000/svg">
<rect x="19.6353" width="43" height="44" rx="10" fill="white"/>
<path d="M44.2853 24.2C45.6776 24.2 47.013 24.7795 47.9976 25.8109C48.9821 26.8424 49.5353 28.2413 49.5353 29.7V30.8C49.5353 31.3835 49.314 31.9431 48.9202 32.3556C48.5264 32.7682 47.9922 33 47.4353 33H32.7353C32.1783 33 31.6442 32.7682 31.2503 32.3556C30.8565 31.9431 30.6353 31.3835 30.6353 30.8V29.7C30.6353 28.2413 31.1884 26.8424 32.1729 25.8109C33.1575 24.7795 34.4929 24.2 35.8853 24.2H44.2853ZM48.4853 17.6C48.7637 17.6 49.0308 17.7159 49.2277 17.9222C49.4246 18.1285 49.5353 18.4083 49.5353 18.7V19.8H50.5853C50.8637 19.8 51.1308 19.9159 51.3277 20.1222C51.5246 20.3285 51.6353 20.6083 51.6353 20.9C51.6353 21.1917 51.5246 21.4715 51.3277 21.6778C51.1308 21.8841 50.8637 22 50.5853 22H49.5353V23.1C49.5353 23.3917 49.4246 23.6715 49.2277 23.8778C49.0308 24.0841 48.7637 24.2 48.4853 24.2C48.2068 24.2 47.9397 24.0841 47.7428 23.8778C47.5459 23.6715 47.4353 23.3917 47.4353 23.1V22H46.3853C46.1068 22 45.8397 21.8841 45.6428 21.6778C45.4459 21.4715 45.3353 21.1917 45.3353 20.9C45.3353 20.6083 45.4459 20.3285 45.6428 20.1222C45.8397 19.9159 46.1068 19.8 46.3853 19.8H47.4353V18.7C47.4353 18.4083 47.5459 18.1285 47.7428 17.9222C47.9397 17.7159 48.2068 17.6 48.4853 17.6ZM40.0853 11C41.4776 11 42.813 11.5795 43.7976 12.6109C44.7821 13.6424 45.3353 15.0413 45.3353 16.5C45.3353 17.9587 44.7821 19.3576 43.7976 20.3891C42.813 21.4205 41.4776 22 40.0853 22C38.6929 22 37.3575 21.4205 36.3729 20.3891C35.3884 19.3576 34.8353 17.9587 34.8353 16.5C34.8353 15.0413 35.3884 13.6424 36.3729 12.6109C37.3575 11.5795 38.6929 11 40.0853 11Z" fill="#403F3F"/>
<path d="M16.1989 61H14.5114L17.5838 52.2727H19.5355L22.6122 61H20.9247L18.5937 54.0625H18.5256L16.1989 61ZM16.2543 57.5781H20.8565V58.848H16.2543V57.5781ZM25.9233 61.1151C25.4091 61.1151 24.9489 60.983 24.5426 60.7188C24.1364 60.4545 23.8153 60.071 23.5795 59.5682C23.3437 59.0653 23.2258 58.4545 23.2258 57.7358C23.2258 57.0085 23.3452 56.3949 23.5838 55.8949C23.8253 55.392 24.1506 55.0128 24.5597 54.7571C24.9687 54.4986 25.4247 54.3693 25.9276 54.3693C26.3111 54.3693 26.6264 54.4347 26.8736 54.5653C27.1207 54.6932 27.3168 54.848 27.4616 55.0298C27.6065 55.2088 27.7187 55.3778 27.7983 55.5369H27.8622V52.2727H29.4091V61H27.892V59.9688H27.7983C27.7187 60.1278 27.6037 60.2969 27.4531 60.4759C27.3026 60.652 27.1037 60.8026 26.8565 60.9276C26.6094 61.0526 26.2983 61.1151 25.9233 61.1151ZM26.3537 59.8494C26.6804 59.8494 26.9588 59.7614 27.1889 59.5852C27.419 59.4062 27.5937 59.1577 27.7131 58.8395C27.8324 58.5213 27.892 58.1506 27.892 57.7273C27.892 57.304 27.8324 56.9361 27.7131 56.6236C27.5966 56.3111 27.4233 56.0682 27.1932 55.8949C26.9659 55.7216 26.6861 55.6349 26.3537 55.6349C26.0099 55.6349 25.723 55.7244 25.4929 55.9034C25.2628 56.0824 25.0895 56.3295 24.973 56.6449C24.8565 56.9602 24.7983 57.321 24.7983 57.7273C24.7983 58.1364 24.8565 58.5014 24.973 58.8224C25.0923 59.1406 25.267 59.392 25.4972 59.5767C25.7301 59.7585 26.0156 59.8494 26.3537 59.8494ZM33.4819 61.1151C32.9677 61.1151 32.5075 60.983 32.1012 60.7188C31.695 60.4545 31.3739 60.071 31.1381 59.5682C30.9023 59.0653 30.7844 58.4545 30.7844 57.7358C30.7844 57.0085 30.9038 56.3949 31.1424 55.8949C31.3839 55.392 31.7092 55.0128 32.1183 54.7571C32.5273 54.4986 32.9833 54.3693 33.4861 54.3693C33.8697 54.3693 34.185 54.4347 34.4322 54.5653C34.6793 54.6932 34.8754 54.848 35.0202 55.0298C35.1651 55.2088 35.2773 55.3778 35.3569 55.5369H35.4208V52.2727H36.9677V61H35.4506V59.9688H35.3569C35.2773 60.1278 35.1623 60.2969 35.0117 60.4759C34.8611 60.652 34.6623 60.8026 34.4151 60.9276C34.168 61.0526 33.8569 61.1151 33.4819 61.1151ZM33.9123 59.8494C34.239 59.8494 34.5174 59.7614 34.7475 59.5852C34.9776 59.4062 35.1523 59.1577 35.2717 58.8395C35.391 58.5213 35.4506 58.1506 35.4506 57.7273C35.4506 57.304 35.391 56.9361 35.2717 56.6236C35.1552 56.3111 34.9819 56.0682 34.7518 55.8949C34.5245 55.7216 34.2447 55.6349 33.9123 55.6349C33.5685 55.6349 33.2816 55.7244 33.0515 55.9034C32.8214 56.0824 32.6481 56.3295 32.5316 56.6449C32.4151 56.9602 32.3569 57.321 32.3569 57.7273C32.3569 58.1364 32.4151 58.5014 32.5316 58.8224C32.6509 59.1406 32.8256 59.392 33.0558 59.5767C33.2887 59.7585 33.5742 59.8494 33.9123 59.8494ZM47.1577 52.2727H48.7386V57.9744C48.7386 58.5994 48.5909 59.1491 48.2955 59.6236C48.0028 60.098 47.5909 60.4687 47.0597 60.7358C46.5284 61 45.9077 61.1321 45.1974 61.1321C44.4844 61.1321 43.8622 61 43.331 60.7358C42.7997 60.4687 42.3878 60.098 42.0952 59.6236C41.8026 59.1491 41.6562 58.5994 41.6562 57.9744V52.2727H43.2372V57.8423C43.2372 58.206 43.3168 58.5298 43.4758 58.8139C43.6378 59.098 43.8651 59.321 44.1577 59.483C44.4503 59.642 44.7969 59.7216 45.1974 59.7216C45.598 59.7216 45.9446 59.642 46.2372 59.483C46.5327 59.321 46.7599 59.098 46.919 58.8139C47.0781 58.5298 47.1577 58.206 47.1577 57.8423V52.2727ZM55.5621 56.1847L54.1559 56.3381C54.1161 56.196 54.0465 56.0625 53.9471 55.9375C53.8505 55.8125 53.7198 55.7116 53.555 55.6349C53.3903 55.5582 53.1886 55.5199 52.9499 55.5199C52.6289 55.5199 52.359 55.5895 52.1403 55.7287C51.9244 55.8679 51.8178 56.0483 51.8207 56.2699C51.8178 56.4602 51.8874 56.6151 52.0295 56.7344C52.1744 56.8537 52.413 56.9517 52.7454 57.0284L53.8619 57.267C54.4812 57.4006 54.9414 57.6122 55.2425 57.902C55.5465 58.1918 55.6999 58.571 55.7028 59.0398C55.6999 59.4517 55.5792 59.8153 55.3406 60.1307C55.1048 60.4432 54.7766 60.6875 54.3562 60.8636C53.9357 61.0398 53.4528 61.1278 52.9073 61.1278C52.1062 61.1278 51.4613 60.9602 50.9727 60.625C50.484 60.2869 50.1928 59.8168 50.0991 59.2145L51.6033 59.0696C51.6715 59.3651 51.8164 59.5881 52.038 59.7386C52.2596 59.8892 52.5479 59.9645 52.9031 59.9645C53.2695 59.9645 53.5636 59.8892 53.7852 59.7386C54.0096 59.5881 54.1218 59.402 54.1218 59.1804C54.1218 58.9929 54.0494 58.8381 53.9045 58.7159C53.7624 58.5937 53.5408 58.5 53.2397 58.4347L52.1232 58.2003C51.4954 58.0696 51.0309 57.8494 50.7298 57.5398C50.4286 57.2273 50.2795 56.8324 50.2823 56.3551C50.2795 55.9517 50.3888 55.6023 50.6104 55.3068C50.8349 55.0085 51.1459 54.7784 51.5437 54.6165C51.9442 54.4517 52.4059 54.3693 52.9286 54.3693C53.6957 54.3693 54.2994 54.5327 54.7397 54.8594C55.1829 55.1861 55.457 55.6278 55.5621 56.1847ZM59.8725 61.1278C59.2163 61.1278 58.6495 60.9915 58.1722 60.7188C57.6978 60.4432 57.3327 60.054 57.0771 59.5511C56.8214 59.0455 56.6935 58.4503 56.6935 57.7656C56.6935 57.0923 56.8214 56.5014 57.0771 55.9929C57.3356 55.4815 57.6964 55.0838 58.1594 54.7997C58.6225 54.5128 59.1665 54.3693 59.7915 54.3693C60.195 54.3693 60.5756 54.4347 60.9336 54.5653C61.2944 54.6932 61.6126 54.892 61.8881 55.1619C62.1665 55.4318 62.3853 55.7756 62.5444 56.1932C62.7035 56.608 62.783 57.1023 62.783 57.6761V58.1491H57.418V57.1094H61.3043C61.3015 56.8139 61.2376 56.5511 61.1126 56.321C60.9876 56.0881 60.8129 55.9048 60.5884 55.7713C60.3668 55.6378 60.1083 55.571 59.8129 55.571C59.4975 55.571 59.2205 55.6477 58.9819 55.8011C58.7433 55.9517 58.5572 56.1506 58.4236 56.3977C58.293 56.642 58.2262 56.9105 58.2234 57.2031V58.1108C58.2234 58.4915 58.293 58.8182 58.4322 59.0909C58.5714 59.3608 58.766 59.5682 59.016 59.7131C59.266 59.8551 59.5586 59.9261 59.8938 59.9261C60.1183 59.9261 60.3214 59.8949 60.5032 59.8324C60.685 59.767 60.8427 59.6719 60.9762 59.5469C61.1097 59.4219 61.2106 59.267 61.2788 59.0824L62.7191 59.2443C62.6282 59.625 62.4549 59.9574 62.1992 60.2415C61.9464 60.5227 61.6225 60.7415 61.2276 60.8977C60.8327 61.0511 60.381 61.1278 59.8725 61.1278ZM64.0881 61V54.4545H65.5838V55.5455H65.652C65.7713 55.1676 65.9758 54.8764 66.2656 54.6719C66.5582 54.4645 66.892 54.3608 67.267 54.3608C67.3523 54.3608 67.4474 54.3651 67.5526 54.3736C67.6605 54.3793 67.75 54.3892 67.821 54.4034V55.8224C67.7557 55.7997 67.652 55.7798 67.5099 55.7628C67.3707 55.7429 67.2358 55.733 67.1051 55.733C66.8239 55.733 66.571 55.794 66.3466 55.9162C66.125 56.0355 65.9503 56.2017 65.8224 56.4148C65.6946 56.6278 65.6307 56.8736 65.6307 57.152V61H64.0881Z" fill="#000D2B"/>
</svg>
