<svg width="74" height="74" viewBox="0 0 74 74" fill="none" xmlns="http://www.w3.org/2000/svg">
<rect width="73.1294" height="73.1294" rx="10" fill="#000D2B"/>
<path d="M40.7647 39.3645C42.6212 39.3645 44.4017 40.102 45.7145 41.4147C47.0272 42.7275 47.7647 44.508 47.7647 46.3645V47.7645C47.7647 48.5071 47.4697 49.2193 46.9446 49.7444C46.4195 50.2695 45.7073 50.5645 44.9647 50.5645H25.3647C24.6221 50.5645 23.9099 50.2695 23.3848 49.7444C22.8597 49.2193 22.5647 48.5071 22.5647 47.7645V46.3645C22.5647 44.508 23.3022 42.7275 24.615 41.4147C25.9277 40.102 27.7082 39.3645 29.5647 39.3645H40.7647ZM46.3647 30.9645C46.736 30.9645 47.0921 31.112 47.3547 31.3745C47.6172 31.6371 47.7647 31.9932 47.7647 32.3645V33.7645H49.1647C49.536 33.7645 49.8921 33.912 50.1547 34.1745C50.4172 34.4371 50.5647 34.7932 50.5647 35.1645C50.5647 35.5358 50.4172 35.8919 50.1547 36.1544C49.8921 36.417 49.536 36.5645 49.1647 36.5645H47.7647V37.9645C47.7647 38.3358 47.6172 38.6919 47.3547 38.9544C47.0921 39.217 46.736 39.3645 46.3647 39.3645C45.9934 39.3645 45.6373 39.217 45.3748 38.9544C45.1122 38.6919 44.9647 38.3358 44.9647 37.9645V36.5645H43.5647C43.1934 36.5645 42.8373 36.417 42.5748 36.1544C42.3122 35.8919 42.1647 35.5358 42.1647 35.1645C42.1647 34.7932 42.3122 34.4371 42.5748 34.1745C42.8373 33.912 43.1934 33.7645 43.5647 33.7645H44.9647V32.3645C44.9647 31.9932 45.1122 31.6371 45.3748 31.3745C45.6373 31.112 45.9934 30.9645 46.3647 30.9645ZM35.1647 22.5645C37.0212 22.5645 38.8017 23.302 40.1145 24.6147C41.4272 25.9275 42.1647 27.7079 42.1647 29.5645C42.1647 31.421 41.4272 33.2015 40.1145 34.5142C38.8017 35.827 37.0212 36.5645 35.1647 36.5645C33.3082 36.5645 31.5277 35.827 30.215 34.5142C28.9022 33.2015 28.1647 31.421 28.1647 29.5645C28.1647 27.7079 28.9022 25.9275 30.215 24.6147C31.5277 23.302 33.3082 22.5645 35.1647 22.5645Z" fill="white"/>
</svg>
