<svg width="95" height="27" viewBox="0 0 95 27" fill="none" xmlns="http://www.w3.org/2000/svg">
<path d="M13.4049 2.25C11.7906 2.25 10.2051 2.68996 8.82145 3.52017C6.1435 5.12693 4.5 8.02362 4.5 11.1481C4.5 12.9037 5.01968 14.6202 5.99355 16.081L10.8149 23.313C11.4135 24.2108 12.421 24.75 13.5 24.75C14.579 24.75 15.5865 24.2108 16.1852 23.313L21.0064 16.081C21.9804 14.6202 22.5 12.9037 22.5 11.1481C22.5 8.02361 20.8565 5.12693 18.1785 3.52017C16.7949 2.68996 15.2094 2.25 13.5951 2.25H13.4049Z" fill="#000D2B"/>
<path fill-rule="evenodd" clip-rule="evenodd" d="M13.5 9C12.2573 9 11.25 10.0074 11.25 11.25C11.25 12.4927 12.2573 13.5 13.5 13.5C14.7427 13.5 15.75 12.4927 15.75 11.25C15.75 10.0074 14.7427 9 13.5 9ZM9 11.25C9 8.76472 11.0147 6.75 13.5 6.75C15.9852 6.75 18 8.76472 18 11.25C18 13.7352 15.9852 15.75 13.5 15.75C11.0147 15.75 9 13.7352 9 11.25Z" fill="#EBEDF4"/>
<path d="M38.6317 18.5V8.7H40.4517V16.82H44.9737V18.5H38.6317ZM49.4381 18.64C48.7008 18.64 48.0428 18.4767 47.4641 18.15C46.8855 17.814 46.4281 17.3567 46.0921 16.778C45.7561 16.1993 45.5881 15.5413 45.5881 14.804C45.5881 14.0667 45.7561 13.4087 46.0921 12.83C46.4281 12.2513 46.8855 11.7987 47.4641 11.472C48.0428 11.136 48.7008 10.968 49.4381 10.968C50.1661 10.968 50.8195 11.136 51.3981 11.472C51.9768 11.7987 52.4295 12.2513 52.7561 12.83C53.0921 13.4087 53.2601 14.0667 53.2601 14.804C53.2601 15.5413 53.0921 16.1993 52.7561 16.778C52.4295 17.3567 51.9768 17.814 51.3981 18.15C50.8195 18.4767 50.1661 18.64 49.4381 18.64ZM49.4381 17.114C49.8395 17.114 50.1941 17.0113 50.5021 16.806C50.8195 16.6007 51.0668 16.3253 51.2441 15.98C51.4308 15.6347 51.5195 15.2427 51.5101 14.804C51.5195 14.356 51.4308 13.9593 51.2441 13.614C51.0668 13.2687 50.8195 12.998 50.5021 12.802C50.1941 12.5967 49.8395 12.494 49.4381 12.494C49.0368 12.494 48.6728 12.5967 48.3461 12.802C48.0288 12.998 47.7815 13.2733 47.6041 13.628C47.4268 13.9733 47.3381 14.3653 47.3381 14.804C47.3381 15.2427 47.4268 15.6347 47.6041 15.98C47.7815 16.3253 48.0288 16.6007 48.3461 16.806C48.6728 17.0113 49.0368 17.114 49.4381 17.114ZM57.5565 18.64C56.8658 18.64 56.2451 18.472 55.6945 18.136C55.1438 17.8 54.7098 17.3427 54.3925 16.764C54.0751 16.1853 53.9165 15.532 53.9165 14.804C53.9165 14.076 54.0751 13.4227 54.3925 12.844C54.7098 12.2653 55.1438 11.808 55.6945 11.472C56.2451 11.136 56.8658 10.968 57.5565 10.968C58.2191 10.968 58.8211 11.094 59.3625 11.346C59.9038 11.598 60.3238 11.948 60.6225 12.396L59.6705 13.544C59.5305 13.348 59.3531 13.1707 59.1385 13.012C58.9238 12.8533 58.6951 12.7273 58.4525 12.634C58.2098 12.5407 57.9671 12.494 57.7245 12.494C57.3138 12.494 56.9451 12.5967 56.6185 12.802C56.3011 12.998 56.0491 13.2733 55.8625 13.628C55.6758 13.9733 55.5825 14.3653 55.5825 14.804C55.5825 15.2427 55.6758 15.6347 55.8625 15.98C56.0585 16.3253 56.3198 16.6007 56.6465 16.806C56.9731 17.0113 57.3371 17.114 57.7385 17.114C57.9811 17.114 58.2145 17.0767 58.4385 17.002C58.6718 16.918 58.8911 16.8013 59.0965 16.652C59.3018 16.5027 59.4931 16.316 59.6705 16.092L60.6225 17.254C60.3051 17.6647 59.8665 18.0007 59.3065 18.262C58.7558 18.514 58.1725 18.64 57.5565 18.64ZM64.3173 18.64C63.7107 18.64 63.16 18.472 62.6653 18.136C62.1707 17.8 61.774 17.3427 61.4753 16.764C61.1767 16.1853 61.0273 15.5273 61.0273 14.79C61.0273 14.0527 61.1767 13.3947 61.4753 12.816C61.774 12.2373 62.18 11.7847 62.6933 11.458C63.2067 11.1313 63.7853 10.968 64.4293 10.968C64.8027 10.968 65.1433 11.024 65.4513 11.136C65.7593 11.2387 66.03 11.388 66.2633 11.584C66.4967 11.78 66.688 12.004 66.8373 12.256C66.996 12.508 67.1033 12.7787 67.1593 13.068L66.7813 12.97V11.122H68.5173V18.5H66.7673V16.736L67.1733 16.666C67.108 16.918 66.9867 17.1653 66.8093 17.408C66.6413 17.6413 66.4267 17.8513 66.1653 18.038C65.9133 18.2153 65.6287 18.36 65.3113 18.472C65.0033 18.584 64.672 18.64 64.3173 18.64ZM64.7933 17.114C65.1947 17.114 65.5493 17.016 65.8573 16.82C66.1653 16.624 66.4033 16.3533 66.5713 16.008C66.7487 15.6533 66.8373 15.2473 66.8373 14.79C66.8373 14.342 66.7487 13.9453 66.5713 13.6C66.4033 13.2547 66.1653 12.984 65.8573 12.788C65.5493 12.592 65.1947 12.494 64.7933 12.494C64.392 12.494 64.0373 12.592 63.7293 12.788C63.4307 12.984 63.1973 13.2547 63.0293 13.6C62.8613 13.9453 62.7773 14.342 62.7773 14.79C62.7773 15.2473 62.8613 15.6533 63.0293 16.008C63.1973 16.3533 63.4307 16.624 63.7293 16.82C64.0373 17.016 64.392 17.114 64.7933 17.114ZM70.9038 18.5V9.246H72.6258V18.5H70.9038ZM69.4478 12.718V11.122H74.2358V12.718H69.4478ZM75.3352 18.5V11.122H77.0572V18.5H75.3352ZM76.1752 9.554C75.8298 9.554 75.5592 9.47 75.3632 9.302C75.1765 9.12467 75.0832 8.87733 75.0832 8.56C75.0832 8.26133 75.1812 8.01867 75.3772 7.832C75.5732 7.64533 75.8392 7.552 76.1752 7.552C76.5298 7.552 76.8005 7.64067 76.9872 7.818C77.1832 7.986 77.2812 8.23333 77.2812 8.56C77.2812 8.84933 77.1832 9.08733 76.9872 9.274C76.7912 9.46067 76.5205 9.554 76.1752 9.554ZM82.2067 18.64C81.4694 18.64 80.8114 18.4767 80.2327 18.15C79.6541 17.814 79.1967 17.3567 78.8607 16.778C78.5247 16.1993 78.3567 15.5413 78.3567 14.804C78.3567 14.0667 78.5247 13.4087 78.8607 12.83C79.1967 12.2513 79.6541 11.7987 80.2327 11.472C80.8114 11.136 81.4694 10.968 82.2067 10.968C82.9347 10.968 83.5881 11.136 84.1667 11.472C84.7454 11.7987 85.1981 12.2513 85.5247 12.83C85.8607 13.4087 86.0287 14.0667 86.0287 14.804C86.0287 15.5413 85.8607 16.1993 85.5247 16.778C85.1981 17.3567 84.7454 17.814 84.1667 18.15C83.5881 18.4767 82.9347 18.64 82.2067 18.64ZM82.2067 17.114C82.6081 17.114 82.9627 17.0113 83.2707 16.806C83.5881 16.6007 83.8354 16.3253 84.0127 15.98C84.1994 15.6347 84.2881 15.2427 84.2787 14.804C84.2881 14.356 84.1994 13.9593 84.0127 13.614C83.8354 13.2687 83.5881 12.998 83.2707 12.802C82.9627 12.5967 82.6081 12.494 82.2067 12.494C81.8054 12.494 81.4414 12.5967 81.1147 12.802C80.7974 12.998 80.5501 13.2733 80.3727 13.628C80.1954 13.9733 80.1067 14.3653 80.1067 14.804C80.1067 15.2427 80.1954 15.6347 80.3727 15.98C80.5501 16.3253 80.7974 16.6007 81.1147 16.806C81.4414 17.0113 81.8054 17.114 82.2067 17.114ZM87.1611 18.5V11.122H88.8411L88.8691 12.634L88.5471 12.802C88.6404 12.466 88.8224 12.1627 89.0931 11.892C89.3637 11.612 89.6857 11.388 90.0591 11.22C90.4324 11.052 90.8151 10.968 91.2071 10.968C91.7671 10.968 92.2337 11.08 92.6071 11.304C92.9897 11.528 93.2744 11.864 93.4611 12.312C93.6571 12.76 93.7551 13.32 93.7551 13.992V18.5H92.0331V14.118C92.0331 13.7447 91.9817 13.4367 91.8791 13.194C91.7764 12.942 91.6177 12.76 91.4031 12.648C91.1884 12.5267 90.9271 12.4707 90.6191 12.48C90.3671 12.48 90.1337 12.522 89.9191 12.606C89.7137 12.6807 89.5317 12.7927 89.3731 12.942C89.2237 13.082 89.1024 13.2453 89.0091 13.432C88.9251 13.6187 88.8831 13.824 88.8831 14.048V18.5H88.0291C87.8611 18.5 87.7024 18.5 87.5531 18.5C87.4131 18.5 87.2824 18.5 87.1611 18.5Z" fill="black"/>
</svg>
