<svg width="274" height="268" viewBox="0 0 274 268" fill="none" xmlns="http://www.w3.org/2000/svg">
<circle cx="134" cy="134" r="134" fill="#F1F1F1"/>
<g filter="url(#filter0_dd_1586_1931)">
<circle cx="134" cy="134" r="114" fill="#F0F0F3"/>
</g>
<path d="M170.627 93.072H169.777V69.5906C169.777 65.9862 168.359 62.5294 165.834 59.9807C163.309 57.4319 159.885 56.0001 156.315 56H107.038C103.468 56 100.043 57.4319 97.5188 59.9806C94.9941 62.5293 93.5758 65.9861 93.5758 69.5906V198.409C93.5758 202.014 94.9941 205.471 97.5188 208.019C100.043 210.568 103.468 212 107.038 212H156.315C159.885 212 163.309 210.568 165.834 208.019C168.359 205.471 169.777 202.014 169.777 198.409V109.784H170.627L170.627 93.072Z" fill="#090814"/>
<path d="M156.86 59.5365H150.429C150.725 60.2688 150.838 61.0633 150.758 61.85C150.678 62.6367 150.407 63.3914 149.97 64.0478C149.533 64.7041 148.943 65.2418 148.252 65.6136C147.56 65.9853 146.789 66.1797 146.005 66.1795H117.773C116.99 66.1797 116.218 65.9853 115.527 65.6136C114.835 65.2418 114.245 64.7041 113.808 64.0478C113.371 63.3914 113.101 62.6367 113.021 61.85C112.941 61.0633 113.054 60.2688 113.35 59.5365H107.343C104.677 59.5365 102.12 60.6058 100.235 62.5091C98.3492 64.4125 97.29 66.994 97.29 69.6857V198.316C97.29 201.008 98.3492 203.59 100.234 205.493C102.12 207.396 104.677 208.465 107.343 208.465H156.859C159.525 208.465 162.082 207.396 163.967 205.493C165.853 203.589 166.912 201.008 166.912 198.316V69.6857C166.912 66.9942 165.853 64.4128 163.968 62.5095C162.083 60.6062 159.526 59.5368 156.86 59.5365Z" fill="white"/>
<path d="M149.251 92.233H103.322C102.896 92.233 102.55 92.5823 102.55 93.0131V117.443C102.55 117.874 102.896 118.223 103.322 118.223H149.251C149.678 118.223 150.024 117.874 150.024 117.443V93.0131C150.024 92.5823 149.678 92.233 149.251 92.233Z" fill="#000D2B"/>
<path d="M153.158 92.233H166.911V118.223H153.158C152.953 118.223 152.756 118.141 152.612 117.995C152.467 117.848 152.385 117.65 152.385 117.443V93.0131C152.385 92.8062 152.467 92.6078 152.612 92.4615C152.756 92.3152 152.953 92.233 153.158 92.233Z" fill="#000D2B"/>
<path d="M108.479 70.6754C109.644 70.6754 110.783 71.0242 111.752 71.6778C112.721 72.3313 113.476 73.2603 113.922 74.3471C114.368 75.4339 114.484 76.6298 114.257 77.7835C114.03 78.9373 113.469 79.9971 112.645 80.8289C111.821 81.6607 110.771 82.2272 109.628 82.4567C108.485 82.6862 107.301 82.5684 106.224 82.1182C105.147 81.668 104.227 80.9057 103.58 79.9276C102.933 78.9495 102.587 77.7995 102.587 76.6232C102.587 75.0457 103.208 73.5329 104.313 72.4175C105.418 71.3021 106.916 70.6754 108.479 70.6754Z" fill="#000D2B"/>
<path d="M148.368 73.6006H160.923C161.128 73.6006 161.325 73.6828 161.47 73.8291C161.615 73.9753 161.696 74.1737 161.696 74.3806V78.4758C161.696 78.6827 161.615 78.8811 161.47 79.0274C161.325 79.1737 161.128 79.2558 160.923 79.2558H148.368C148.163 79.2558 147.966 79.1737 147.821 79.0274C147.676 78.8811 147.595 78.6827 147.595 78.4758V74.3806C147.595 74.1737 147.676 73.9753 147.821 73.8291C147.966 73.6828 148.163 73.6006 148.368 73.6006Z" fill="#E6E6E6"/>
<path d="M103.36 127.813H115.722C115.927 127.813 116.124 127.895 116.269 128.041C116.414 128.188 116.495 128.386 116.495 128.593V132.493C116.495 132.7 116.414 132.898 116.269 133.045C116.124 133.191 115.927 133.273 115.722 133.273H103.36C103.155 133.273 102.958 133.191 102.813 133.045C102.668 132.898 102.587 132.7 102.587 132.493V128.593C102.587 128.386 102.668 128.188 102.813 128.041C102.958 127.895 103.155 127.813 103.36 127.813Z" fill="#000D2B"/>
<path d="M120.165 127.813H132.528C132.733 127.813 132.929 127.895 133.074 128.041C133.219 128.188 133.301 128.386 133.301 128.593V132.493C133.301 132.7 133.219 132.898 133.074 133.045C132.929 133.191 132.733 133.273 132.528 133.273H120.165C119.96 133.273 119.764 133.191 119.619 133.045C119.474 132.898 119.393 132.7 119.393 132.493V128.593C119.393 128.386 119.474 128.188 119.619 128.041C119.764 127.895 119.96 127.813 120.165 127.813Z" fill="#E6E6E6"/>
<path d="M136.971 127.813H149.333C149.538 127.813 149.735 127.895 149.88 128.041C150.025 128.188 150.106 128.386 150.106 128.593V132.493C150.106 132.7 150.025 132.898 149.88 133.045C149.735 133.191 149.538 133.273 149.333 133.273H136.971C136.766 133.273 136.569 133.191 136.424 133.045C136.279 132.898 136.198 132.7 136.198 132.493V128.593C136.198 128.386 136.279 128.188 136.424 128.041C136.569 127.895 136.766 127.813 136.971 127.813Z" fill="#E6E6E6"/>
<path d="M149.251 92.233H103.322C102.896 92.233 102.55 92.5823 102.55 93.0131V117.443C102.55 117.874 102.896 118.223 103.322 118.223H149.251C149.678 118.223 150.024 117.874 150.024 117.443V93.0131C150.024 92.5823 149.678 92.233 149.251 92.233Z" fill="#000D2B"/>
<path d="M103.322 92.233H149.251C149.456 92.233 149.652 92.3152 149.797 92.4615C149.942 92.6078 150.024 92.8062 150.024 93.0131V117.443C150.024 117.65 149.942 117.848 149.797 117.995C149.652 118.141 149.456 118.223 149.251 118.223H103.322C103.117 118.223 102.921 118.141 102.776 117.995C102.631 117.848 102.55 117.65 102.55 117.443V93.0131C102.55 92.8062 102.631 92.6078 102.776 92.4615C102.921 92.3152 103.117 92.233 103.322 92.233Z" fill="#000D2B"/>
<path d="M103.322 139.089H160.824C161.029 139.089 161.225 139.171 161.37 139.318C161.515 139.464 161.597 139.662 161.597 139.869V182.319C161.597 182.525 161.515 182.724 161.37 182.87C161.225 183.016 161.029 183.099 160.824 183.099H103.322C103.117 183.099 102.921 183.016 102.776 182.87C102.631 182.724 102.55 182.525 102.55 182.319V139.869C102.55 139.662 102.631 139.464 102.776 139.318C102.921 139.171 103.117 139.089 103.322 139.089Z" fill="#F2F2F2"/>
<path d="M103.36 188.656H119.586C119.791 188.656 119.987 188.738 120.132 188.884C120.277 189.031 120.358 189.229 120.358 189.436V200.746C120.358 200.953 120.277 201.152 120.132 201.298C119.987 201.444 119.791 201.526 119.586 201.526H103.36C103.155 201.526 102.958 201.444 102.813 201.298C102.668 201.152 102.587 200.953 102.587 200.746V189.436C102.587 189.229 102.668 189.031 102.813 188.884C102.958 188.738 103.155 188.656 103.36 188.656Z" fill="#F2F2F2"/>
<path d="M144.697 188.656H160.923C161.128 188.656 161.325 188.738 161.47 188.884C161.615 189.031 161.696 189.229 161.696 189.436V200.746C161.696 200.953 161.615 201.152 161.47 201.298C161.325 201.444 161.128 201.526 160.923 201.526H144.697C144.492 201.526 144.296 201.444 144.151 201.298C144.006 201.152 143.925 200.953 143.925 200.746V189.436C143.925 189.229 144.006 189.031 144.151 188.884C144.296 188.738 144.492 188.656 144.697 188.656Z" fill="#F2F2F2"/>
<path d="M124.222 188.656H140.255C140.459 188.656 140.656 188.738 140.801 188.884C140.946 189.031 141.027 189.229 141.027 189.436V200.746C141.027 200.953 140.946 201.152 140.801 201.298C140.656 201.444 140.459 201.526 140.255 201.526H124.222C124.017 201.526 123.82 201.444 123.675 201.298C123.53 201.152 123.449 200.953 123.449 200.746V189.436C123.449 189.229 123.53 189.031 123.675 188.884C123.82 188.738 124.017 188.656 124.222 188.656Z" fill="#F2F2F2"/>
<circle cx="267" cy="138" r="7" fill="#D02041"/>
<circle cx="59" cy="244" r="7" fill="#1A4742"/>
<circle cx="81" cy="11" r="7" fill="#004CFF"/>
<defs>
<filter id="filter0_dd_1586_1931" x="11.2843" y="11.2843" width="245.431" height="245.431" filterUnits="userSpaceOnUse" color-interpolation-filters="sRGB">
<feFlood flood-opacity="0" result="BackgroundImageFix"/>
<feColorMatrix in="SourceAlpha" type="matrix" values="0 0 0 0 0 0 0 0 0 0 0 0 0 0 0 0 0 0 127 0" result="hardAlpha"/>
<feOffset dx="2.17893" dy="2.17893"/>
<feGaussianBlur stdDeviation="3.2684"/>
<feColorMatrix type="matrix" values="0 0 0 0 0.682353 0 0 0 0 0.682353 0 0 0 0 0.752941 0 0 0 0.4 0"/>
<feBlend mode="normal" in2="BackgroundImageFix" result="effect1_dropShadow_1586_1931"/>
<feColorMatrix in="SourceAlpha" type="matrix" values="0 0 0 0 0 0 0 0 0 0 0 0 0 0 0 0 0 0 127 0" result="hardAlpha"/>
<feOffset dx="-2.17893" dy="-2.17893"/>
<feGaussianBlur stdDeviation="3.2684"/>
<feColorMatrix type="matrix" values="0 0 0 0 1 0 0 0 0 1 0 0 0 0 1 0 0 0 1 0"/>
<feBlend mode="normal" in2="effect1_dropShadow_1586_1931" result="effect2_dropShadow_1586_1931"/>
<feBlend mode="normal" in="SourceGraphic" in2="effect2_dropShadow_1586_1931" result="shape"/>
</filter>
</defs>
</svg>
