<svg width="65" height="64" viewBox="0 0 65 64" fill="none" xmlns="http://www.w3.org/2000/svg">
<rect width="64.9496" height="64" rx="32" fill="white"/>
<path d="M28.0902 37.0775H35.7057V30.731H33.8007V29.453C33.8007 29.092 33.9227 28.7915 34.1667 28.5515C34.4097 28.3115 34.7112 28.1915 35.0712 28.1915C35.4382 28.1915 35.7607 28.3135 36.0387 28.5575C36.3167 28.8005 36.4557 29.102 36.4557 29.462V30.731H37.6092V29.468C37.6092 28.773 37.3607 28.1945 36.8637 27.7325C36.3667 27.2705 35.7692 27.039 35.0712 27.038C34.4052 27.038 33.8347 27.2755 33.3597 27.7505C32.8847 28.2255 32.6472 28.7955 32.6472 29.4605V30.731H28.0902V37.0775ZM23.4747 47V17H41.5902V24.245H42.9747V29.774H41.5902V47H23.4747ZM24.9747 45.5H40.0902V18.5H24.9747V45.5Z" fill="#326A00"/>
</svg>
