<svg width="60" height="64" viewBox="0 0 60 64" fill="none" xmlns="http://www.w3.org/2000/svg">
<rect width="59.0904" height="64" rx="29.5452" fill="white"/>
<path d="M30.5452 18C31.3408 18 32.1039 18.3161 32.6665 18.8787C33.2291 19.4413 33.5452 20.2044 33.5452 21V29.7827C32.7144 30.1769 32.0186 30.8077 31.5452 31.596V21C31.5452 20.7348 31.4398 20.4804 31.2523 20.2929C31.0647 20.1054 30.8104 20 30.5452 20H20.5452C20.2799 20 20.0256 20.1054 19.8381 20.2929C19.6505 20.4804 19.5452 20.7348 19.5452 21V41.6667C19.5452 42.2187 19.9932 42.6667 20.5452 42.6667H28.2118V44C28.2118 44.2284 28.2341 44.4507 28.2785 44.6667H20.5452C20.1512 44.6667 19.7611 44.5891 19.3971 44.4383C19.0331 44.2875 18.7024 44.0666 18.4238 43.788C17.8612 43.2254 17.5452 42.4623 17.5452 41.6667V21C17.5452 20.2044 17.8612 19.4413 18.4238 18.8787C18.9865 18.3161 19.7495 18 20.5452 18H30.5452ZM32.2118 34C32.2111 33.5621 32.2969 33.1283 32.4641 32.7236C32.6314 32.3188 32.8769 31.9511 33.1866 31.6414C33.4962 31.3317 33.864 31.0862 34.2687 30.919C34.6735 30.7517 35.1072 30.666 35.5452 30.6667C36.4292 30.6667 37.2771 31.0179 37.9022 31.643C38.5273 32.2681 38.8785 33.1159 38.8785 34V35.3333H39.5452C40.0756 35.3333 40.5843 35.544 40.9594 35.9191C41.3345 36.2942 41.5452 36.8029 41.5452 37.3333V44C41.5452 44.5304 41.3345 45.0391 40.9594 45.4142C40.5843 45.7893 40.0756 46 39.5452 46H31.5452C31.0147 46 30.506 45.7893 30.131 45.4142C29.7559 45.0391 29.5452 44.5304 29.5452 44V37.3333C29.5452 36.8029 29.7559 36.2942 30.131 35.9191C30.506 35.544 31.0147 35.3333 31.5452 35.3333H32.2118V34ZM34.2118 34V35.3333H36.8785V34C36.8785 33.6464 36.738 33.3072 36.488 33.0572C36.2379 32.8071 35.8988 32.6667 35.5452 32.6667C35.1915 32.6667 34.8524 32.8071 34.6024 33.0572C34.3523 33.3072 34.2118 33.6464 34.2118 34ZM36.8785 40.6667C36.8785 40.313 36.738 39.9739 36.488 39.7239C36.2379 39.4738 35.8988 39.3333 35.5452 39.3333C35.1915 39.3333 34.8524 39.4738 34.6024 39.7239C34.3523 39.9739 34.2118 40.313 34.2118 40.6667C34.2118 41.0203 34.3523 41.3594 34.6024 41.6095C34.8524 41.8595 35.1915 42 35.5452 42C35.8988 42 36.2379 41.8595 36.488 41.6095C36.738 41.3594 36.8785 41.0203 36.8785 40.6667ZM28.2118 39.6653C28.2118 39.9303 28.1067 40.1858 27.9194 40.3733C27.7322 40.5608 27.4782 40.6663 27.2132 40.6667L23.8798 40.672C23.6146 40.6724 23.3601 40.5673 23.1723 40.3801C22.9845 40.1928 22.8789 39.9385 22.8785 39.6733C22.8781 39.4081 22.9832 39.1536 23.1704 38.9658C23.3577 38.778 23.6119 38.6724 23.8772 38.672L27.2105 38.6667C27.3418 38.6665 27.4719 38.6922 27.5933 38.7423C27.7147 38.7924 27.825 38.8659 27.918 38.9586C28.011 39.0514 28.0848 39.1615 28.1352 39.2828C28.1856 39.404 28.2117 39.534 28.2118 39.6653Z" fill="#1A96BC"/>
</svg>
