<svg width="24" height="24" viewBox="0 0 24 24" fill="none" xmlns="http://www.w3.org/2000/svg">
<path fill-rule="evenodd" clip-rule="evenodd" d="M15.0066 12.4204C14.8329 11.929 14.5111 11.5035 14.0855 11.2026C13.6599 10.9017 13.1515 10.7401 12.6303 10.7402V10.1102H11.3703V10.7402C10.702 10.7402 10.061 11.0057 9.58842 11.4783C9.11584 11.9509 8.85034 12.5918 8.85034 13.2602C8.85034 13.9285 9.11584 14.5695 9.58842 15.042C10.061 15.5146 10.702 15.7801 11.3703 15.7801V18.3001C10.8222 18.3001 10.3554 17.9504 10.1815 17.4603C10.1557 17.3801 10.1141 17.3059 10.0591 17.2421C10.0041 17.1783 9.93693 17.1261 9.86145 17.0887C9.78597 17.0513 9.70375 17.0295 9.61967 17.0244C9.53559 17.0193 9.45134 17.0312 9.37192 17.0592C9.29249 17.0873 9.21951 17.131 9.15727 17.1878C9.09503 17.2445 9.04481 17.3132 9.00957 17.3897C8.97433 17.4662 8.9548 17.549 8.95212 17.6332C8.94944 17.7174 8.96368 17.8013 8.99398 17.8799C9.16768 18.3713 9.48948 18.7968 9.91507 19.0977C10.3407 19.3986 10.8491 19.5601 11.3703 19.56V20.19H12.6303V19.56C13.2986 19.56 13.9396 19.2946 14.4121 18.822C14.8847 18.3494 15.1502 17.7084 15.1502 17.0401C15.1502 16.3718 14.8847 15.7308 14.4121 15.2582C13.9396 14.7856 13.2986 14.5201 12.6303 14.5201V12.0002C12.8908 12.0001 13.145 12.0809 13.3578 12.2312C13.5706 12.3816 13.7315 12.5943 13.8184 12.84C13.8741 12.9975 13.99 13.1265 14.1408 13.1986C14.2154 13.2343 14.2964 13.2549 14.379 13.2593C14.4616 13.2637 14.5443 13.2518 14.6223 13.2243C14.7003 13.1967 14.7721 13.1541 14.8337 13.0988C14.8952 13.0434 14.9452 12.9766 14.9809 12.9019C15.0166 12.8273 15.0372 12.7463 15.0416 12.6637C15.046 12.5811 15.0341 12.4984 15.0066 12.4204ZM11.3703 12.0002C11.0361 12.0002 10.7156 12.1329 10.4794 12.3692C10.2431 12.6055 10.1103 12.926 10.1103 13.2602C10.1103 13.5943 10.2431 13.9148 10.4794 14.1511C10.7156 14.3874 11.0361 14.5201 11.3703 14.5201V12.0002ZM12.6303 18.3001C12.9644 18.3001 13.2849 18.1673 13.5212 17.931C13.7575 17.6947 13.8902 17.3743 13.8902 17.0401C13.8902 16.7059 13.7575 16.3855 13.5212 16.1492C13.2849 15.9129 12.9644 15.7801 12.6303 15.7801V18.3001Z" fill="black"/>
<path fill-rule="evenodd" clip-rule="evenodd" d="M5.16666 2.3116C6.71265 1.55498 9.24898 0.6604 12.0247 0.6604C14.7425 0.6604 17.212 1.51781 18.7498 2.26435L18.8368 2.30656C19.3004 2.53587 19.6747 2.75259 19.938 2.92836L17.6108 6.33029C22.9758 11.815 27.1199 23.3381 12.0247 23.3381C-3.07043 23.3381 0.96212 12.0241 6.37372 6.33029L4.06166 2.92836C4.23995 2.81181 4.46611 2.67636 4.73575 2.53272C4.8693 2.46091 5.01294 2.38678 5.16666 2.3116ZM16.1152 6.28556L17.9781 3.56212C16.2456 3.68686 14.1843 4.09384 12.1998 4.66838C10.7824 5.07788 9.2074 5.01551 7.74898 4.7465C7.38145 4.67845 7.01645 4.59735 6.65469 4.50333L7.86427 6.2843C10.4567 7.20724 13.5222 7.20724 16.1152 6.28556ZM7.13663 7.35717C10.17 8.52895 13.8158 8.52895 16.8492 7.35591C18.115 8.69093 19.1742 10.2077 19.9915 11.8559C20.8433 13.5934 21.307 15.3303 21.2314 16.8272C21.1583 18.2717 20.59 19.5059 19.2922 20.4231C17.9397 21.3788 15.6648 22.0781 12.0241 22.0781C8.3796 22.0781 6.094 21.3908 4.72882 20.4458C3.42159 19.5405 2.84767 18.3227 2.76641 16.8977C2.68136 15.4172 3.13495 13.6892 3.98354 11.9397C4.79308 10.2715 5.92264 8.66566 7.13663 7.35717ZM6.41215 3.12743C6.91614 3.27737 7.44281 3.40778 7.97704 3.50669C9.33151 3.75616 10.6898 3.7927 11.8489 3.45692C13.1997 3.06324 14.5736 2.75374 15.9628 2.5302C14.8036 2.18119 13.4479 1.92038 12.0241 1.92038C9.85377 1.92038 7.82962 2.52579 6.41215 3.12743Z" fill="black"/>
</svg>
