<svg width="83" height="111" viewBox="0 0 83 111" fill="none" xmlns="http://www.w3.org/2000/svg">
<path d="M13.6772 92.0728H15.2582V97.7745C15.2582 98.3995 15.1104 98.9492 14.815 99.4236C14.5224 99.8981 14.1104 100.269 13.5792 100.536C13.0479 100.8 12.4272 100.932 11.717 100.932C11.0039 100.932 10.3817 100.8 9.85049 100.536C9.31924 100.269 8.90731 99.8981 8.6147 99.4236C8.32209 98.9492 8.17578 98.3995 8.17578 97.7745V92.0728H9.75674V97.6424C9.75674 98.006 9.83629 98.3299 9.99538 98.614C10.1573 98.8981 10.3846 99.1211 10.6772 99.283C10.9698 99.4421 11.3164 99.5216 11.717 99.5216C12.1175 99.5216 12.4641 99.4421 12.7567 99.283C13.0522 99.1211 13.2795 98.8981 13.4386 98.614C13.5977 98.3299 13.6772 98.006 13.6772 97.6424V92.0728ZM22.0817 95.9847L20.6754 96.1381C20.6357 95.9961 20.566 95.8625 20.4666 95.7375C20.37 95.6125 20.2393 95.5117 20.0746 95.435C19.9098 95.3583 19.7081 95.3199 19.4695 95.3199C19.1484 95.3199 18.8785 95.3895 18.6598 95.5287C18.4439 95.6679 18.3374 95.8483 18.3402 96.0699C18.3374 96.2603 18.407 96.4151 18.549 96.5344C18.6939 96.6537 18.9325 96.7518 19.2649 96.8285L20.3814 97.0671C21.0007 97.2006 21.4609 97.4123 21.7621 97.702C22.066 97.9918 22.2195 98.3711 22.2223 98.8398C22.2195 99.2518 22.0987 99.6154 21.8601 99.9307C21.6243 100.243 21.2962 100.488 20.8757 100.664C20.4553 100.84 19.9723 100.928 19.4268 100.928C18.6257 100.928 17.9808 100.76 17.4922 100.425C17.0035 100.087 16.7124 99.6168 16.6186 99.0145L18.1229 98.8697C18.191 99.1651 18.3359 99.3881 18.5575 99.5387C18.7791 99.6893 19.0675 99.7645 19.4226 99.7645C19.7891 99.7645 20.0831 99.6893 20.3047 99.5387C20.5291 99.3881 20.6413 99.202 20.6413 98.9804C20.6413 98.7929 20.5689 98.6381 20.424 98.516C20.282 98.3938 20.0604 98.3 19.7592 98.2347L18.6428 98.0003C18.0149 97.8697 17.5504 97.6495 17.2493 97.3398C16.9482 97.0273 16.799 96.6324 16.8018 96.1552C16.799 95.7518 16.9084 95.4023 17.13 95.1069C17.3544 94.8086 17.6655 94.5785 18.0632 94.4165C18.4638 94.2518 18.9254 94.1694 19.4482 94.1694C20.2152 94.1694 20.8189 94.3327 21.2592 94.6594C21.7024 94.9861 21.9766 95.4279 22.0817 95.9847ZM26.392 100.928C25.7358 100.928 25.169 100.792 24.6918 100.519C24.2173 100.243 23.8523 99.854 23.5966 99.3512C23.3409 98.8455 23.2131 98.2503 23.2131 97.5657C23.2131 96.8924 23.3409 96.3015 23.5966 95.7929C23.8551 95.2816 24.2159 94.8839 24.679 94.5998C25.142 94.3128 25.6861 94.1694 26.3111 94.1694C26.7145 94.1694 27.0952 94.2347 27.4531 94.3654C27.8139 94.4932 28.1321 94.6921 28.4077 94.962C28.6861 95.2319 28.9048 95.5756 29.0639 95.9932C29.223 96.408 29.3026 96.9023 29.3026 97.4762V97.9492H23.9375V96.9094H27.8239C27.821 96.614 27.7571 96.3512 27.6321 96.1211C27.5071 95.8881 27.3324 95.7049 27.108 95.5714C26.8864 95.4378 26.6278 95.3711 26.3324 95.3711C26.017 95.3711 25.7401 95.4478 25.5014 95.6012C25.2628 95.7518 25.0767 95.9506 24.9432 96.1978C24.8125 96.4421 24.7457 96.7106 24.7429 97.0032V97.9108C24.7429 98.2915 24.8125 98.6182 24.9517 98.891C25.0909 99.1608 25.2855 99.3682 25.5355 99.5131C25.7855 99.6552 26.0781 99.7262 26.4134 99.7262C26.6378 99.7262 26.8409 99.6949 27.0227 99.6324C27.2045 99.5671 27.3622 99.4719 27.4957 99.3469C27.6293 99.2219 27.7301 99.0671 27.7983 98.8824L29.2386 99.0444C29.1477 99.425 28.9744 99.7574 28.7187 100.042C28.4659 100.323 28.142 100.542 27.7472 100.698C27.3523 100.851 26.9006 100.928 26.392 100.928ZM30.6076 100.8V94.2546H32.1033V95.3455H32.1715C32.2908 94.9677 32.4954 94.6765 32.7852 94.4719C33.0778 94.2645 33.4116 94.1608 33.7866 94.1608C33.8718 94.1608 33.967 94.1651 34.0721 94.1736C34.18 94.1793 34.2695 94.1893 34.3406 94.2035V95.6225C34.2752 95.5998 34.1715 95.5799 34.0295 95.5628C33.8903 95.5429 33.7553 95.533 33.6246 95.533C33.3434 95.533 33.0906 95.5941 32.8661 95.7162C32.6445 95.8356 32.4698 96.0018 32.342 96.2148C32.2141 96.4279 32.1502 96.6736 32.1502 96.952V100.8H30.6076ZM38.4102 100.8V92.0728H41.6829C42.3533 92.0728 42.9158 92.1978 43.3704 92.4478C43.8278 92.6978 44.1729 93.0415 44.4059 93.479C44.6417 93.9137 44.7596 94.408 44.7596 94.962C44.7596 95.5216 44.6417 96.0188 44.4059 96.4535C44.1701 96.8881 43.8221 97.2304 43.3619 97.4804C42.9016 97.7276 42.3349 97.8512 41.6616 97.8512H39.4925V96.5515H41.4485C41.8406 96.5515 42.1616 96.4833 42.4116 96.3469C42.6616 96.2106 42.8462 96.0231 42.9656 95.7844C43.0877 95.5458 43.1488 95.2716 43.1488 94.962C43.1488 94.6523 43.0877 94.3796 42.9656 94.1438C42.8462 93.908 42.6602 93.7248 42.4073 93.5941C42.1573 93.4606 41.8349 93.3938 41.44 93.3938H39.9911V100.8H38.4102ZM46.0646 100.8V94.2546H47.5604V95.3455H47.6285C47.7479 94.9677 47.9524 94.6765 48.2422 94.4719C48.5348 94.2645 48.8686 94.1608 49.2436 94.1608C49.3288 94.1608 49.424 94.1651 49.5291 94.1736C49.6371 94.1793 49.7266 94.1893 49.7976 94.2035V95.6225C49.7322 95.5998 49.6285 95.5799 49.4865 95.5628C49.3473 95.5429 49.2124 95.533 49.0817 95.533C48.8004 95.533 48.5476 95.5941 48.3232 95.7162C48.1016 95.8356 47.9268 96.0018 47.799 96.2148C47.6712 96.4279 47.6072 96.6736 47.6072 96.952V100.8H46.0646ZM53.408 100.928C52.7688 100.928 52.2148 100.787 51.7461 100.506C51.2773 100.225 50.9137 99.8313 50.6552 99.3256C50.3995 98.8199 50.2717 98.229 50.2717 97.5529C50.2717 96.8768 50.3995 96.2844 50.6552 95.7759C50.9137 95.2674 51.2773 94.8725 51.7461 94.5912C52.2148 94.31 52.7688 94.1694 53.408 94.1694C54.0472 94.1694 54.6012 94.31 55.07 94.5912C55.5387 94.8725 55.9009 95.2674 56.1566 95.7759C56.4151 96.2844 56.5444 96.8768 56.5444 97.5529C56.5444 98.229 56.4151 98.8199 56.1566 99.3256C55.9009 99.8313 55.5387 100.225 55.07 100.506C54.6012 100.787 54.0472 100.928 53.408 100.928ZM53.4165 99.6921C53.7631 99.6921 54.0529 99.5969 54.2859 99.4066C54.5188 99.2134 54.6921 98.9549 54.8058 98.631C54.9222 98.3072 54.9805 97.9464 54.9805 97.5486C54.9805 97.1481 54.9222 96.7858 54.8058 96.462C54.6921 96.1353 54.5188 95.8753 54.2859 95.6822C54.0529 95.489 53.7631 95.3924 53.4165 95.3924C53.0614 95.3924 52.766 95.489 52.5302 95.6822C52.2972 95.8753 52.1225 96.1353 52.006 96.462C51.8924 96.7858 51.8356 97.1481 51.8356 97.5486C51.8356 97.9464 51.8924 98.3072 52.006 98.631C52.1225 98.9549 52.2972 99.2134 52.5302 99.4066C52.766 99.5969 53.0614 99.6921 53.4165 99.6921ZM61.169 94.2546V95.4478H57.2997V94.2546H61.169ZM58.267 100.8V93.6367C58.267 93.1964 58.358 92.8299 58.5398 92.5373C58.7244 92.2447 58.9716 92.0259 59.2812 91.881C59.5909 91.7361 59.9347 91.6637 60.3125 91.6637C60.5795 91.6637 60.8168 91.685 61.0241 91.7276C61.2315 91.7702 61.3849 91.8086 61.4844 91.8427L61.1776 93.0358C61.1122 93.016 61.0298 92.9961 60.9304 92.9762C60.831 92.9535 60.7202 92.9421 60.598 92.9421C60.3111 92.9421 60.108 93.0117 59.9886 93.1509C59.8722 93.2873 59.8139 93.4833 59.8139 93.739V100.8H58.267ZM62.3771 100.8V94.2546H63.9197V100.8H62.3771ZM63.1527 93.3256C62.9084 93.3256 62.6982 93.2447 62.522 93.0827C62.3459 92.9179 62.2578 92.7205 62.2578 92.4904C62.2578 92.2574 62.3459 92.06 62.522 91.8981C62.6982 91.7333 62.9084 91.6509 63.1527 91.6509C63.3999 91.6509 63.6101 91.7333 63.7834 91.8981C63.9595 92.06 64.0476 92.2574 64.0476 92.4904C64.0476 92.7205 63.9595 92.9179 63.7834 93.0827C63.6101 93.2447 63.3999 93.3256 63.1527 93.3256ZM67.0487 92.0728V100.8H65.506V92.0728H67.0487ZM71.5327 100.928C70.8764 100.928 70.3097 100.792 69.8324 100.519C69.358 100.243 68.9929 99.854 68.7372 99.3512C68.4815 98.8455 68.3537 98.2503 68.3537 97.5657C68.3537 96.8924 68.4815 96.3015 68.7372 95.7929C68.9957 95.2816 69.3565 94.8839 69.8196 94.5998C70.2827 94.3128 70.8267 94.1694 71.4517 94.1694C71.8551 94.1694 72.2358 94.2347 72.5938 94.3654C72.9545 94.4932 73.2727 94.6921 73.5483 94.962C73.8267 95.2319 74.0455 95.5756 74.2045 95.9932C74.3636 96.408 74.4432 96.9023 74.4432 97.4762V97.9492H69.0781V96.9094H72.9645C72.9616 96.614 72.8977 96.3512 72.7727 96.1211C72.6477 95.8881 72.473 95.7049 72.2486 95.5714C72.027 95.4378 71.7685 95.3711 71.473 95.3711C71.1577 95.3711 70.8807 95.4478 70.642 95.6012C70.4034 95.7518 70.2173 95.9506 70.0838 96.1978C69.9531 96.4421 69.8864 96.7106 69.8835 97.0032V97.9108C69.8835 98.2915 69.9531 98.6182 70.0923 98.891C70.2315 99.1608 70.4261 99.3682 70.6761 99.5131C70.9261 99.6552 71.2188 99.7262 71.554 99.7262C71.7784 99.7262 71.9815 99.6949 72.1634 99.6324C72.3452 99.5671 72.5028 99.4719 72.6364 99.3469C72.7699 99.2219 72.8707 99.0671 72.9389 98.8824L74.3793 99.0444C74.2884 99.425 74.1151 99.7574 73.8594 100.042C73.6065 100.323 73.2827 100.542 72.8878 100.698C72.4929 100.851 72.0412 100.928 71.5327 100.928Z" fill="#000D2B"/>
<rect x="5.22351" width="73.1294" height="73.1294" rx="10" fill="#000D2B"/>
<g clip-path="url(#clip0_2114_536)">
<path d="M41.7882 25.5647C43.2469 25.5647 44.6458 26.1442 45.6773 27.1756C46.7087 28.2071 47.2882 29.606 47.2882 31.0647C47.2882 32.5234 46.7087 33.9223 45.6773 34.9538C44.6458 35.9852 43.2469 36.5647 41.7882 36.5647C40.3295 36.5647 38.9306 35.9852 37.8991 34.9538C36.8677 33.9223 36.2882 32.5234 36.2882 31.0647C36.2882 29.606 36.8677 28.2071 37.8991 27.1756C38.9306 26.1442 40.3295 25.5647 41.7882 25.5647ZM41.7882 39.3147C47.8657 39.3147 52.7882 41.7759 52.7882 44.8147V47.5647H30.7882V44.8147C30.7882 41.7759 35.7107 39.3147 41.7882 39.3147Z" fill="white"/>
</g>
<defs>
<clipPath id="clip0_2114_536">
<rect width="33" height="33" fill="white" transform="translate(25.2882 20.0647)"/>
</clipPath>
</defs>
</svg>
