<svg width="65" height="64" viewBox="0 0 65 64" fill="none" xmlns="http://www.w3.org/2000/svg">
<rect width="64.9496" height="64" rx="32" fill="white"/>
<g clip-path="url(#clip0_2114_634)">
<mask id="mask0_2114_634" style="mask-type:luminance" maskUnits="userSpaceOnUse" x="12" y="12" width="41" height="40">
<path d="M12.4747 12H52.4747V52H12.4747V12Z" fill="white"/>
</mask>
<g mask="url(#mask0_2114_634)">
<path d="M36.2365 21.96C34.8198 19.1267 31.5165 17.5634 28.2331 18.3817C24.4498 19.325 22.1281 23.0734 23.0465 26.7534C23.3081 27.8084 23.8098 28.7433 24.4798 29.5183L19.9648 36.8017C19.7889 37.0857 19.6718 37.4021 19.6203 37.7321C19.5687 38.0622 19.5839 38.3992 19.6648 38.7234L20.2648 41.1234C20.2912 41.2305 20.359 41.3227 20.4534 41.3799C20.5478 41.4371 20.6609 41.4545 20.7681 41.4283L23.3148 40.7933C23.9467 40.6355 24.4921 40.2372 24.8348 39.6834L29.6415 31.925" stroke="#0EBA93" stroke-width="2" stroke-linecap="round"/>
<path d="M30.9234 25.7757C31.8692 25.5399 32.4501 24.603 32.2207 23.683C31.9913 22.7631 31.0386 22.2085 30.0928 22.4443C29.147 22.6802 28.5662 23.6171 28.7955 24.537C29.0249 25.4569 29.9776 26.0115 30.9234 25.7757Z" stroke="#0EBA93" stroke-width="2"/>
<path d="M42.1581 38.0166C45.9414 37.0733 48.2647 33.325 47.3464 29.645C46.4297 25.9633 42.6181 23.745 38.8364 24.6883C35.0531 25.6316 32.7314 29.38 33.6481 33.06C33.9114 34.115 34.4114 35.05 35.0814 35.825L30.5681 43.1083C30.3922 43.3923 30.275 43.7087 30.2235 44.0388C30.172 44.3688 30.1871 44.7059 30.2681 45.03L30.8664 47.43C30.8795 47.4832 30.9029 47.5333 30.9354 47.5774C30.9679 47.6216 31.0087 47.6589 31.0556 47.6872C31.1025 47.7156 31.1546 47.7344 31.2088 47.7425C31.2629 47.7507 31.3182 47.7482 31.3714 47.735L33.9164 47.1C34.5483 46.9421 35.0937 46.5438 35.4364 45.99L40.2447 38.2316C40.8769 38.2472 41.5153 38.1755 42.1597 38.0166H42.1581Z" stroke="#0EBA93" stroke-width="2"/>
<path d="M41.5617 31.9725C42.5076 31.7366 43.0884 30.7997 42.859 29.8798C42.6296 28.9599 41.677 28.4053 40.7311 28.6411C39.7853 28.8769 39.2045 29.8139 39.4339 30.7338C39.6632 31.6537 40.6159 32.2083 41.5617 31.9725Z" stroke="#0EBA93" stroke-width="2"/>
</g>
</g>
<defs>
<clipPath id="clip0_2114_634">
<rect width="40" height="40" fill="white" transform="translate(12.4747 12)"/>
</clipPath>
</defs>
</svg>
