<svg width="125" height="85" viewBox="0 0 125 85" fill="none" xmlns="http://www.w3.org/2000/svg">
<g filter="url(#filter0_dd_1586_488)">
<rect x="19" y="12" width="86" height="45" rx="10" fill="#001C27"/>
<g clip-path="url(#clip0_1586_488)">
<path d="M62.7383 48.5175L62.7246 48.52L62.6362 48.5636L62.6113 48.5686L62.5939 48.5636L62.5055 48.52C62.4922 48.5159 62.4822 48.518 62.4756 48.5263L62.4706 48.5387L62.4495 49.0716L62.4557 49.0965L62.4681 49.1127L62.5976 49.2048L62.6163 49.2098L62.6312 49.2048L62.7607 49.1127L62.7757 49.0928L62.7807 49.0716L62.7595 48.54C62.7562 48.5267 62.7491 48.5192 62.7383 48.5175ZM63.0683 48.3768L63.0521 48.3793L62.8217 48.4951L62.8093 48.5076L62.8056 48.5213L62.828 49.0567L62.8342 49.0716L62.8442 49.0803L63.0944 49.1961C63.1102 49.2003 63.1222 49.197 63.1305 49.1862L63.1355 49.1687L63.0932 48.4042C63.089 48.3893 63.0807 48.3802 63.0683 48.3768ZM62.178 48.3793C62.1725 48.376 62.166 48.3749 62.1597 48.3763C62.1535 48.3777 62.148 48.3815 62.1444 48.3868L62.1369 48.4042L62.0946 49.1687C62.0954 49.1837 62.1025 49.1936 62.1158 49.1986L62.1344 49.1961L62.3847 49.0803L62.3972 49.0704L62.4021 49.0567L62.4233 48.5213L62.4196 48.5063L62.4071 48.4939L62.178 48.3793Z" fill="white"/>
<path d="M64.4902 35.7452C64.7952 35.7453 65.0895 35.8572 65.3174 36.0599C65.5453 36.2625 65.6909 36.5418 65.7266 36.8446L65.7353 36.9903V44.4609C65.735 44.7783 65.6134 45.0835 65.3956 45.3143C65.1777 45.5451 64.88 45.6839 64.5632 45.7025C64.2464 45.7211 63.9344 45.618 63.6911 45.4144C63.4477 45.2107 63.2913 44.9217 63.2538 44.6066L63.2451 44.4609V36.9903C63.2451 36.6601 63.3763 36.3434 63.6098 36.1099C63.8433 35.8764 64.16 35.7452 64.4902 35.7452ZM68.2255 41.3482C68.5557 41.3482 68.8724 41.4794 69.1059 41.7129C69.3394 41.9464 69.4706 42.2631 69.4706 42.5933V44.4609C69.4706 44.7912 69.3394 45.1079 69.1059 45.3414C68.8724 45.5749 68.5557 45.706 68.2255 45.706C67.8953 45.706 67.5786 45.5749 67.3451 45.3414C67.1116 45.1079 66.9804 44.7912 66.9804 44.4609V42.5933C66.9804 42.2631 67.1116 41.9464 67.3451 41.7129C67.5786 41.4794 67.8953 41.3482 68.2255 41.3482ZM71.9608 35.7452C72.2658 35.7453 72.5601 35.8572 72.788 36.0599C73.0159 36.2625 73.1615 36.5418 73.1972 36.8446L73.2059 36.9903V44.4609C73.2056 44.7783 73.0841 45.0835 72.8662 45.3143C72.6483 45.5451 72.3506 45.6839 72.0338 45.7025C71.717 45.7211 71.405 45.618 71.1617 45.4144C70.9183 45.2107 70.7619 44.9217 70.7244 44.6066L70.7157 44.4609V36.9903C70.7157 36.6601 70.8469 36.3434 71.0804 36.1099C71.3139 35.8764 71.6306 35.7452 71.9608 35.7452ZM58.2647 35.7452C58.9251 35.7452 59.5585 36.0076 60.0255 36.4746C60.4925 36.9416 60.7549 37.575 60.7549 38.2354V43.2158C60.7549 43.8763 60.4925 44.5097 60.0255 44.9767C59.5585 45.4437 58.9251 45.706 58.2647 45.706H53.2843C52.6238 45.706 51.9904 45.4437 51.5234 44.9767C51.0564 44.5097 50.7941 43.8763 50.7941 43.2158V38.2354C50.7941 37.575 51.0564 36.9416 51.5234 36.4746C51.9904 36.0076 52.6238 35.7452 53.2843 35.7452H58.2647ZM68.2255 35.7452C68.5305 35.7453 68.8248 35.8572 69.0527 36.0599C69.2806 36.2625 69.4262 36.5418 69.4619 36.8446L69.4706 36.9903V38.858C69.4703 39.1753 69.3487 39.4806 69.1309 39.7113C68.913 39.9421 68.6153 40.081 68.2985 40.0996C67.9817 40.1182 67.6697 40.0151 67.4264 39.8114C67.183 39.6077 67.0266 39.3188 66.9891 39.0037L66.9804 38.858V36.9903C66.9804 36.6601 67.1116 36.3434 67.3451 36.1099C67.5786 35.8764 67.8953 35.7452 68.2255 35.7452ZM58.2647 23.2942C58.9251 23.2942 59.5585 23.5565 60.0255 24.0236C60.4925 24.4906 60.7549 25.124 60.7549 25.7844V30.7648C60.7549 31.4253 60.4925 32.0586 60.0255 32.5256C59.5585 32.9927 58.9251 33.255 58.2647 33.255H53.2843C52.6238 33.255 51.9904 32.9927 51.5234 32.5256C51.0564 32.0586 50.7941 31.4253 50.7941 30.7648V25.7844C50.7941 25.124 51.0564 24.4906 51.5234 24.0236C51.9904 23.5565 52.6238 23.2942 53.2843 23.2942H58.2647ZM70.7157 23.2942C71.3762 23.2942 72.0096 23.5565 72.4766 24.0236C72.9436 24.4906 73.2059 25.124 73.2059 25.7844V30.7648C73.2059 31.4253 72.9436 32.0586 72.4766 32.5256C72.0096 32.9927 71.3762 33.255 70.7157 33.255H65.7353C65.0749 33.255 64.4415 32.9927 63.9745 32.5256C63.5075 32.0586 63.2451 31.4253 63.2451 30.7648V25.7844C63.2451 25.124 63.5075 24.4906 63.9745 24.0236C64.4415 23.5565 65.0749 23.2942 65.7353 23.2942H70.7157Z" fill="white"/>
</g>
</g>
<defs>
<filter id="filter0_dd_1586_488" x="-1" y="0" width="126" height="85" filterUnits="userSpaceOnUse" color-interpolation-filters="sRGB">
<feFlood flood-opacity="0" result="BackgroundImageFix"/>
<feColorMatrix in="SourceAlpha" type="matrix" values="0 0 0 0 0 0 0 0 0 0 0 0 0 0 0 0 0 0 127 0" result="hardAlpha"/>
<feMorphology radius="4" operator="erode" in="SourceAlpha" result="effect1_dropShadow_1586_488"/>
<feOffset dy="8"/>
<feGaussianBlur stdDeviation="12"/>
<feColorMatrix type="matrix" values="0 0 0 0 0.0941176 0 0 0 0 0.152941 0 0 0 0 0.294118 0 0 0 0.08 0"/>
<feBlend mode="normal" in2="BackgroundImageFix" result="effect1_dropShadow_1586_488"/>
<feColorMatrix in="SourceAlpha" type="matrix" values="0 0 0 0 0 0 0 0 0 0 0 0 0 0 0 0 0 0 127 0" result="hardAlpha"/>
<feMorphology radius="6" operator="erode" in="SourceAlpha" result="effect2_dropShadow_1586_488"/>
<feOffset dy="6"/>
<feGaussianBlur stdDeviation="6"/>
<feColorMatrix type="matrix" values="0 0 0 0 0.0941176 0 0 0 0 0.152941 0 0 0 0 0.294118 0 0 0 0.02 0"/>
<feBlend mode="normal" in2="effect1_dropShadow_1586_488" result="effect2_dropShadow_1586_488"/>
<feBlend mode="normal" in="SourceGraphic" in2="effect2_dropShadow_1586_488" result="shape"/>
</filter>
<clipPath id="clip0_1586_488">
<rect width="29.8825" height="29.8825" fill="white" transform="translate(47.0587 19.5588)"/>
</clipPath>
</defs>
</svg>
