<svg width="65" height="64" viewBox="0 0 65 64" fill="none" xmlns="http://www.w3.org/2000/svg">
<rect width="64.9496" height="64" rx="32" fill="white"/>
<path d="M32.4747 19.25C34.1491 19.25 35.807 19.5798 37.3539 20.2205C38.9008 20.8613 40.3064 21.8004 41.4903 22.9844C42.6743 24.1683 43.6134 25.5739 44.2542 27.1208C44.8949 28.6677 45.2247 30.3256 45.2247 32C45.2247 33.6744 44.8949 35.3323 44.2542 36.8792C43.6134 38.4261 42.6743 39.8317 41.4903 41.0156C40.3064 42.1996 38.9008 43.1387 37.3539 43.7795C35.807 44.4202 34.1491 44.75 32.4747 44.75C29.0932 44.75 25.8502 43.4067 23.4591 41.0156C21.068 38.6245 19.7247 35.3815 19.7247 32C19.7247 28.6185 21.068 25.3755 23.4591 22.9844C25.8502 20.5933 29.0932 19.25 32.4747 19.25Z" fill="url(#paint0_linear_2114_582)"/>
<path d="M31.4144 25.625C31.663 25.6249 31.9039 25.7121 32.0949 25.8713C32.2859 26.0305 32.4151 26.2516 32.4599 26.4962L32.4769 26.6875V32H35.6622C35.9277 31.9995 36.1838 32.0984 36.38 32.2773C36.5762 32.4562 36.6984 32.7021 36.7223 32.9665C36.7463 33.2309 36.6704 33.4947 36.5096 33.706C36.3488 33.9173 36.1147 34.0607 35.8535 34.108L35.6622 34.125H31.4122C31.1639 34.1246 30.9236 34.0372 30.733 33.8781C30.5424 33.7189 30.4136 33.498 30.3689 33.2538L30.3497 33.0625V26.6875C30.3497 26.4057 30.4617 26.1355 30.6609 25.9362C30.8602 25.7369 31.1326 25.625 31.4144 25.625Z" fill="url(#paint1_linear_2114_582)"/>
<defs>
<linearGradient id="paint0_linear_2114_582" x1="23.9747" y1="17.8326" x2="36.7247" y2="46.1674" gradientUnits="userSpaceOnUse">
<stop stop-color="#1EC8B0"/>
<stop offset="1" stop-color="#2764E7"/>
</linearGradient>
<linearGradient id="paint1_linear_2114_582" x1="30.9107" y1="26.9255" x2="28.7156" y2="33.6936" gradientUnits="userSpaceOnUse">
<stop stop-color="white"/>
<stop offset="1" stop-color="#D1D1FF"/>
</linearGradient>
</defs>
</svg>
