<svg width="112" height="24" viewBox="0 0 112 24" fill="none" xmlns="http://www.w3.org/2000/svg">
<g clip-path="url(#clip0_1608_889)">
<path d="M22.5 16.725L20.625 14.85C19.65 13.875 18 13.875 17.025 14.85L16.425 15.45C16.05 15.825 15.375 15.825 14.925 15.45L11.775 12.3L8.625 9.15005C8.4 8.92505 8.325 8.70005 8.325 8.40005C8.325 8.10005 8.4 7.87505 8.625 7.65005L9.3 7.05005C10.275 6.07505 10.275 4.42505 9.3 3.45005L7.275 1.50005C6.375 0.525049 4.65 0.525049 3.675 1.50005L3.075 2.10005C1.575 3.60005 0.75 5.55005 0.75 7.72505C0.75 9.90005 1.575 11.85 3.075 13.35L6.9 17.175L10.725 21C12.225 22.5 14.25 23.325 16.35 23.325C18.45 23.325 20.475 22.5 21.975 21L22.65 20.4C23.1 19.95 23.4 19.275 23.4 18.6C23.25 17.85 23.025 17.175 22.5 16.725Z" fill="#000D2B"/>
<path d="M12 3.75C11.625 3.75 11.25 4.125 11.25 4.5C11.25 4.875 11.625 5.25 12 5.25C13.875 5.25 15.525 6 16.8 7.2C18 8.475 18.75 10.125 18.75 12C18.75 12.375 19.125 12.75 19.5 12.75C19.875 12.75 20.25 12.375 20.25 12C20.25 9.75 19.35 7.65 17.85 6.15C16.35 4.65 14.25 3.75 12 3.75Z" fill="#EBEDF4"/>
<path d="M20.85 3.15C19.35 1.65 17.25 0.75 15 0.75C14.625 0.75 14.25 1.125 14.25 1.5C14.25 1.875 14.625 2.25 15 2.25C16.875 2.25 18.525 3 19.8 4.2C21 5.475 21.75 7.125 21.75 9C21.75 9.375 22.125 9.75 22.5 9.75C22.875 9.75 23.25 9.375 23.25 9C23.25 6.75 22.35 4.65 20.85 3.15Z" fill="#EBEDF4"/>
</g>
<path d="M39.7445 17.14C39.0351 17.14 38.3865 17.0187 37.7985 16.776C37.2105 16.5333 36.7018 16.188 36.2725 15.74C35.8431 15.2827 35.5071 14.746 35.2645 14.13C35.0311 13.5047 34.9145 12.8233 34.9145 12.086C34.9145 11.3767 35.0405 10.7187 35.2925 10.112C35.5445 9.50533 35.8945 8.97333 36.3425 8.516C36.7905 8.05867 37.3131 7.704 37.9105 7.452C38.5078 7.2 39.1565 7.074 39.8565 7.074C40.3325 7.074 40.7945 7.144 41.2425 7.284C41.6905 7.424 42.1011 7.62 42.4745 7.872C42.8478 8.11467 43.1605 8.39933 43.4125 8.726L42.2505 10C42.0078 9.748 41.7558 9.538 41.4945 9.37C41.2425 9.19267 40.9765 9.062 40.6965 8.978C40.4258 8.88467 40.1458 8.838 39.8565 8.838C39.4271 8.838 39.0211 8.91733 38.6385 9.076C38.2651 9.23467 37.9385 9.45867 37.6585 9.748C37.3878 10.0373 37.1731 10.3827 37.0145 10.784C36.8558 11.176 36.7765 11.6147 36.7765 12.1C36.7765 12.5947 36.8511 13.0427 37.0005 13.444C37.1591 13.8453 37.3785 14.1907 37.6585 14.48C37.9478 14.7693 38.2885 14.9933 38.6805 15.152C39.0818 15.3013 39.5205 15.376 39.9965 15.376C40.3045 15.376 40.6031 15.334 40.8925 15.25C41.1818 15.166 41.4478 15.0493 41.6905 14.9C41.9425 14.7413 42.1711 14.5593 42.3765 14.354L43.2725 15.796C43.0485 16.048 42.7498 16.2767 42.3765 16.482C42.0031 16.6873 41.5831 16.8507 41.1165 16.972C40.6591 17.084 40.2018 17.14 39.7445 17.14ZM47.8148 17.14C47.0774 17.14 46.4194 16.9767 45.8408 16.65C45.2621 16.314 44.8048 15.8567 44.4688 15.278C44.1328 14.6993 43.9648 14.0413 43.9648 13.304C43.9648 12.5667 44.1328 11.9087 44.4688 11.33C44.8048 10.7513 45.2621 10.2987 45.8408 9.972C46.4194 9.636 47.0774 9.468 47.8148 9.468C48.5428 9.468 49.1961 9.636 49.7748 9.972C50.3534 10.2987 50.8061 10.7513 51.1328 11.33C51.4688 11.9087 51.6368 12.5667 51.6368 13.304C51.6368 14.0413 51.4688 14.6993 51.1328 15.278C50.8061 15.8567 50.3534 16.314 49.7748 16.65C49.1961 16.9767 48.5428 17.14 47.8148 17.14ZM47.8148 15.614C48.2161 15.614 48.5708 15.5113 48.8788 15.306C49.1961 15.1007 49.4434 14.8253 49.6208 14.48C49.8074 14.1347 49.8961 13.7427 49.8868 13.304C49.8961 12.856 49.8074 12.4593 49.6208 12.114C49.4434 11.7687 49.1961 11.498 48.8788 11.302C48.5708 11.0967 48.2161 10.994 47.8148 10.994C47.4134 10.994 47.0494 11.0967 46.7228 11.302C46.4054 11.498 46.1581 11.7733 45.9808 12.128C45.8034 12.4733 45.7148 12.8653 45.7148 13.304C45.7148 13.7427 45.8034 14.1347 45.9808 14.48C46.1581 14.8253 46.4054 15.1007 46.7228 15.306C47.0494 15.5113 47.4134 15.614 47.8148 15.614ZM52.7691 17V9.622H54.4491L54.4771 11.134L54.1551 11.302C54.2484 10.966 54.4304 10.6627 54.7011 10.392C54.9718 10.112 55.2938 9.888 55.6671 9.72C56.0404 9.552 56.4231 9.468 56.8151 9.468C57.3751 9.468 57.8418 9.58 58.2151 9.804C58.5978 10.028 58.8824 10.364 59.0691 10.812C59.2651 11.26 59.3631 11.82 59.3631 12.492V17H57.6411V12.618C57.6411 12.2447 57.5898 11.9367 57.4871 11.694C57.3844 11.442 57.2258 11.26 57.0111 11.148C56.7964 11.0267 56.5351 10.9707 56.2271 10.98C55.9751 10.98 55.7418 11.022 55.5271 11.106C55.3218 11.1807 55.1398 11.2927 54.9811 11.442C54.8318 11.582 54.7104 11.7453 54.6171 11.932C54.5331 12.1187 54.4911 12.324 54.4911 12.548V17H53.6371C53.4691 17 53.3104 17 53.1611 17C53.0211 17 52.8904 17 52.7691 17ZM61.6904 17V7.746H63.4124V17H61.6904ZM60.2344 11.218V9.622H65.0224V11.218H60.2344ZM68.6434 17.14C68.0367 17.14 67.4861 16.972 66.9914 16.636C66.4967 16.3 66.1001 15.8427 65.8014 15.264C65.5027 14.6853 65.3534 14.0273 65.3534 13.29C65.3534 12.5527 65.5027 11.8947 65.8014 11.316C66.1001 10.7373 66.5061 10.2847 67.0194 9.958C67.5327 9.63133 68.1114 9.468 68.7554 9.468C69.1287 9.468 69.4694 9.524 69.7774 9.636C70.0854 9.73867 70.3561 9.888 70.5894 10.084C70.8227 10.28 71.0141 10.504 71.1634 10.756C71.3221 11.008 71.4294 11.2787 71.4854 11.568L71.1074 11.47V9.622H72.8434V17H71.0934V15.236L71.4994 15.166C71.4341 15.418 71.3127 15.6653 71.1354 15.908C70.9674 16.1413 70.7527 16.3513 70.4914 16.538C70.2394 16.7153 69.9547 16.86 69.6374 16.972C69.3294 17.084 68.9981 17.14 68.6434 17.14ZM69.1194 15.614C69.5207 15.614 69.8754 15.516 70.1834 15.32C70.4914 15.124 70.7294 14.8533 70.8974 14.508C71.0747 14.1533 71.1634 13.7473 71.1634 13.29C71.1634 12.842 71.0747 12.4453 70.8974 12.1C70.7294 11.7547 70.4914 11.484 70.1834 11.288C69.8754 11.092 69.5207 10.994 69.1194 10.994C68.7181 10.994 68.3634 11.092 68.0554 11.288C67.7567 11.484 67.5234 11.7547 67.3554 12.1C67.1874 12.4453 67.1034 12.842 67.1034 13.29C67.1034 13.7473 67.1874 14.1533 67.3554 14.508C67.5234 14.8533 67.7567 15.124 68.0554 15.32C68.3634 15.516 68.7181 15.614 69.1194 15.614ZM77.5958 17.14C76.9052 17.14 76.2845 16.972 75.7338 16.636C75.1832 16.3 74.7492 15.8427 74.4318 15.264C74.1145 14.6853 73.9558 14.032 73.9558 13.304C73.9558 12.576 74.1145 11.9227 74.4318 11.344C74.7492 10.7653 75.1832 10.308 75.7338 9.972C76.2845 9.636 76.9052 9.468 77.5958 9.468C78.2585 9.468 78.8605 9.594 79.4018 9.846C79.9432 10.098 80.3632 10.448 80.6618 10.896L79.7098 12.044C79.5698 11.848 79.3925 11.6707 79.1778 11.512C78.9632 11.3533 78.7345 11.2273 78.4918 11.134C78.2492 11.0407 78.0065 10.994 77.7638 10.994C77.3532 10.994 76.9845 11.0967 76.6578 11.302C76.3405 11.498 76.0885 11.7733 75.9018 12.128C75.7152 12.4733 75.6218 12.8653 75.6218 13.304C75.6218 13.7427 75.7152 14.1347 75.9018 14.48C76.0978 14.8253 76.3592 15.1007 76.6858 15.306C77.0125 15.5113 77.3765 15.614 77.7778 15.614C78.0205 15.614 78.2538 15.5767 78.4778 15.502C78.7112 15.418 78.9305 15.3013 79.1358 15.152C79.3412 15.0027 79.5325 14.816 79.7098 14.592L80.6618 15.754C80.3445 16.1647 79.9058 16.5007 79.3458 16.762C78.7952 17.014 78.2118 17.14 77.5958 17.14ZM82.3687 17V7.746H84.0907V17H82.3687ZM80.9127 11.218V9.622H85.7007V11.218H80.9127ZM90.6193 17V7.2H92.2573L97.9413 14.858L97.6333 14.914C97.596 14.6527 97.5633 14.3867 97.5353 14.116C97.5073 13.836 97.4793 13.5467 97.4513 13.248C97.4327 12.9493 97.414 12.6367 97.3953 12.31C97.386 11.9833 97.3767 11.6427 97.3673 11.288C97.358 10.924 97.3533 10.5413 97.3533 10.14V7.2H99.1593V17H97.4933L91.7813 9.454L92.1453 9.356C92.192 9.87867 92.2293 10.3267 92.2573 10.7C92.2947 11.064 92.3227 11.3813 92.3413 11.652C92.36 11.9133 92.374 12.1327 92.3833 12.31C92.402 12.4873 92.4113 12.6507 92.4113 12.8C92.4207 12.94 92.4253 13.0753 92.4253 13.206V17H90.6193ZM104.447 17.14C103.71 17.14 103.052 16.9767 102.473 16.65C101.895 16.314 101.437 15.8567 101.101 15.278C100.765 14.6993 100.597 14.0413 100.597 13.304C100.597 12.5667 100.765 11.9087 101.101 11.33C101.437 10.7513 101.895 10.2987 102.473 9.972C103.052 9.636 103.71 9.468 104.447 9.468C105.175 9.468 105.829 9.636 106.407 9.972C106.986 10.2987 107.439 10.7513 107.765 11.33C108.101 11.9087 108.269 12.5667 108.269 13.304C108.269 14.0413 108.101 14.6993 107.765 15.278C107.439 15.8567 106.986 16.314 106.407 16.65C105.829 16.9767 105.175 17.14 104.447 17.14ZM104.447 15.614C104.849 15.614 105.203 15.5113 105.511 15.306C105.829 15.1007 106.076 14.8253 106.253 14.48C106.44 14.1347 106.529 13.7427 106.519 13.304C106.529 12.856 106.44 12.4593 106.253 12.114C106.076 11.7687 105.829 11.498 105.511 11.302C105.203 11.0967 104.849 10.994 104.447 10.994C104.046 10.994 103.682 11.0967 103.355 11.302C103.038 11.498 102.791 11.7733 102.613 12.128C102.436 12.4733 102.347 12.8653 102.347 13.304C102.347 13.7427 102.436 14.1347 102.613 14.48C102.791 14.8253 103.038 15.1007 103.355 15.306C103.682 15.5113 104.046 15.614 104.447 15.614ZM110.06 17.154C109.724 17.154 109.462 17.056 109.276 16.86C109.098 16.664 109.01 16.3887 109.01 16.034C109.01 15.7073 109.103 15.4413 109.29 15.236C109.486 15.0213 109.742 14.914 110.06 14.914C110.396 14.914 110.652 15.012 110.83 15.208C111.016 15.3947 111.11 15.67 111.11 16.034C111.11 16.3607 111.012 16.6313 110.816 16.846C110.629 17.0513 110.377 17.154 110.06 17.154Z" fill="black"/>
<defs>
<clipPath id="clip0_1608_889">
<rect width="24" height="24" fill="white"/>
</clipPath>
</defs>
</svg>
