<svg width="26" height="26" viewBox="0 0 26 26" fill="none" xmlns="http://www.w3.org/2000/svg">
<path d="M3.25 10.8333C3.25 8.79017 3.25 7.76967 3.88483 7.13483C4.51967 6.5 5.54017 6.5 7.58333 6.5H18.4167C20.4598 6.5 21.4803 6.5 22.1152 7.13483C22.75 7.76967 22.75 8.79017 22.75 10.8333H3.25Z" fill="black" fill-opacity="0.25"/>
<path d="M20.5833 6.5H5.41667C4.22005 6.5 3.25 7.47005 3.25 8.66667V20.5833C3.25 21.78 4.22005 22.75 5.41667 22.75H20.5833C21.78 22.75 22.75 21.78 22.75 20.5833V8.66667C22.75 7.47005 21.78 6.5 20.5833 6.5Z" stroke="black" stroke-width="0.72"/>
<path d="M7.58325 3.25V6.5M18.4166 3.25V6.5" stroke="black" stroke-width="0.72" stroke-linecap="round"/>
<path d="M11.3749 13H8.12492C7.82576 13 7.58325 13.2425 7.58325 13.5417V14.625C7.58325 14.9242 7.82576 15.1667 8.12492 15.1667H11.3749C11.6741 15.1667 11.9166 14.9242 11.9166 14.625V13.5417C11.9166 13.2425 11.6741 13 11.3749 13Z" fill="black"/>
<path d="M11.3749 17.3333H8.12492C7.82576 17.3333 7.58325 17.5758 7.58325 17.8749V18.9583C7.58325 19.2574 7.82576 19.4999 8.12492 19.4999H11.3749C11.6741 19.4999 11.9166 19.2574 11.9166 18.9583V17.8749C11.9166 17.5758 11.6741 17.3333 11.3749 17.3333Z" fill="black"/>
<path d="M17.8749 13H14.6249C14.3258 13 14.0833 13.2425 14.0833 13.5417V14.625C14.0833 14.9242 14.3258 15.1667 14.6249 15.1667H17.8749C18.1741 15.1667 18.4166 14.9242 18.4166 14.625V13.5417C18.4166 13.2425 18.1741 13 17.8749 13Z" fill="black"/>
<path d="M17.8749 17.3333H14.6249C14.3258 17.3333 14.0833 17.5758 14.0833 17.8749V18.9583C14.0833 19.2574 14.3258 19.4999 14.6249 19.4999H17.8749C18.1741 19.4999 18.4166 19.2574 18.4166 18.9583V17.8749C18.4166 17.5758 18.1741 17.3333 17.8749 17.3333Z" fill="black"/>
</svg>
