<svg width="24" height="24" viewBox="0 0 24 24" fill="none" xmlns="http://www.w3.org/2000/svg">
<path d="M7 20V18.2222C7 17.2792 7.38631 16.3749 8.07394 15.7081C8.76158 15.0413 9.69421 14.6667 10.6667 14.6667H14.3333C15.3058 14.6667 16.2384 15.0413 16.9261 15.7081C17.6137 16.3749 18 17.2792 18 18.2222V20M8.83333 7.55556C8.83333 8.49855 9.21964 9.40292 9.90728 10.0697C10.5949 10.7365 11.5275 11.1111 12.5 11.1111C13.4725 11.1111 14.4051 10.7365 15.0927 10.0697C15.7804 9.40292 16.1667 8.49855 16.1667 7.55556C16.1667 6.61256 15.7804 5.70819 15.0927 5.0414C14.4051 4.3746 13.4725 4 12.5 4C11.5275 4 10.5949 4.3746 9.90728 5.0414C9.21964 5.70819 8.83333 6.61256 8.83333 7.55556Z" stroke="black" stroke-width="1.5" stroke-linecap="round" stroke-linejoin="round"/>
</svg>
