<svg width="65" height="64" viewBox="0 0 65 64" fill="none" xmlns="http://www.w3.org/2000/svg">
<rect width="64.9496" height="64" rx="32" fill="white"/>
<path d="M38.5898 17.5824C37.5298 17.1074 34.4373 16.8049 32.4748 16.8049C30.5148 16.8049 27.4173 17.1074 26.3598 17.5824C25.3223 18.0474 24.9048 18.9674 24.9048 19.8299V44.1674C24.9048 45.0324 25.3223 45.9499 26.3598 46.4149C27.4173 46.8899 30.5148 47.1924 32.4748 47.1924C34.4373 47.1924 37.5298 46.8899 38.5898 46.4149C39.6273 45.9499 40.0448 45.0299 40.0448 44.1674V19.8324C40.0448 18.9674 39.6273 18.0499 38.5898 17.5824Z" fill="#006CA2"/>
<path d="M33.8672 18.6875H31.0847C31.0158 18.6875 30.9496 18.6601 30.9009 18.6113C30.8521 18.5626 30.8247 18.4964 30.8247 18.4275C30.8247 18.3585 30.8521 18.2924 30.9009 18.2436C30.9496 18.1949 31.0158 18.1675 31.0847 18.1675H33.8672C34.0122 18.1675 34.1272 18.2825 34.1272 18.4275C34.1272 18.57 34.0122 18.6875 33.8672 18.6875Z" fill="white"/>
<path d="M37.4472 19.12C37.722 19.12 37.9447 18.8973 37.9447 18.6225C37.9447 18.3477 37.722 18.125 37.4472 18.125C37.1724 18.125 36.9497 18.3477 36.9497 18.6225C36.9497 18.8973 37.1724 19.12 37.4472 19.12Z" fill="white"/>
<path d="M26.2772 21.6775H38.6697V42.19H26.2772V21.6775Z" fill="url(#paint0_linear_2114_593)"/>
<path d="M28.5672 43.2326V43.4076L28.1847 43.1301L28.5672 42.8501V43.0251H28.7872C29.2172 43.0251 29.4947 43.1526 29.4947 43.5226C29.4947 43.8951 29.2172 44.0226 28.7872 44.0226H28.2922V43.8151H28.7872C29.1522 43.8151 29.2872 43.7351 29.2872 43.5226C29.2872 43.3126 29.1547 43.2326 28.7872 43.2326H28.5672ZM33.2022 43.9526H31.7697V43.2301L32.4872 42.9276L33.2047 43.2301V43.9526H33.2022ZM31.9772 43.7426H32.9947V43.3651L32.4872 43.1501L31.9772 43.3651V43.7426ZM36.6122 43.9526H35.4122V43.1926H36.6122V43.9526ZM35.6222 43.7426H36.4072V43.4001H35.6222V43.7426Z" fill="white"/>
<path d="M36.9522 43.5252H36.7447V43.0752H35.8572V42.8677H36.9522V43.5252Z" fill="white"/>
<defs>
<linearGradient id="paint0_linear_2114_593" x1="32.4747" y1="42.1917" x2="32.4747" y2="21.6785" gradientUnits="userSpaceOnUse">
<stop stop-color="white"/>
<stop offset="1" stop-color="#00A0D6"/>
</linearGradient>
</defs>
</svg>
