<svg width="82" height="118" viewBox="0 0 82 118" fill="none" xmlns="http://www.w3.org/2000/svg">
<path d="M11.4272 100.748V92.0208H14.6999C15.3704 92.0208 15.9329 92.1373 16.3874 92.3702C16.8448 92.6032 17.19 92.9299 17.4229 93.3503C17.6587 93.7679 17.7766 94.2551 17.7766 94.812C17.7766 95.3716 17.6573 95.8574 17.4187 96.2694C17.1829 96.6784 16.8349 96.9952 16.3746 97.2196C15.9144 97.4412 15.3491 97.552 14.6786 97.552H12.3477V96.2395H14.4656C14.8576 96.2395 15.1786 96.1855 15.4286 96.0776C15.6786 95.9668 15.8633 95.8063 15.9826 95.5961C16.1048 95.383 16.1658 95.1216 16.1658 94.812C16.1658 94.5023 16.1048 94.2381 15.9826 94.0194C15.8604 93.7978 15.6744 93.6301 15.4244 93.5165C15.1744 93.4 14.8519 93.3418 14.457 93.3418H13.0082V100.748H11.4272ZM15.9357 96.7935L18.0962 100.748H16.332L14.2099 96.7935H15.9357ZM21.9677 100.876C21.3114 100.876 20.7447 100.74 20.2674 100.467C19.793 100.191 19.4279 99.802 19.1722 99.2992C18.9165 98.7935 18.7887 98.1983 18.7887 97.5137C18.7887 96.8404 18.9165 96.2495 19.1722 95.7409C19.4308 95.2296 19.7915 94.8319 20.2546 94.5478C20.7177 94.2608 21.2617 94.1174 21.8867 94.1174C22.2901 94.1174 22.6708 94.1827 23.0288 94.3134C23.3896 94.4412 23.7077 94.6401 23.9833 94.91C24.2617 95.1799 24.4805 95.5236 24.6396 95.9412C24.7987 96.356 24.8782 96.8503 24.8782 97.4242V97.8972H19.5131V96.8574H23.3995C23.3967 96.562 23.3327 96.2992 23.2077 96.0691C23.0827 95.8361 22.908 95.6529 22.6836 95.5194C22.462 95.3858 22.2035 95.3191 21.908 95.3191C21.5927 95.3191 21.3157 95.3958 21.0771 95.5492C20.8384 95.6998 20.6523 95.8986 20.5188 96.1458C20.3881 96.3901 20.3214 96.6586 20.3185 96.9512V97.8588C20.3185 98.2395 20.3881 98.5662 20.5273 98.839C20.6665 99.1088 20.8612 99.3162 21.1112 99.4611C21.3612 99.6032 21.6538 99.6742 21.989 99.6742C22.2134 99.6742 22.4165 99.6429 22.5984 99.5804C22.7802 99.5151 22.9379 99.4199 23.0714 99.2949C23.2049 99.1699 23.3058 99.0151 23.3739 98.8304L24.8143 98.9924C24.7234 99.373 24.5501 99.7054 24.2944 99.9895C24.0415 100.271 23.7177 100.49 23.3228 100.646C22.9279 100.799 22.4762 100.876 21.9677 100.876ZM26.1832 100.748V94.2026H27.6577V95.3148H27.7344C27.8707 94.9398 28.0966 94.6472 28.4119 94.437C28.7273 94.2239 29.1037 94.1174 29.5412 94.1174C29.9844 94.1174 30.358 94.2253 30.6619 94.4412C30.9688 94.6543 31.1847 94.9455 31.3097 95.3148H31.3778C31.5227 94.9512 31.767 94.6614 32.1108 94.4455C32.4574 94.2267 32.8679 94.1174 33.3423 94.1174C33.9446 94.1174 34.4361 94.3077 34.8168 94.6884C35.1974 95.0691 35.3878 95.6245 35.3878 96.3546V100.748H33.8409V96.5932C33.8409 96.187 33.733 95.8901 33.517 95.7026C33.3011 95.5123 33.0369 95.4171 32.7244 95.4171C32.3523 95.4171 32.0611 95.5336 31.8509 95.7665C31.6435 95.9966 31.5398 96.2963 31.5398 96.6657V100.748H30.027V96.5293C30.027 96.1912 29.9247 95.9213 29.7202 95.7196C29.5185 95.5179 29.2543 95.4171 28.9276 95.4171C28.706 95.4171 28.5043 95.4739 28.3224 95.5875C28.1406 95.6983 27.9957 95.856 27.8878 96.0605C27.7798 96.2623 27.7259 96.498 27.7259 96.7679V100.748H26.1832ZM38.8363 100.88C38.4215 100.88 38.0479 100.806 37.7156 100.659C37.386 100.508 37.1246 100.286 36.9315 99.9938C36.7411 99.7012 36.646 99.3404 36.646 98.9114C36.646 98.5421 36.7141 98.2367 36.8505 97.9952C36.9869 97.7537 37.1729 97.5605 37.4087 97.4157C37.6445 97.2708 37.9102 97.1614 38.2056 97.0875C38.5039 97.0108 38.8121 96.9554 39.1303 96.9213C39.5138 96.8816 39.8249 96.8461 40.0636 96.8148C40.3022 96.7807 40.4755 96.7296 40.5835 96.6614C40.6942 96.5904 40.7496 96.481 40.7496 96.3333V96.3077C40.7496 95.9867 40.6545 95.7381 40.4641 95.562C40.2738 95.3858 39.9996 95.2978 39.6417 95.2978C39.2638 95.2978 38.9641 95.3801 38.7425 95.5449C38.5238 95.7097 38.3761 95.9043 38.2994 96.1287L36.859 95.9242C36.9727 95.5265 37.1602 95.1941 37.4215 94.927C37.6829 94.6571 38.0025 94.4554 38.3803 94.3219C38.7582 94.1855 39.1758 94.1174 39.6332 94.1174C39.9485 94.1174 40.2624 94.1543 40.5749 94.2282C40.8874 94.302 41.1729 94.4242 41.4315 94.5946C41.69 94.7623 41.8974 94.9909 42.0536 95.2807C42.2127 95.5705 42.2923 95.9327 42.2923 96.3674V100.748H40.8093V99.8489H40.7582C40.6644 100.031 40.5323 100.201 40.3619 100.36C40.1942 100.517 39.9826 100.643 39.7269 100.74C39.4741 100.833 39.1772 100.88 38.8363 100.88ZM39.2369 99.7466C39.5465 99.7466 39.815 99.6855 40.0423 99.5634C40.2695 99.4384 40.4442 99.2736 40.5664 99.0691C40.6914 98.8645 40.7539 98.6415 40.7539 98.4V97.6287C40.7056 97.6685 40.6232 97.7054 40.5067 97.7395C40.3931 97.7736 40.2653 97.8034 40.1232 97.829C39.9812 97.8546 39.8406 97.8773 39.7013 97.8972C39.5621 97.9171 39.4414 97.9341 39.3391 97.9483C39.109 97.9796 38.9031 98.0307 38.7212 98.1017C38.5394 98.1728 38.396 98.2722 38.2908 98.4C38.1857 98.525 38.1332 98.687 38.1332 98.8858C38.1332 99.1699 38.2369 99.3844 38.4442 99.5293C38.6516 99.6742 38.9158 99.7466 39.2369 99.7466ZM43.8434 100.748V94.2026H45.386V100.748H43.8434ZM44.619 93.2736C44.3746 93.2736 44.1644 93.1926 43.9883 93.0307C43.8121 92.8659 43.7241 92.6685 43.7241 92.4384C43.7241 92.2054 43.8121 92.008 43.9883 91.8461C44.1644 91.6813 44.3746 91.5989 44.619 91.5989C44.8661 91.5989 45.0763 91.6813 45.2496 91.8461C45.4258 92.008 45.5138 92.2054 45.5138 92.4384C45.5138 92.6685 45.4258 92.8659 45.2496 93.0307C45.0763 93.1926 44.8661 93.2736 44.619 93.2736ZM48.5149 96.9128V100.748H46.9723V94.2026H48.4467V95.3148H48.5234C48.674 94.9483 48.9141 94.6571 49.2436 94.4412C49.576 94.2253 49.9865 94.1174 50.4751 94.1174C50.9268 94.1174 51.3203 94.214 51.6555 94.4071C51.9936 94.6003 52.255 94.8801 52.4396 95.2466C52.6271 95.6131 52.7195 96.0577 52.7166 96.5804V100.748H51.174V96.8191C51.174 96.3816 51.0604 96.0392 50.8331 95.7921C50.6087 95.5449 50.2976 95.4213 49.8999 95.4213C49.63 95.4213 49.3899 95.481 49.1797 95.6003C48.9723 95.7168 48.8089 95.8858 48.6896 96.1074C48.5732 96.329 48.5149 96.5975 48.5149 96.9128ZM54.2848 100.748V94.2026H55.8274V100.748H54.2848ZM55.0604 93.2736C54.8161 93.2736 54.6058 93.1926 54.4297 93.0307C54.2536 92.8659 54.1655 92.6685 54.1655 92.4384C54.1655 92.2054 54.2536 92.008 54.4297 91.8461C54.6058 91.6813 54.8161 91.5989 55.0604 91.5989C55.3075 91.5989 55.5178 91.6813 55.6911 91.8461C55.8672 92.008 55.9553 92.2054 55.9553 92.4384C55.9553 92.6685 55.8672 92.8659 55.6911 93.0307C55.5178 93.1926 55.3075 93.2736 55.0604 93.2736ZM58.9563 96.9128V100.748H57.4137V94.2026H58.8881V95.3148H58.9648C59.1154 94.9483 59.3555 94.6571 59.685 94.4412C60.0174 94.2253 60.4279 94.1174 60.9165 94.1174C61.3683 94.1174 61.7617 94.214 62.0969 94.4071C62.435 94.6003 62.6964 94.8801 62.881 95.2466C63.0685 95.6131 63.1609 96.0577 63.158 96.5804V100.748H61.6154V96.8191C61.6154 96.3816 61.5018 96.0392 61.2745 95.7921C61.0501 95.5449 60.739 95.4213 60.3413 95.4213C60.0714 95.4213 59.8313 95.481 59.6211 95.6003C59.4137 95.7168 59.2504 95.8858 59.131 96.1074C59.0146 96.329 58.9563 96.5975 58.9563 96.9128ZM67.5728 103.339C67.0188 103.339 66.543 103.264 66.1452 103.113C65.7475 102.965 65.4279 102.767 65.1864 102.517C64.945 102.267 64.7773 101.99 64.6836 101.686L66.0728 101.349C66.1353 101.477 66.2262 101.603 66.3455 101.728C66.4648 101.856 66.6254 101.961 66.8271 102.044C67.0316 102.129 67.2887 102.171 67.5984 102.171C68.0359 102.171 68.3981 102.065 68.685 101.852C68.9719 101.642 69.1154 101.295 69.1154 100.812V99.5719H69.0387C68.9592 99.731 68.8427 99.8944 68.6893 100.062C68.5387 100.23 68.3384 100.37 68.0884 100.484C67.8413 100.597 67.5302 100.654 67.1552 100.654C66.6523 100.654 66.1964 100.536 65.7873 100.301C65.381 100.062 65.0572 99.7069 64.8157 99.2353C64.5771 98.7608 64.4577 98.1671 64.4577 97.454C64.4577 96.7353 64.5771 96.1287 64.8157 95.6344C65.0572 95.1373 65.3825 94.7608 65.7915 94.5051C66.2006 94.2466 66.6566 94.1174 67.1594 94.1174C67.543 94.1174 67.8583 94.1827 68.1055 94.3134C68.3555 94.4412 68.5543 94.5961 68.7021 94.7779C68.8498 94.9569 68.962 95.1259 69.0387 95.285H69.1239V94.2026H70.6452V100.855C70.6452 101.414 70.5117 101.877 70.2447 102.244C69.9776 102.61 69.6126 102.884 69.1495 103.066C68.6864 103.248 68.1609 103.339 67.5728 103.339ZM67.5856 99.4441C67.9123 99.4441 68.1907 99.3645 68.4208 99.2054C68.6509 99.0463 68.8256 98.8176 68.945 98.5194C69.0643 98.2211 69.1239 97.8631 69.1239 97.4455C69.1239 97.0336 69.0643 96.6728 68.945 96.3631C68.8285 96.0534 68.6552 95.8134 68.4251 95.6429C68.1978 95.4696 67.918 95.383 67.5856 95.383C67.2418 95.383 66.9549 95.4725 66.7248 95.6515C66.4947 95.8304 66.3214 96.0762 66.2049 96.3887C66.0884 96.6983 66.0302 97.0506 66.0302 97.4455C66.0302 97.8461 66.0884 98.1969 66.2049 98.498C66.3242 98.7963 66.4989 99.0293 66.729 99.1969C66.962 99.3617 67.2475 99.4441 67.5856 99.4441ZM21.6737 115.748H18.7163V107.021H21.7333C22.5998 107.021 23.3441 107.195 23.9663 107.545C24.5913 107.892 25.0714 108.39 25.4066 109.041C25.7418 109.691 25.9094 110.47 25.9094 111.376C25.9094 112.285 25.7404 113.066 25.4023 113.72C25.0671 114.373 24.5827 114.874 23.9492 115.224C23.3185 115.573 22.56 115.748 21.6737 115.748ZM20.2972 114.38H21.5969C22.2049 114.38 22.712 114.269 23.1183 114.048C23.5245 113.823 23.8299 113.49 24.0344 113.046C24.239 112.6 24.3413 112.044 24.3413 111.376C24.3413 110.708 24.239 110.154 24.0344 109.714C23.8299 109.271 23.5273 108.94 23.1268 108.721C22.729 108.499 22.2347 108.389 21.6438 108.389H20.2972V114.38ZM30.2411 115.876C29.5849 115.876 29.0181 115.74 28.5408 115.467C28.0664 115.191 27.7013 114.802 27.4457 114.299C27.19 113.794 27.0621 113.198 27.0621 112.514C27.0621 111.84 27.19 111.249 27.4457 110.741C27.7042 110.23 28.065 109.832 28.5281 109.548C28.9911 109.261 29.5352 109.117 30.1602 109.117C30.5636 109.117 30.9442 109.183 31.3022 109.313C31.663 109.441 31.9812 109.64 32.2567 109.91C32.5352 110.18 32.7539 110.524 32.913 110.941C33.0721 111.356 33.1516 111.85 33.1516 112.424V112.897H27.7866V111.857H31.6729C31.6701 111.562 31.6062 111.299 31.4812 111.069C31.3562 110.836 31.1815 110.653 30.957 110.519C30.7354 110.386 30.4769 110.319 30.1815 110.319C29.8661 110.319 29.5891 110.396 29.3505 110.549C29.1119 110.7 28.9258 110.899 28.7923 111.146C28.6616 111.39 28.5948 111.659 28.592 111.951V112.859C28.592 113.24 28.6616 113.566 28.8008 113.839C28.94 114.109 29.1346 114.316 29.3846 114.461C29.6346 114.603 29.9272 114.674 30.2624 114.674C30.4869 114.674 30.69 114.643 30.8718 114.58C31.0536 114.515 31.2113 114.42 31.3448 114.295C31.4783 114.17 31.5792 114.015 31.6474 113.83L33.0877 113.992C32.9968 114.373 32.8235 114.705 32.5678 114.99C32.315 115.271 31.9911 115.49 31.5962 115.646C31.2013 115.799 30.7496 115.876 30.2411 115.876ZM40.1158 109.203L37.7848 115.748H36.0803L33.7493 109.203H35.3942L36.8984 114.065H36.9666L38.4751 109.203H40.1158ZM41.1832 115.748V109.203H42.7259V115.748H41.1832ZM41.9588 108.274C41.7145 108.274 41.5043 108.193 41.3281 108.031C41.152 107.866 41.0639 107.669 41.0639 107.438C41.0639 107.205 41.152 107.008 41.3281 106.846C41.5043 106.681 41.7145 106.599 41.9588 106.599C42.206 106.599 42.4162 106.681 42.5895 106.846C42.7656 107.008 42.8537 107.205 42.8537 107.438C42.8537 107.669 42.7656 107.866 42.5895 108.031C42.4162 108.193 42.206 108.274 41.9588 108.274ZM47.1673 115.876C46.5138 115.876 45.9528 115.732 45.484 115.445C45.0181 115.159 44.6587 114.762 44.4059 114.257C44.1559 113.748 44.0309 113.163 44.0309 112.501C44.0309 111.836 44.1587 111.249 44.4144 110.741C44.6701 110.23 45.0309 109.832 45.4968 109.548C45.9656 109.261 46.5195 109.117 47.1587 109.117C47.69 109.117 48.1602 109.215 48.5692 109.411C48.9812 109.605 49.3093 109.879 49.5536 110.234C49.7979 110.586 49.9371 110.998 49.9712 111.47H48.4968C48.4371 111.154 48.2951 110.892 48.0707 110.681C47.8491 110.468 47.5522 110.362 47.18 110.362C46.8647 110.362 46.5877 110.447 46.3491 110.617C46.1104 110.785 45.9244 111.026 45.7908 111.342C45.6602 111.657 45.5948 112.035 45.5948 112.475C45.5948 112.921 45.6602 113.305 45.7908 113.626C45.9215 113.944 46.1048 114.19 46.3406 114.363C46.5792 114.534 46.859 114.619 47.18 114.619C47.4073 114.619 47.6104 114.576 47.7894 114.491C47.9712 114.403 48.1232 114.276 48.2454 114.112C48.3675 113.947 48.4513 113.747 48.4968 113.511H49.9712C49.9343 113.974 49.7979 114.384 49.5621 114.742C49.3263 115.097 49.0053 115.376 48.5991 115.578C48.1928 115.776 47.7156 115.876 47.1673 115.876ZM54.1357 115.876C53.4794 115.876 52.9126 115.74 52.4354 115.467C51.9609 115.191 51.5959 114.802 51.3402 114.299C51.0845 113.794 50.9567 113.198 50.9567 112.514C50.9567 111.84 51.0845 111.249 51.3402 110.741C51.5987 110.23 51.9595 109.832 52.4226 109.548C52.8857 109.261 53.4297 109.117 54.0547 109.117C54.4581 109.117 54.8388 109.183 55.1967 109.313C55.5575 109.441 55.8757 109.64 56.1513 109.91C56.4297 110.18 56.6484 110.524 56.8075 110.941C56.9666 111.356 57.0462 111.85 57.0462 112.424V112.897H51.6811V111.857H55.5675C55.5646 111.562 55.5007 111.299 55.3757 111.069C55.2507 110.836 55.076 110.653 54.8516 110.519C54.63 110.386 54.3714 110.319 54.076 110.319C53.7607 110.319 53.4837 110.396 53.245 110.549C53.0064 110.7 52.8203 110.899 52.6868 111.146C52.5561 111.39 52.4893 111.659 52.4865 111.951V112.859C52.4865 113.24 52.5561 113.566 52.6953 113.839C52.8345 114.109 53.0291 114.316 53.2791 114.461C53.5291 114.603 53.8217 114.674 54.157 114.674C54.3814 114.674 54.5845 114.643 54.7663 114.58C54.9482 114.515 55.1058 114.42 55.2393 114.295C55.3729 114.17 55.4737 114.015 55.5419 113.83L56.9822 113.992C56.8913 114.373 56.718 114.705 56.4624 114.99C56.2095 115.271 55.8857 115.49 55.4908 115.646C55.0959 115.799 54.6442 115.876 54.1357 115.876ZM63.5245 110.933L62.1183 111.086C62.0785 110.944 62.0089 110.811 61.9094 110.686C61.8129 110.561 61.6822 110.46 61.5174 110.383C61.3526 110.306 61.1509 110.268 60.9123 110.268C60.5913 110.268 60.3214 110.338 60.1026 110.477C59.8867 110.616 59.7802 110.796 59.783 111.018C59.7802 111.208 59.8498 111.363 59.9918 111.482C60.1367 111.602 60.3754 111.7 60.7077 111.776L61.8242 112.015C62.4435 112.149 62.9038 112.36 63.2049 112.65C63.5089 112.94 63.6623 113.319 63.6651 113.788C63.6623 114.2 63.5415 114.563 63.3029 114.879C63.0671 115.191 62.739 115.436 62.3185 115.612C61.8981 115.788 61.4151 115.876 60.8697 115.876C60.0685 115.876 59.4237 115.708 58.935 115.373C58.4464 115.035 58.1552 114.565 58.0614 113.963L59.5657 113.818C59.6339 114.113 59.7788 114.336 60.0004 114.487C60.2219 114.637 60.5103 114.713 60.8654 114.713C61.2319 114.713 61.5259 114.637 61.7475 114.487C61.9719 114.336 62.0842 114.15 62.0842 113.928C62.0842 113.741 62.0117 113.586 61.8668 113.464C61.7248 113.342 61.5032 113.248 61.2021 113.183L60.0856 112.948C59.4577 112.818 58.9933 112.597 58.6921 112.288C58.391 111.975 58.2418 111.58 58.2447 111.103C58.2418 110.7 58.3512 110.35 58.5728 110.055C58.7972 109.757 59.1083 109.526 59.506 109.365C59.9066 109.2 60.3683 109.117 60.891 109.117C61.658 109.117 62.2617 109.281 62.7021 109.607C63.1452 109.934 63.4194 110.376 63.5245 110.933Z" fill="#000D2B"/>
<rect x="5.72351" width="73.1294" height="73.1294" rx="10" fill="#000D2B"/>
<g clip-path="url(#clip0_2114_543)">
<path fill-rule="evenodd" clip-rule="evenodd" d="M54.1315 32.1746C54.1315 36.2913 50.7798 39.6287 46.6466 39.6287C45.8933 39.6287 44.1761 39.4558 43.3411 38.7618L42.2966 39.8016C41.6819 40.4139 41.8477 40.5939 42.1213 40.89C42.235 41.0143 42.3676 41.1576 42.4707 41.3625C42.4707 41.3625 43.3411 42.5753 42.4707 43.7892C41.9484 44.482 40.4857 45.452 38.8159 43.7892L38.4677 44.135C38.4677 44.135 39.5111 45.3489 38.6418 46.5629C38.1195 47.2557 36.7267 47.9485 35.5081 46.7358L34.2906 47.9485C33.4545 48.7811 32.4336 48.2955 32.0285 47.9485L30.9828 46.9087C30.0081 45.9375 30.5766 44.8859 30.9828 44.4808L40.0333 35.4682C40.0333 35.4682 39.1629 34.0825 39.1629 32.1758C39.1629 28.0591 42.5145 24.7217 46.6477 24.7217C50.781 24.7217 54.1315 28.0591 54.1315 32.1746ZM46.6477 34.7753C47.3386 34.7766 48.0016 34.5035 48.4911 34.016C48.9806 33.5285 49.2564 32.8666 49.258 32.1758C49.2574 31.8336 49.1894 31.4949 49.0578 31.1791C48.9263 30.8632 48.7339 30.5763 48.4915 30.3348C48.2491 30.0933 47.9615 29.9019 47.6452 29.7715C47.3288 29.6412 46.9899 29.5744 46.6477 29.575C46.3056 29.5744 45.9667 29.6412 45.6503 29.7715C45.334 29.9019 45.0464 30.0933 44.804 30.3348C44.5616 30.5763 44.3692 30.8632 44.2377 31.1791C44.1061 31.4949 44.0381 31.8336 44.0375 32.1758C44.0391 32.8666 44.3149 33.5285 44.8044 34.016C45.2939 34.5035 45.9569 34.7766 46.6477 34.7753Z" fill="white"/>
</g>
<defs>
<clipPath id="clip0_2114_543">
<rect width="28.4236" height="28.4236" fill="white" transform="translate(28.0764 22.353)"/>
</clipPath>
</defs>
</svg>
