<svg width="172" height="167" viewBox="0 0 172 167" fill="none" xmlns="http://www.w3.org/2000/svg">
<path d="M117.894 6.99304L139.802 26.568V101.007H57.9612V101.25H140.082V26.8144L117.894 6.99304Z" fill="#909090"/>
<path d="M117.622 6.75H57.6814V101.007H139.802V26.5714L117.622 6.75Z" fill="#F4F4F4"/>
<path d="M57.0791 11.8125H31.9185V34.8536H111.062V11.8125H57.0791Z" fill="#7A7B7C"/>
<path d="M111.484 34.4622H32.4304V11.4042H111.484V34.4622Z" fill="#DD2025"/>
<path d="M58.6422 15.3023H53.4958V31.5023H57.5436V26.0381L58.4374 26.082C59.3062 26.0717 60.167 25.9383 60.985 25.6871C61.7041 25.4779 62.3649 25.1435 62.9262 24.705C63.5017 24.2914 63.9539 23.7661 64.2452 23.1728C64.6439 22.1897 64.785 21.1434 64.6587 20.1083C64.6362 19.3686 64.4849 18.636 64.2098 17.9348C63.9619 17.4279 63.5932 16.9709 63.1274 16.5932C62.6616 16.2154 62.1089 15.9252 61.5047 15.741C60.9839 15.5756 60.444 15.458 59.8943 15.39C59.479 15.332 59.059 15.3027 58.6382 15.3023M57.894 23.0445H57.5436V18.0495H58.3035C58.6389 18.0288 58.9755 18.0729 59.2883 18.1786C59.6011 18.2844 59.8822 18.449 60.1109 18.6604C60.5846 19.2038 60.8377 19.8653 60.8314 20.5436C60.8314 21.3739 60.8314 22.1265 59.9573 22.6564C59.3277 22.9536 58.6108 23.0907 57.894 23.0445ZM72.3486 15.2584C71.9115 15.2584 71.4863 15.2854 71.187 15.2955L70.2499 15.3158H67.1787V31.5158H70.7933C72.1745 31.5462 73.5494 31.3456 74.841 30.9251C75.881 30.5731 76.8015 30.0034 77.5185 29.268C78.2212 28.5294 78.7229 27.6658 78.9872 26.7401C79.2978 25.6936 79.4487 24.617 79.4361 23.5373C79.5132 22.262 79.398 20.9836 79.0935 19.7336C78.802 18.8146 78.2625 17.9672 77.5185 17.2598C76.935 16.6877 76.2172 16.2277 75.412 15.9098C74.7222 15.6357 73.9964 15.434 73.2503 15.309C72.9536 15.2673 72.6532 15.2481 72.3525 15.2516M71.6359 28.539H71.2422V18.198H71.2934C72.1051 18.1175 72.9266 18.2431 73.6558 18.5591C74.19 18.9247 74.6253 19.3853 74.9316 19.9091C75.2622 20.4604 75.4527 21.0654 75.4907 21.6844C75.5262 22.4269 75.4907 23.0344 75.4907 23.5373C75.5053 24.1165 75.4618 24.6958 75.3608 25.2686C75.2369 25.8561 75.0127 26.4247 74.6953 26.9561C74.3368 27.4517 73.8472 27.868 73.266 28.1711C72.7806 28.4411 72.205 28.5668 71.628 28.5289M91.6305 15.3158H82.0624V31.5158H86.1102V25.0898H91.2289V22.0793H86.1102V18.3263H91.6227V15.3158" fill="#464648"/>
<path d="M108.763 68.3606C108.763 68.3606 121.315 66.4099 121.315 70.0852C121.315 73.7606 113.539 72.2655 108.763 68.3606ZM99.482 68.6407C97.4873 69.0174 95.5436 69.5705 93.6821 70.2911L95.2571 67.2536C96.8321 64.2161 98.4661 60.075 98.4661 60.075C100.341 62.7889 102.528 65.3351 104.995 67.6755C103.138 67.9126 101.297 68.2371 99.482 68.6475V68.6407ZM94.5129 46.7032C94.5129 43.5003 95.7217 42.6262 96.6628 42.6262C97.6038 42.6262 98.663 43.0143 98.6984 45.7953C98.3914 48.5917 97.7083 51.3482 96.6628 54.0101C95.2257 51.7767 94.4839 49.2638 94.5089 46.7133L94.5129 46.7032ZM76.2074 82.1947C72.3566 80.2204 84.2833 74.142 86.4449 73.9462C86.4331 73.9496 80.2394 84.2602 76.2074 82.1947ZM124.981 70.5206C124.942 70.1831 124.588 66.447 116.831 66.6056C113.597 66.557 110.365 66.7524 107.172 67.1895C104.077 64.5189 101.412 61.5053 99.2497 58.2288C100.611 54.8515 101.436 51.3324 101.703 47.7663C101.589 43.7163 100.459 41.3943 96.836 41.4281C93.2135 41.4618 92.6859 44.1787 93.1623 48.222C93.6286 50.9391 94.5089 53.592 95.7808 56.1127C95.7808 56.1127 94.1073 60.5778 91.8944 65.0193C89.6816 69.4608 88.1696 71.7896 88.1696 71.7896C84.321 72.8621 80.6983 74.4574 77.4399 76.5146C74.1954 79.1032 72.8763 81.0911 74.5852 83.079C76.0578 84.7935 81.212 85.1816 85.8189 80.0077C88.2625 77.3328 90.4985 74.5233 92.5126 71.5972C92.5126 71.5972 99.5371 69.9468 101.722 69.4946C103.908 69.0424 106.55 68.6846 106.55 68.6846C106.55 68.6846 112.964 74.2162 119.15 74.0205C125.336 73.8247 125.036 70.8513 124.997 70.5273" fill="#DD2025"/>
<path d="M117.319 7.00989V26.8313H139.499L117.319 7.00989Z" fill="#909090"/>
<path d="M117.622 6.75V26.5714H139.802L117.622 6.75Z" fill="#F4F4F4"/>
<path d="M58.3392 15.0424H53.1929V31.2424H57.2564V25.7816L58.1541 25.8255C59.0229 25.8152 59.8837 25.6818 60.7017 25.4306C61.4208 25.2213 62.0816 24.887 62.6429 24.4485C63.2141 24.0337 63.6621 23.5085 63.9501 22.9162C64.3488 21.9332 64.4899 20.8869 64.3636 19.8517C64.3411 19.1121 64.1898 18.3795 63.9147 17.6782C63.6667 17.1713 63.2981 16.7144 62.8323 16.3366C62.3665 15.9589 61.8138 15.6686 61.2096 15.4845C60.6864 15.3175 60.1439 15.1987 59.5913 15.1301C59.176 15.0722 58.756 15.0428 58.3352 15.0424M57.5911 22.7846H57.2406V17.7896H58.0045C58.3399 17.7689 58.6764 17.813 58.9893 17.9188C59.3021 18.0245 59.5832 18.1891 59.8118 18.4005C60.2856 18.9439 60.5386 19.6054 60.5324 20.2837C60.5324 21.114 60.5324 21.8666 59.6582 22.3965C59.0287 22.6937 58.3117 22.8274 57.595 22.7812M72.0456 14.9985C71.6086 14.9985 71.1833 15.0255 70.8841 15.0356L69.9587 15.0559H66.8875V31.2559H70.5021C71.8833 31.2863 73.2582 31.0857 74.5499 30.6652C75.5898 30.3132 76.5103 29.7435 77.2274 29.0081C77.93 28.2695 78.4317 27.4059 78.6961 26.4802C79.0066 25.4337 79.1575 24.3571 79.1449 23.2774C79.222 22.0021 79.1069 20.7237 78.8024 19.4737C78.5109 18.5547 77.9714 17.7073 77.2274 16.9999C76.6438 16.4278 75.926 15.9678 75.1208 15.6499C74.4311 15.3758 73.7053 15.1741 72.9591 15.0491C72.6624 15.0074 72.362 14.9882 72.0614 14.9917M71.3447 28.2791H70.951V17.9381H71.0022C71.8139 17.8577 72.6354 17.9832 73.3647 18.2992C73.8989 18.6648 74.3341 19.1254 74.6404 19.6492C74.971 20.2005 75.1616 20.8055 75.1996 21.4245C75.235 22.167 75.1996 22.7745 75.1996 23.2774C75.2141 23.8566 75.1706 24.4359 75.0696 25.0087C74.9457 25.5962 74.7215 26.1648 74.4042 26.6962C74.0457 27.1918 73.556 27.6081 72.9749 27.9112C72.4894 28.1813 71.9139 28.307 71.3369 28.269M91.3276 15.0559H81.7594V31.2559H85.8072V24.8299H90.9259V21.8194H85.8072V18.0664H91.3197V15.0559" fill="white"/>
<path d="M49.3292 159V129.909H60.8065C63.0129 129.909 64.8926 130.33 66.4457 131.173C67.9987 132.007 69.1824 133.167 69.9968 134.653C70.8207 136.131 71.2326 137.835 71.2326 139.767C71.2326 141.699 70.8159 143.403 69.9826 144.881C69.1493 146.358 67.9419 147.509 66.3604 148.332C64.7885 149.156 62.8851 149.568 60.6502 149.568H53.3349V144.639H59.6559C60.8396 144.639 61.815 144.436 62.582 144.028C63.3585 143.612 63.9362 143.039 64.315 142.31C64.7032 141.571 64.8974 140.723 64.8974 139.767C64.8974 138.801 64.7032 137.958 64.315 137.239C63.9362 136.509 63.3585 135.946 62.582 135.548C61.8055 135.141 60.8207 134.938 59.6275 134.938H55.4798V159H49.3292ZM85.5401 159H75.2276V129.909H85.6254C88.5515 129.909 91.0704 130.491 93.1822 131.656C95.2939 132.812 96.918 134.473 98.0543 136.642C99.2002 138.811 99.7731 141.405 99.7731 144.426C99.7731 147.456 99.2002 150.061 98.0543 152.239C96.918 154.417 95.2844 156.088 93.1538 157.253C91.0326 158.418 88.4947 159 85.5401 159ZM81.3782 153.73H85.2844C87.1026 153.73 88.632 153.408 89.8725 152.764C91.1225 152.111 92.06 151.102 92.685 149.739C93.3195 148.366 93.6367 146.595 93.6367 144.426C93.6367 142.277 93.3195 140.52 92.685 139.156C92.06 137.793 91.1272 136.789 89.8867 136.145C88.6462 135.501 87.1168 135.179 85.2987 135.179H81.3782V153.73ZM104.329 159V129.909H123.591V134.98H110.48V141.912H122.312V146.983H110.48V159H104.329Z" fill="#5A5A5A"/>
</svg>
