<svg width="74" height="74" viewBox="0 0 74 74" fill="none" xmlns="http://www.w3.org/2000/svg">
<rect width="73.1294" height="73.1294" rx="10" fill="#000D2B"/>
<g clip-path="url(#clip0_2114_561)">
<path d="M48.7903 36.5646C48.7903 29.8125 43.3169 24.3391 36.5647 24.3391C33.3638 24.3353 30.2899 25.5908 28.0069 27.8344V26.4786C28.0069 26.2354 27.9103 26.0022 27.7383 25.8302C27.5664 25.6583 27.3332 25.5617 27.09 25.5617C26.8468 25.5617 26.6136 25.6583 26.4416 25.8302C26.2697 26.0022 26.1731 26.2354 26.1731 26.4786V30.7575C26.1731 31.2636 26.5838 31.6744 27.09 31.6744H31.3689C31.6121 31.6744 31.8453 31.5778 32.0173 31.4059C32.1892 31.2339 32.2858 31.0007 32.2858 30.7575C32.2858 30.5143 32.1892 30.2811 32.0173 30.1092C31.8453 29.9372 31.6121 29.8406 31.3689 29.8406H28.6414C29.9155 28.3401 31.5895 27.2323 33.4687 26.6462C35.3478 26.0601 37.3548 26.0198 39.256 26.5299C41.1572 27.0401 42.8744 28.0798 44.2077 29.5279C45.541 30.976 46.4356 32.7731 46.7873 34.7099C47.139 36.6466 46.9333 38.6435 46.1943 40.4679C45.4553 42.2924 44.2133 43.8694 42.6129 45.0154C41.0124 46.1615 39.1194 46.8294 37.1541 46.9414C35.1889 47.0534 33.2322 46.6049 31.5119 45.6482L31.1819 45.4648L26.3088 46.823L27.6695 41.9524L27.4849 41.6223C26.6219 40.0765 26.1703 38.335 26.1731 36.5646C26.1731 35.7394 26.2697 34.9362 26.4506 34.166C26.5484 33.798 26.5301 33.0804 25.7953 32.919C25.0459 32.7552 24.7317 33.353 24.6522 33.798C24.4425 34.7052 24.3383 35.6335 24.3392 36.5646C24.3367 38.5182 24.8042 40.4437 25.7024 42.1786L24.3967 46.8524C24.3239 47.1134 24.3217 47.389 24.3905 47.6511C24.4593 47.9131 24.5965 48.1522 24.7881 48.3438C24.9796 48.5353 25.2187 48.6726 25.4808 48.7413C25.7428 48.8101 26.0185 48.8079 26.2794 48.7351L30.9569 47.4307C32.6903 48.3266 34.6135 48.7928 36.5647 48.7901C43.3169 48.7901 48.7903 43.3168 48.7903 36.5646ZM31.8824 28.6792C33.265 27.8587 34.8391 27.4162 36.4467 27.3961C38.0544 27.3759 39.639 27.7789 41.0418 28.5644C42.4446 29.35 43.6161 30.4906 44.4389 31.8719C45.2618 33.2531 45.7069 34.8265 45.7298 36.4341C45.7527 38.0417 45.3524 39.627 44.5692 41.0311C43.786 42.4352 42.6474 43.6087 41.2675 44.4338C39.8877 45.259 38.3151 45.7068 36.7076 45.7324C35.1 45.758 33.514 45.3605 32.1086 44.5797L31.3383 44.1518L28.0692 45.0626L28.9825 41.7959L28.5522 41.0257C27.7911 39.6622 27.3929 38.1261 27.3956 36.5646C27.3956 35.8384 27.48 35.1342 27.6389 34.4582C27.7549 34.0001 27.7384 33.5184 27.5912 33.0694C27.571 33.0111 27.5486 32.9536 27.524 32.897H31.3689C31.8925 32.8984 32.3985 32.7077 32.791 32.3611C33.1834 32.0144 33.4352 31.5359 33.4984 31.0161C33.5617 30.4963 33.4322 29.9713 33.1343 29.5406C32.8365 29.1099 32.3911 28.8034 31.8824 28.6792ZM35.6478 31.6744C35.4047 31.6744 35.1714 31.771 34.9995 31.943C34.8275 32.1149 34.7309 32.3482 34.7309 32.5913V38.0928C34.7309 38.5989 35.1417 39.0097 35.6478 39.0097H39.3155C39.5587 39.0097 39.7919 38.9131 39.9638 38.7412C40.1358 38.5692 40.2324 38.336 40.2324 38.0928C40.2324 37.8496 40.1358 37.6164 39.9638 37.4445C39.7919 37.2725 39.5587 37.1759 39.3155 37.1759H36.5647V32.5913C36.5647 32.3482 36.4681 32.1149 36.2962 31.943C36.1242 31.771 35.891 31.6744 35.6478 31.6744Z" fill="white"/>
</g>
<defs>
<clipPath id="clip0_2114_561">
<rect width="29.3412" height="29.3412" fill="white" transform="translate(21.8942 21.894)"/>
</clipPath>
</defs>
</svg>
