<svg width="25" height="25" viewBox="0 0 25 25" fill="none" xmlns="http://www.w3.org/2000/svg">
<path d="M5.20825 13.5416C5.20825 12.9891 5.42775 12.4591 5.81845 12.0684C6.20915 11.6777 6.73905 11.4583 7.29159 11.4583H17.7083C18.2608 11.4583 18.7907 11.6777 19.1814 12.0684C19.5721 12.4591 19.7916 12.9891 19.7916 13.5416V19.7916C19.7916 20.3441 19.5721 20.874 19.1814 21.2647C18.7907 21.6554 18.2608 21.8749 17.7083 21.8749H7.29159C6.73905 21.8749 6.20915 21.6554 5.81845 21.2647C5.42775 20.874 5.20825 20.3441 5.20825 19.7916V13.5416Z" stroke="white" stroke-width="1.6" stroke-linecap="round" stroke-linejoin="round"/>
<path d="M8.33325 11.4583V7.29167C8.33325 6.1866 8.77224 5.12679 9.55364 4.34539C10.335 3.56399 11.3949 3.125 12.4999 3.125C13.605 3.125 14.6648 3.56399 15.4462 4.34539C16.2276 5.12679 16.6666 6.1866 16.6666 7.29167V11.4583M11.4583 16.6667C11.4583 16.9429 11.568 17.2079 11.7633 17.4032C11.9587 17.5986 12.2237 17.7083 12.4999 17.7083C12.7762 17.7083 13.0411 17.5986 13.2365 17.4032C13.4318 17.2079 13.5416 16.9429 13.5416 16.6667C13.5416 16.3904 13.4318 16.1254 13.2365 15.9301C13.0411 15.7347 12.7762 15.625 12.4999 15.625C12.2237 15.625 11.9587 15.7347 11.7633 15.9301C11.568 16.1254 11.4583 16.3904 11.4583 16.6667Z" stroke="white" stroke-width="1.6" stroke-linecap="round" stroke-linejoin="round"/>
</svg>
