<svg width="49" height="49" viewBox="0 0 49 49" fill="none" xmlns="http://www.w3.org/2000/svg">
<g filter="url(#filter0_d_1586_782)">
<rect x="45" y="41" width="41" height="41" rx="20.5" transform="rotate(-180 45 41)" fill="#D20B0B" shape-rendering="crispEdges"/>
<path d="M17.2083 21.5416C17.2083 20.9891 17.4277 20.4591 17.8184 20.0684C18.2091 19.6777 18.7391 19.4583 19.2916 19.4583H29.7083C30.2608 19.4583 30.7907 19.6777 31.1814 20.0684C31.5721 20.4591 31.7916 20.9891 31.7916 21.5416V27.7916C31.7916 28.3441 31.5721 28.874 31.1814 29.2647C30.7907 29.6554 30.2608 29.8749 29.7083 29.8749H19.2916C18.7391 29.8749 18.2091 29.6554 17.8184 29.2647C17.4277 28.874 17.2083 28.3441 17.2083 27.7916V21.5416Z" stroke="white" stroke-width="1.6" stroke-linecap="round" stroke-linejoin="round"/>
<path d="M20.3333 19.4583V15.2917C20.3333 14.1866 20.7722 13.1268 21.5536 12.3454C22.335 11.564 23.3949 11.125 24.4999 11.125C25.605 11.125 26.6648 11.564 27.4462 12.3454C28.2276 13.1268 28.6666 14.1866 28.6666 15.2917V19.4583M23.4583 24.6667C23.4583 24.9429 23.568 25.2079 23.7633 25.4032C23.9587 25.5986 24.2237 25.7083 24.4999 25.7083C24.7762 25.7083 25.0411 25.5986 25.2365 25.4032C25.4318 25.2079 25.5416 24.9429 25.5416 24.6667C25.5416 24.3904 25.4318 24.1254 25.2365 23.9301C25.0411 23.7347 24.7762 23.625 24.4999 23.625C24.2237 23.625 23.9587 23.7347 23.7633 23.9301C23.568 24.1254 23.4583 24.3904 23.4583 24.6667Z" stroke="white" stroke-width="1.6" stroke-linecap="round" stroke-linejoin="round"/>
</g>
<defs>
<filter id="filter0_d_1586_782" x="0" y="0" width="49" height="49" filterUnits="userSpaceOnUse" color-interpolation-filters="sRGB">
<feFlood flood-opacity="0" result="BackgroundImageFix"/>
<feColorMatrix in="SourceAlpha" type="matrix" values="0 0 0 0 0 0 0 0 0 0 0 0 0 0 0 0 0 0 127 0" result="hardAlpha"/>
<feOffset dy="4"/>
<feGaussianBlur stdDeviation="2"/>
<feComposite in2="hardAlpha" operator="out"/>
<feColorMatrix type="matrix" values="0 0 0 0 0 0 0 0 0 0 0 0 0 0 0 0 0 0 0.25 0"/>
<feBlend mode="normal" in2="BackgroundImageFix" result="effect1_dropShadow_1586_782"/>
<feBlend mode="normal" in="SourceGraphic" in2="effect1_dropShadow_1586_782" result="shape"/>
</filter>
</defs>
</svg>
