<svg width="22" height="23" viewBox="0 0 22 23" fill="none" xmlns="http://www.w3.org/2000/svg">
<g clip-path="url(#clip0_1850_466)">
<path d="M8.25 10.5417C8.25 11.3042 8.53973 12.0355 9.05546 12.5747C9.57118 13.1138 10.2707 13.4167 11 13.4167C11.7293 13.4167 12.4288 13.1138 12.9445 12.5747C13.4603 12.0355 13.75 11.3042 13.75 10.5417C13.75 9.77925 13.4603 9.04798 12.9445 8.50882C12.4288 7.96965 11.7293 7.66675 11 7.66675C10.2707 7.66675 9.57118 7.96965 9.05546 8.50882C8.53973 9.04798 8.25 9.77925 8.25 10.5417Z" stroke="#030303" stroke-width="0.9" stroke-linecap="round" stroke-linejoin="round"/>
<path d="M10.8627 20.585C10.4256 20.5504 10.0149 20.3532 9.70491 20.0292L5.81458 15.963C4.9045 15.0112 4.25008 13.8258 3.91709 12.5259C3.5841 11.2259 3.58428 9.85727 3.9176 8.55742C4.25092 7.25757 4.90565 6.07234 5.81597 5.12086C6.72629 4.16938 7.86014 3.48517 9.10355 3.137C10.347 2.78883 11.6561 2.78897 12.8995 3.1374C14.1428 3.48582 15.2765 4.17026 16.1867 5.12193C17.0968 6.0736 17.7513 7.25896 18.0844 8.55888C18.4175 9.8588 18.4174 11.2275 18.0842 12.5273M18.3335 20.125L20.1668 18.2083L18.3335 16.2917M15.5835 16.2917L13.7502 18.2083L15.5835 20.125" stroke="#030303" stroke-width="0.9" stroke-linecap="round" stroke-linejoin="round"/>
</g>
<defs>
<clipPath id="clip0_1850_466">
<rect width="22" height="23" fill="white"/>
</clipPath>
</defs>
</svg>
