<svg width="74" height="74" viewBox="0 0 74 74" fill="none" xmlns="http://www.w3.org/2000/svg">
<rect width="73.1294" height="73.1294" rx="10" fill="#000D2B"/>
<g clip-path="url(#clip0_2114_545)">
<path fill-rule="evenodd" clip-rule="evenodd" d="M48.4079 32.1746C48.4079 36.2913 45.0563 39.6287 40.9231 39.6287C40.1698 39.6287 38.4526 39.4558 37.6176 38.7618L36.5731 39.8016C35.9584 40.4139 36.1242 40.5939 36.3978 40.89C36.5115 41.0143 36.6441 41.1576 36.7472 41.3625C36.7472 41.3625 37.6176 42.5753 36.7472 43.7892C36.2249 44.482 34.7622 45.452 33.0924 43.7892L32.7442 44.135C32.7442 44.135 33.7875 45.3489 32.9183 46.5629C32.396 47.2557 31.0032 47.9485 29.7846 46.7358L28.5671 47.9485C27.7309 48.7811 26.7101 48.2955 26.305 47.9485L25.2593 46.9087C24.2846 45.9375 24.8531 44.8859 25.2593 44.4808L34.3098 35.4682C34.3098 35.4682 33.4394 34.0825 33.4394 32.1758C33.4394 28.0591 36.791 24.7217 40.9242 24.7217C45.0575 24.7217 48.4079 28.0591 48.4079 32.1746ZM40.9242 34.7753C41.6151 34.7766 42.2781 34.5035 42.7676 34.016C43.2571 33.5285 43.5329 32.8666 43.5345 32.1758C43.5339 31.8336 43.4658 31.4949 43.3343 31.1791C43.2028 30.8632 43.0104 30.5763 42.768 30.3348C42.5256 30.0933 42.238 29.9019 41.9217 29.7715C41.6053 29.6412 41.2664 29.5744 40.9242 29.575C40.5821 29.5744 40.2431 29.6412 39.9268 29.7715C39.6104 29.9019 39.3229 30.0933 39.0805 30.3348C38.8381 30.5763 38.6457 30.8632 38.5141 31.1791C38.3826 31.4949 38.3146 31.8336 38.314 32.1758C38.3156 32.8666 38.5914 33.5285 39.0809 34.016C39.5704 34.5035 40.2334 34.7766 40.9242 34.7753Z" fill="white"/>
</g>
<defs>
<clipPath id="clip0_2114_545">
<rect width="28.4236" height="28.4236" fill="white" transform="translate(22.3529 22.353)"/>
</clipPath>
</defs>
</svg>
