<svg width="16" height="12" viewBox="0 0 16 12" fill="none" xmlns="http://www.w3.org/2000/svg">
<path d="M9.81938 0.0281729C9.39437 -0.0866709 8.95188 0.14536 8.82938 0.543798L5.62937 11.0438C5.50688 11.4422 5.75437 11.8571 6.17938 11.9719C6.60438 12.0868 7.04688 11.8547 7.16937 11.4563L10.3694 0.956298C10.4919 0.55786 10.2444 0.143017 9.81938 0.0281729ZM11.8344 2.84302C11.5219 3.13599 11.5219 3.61177 11.8344 3.90474L14.0669 6.00005L11.8319 8.09536C11.5194 8.38833 11.5194 8.86411 11.8319 9.15708C12.1444 9.45005 12.6519 9.45005 12.9644 9.15708L15.7644 6.53208C16.0769 6.23911 16.0769 5.76333 15.7644 5.47036L12.9644 2.84536C12.6519 2.55239 12.1444 2.55239 11.8319 2.84536L11.8344 2.84302ZM4.16688 2.84302C3.85438 2.55005 3.34687 2.55005 3.03437 2.84302L0.234375 5.46802C-0.078125 5.76099 -0.078125 6.23677 0.234375 6.52974L3.03437 9.15474C3.34687 9.4477 3.85438 9.4477 4.16688 9.15474C4.47938 8.86177 4.47938 8.38599 4.16688 8.09302L1.93188 6.00005L4.16688 3.90474C4.47938 3.61177 4.47938 3.13599 4.16688 2.84302Z" fill="black"/>
</svg>
