<svg width="49" height="49" viewBox="0 0 49 49" fill="none" xmlns="http://www.w3.org/2000/svg">
<g filter="url(#filter0_d_1586_790)">
<rect x="45" y="41" width="41" height="41" rx="20.5" transform="rotate(-180 45 41)" fill="#126E12" shape-rendering="crispEdges"/>
<path d="M28.875 17.8751H21.875V16.1251C21.8737 15.6055 22.0267 15.0972 22.3145 14.6646C22.6023 14.232 23.012 13.8945 23.4917 13.695C23.9715 13.4954 24.4996 13.4427 25.0093 13.5435C25.519 13.6443 25.9874 13.8941 26.355 14.2613C26.6833 14.5979 26.9185 15.014 27.0375 15.4688C27.0662 15.5803 27.1166 15.685 27.1858 15.777C27.255 15.8689 27.3416 15.9464 27.4408 16.0049C27.5399 16.0634 27.6496 16.1018 27.7635 16.1179C27.8775 16.134 27.9935 16.1275 28.105 16.0988C28.2165 16.0701 28.3212 16.0197 28.4132 15.9505C28.5051 15.8813 28.5826 15.7947 28.6411 15.6955C28.6996 15.5964 28.738 15.4867 28.7541 15.3728C28.7702 15.2588 28.7637 15.1428 28.735 15.0313C28.5353 14.2744 28.14 13.5834 27.5888 13.0276C26.9764 12.4171 26.1969 12.0018 25.3487 11.8341C24.5005 11.6664 23.6216 11.7537 22.823 12.0851C22.0244 12.4166 21.342 12.9772 20.8618 13.6962C20.3816 14.4152 20.1252 15.2604 20.125 16.1251V17.8751C19.4288 17.8751 18.7611 18.1516 18.2688 18.6439C17.7766 19.1362 17.5 19.8039 17.5 20.5001V26.6251C17.5 27.3212 17.7766 27.9889 18.2688 28.4812C18.7611 28.9735 19.4288 29.2501 20.125 29.2501H28.875C29.5712 29.2501 30.2389 28.9735 30.7312 28.4812C31.2234 27.9889 31.5 27.3212 31.5 26.6251V20.5001C31.5 19.8039 31.2234 19.1362 30.7312 18.6439C30.2389 18.1516 29.5712 17.8751 28.875 17.8751ZM29.75 26.6251C29.75 26.8571 29.6578 27.0797 29.4937 27.2438C29.3296 27.4079 29.1071 27.5001 28.875 27.5001H20.125C19.8929 27.5001 19.6704 27.4079 19.5063 27.2438C19.3422 27.0797 19.25 26.8571 19.25 26.6251V20.5001C19.25 20.268 19.3422 20.0454 19.5063 19.8813C19.6704 19.7172 19.8929 19.6251 20.125 19.6251H28.875C29.1071 19.6251 29.3296 19.7172 29.4937 19.8813C29.6578 20.0454 29.75 20.268 29.75 20.5001V26.6251Z" fill="white"/>
</g>
<defs>
<filter id="filter0_d_1586_790" x="0" y="0" width="49" height="49" filterUnits="userSpaceOnUse" color-interpolation-filters="sRGB">
<feFlood flood-opacity="0" result="BackgroundImageFix"/>
<feColorMatrix in="SourceAlpha" type="matrix" values="0 0 0 0 0 0 0 0 0 0 0 0 0 0 0 0 0 0 127 0" result="hardAlpha"/>
<feOffset dy="4"/>
<feGaussianBlur stdDeviation="2"/>
<feComposite in2="hardAlpha" operator="out"/>
<feColorMatrix type="matrix" values="0 0 0 0 0 0 0 0 0 0 0 0 0 0 0 0 0 0 0.25 0"/>
<feBlend mode="normal" in2="BackgroundImageFix" result="effect1_dropShadow_1586_790"/>
<feBlend mode="normal" in="SourceGraphic" in2="effect1_dropShadow_1586_790" result="shape"/>
</filter>
</defs>
</svg>
