<svg width="21" height="21" viewBox="0 0 21 21" fill="none" xmlns="http://www.w3.org/2000/svg">
<path d="M14.875 7.87505H7.875V6.12505C7.87372 5.60547 8.02667 5.09719 8.31448 4.66459C8.60228 4.232 9.01199 3.89454 9.49172 3.69497C9.97145 3.49539 10.4996 3.44268 11.0093 3.54349C11.519 3.64431 11.9874 3.89413 12.355 4.2613C12.6833 4.59785 12.9185 5.01396 13.0375 5.4688C13.0662 5.58026 13.1166 5.68497 13.1858 5.77695C13.255 5.86894 13.3416 5.94639 13.4408 6.00489C13.5399 6.06339 13.6496 6.10179 13.7635 6.11791C13.8775 6.13402 13.9935 6.12753 14.105 6.0988C14.2165 6.07008 14.3212 6.01968 14.4132 5.95048C14.5051 5.88129 14.5826 5.79466 14.6411 5.69553C14.6996 5.5964 14.738 5.48672 14.7541 5.37276C14.7702 5.25879 14.7637 5.14276 14.735 5.0313C14.5353 4.27441 14.14 3.58337 13.5888 3.02755C12.9764 2.41712 12.1969 2.00182 11.3487 1.83409C10.5005 1.66636 9.62162 1.75372 8.82303 2.08514C8.02444 2.41656 7.34195 2.97718 6.86176 3.6962C6.38156 4.41523 6.12518 5.26042 6.125 6.12505V7.87505C5.42881 7.87505 4.76113 8.15161 4.26884 8.6439C3.77656 9.13618 3.5 9.80386 3.5 10.5001V16.6251C3.5 17.3212 3.77656 17.9889 4.26884 18.4812C4.76113 18.9735 5.42881 19.2501 6.125 19.2501H14.875C15.5712 19.2501 16.2389 18.9735 16.7312 18.4812C17.2234 17.9889 17.5 17.3212 17.5 16.6251V10.5001C17.5 9.80386 17.2234 9.13618 16.7312 8.6439C16.2389 8.15161 15.5712 7.87505 14.875 7.87505ZM15.75 16.6251C15.75 16.8571 15.6578 17.0797 15.4937 17.2438C15.3296 17.4079 15.1071 17.5001 14.875 17.5001H6.125C5.89294 17.5001 5.67038 17.4079 5.50628 17.2438C5.34219 17.0797 5.25 16.8571 5.25 16.6251V10.5001C5.25 10.268 5.34219 10.0454 5.50628 9.88133C5.67038 9.71724 5.89294 9.62505 6.125 9.62505H14.875C15.1071 9.62505 15.3296 9.71724 15.4937 9.88133C15.6578 10.0454 15.75 10.268 15.75 10.5001V16.6251Z" fill="white"/>
</svg>
