<svg width="74" height="74" viewBox="0 0 74 74" fill="none" xmlns="http://www.w3.org/2000/svg">
<rect width="73.1294" height="73.1294" rx="10" fill="#000D2B"/>
<g clip-path="url(#clip0_2114_538)">
<path d="M36.5647 25.5647C38.0234 25.5647 39.4223 26.1442 40.4538 27.1756C41.4852 28.2071 42.0647 29.606 42.0647 31.0647C42.0647 32.5234 41.4852 33.9223 40.4538 34.9538C39.4223 35.9852 38.0234 36.5647 36.5647 36.5647C35.106 36.5647 33.7071 35.9852 32.6756 34.9538C31.6442 33.9223 31.0647 32.5234 31.0647 31.0647C31.0647 29.606 31.6442 28.2071 32.6756 27.1756C33.7071 26.1442 35.106 25.5647 36.5647 25.5647ZM36.5647 39.3147C42.6422 39.3147 47.5647 41.7759 47.5647 44.8147V47.5647H25.5647V44.8147C25.5647 41.7759 30.4872 39.3147 36.5647 39.3147Z" fill="white"/>
</g>
<defs>
<clipPath id="clip0_2114_538">
<rect width="33" height="33" fill="white" transform="translate(20.0647 20.0647)"/>
</clipPath>
</defs>
</svg>
