<svg width="74" height="74" viewBox="0 0 74 74" fill="none" xmlns="http://www.w3.org/2000/svg">
<rect width="73.1294" height="73.1294" rx="10" fill="#000D2B"/>
<g clip-path="url(#clip0_2114_552)">
<path d="M34.4711 42.5428H41.2727V34.5722H47.1815C47.0519 32.091 46.1528 29.7118 44.6092 27.765C43.0656 25.8181 40.954 24.4003 38.5678 23.7083C36.1816 23.0164 33.6391 23.0847 31.2934 23.9038C28.9478 24.7228 26.9154 26.252 25.4785 28.2789C24.0417 30.3058 23.2716 32.7299 23.2754 35.2144C23.2792 37.6989 24.0565 40.1206 25.4995 42.1432C26.9425 44.1658 28.9795 45.6888 31.3276 46.5008C33.6757 47.3127 36.2184 47.3734 38.6025 46.6742L34.4711 42.5428ZM31.9364 35.2018C31.9364 34.545 32.1312 33.9029 32.4961 33.3567C32.8611 32.8106 33.3797 32.3849 33.9866 32.1336C34.5934 31.8822 35.2612 31.8164 35.9054 31.9446C36.5497 32.0727 37.1414 32.389 37.6059 32.8535C38.0703 33.3179 38.3866 33.9097 38.5148 34.5539C38.6429 35.1982 38.5772 35.8659 38.3258 36.4728C38.0744 37.0796 37.6488 37.5983 37.1026 37.9632C36.5565 38.3282 35.9144 38.5229 35.2575 38.5229C34.3767 38.5229 33.532 38.173 32.9092 37.5502C32.2863 36.9274 31.9364 36.0827 31.9364 35.2018Z" fill="white"/>
<path d="M49.9088 44.5353H45.9235V36.5647H43.2667V44.5353H39.2814L44.5951 49.849L49.9088 44.5353Z" fill="white"/>
</g>
<defs>
<clipPath id="clip0_2114_552">
<rect width="31.8824" height="31.8824" fill="white" transform="translate(20.6235 20.6235)"/>
</clipPath>
</defs>
</svg>
