<svg width="77" height="29" viewBox="0 0 77 29" fill="none" xmlns="http://www.w3.org/2000/svg">
<rect width="77" height="29" rx="5" fill="#743CD6"/>
<path d="M22.7916 9.74992C22.7916 9.53996 22.7082 9.33859 22.5597 9.19013C22.4112 9.04166 22.2099 8.95825 21.9999 8.95825C21.79 8.95825 21.5886 9.04166 21.4401 9.19013C21.2917 9.33859 21.2083 9.53996 21.2083 9.74992V13.7083H17.2499C17.04 13.7083 16.8386 13.7917 16.6901 13.9401C16.5417 14.0886 16.4583 14.29 16.4583 14.4999C16.4583 14.7099 16.5417 14.9112 16.6901 15.0597C16.8386 15.2082 17.04 15.2916 17.2499 15.2916H21.2083V19.2499C21.2083 19.4599 21.2917 19.6612 21.4401 19.8097C21.5886 19.9582 21.79 20.0416 21.9999 20.0416C22.2099 20.0416 22.4112 19.9582 22.5597 19.8097C22.7082 19.6612 22.7916 19.4599 22.7916 19.2499V15.2916H26.7499C26.9599 15.2916 27.1612 15.2082 27.3097 15.0597C27.4582 14.9112 27.5416 14.7099 27.5416 14.4999C27.5416 14.29 27.4582 14.0886 27.3097 13.9401C27.1612 13.7917 26.9599 13.7083 26.7499 13.7083H22.7916V9.74992Z" fill="white"/>
<path d="M34.4815 19H32.794L35.8665 10.2727H37.8182L40.8949 19H39.2074L36.8764 12.0625H36.8082L34.4815 19ZM34.5369 15.5781H39.1392V16.848H34.5369V15.5781ZM45.0018 19H42.0444V10.2727H45.0614C45.9279 10.2727 46.6722 10.4474 47.2944 10.7969C47.9194 11.1435 48.3995 11.642 48.7347 12.2926C49.07 12.9432 49.2376 13.7216 49.2376 14.6278C49.2376 15.5369 49.0685 16.3182 48.7305 16.9716C48.3952 17.625 47.9109 18.1264 47.2773 18.4759C46.6467 18.8253 45.8881 19 45.0018 19ZM43.6254 17.6321H44.9251C45.533 17.6321 46.0401 17.5213 46.4464 17.2997C46.8526 17.0753 47.158 16.7415 47.3626 16.2983C47.5671 15.8523 47.6694 15.2955 47.6694 14.6278C47.6694 13.9602 47.5671 13.4062 47.3626 12.9659C47.158 12.5227 46.8555 12.1918 46.4549 11.973C46.0572 11.7514 45.5629 11.6406 44.9719 11.6406H43.6254V17.6321ZM53.6971 19H50.7397V10.2727H53.7567C54.6232 10.2727 55.3675 10.4474 55.9897 10.7969C56.6147 11.1435 57.0948 11.642 57.43 12.2926C57.7653 12.9432 57.9329 13.7216 57.9329 14.6278C57.9329 15.5369 57.7638 16.3182 57.4258 16.9716C57.0906 17.625 56.6062 18.1264 55.9727 18.4759C55.342 18.8253 54.5835 19 53.6971 19ZM52.3207 17.6321H53.6204C54.2283 17.6321 54.7354 17.5213 55.1417 17.2997C55.5479 17.0753 55.8533 16.7415 56.0579 16.2983C56.2624 15.8523 56.3647 15.2955 56.3647 14.6278C56.3647 13.9602 56.2624 13.4062 56.0579 12.9659C55.8533 12.5227 55.5508 12.1918 55.1502 11.973C54.7525 11.7514 54.2582 11.6406 53.6673 11.6406H52.3207V17.6321Z" fill="white"/>
</svg>
