<svg width="375" height="107" viewBox="0 0 375 107" fill="none" xmlns="http://www.w3.org/2000/svg">
<g filter="url(#filter0_dd_1586_1223)">
<path d="M8.71582 18.7158C8.71582 13.193 13.193 8.71582 18.7158 8.71582H76.6951C82.2179 8.71582 86.6951 13.193 86.6951 18.7158V73.0681C86.6951 78.591 82.2179 83.0682 76.6951 83.0682H18.7158C13.193 83.0682 8.71582 78.591 8.71582 73.0682V18.7158Z" fill="#F0F0F3"/>
</g>
<g filter="url(#filter1_d_1586_1223)">
<ellipse cx="47.6809" cy="44.9851" rx="15.7893" ry="15.4145" fill="url(#paint0_linear_1586_1223)" shape-rendering="crispEdges"/>
<path d="M47.6807 29.0706C56.6655 29.0706 63.9705 36.1842 63.9707 44.9846C63.9707 53.7852 56.6656 60.8997 47.6807 60.8997C38.6958 60.8995 31.3916 53.7851 31.3916 44.9846C31.3918 36.1843 38.696 29.0707 47.6807 29.0706Z" stroke="white" stroke-opacity="0.2" shape-rendering="crispEdges"/>
</g>
<g clip-path="url(#clip0_1586_1223)">
<path d="M47.6806 37.8445C44.8142 37.8445 42.5191 39.0176 40.8482 40.4138C39.188 41.7973 38.0777 43.4549 37.5526 44.5929C37.4356 44.8448 37.4356 45.1253 37.5526 45.3771C38.0777 46.5151 39.188 48.1728 40.8482 49.5562C42.5191 50.9525 44.8142 52.1256 47.6806 52.1256C50.5469 52.1256 52.8421 50.9525 54.5129 49.5562C56.1731 48.1696 57.2835 46.5151 57.8121 45.3771C57.9291 45.1253 57.9291 44.8448 57.8121 44.5929C57.2835 43.4549 56.1731 41.7973 54.5129 40.4138C52.8421 39.0176 50.5469 37.8445 47.6806 37.8445ZM42.5723 44.985C42.5723 43.7676 43.1105 42.6 44.0685 41.7392C45.0265 40.8783 46.3258 40.3947 47.6806 40.3947C49.0354 40.3947 50.3347 40.8783 51.2927 41.7392C52.2507 42.6 52.7889 43.7676 52.7889 44.985C52.7889 46.2025 52.2507 47.37 51.2927 48.2309C50.3347 49.0918 49.0354 49.5754 47.6806 49.5754C46.3258 49.5754 45.0265 49.0918 44.0685 48.2309C43.1105 47.37 42.5723 46.2025 42.5723 44.985ZM47.6806 42.9449C47.6806 44.0701 46.6625 44.985 45.4102 44.985C45.1584 44.985 44.9171 44.9468 44.6901 44.8798C44.495 44.8225 44.2679 44.9308 44.275 45.1157C44.2857 45.3357 44.3212 45.5556 44.3886 45.7756C44.8746 47.4077 46.7441 48.3768 48.5603 47.9401C50.3766 47.5033 51.4551 45.8234 50.9691 44.1913C50.5753 42.8684 49.2734 41.979 47.826 41.9248C47.6203 41.9184 47.4997 42.1192 47.5635 42.2978C47.638 42.5018 47.6806 42.7185 47.6806 42.9449Z" fill="white"/>
</g>
<path d="M12.3104 105.042H10.9127L14.0533 96.315H15.5746L18.7152 105.042H17.3175L14.8502 97.9002H14.782L12.3104 105.042ZM12.5448 101.625H17.0789V102.733H12.5448V101.625ZM21.3701 105.187C20.9553 105.187 20.5803 105.11 20.2451 104.957C19.9099 104.801 19.6443 104.575 19.4482 104.279C19.255 103.984 19.1585 103.622 19.1585 103.193C19.1585 102.823 19.2295 102.52 19.3715 102.281C19.5136 102.042 19.7053 101.853 19.9468 101.714C20.1883 101.575 20.4582 101.47 20.7565 101.399C21.0548 101.328 21.3587 101.274 21.6684 101.237C22.0604 101.191 22.3786 101.154 22.6229 101.126C22.8673 101.095 23.0448 101.045 23.1556 100.977C23.2664 100.909 23.3218 100.798 23.3218 100.645V100.615C23.3218 100.243 23.2167 99.9542 23.0065 99.7496C22.7991 99.5451 22.4894 99.4428 22.0775 99.4428C21.6485 99.4428 21.3104 99.538 21.0633 99.7283C20.819 99.9158 20.6499 100.125 20.5562 100.355L19.3587 100.082C19.5008 99.6843 19.7082 99.3633 19.9809 99.1189C20.2565 98.8718 20.5732 98.6928 20.9312 98.582C21.2891 98.4684 21.6656 98.4116 22.0604 98.4116C22.3218 98.4116 22.5988 98.4428 22.8914 98.5053C23.1869 98.565 23.4624 98.6758 23.7181 98.8377C23.9766 98.9996 24.1883 99.2312 24.3531 99.5323C24.5178 99.8306 24.6002 100.218 24.6002 100.696V105.042H23.3559V104.147H23.3048C23.2224 104.312 23.0988 104.474 22.934 104.633C22.7693 104.792 22.5576 104.924 22.2991 105.029C22.0406 105.135 21.7309 105.187 21.3701 105.187ZM21.6471 104.164C21.9994 104.164 22.3005 104.095 22.5505 103.956C22.8033 103.816 22.9951 103.635 23.1258 103.41C23.2593 103.183 23.3261 102.94 23.3261 102.681V101.838C23.2806 101.883 23.1925 101.926 23.0619 101.966C22.934 102.002 22.7877 102.035 22.6229 102.064C22.4582 102.089 22.2977 102.113 22.1414 102.136C21.9852 102.156 21.8545 102.173 21.7494 102.187C21.5022 102.218 21.2764 102.271 21.0718 102.345C20.8701 102.419 20.7082 102.525 20.586 102.664C20.4667 102.801 20.407 102.983 20.407 103.21C20.407 103.525 20.5235 103.764 20.7565 103.926C20.9894 104.085 21.2863 104.164 21.6471 104.164ZM28.3396 105.17C27.8112 105.17 27.3396 105.035 26.9248 104.765C26.5129 104.493 26.189 104.105 25.9532 103.602C25.7203 103.096 25.6038 102.49 25.6038 101.782C25.6038 101.075 25.7217 100.47 25.9575 99.967C26.1961 99.4641 26.5228 99.0792 26.9376 98.8121C27.3524 98.5451 27.8225 98.4116 28.3481 98.4116C28.7544 98.4116 29.0811 98.4797 29.3282 98.6161C29.5782 98.7496 29.7714 98.9059 29.9078 99.0848C30.047 99.2638 30.1549 99.4215 30.2316 99.5579H30.3083V96.315H31.5825V105.042H30.3382V104.024H30.2316C30.1549 104.163 30.0441 104.322 29.8992 104.501C29.7572 104.68 29.5612 104.836 29.3112 104.97C29.0612 105.103 28.7373 105.17 28.3396 105.17ZM28.6208 104.083C28.9873 104.083 29.297 103.987 29.5498 103.794C29.8055 103.598 29.9987 103.326 30.1294 102.98C30.2629 102.633 30.3296 102.23 30.3296 101.77C30.3296 101.315 30.2643 100.917 30.1336 100.576C30.0029 100.235 29.8112 99.9698 29.5583 99.7795C29.3055 99.5891 28.993 99.4939 28.6208 99.4939C28.2373 99.4939 27.9177 99.5934 27.662 99.7922C27.4063 99.9911 27.2132 100.262 27.0825 100.606C26.9546 100.95 26.8907 101.338 26.8907 101.77C26.8907 102.207 26.9561 102.6 27.0867 102.95C27.2174 103.299 27.4106 103.576 27.6663 103.781C27.9248 103.983 28.243 104.083 28.6208 104.083ZM34.2672 101.156V105.042H32.993V96.315H34.2501V99.5621H34.3311C34.4845 99.2098 34.7189 98.93 35.0342 98.7226C35.3496 98.5152 35.7615 98.4116 36.27 98.4116C36.7189 98.4116 37.1109 98.5039 37.4461 98.6885C37.7842 98.8732 38.0456 99.1488 38.2302 99.5152C38.4177 99.8789 38.5115 100.333 38.5115 100.879V105.042H37.2373V101.032C37.2373 100.552 37.1138 100.18 36.8666 99.9158C36.6194 99.6488 36.2757 99.5152 35.8354 99.5152C35.5342 99.5152 35.2643 99.5792 35.0257 99.707C34.7899 99.8348 34.6038 100.022 34.4675 100.27C34.3339 100.514 34.2672 100.809 34.2672 101.156ZM41.7086 105.187C41.2938 105.187 40.9188 105.11 40.5836 104.957C40.2484 104.801 39.9828 104.575 39.7867 104.279C39.5935 103.984 39.497 103.622 39.497 103.193C39.497 102.823 39.568 102.52 39.71 102.281C39.8521 102.042 40.0438 101.853 40.2853 101.714C40.5268 101.575 40.7967 101.47 41.095 101.399C41.3933 101.328 41.6972 101.274 42.0069 101.237C42.3989 101.191 42.7171 101.154 42.9614 101.126C43.2058 101.095 43.3833 101.045 43.4941 100.977C43.6049 100.909 43.6603 100.798 43.6603 100.645V100.615C43.6603 100.243 43.5552 99.9542 43.345 99.7496C43.1376 99.5451 42.8279 99.4428 42.416 99.4428C41.987 99.4428 41.6489 99.538 41.4018 99.7283C41.1575 99.9158 40.9884 100.125 40.8947 100.355L39.6972 100.082C39.8393 99.6843 40.0467 99.3633 40.3194 99.1189C40.595 98.8718 40.9117 98.6928 41.2697 98.582C41.6276 98.4684 42.0041 98.4116 42.3989 98.4116C42.6603 98.4116 42.9373 98.4428 43.2299 98.5053C43.5254 98.565 43.8009 98.6758 44.0566 98.8377C44.3151 98.9996 44.5268 99.2312 44.6916 99.5323C44.8563 99.8306 44.9387 100.218 44.9387 100.696V105.042H43.6944V104.147H43.6433C43.5609 104.312 43.4373 104.474 43.2725 104.633C43.1078 104.792 42.8961 104.924 42.6376 105.029C42.3791 105.135 42.0694 105.187 41.7086 105.187ZM41.9856 104.164C42.3379 104.164 42.639 104.095 42.889 103.956C43.1418 103.816 43.3336 103.635 43.4643 103.41C43.5978 103.183 43.6646 102.94 43.6646 102.681V101.838C43.6191 101.883 43.531 101.926 43.4004 101.966C43.2725 102.002 43.1262 102.035 42.9614 102.064C42.7967 102.089 42.6362 102.113 42.4799 102.136C42.3237 102.156 42.193 102.173 42.0879 102.187C41.8407 102.218 41.6149 102.271 41.4103 102.345C41.2086 102.419 41.0467 102.525 40.9245 102.664C40.8052 102.801 40.7455 102.983 40.7455 103.21C40.7455 103.525 40.862 103.764 41.095 103.926C41.3279 104.085 41.6248 104.164 41.9856 104.164ZM48.1326 105.187C47.7179 105.187 47.3429 105.11 47.0076 104.957C46.6724 104.801 46.4068 104.575 46.2108 104.279C46.0176 103.984 45.921 103.622 45.921 103.193C45.921 102.823 45.992 102.52 46.1341 102.281C46.2761 102.042 46.4679 101.853 46.7093 101.714C46.9508 101.575 47.2207 101.47 47.519 101.399C47.8173 101.328 48.1213 101.274 48.4309 101.237C48.823 101.191 49.1412 101.154 49.3855 101.126C49.6298 101.095 49.8073 101.045 49.9181 100.977C50.0289 100.909 50.0843 100.798 50.0843 100.645V100.615C50.0843 100.243 49.9792 99.9542 49.769 99.7496C49.5616 99.5451 49.252 99.4428 48.84 99.4428C48.411 99.4428 48.073 99.538 47.8258 99.7283C47.5815 99.9158 47.4125 100.125 47.3187 100.355L46.1213 100.082C46.2633 99.6843 46.4707 99.3633 46.7434 99.1189C47.019 98.8718 47.3358 98.6928 47.6937 98.582C48.0517 98.4684 48.4281 98.4116 48.823 98.4116C49.0843 98.4116 49.3613 98.4428 49.6539 98.5053C49.9494 98.565 50.225 98.6758 50.4806 98.8377C50.7392 98.9996 50.9508 99.2312 51.1156 99.5323C51.2804 99.8306 51.3627 100.218 51.3627 100.696V105.042H50.1184V104.147H50.0673C49.9849 104.312 49.8613 104.474 49.6966 104.633C49.5318 104.792 49.3201 104.924 49.0616 105.029C48.8031 105.135 48.4934 105.187 48.1326 105.187ZM48.4096 104.164C48.7619 104.164 49.063 104.095 49.313 103.956C49.5659 103.816 49.7576 103.635 49.8883 103.41C50.0218 103.183 50.0886 102.94 50.0886 102.681V101.838C50.0431 101.883 49.9551 101.926 49.8244 101.966C49.6966 102.002 49.5502 102.035 49.3855 102.064C49.2207 102.089 49.0602 102.113 48.9039 102.136C48.7477 102.156 48.617 102.173 48.5119 102.187C48.2647 102.218 48.0389 102.271 47.8343 102.345C47.6326 102.419 47.4707 102.525 47.3485 102.664C47.2292 102.801 47.1696 102.983 47.1696 103.21C47.1696 103.525 47.286 103.764 47.519 103.926C47.752 104.085 48.0488 104.164 48.4096 104.164ZM52.6518 105.042V98.4968H53.8834V99.5366H53.9516C54.0709 99.1843 54.2811 98.9073 54.5822 98.7056C54.8862 98.501 55.23 98.3988 55.6135 98.3988C55.693 98.3988 55.7868 98.4016 55.8947 98.4073C56.0055 98.413 56.0922 98.4201 56.1547 98.4286V99.6473C56.1035 99.6331 56.0126 99.6175 55.882 99.6005C55.7513 99.5806 55.6206 99.5706 55.4899 99.5706C55.1888 99.5706 54.9203 99.6346 54.6845 99.7624C54.4516 99.8874 54.2669 100.062 54.1305 100.287C53.9942 100.508 53.926 100.761 53.926 101.045V105.042H52.6518ZM62.7321 98.4968V99.5195H59.0333V98.4968H62.7321ZM60.0475 105.042V97.7383C60.0475 97.3292 60.137 96.9897 60.3159 96.7198C60.4949 96.4471 60.7321 96.2439 61.0276 96.1104C61.3231 95.9741 61.6441 95.9059 61.9907 95.9059C62.2463 95.9059 62.4651 95.9272 62.6469 95.9698C62.8287 96.0096 62.9637 96.0465 63.0517 96.0806L62.7534 97.1118C62.6938 97.0948 62.6171 97.0749 62.5233 97.0522C62.4296 97.0266 62.3159 97.0138 62.1824 97.0138C61.8728 97.0138 61.6512 97.0905 61.5177 97.2439C61.387 97.3973 61.3216 97.6189 61.3216 97.9087V105.042H60.0475ZM63.6388 105.042V98.4968H64.8703V99.5366H64.9385C65.0578 99.1843 65.268 98.9073 65.5692 98.7056C65.8731 98.501 66.2169 98.3988 66.6004 98.3988C66.68 98.3988 66.7737 98.4016 66.8817 98.4073C66.9925 98.413 67.0791 98.4201 67.1416 98.4286V99.6473C67.0905 99.6331 66.9996 99.6175 66.8689 99.6005C66.7382 99.5806 66.6075 99.5706 66.4768 99.5706C66.1757 99.5706 65.9072 99.6346 65.6714 99.7624C65.4385 99.8874 65.2538 100.062 65.1175 100.287C64.9811 100.508 64.9129 100.761 64.9129 101.045V105.042H63.6388ZM70.359 105.174C69.7453 105.174 69.2098 105.034 68.7524 104.752C68.295 104.471 67.9399 104.078 67.6871 103.572C67.4343 103.066 67.3078 102.475 67.3078 101.799C67.3078 101.12 67.4343 100.527 67.6871 100.018C67.9399 99.5096 68.295 99.1147 68.7524 98.8334C69.2098 98.5522 69.7453 98.4116 70.359 98.4116C70.9726 98.4116 71.5081 98.5522 71.9655 98.8334C72.4229 99.1147 72.778 99.5096 73.0308 100.018C73.2837 100.527 73.4101 101.12 73.4101 101.799C73.4101 102.475 73.2837 103.066 73.0308 103.572C72.778 104.078 72.4229 104.471 71.9655 104.752C71.5081 105.034 70.9726 105.174 70.359 105.174ZM70.3632 104.105C70.761 104.105 71.0905 104 71.3519 103.789C71.6132 103.579 71.8064 103.299 71.9314 102.95C72.0593 102.6 72.1232 102.216 72.1232 101.795C72.1232 101.377 72.0593 100.994 71.9314 100.645C71.8064 100.292 71.6132 100.01 71.3519 99.7965C71.0905 99.5834 70.761 99.4769 70.3632 99.4769C69.9627 99.4769 69.6303 99.5834 69.3661 99.7965C69.1047 100.01 68.9101 100.292 68.7823 100.645C68.6573 100.994 68.5948 101.377 68.5948 101.795C68.5948 102.216 68.6573 102.6 68.7823 102.95C68.9101 103.299 69.1047 103.579 69.3661 103.789C69.6303 104 69.9627 104.105 70.3632 104.105ZM75.6985 101.156V105.042H74.4243V98.4968H75.6473V99.5621H75.7283C75.8789 99.2155 76.1147 98.9371 76.4357 98.7269C76.7596 98.5167 77.1672 98.4116 77.6587 98.4116C78.1047 98.4116 78.4954 98.5053 78.8306 98.6928C79.1658 98.8775 79.4258 99.153 79.6104 99.5195C79.7951 99.886 79.8874 100.339 79.8874 100.879V105.042H78.6133V101.032C78.6133 100.558 78.4897 100.187 78.2425 99.9201C77.9954 99.6502 77.6559 99.5152 77.2241 99.5152C76.9286 99.5152 76.6658 99.5792 76.4357 99.707C76.2084 99.8348 76.028 100.022 75.8945 100.27C75.7638 100.514 75.6985 100.809 75.6985 101.156ZM84.2436 98.4968V99.5195H80.6683V98.4968H84.2436ZM81.6271 96.9286H82.9013V103.12C82.9013 103.368 82.9382 103.554 83.0121 103.679C83.0859 103.801 83.1811 103.885 83.2976 103.93C83.4169 103.973 83.5462 103.994 83.6854 103.994C83.7876 103.994 83.8771 103.987 83.9538 103.973C84.0305 103.958 84.0902 103.947 84.1328 103.939L84.3629 104.991C84.2891 105.02 84.184 105.048 84.0476 105.076C83.9112 105.108 83.7408 105.125 83.5362 105.127C83.201 105.133 82.8885 105.073 82.5987 104.948C82.309 104.823 82.0746 104.63 81.8956 104.369C81.7166 104.108 81.6271 103.779 81.6271 103.385V96.9286Z" fill="black"/>
<g filter="url(#filter2_dd_1586_1223)">
<path d="M101.695 18.7158C101.695 13.193 106.172 8.71582 111.695 8.71582H169.675C175.197 8.71582 179.675 13.193 179.675 18.7158V73.0681C179.675 78.591 175.197 83.0682 169.675 83.0682H111.695C106.172 83.0682 101.695 78.591 101.695 73.0682V18.7158Z" fill="#F0F0F3"/>
</g>
<g filter="url(#filter3_d_1586_1223)">
<ellipse cx="140.66" cy="44.9851" rx="15.7893" ry="15.4145" fill="url(#paint1_linear_1586_1223)" shape-rendering="crispEdges"/>
<path d="M140.66 29.0706C149.645 29.0706 156.95 36.1842 156.95 44.9846C156.95 53.7852 149.645 60.8997 140.66 60.8997C131.675 60.8995 124.371 53.7851 124.371 44.9846C124.371 36.1843 131.675 29.0707 140.66 29.0706Z" stroke="white" stroke-opacity="0.2" shape-rendering="crispEdges"/>
</g>
<g clip-path="url(#clip1_1586_1223)">
<path d="M140.66 37.8445C137.794 37.8445 135.499 39.0176 133.828 40.4138C132.168 41.7973 131.057 43.4549 130.532 44.5929C130.415 44.8448 130.415 45.1253 130.532 45.3771C131.057 46.5151 132.168 48.1728 133.828 49.5562C135.499 50.9525 137.794 52.1256 140.66 52.1256C143.526 52.1256 145.822 50.9525 147.492 49.5562C149.153 48.1696 150.263 46.5151 150.792 45.3771C150.909 45.1253 150.909 44.8448 150.792 44.5929C150.263 43.4549 149.153 41.7973 147.492 40.4138C145.822 39.0176 143.526 37.8445 140.66 37.8445ZM135.552 44.985C135.552 43.7676 136.09 42.6 137.048 41.7392C138.006 40.8783 139.305 40.3947 140.66 40.3947C142.015 40.3947 143.314 40.8783 144.272 41.7392C145.23 42.6 145.768 43.7676 145.768 44.985C145.768 46.2025 145.23 47.37 144.272 48.2309C143.314 49.0918 142.015 49.5754 140.66 49.5754C139.305 49.5754 138.006 49.0918 137.048 48.2309C136.09 47.37 135.552 46.2025 135.552 44.985ZM140.66 42.9449C140.66 44.0701 139.642 44.985 138.39 44.985C138.138 44.985 137.897 44.9468 137.67 44.8798C137.474 44.8225 137.247 44.9308 137.255 45.1157C137.265 45.3357 137.301 45.5556 137.368 45.7756C137.854 47.4077 139.724 48.3768 141.54 47.9401C143.356 47.5033 144.435 45.8234 143.949 44.1913C143.555 42.8684 142.253 41.979 140.806 41.9248C140.6 41.9184 140.479 42.1192 140.543 42.2978C140.618 42.5018 140.66 42.7185 140.66 42.9449Z" fill="white"/>
</g>
<path d="M105.29 105.042H103.892L107.033 96.315H108.554L111.695 105.042H110.297L107.83 97.9002H107.762L105.29 105.042ZM105.524 101.625H110.058V102.733H105.524V101.625ZM114.35 105.187C113.935 105.187 113.56 105.11 113.225 104.957C112.889 104.801 112.624 104.575 112.428 104.279C112.235 103.984 112.138 103.622 112.138 103.193C112.138 102.823 112.209 102.52 112.351 102.281C112.493 102.042 112.685 101.853 112.926 101.714C113.168 101.575 113.438 101.47 113.736 101.399C114.034 101.328 114.338 101.274 114.648 101.237C115.04 101.191 115.358 101.154 115.602 101.126C115.847 101.095 116.024 101.045 116.135 100.977C116.246 100.909 116.301 100.798 116.301 100.645V100.615C116.301 100.243 116.196 99.9542 115.986 99.7496C115.779 99.5451 115.469 99.4428 115.057 99.4428C114.628 99.4428 114.29 99.538 114.043 99.7283C113.798 99.9158 113.629 100.125 113.536 100.355L112.338 100.082C112.48 99.6843 112.688 99.3633 112.96 99.1189C113.236 98.8718 113.553 98.6928 113.911 98.582C114.269 98.4684 114.645 98.4116 115.04 98.4116C115.301 98.4116 115.578 98.4428 115.871 98.5053C116.166 98.565 116.442 98.6758 116.698 98.8377C116.956 98.9996 117.168 99.2312 117.333 99.5323C117.497 99.8306 117.58 100.218 117.58 100.696V105.042H116.335V104.147H116.284C116.202 104.312 116.078 104.474 115.914 104.633C115.749 104.792 115.537 104.924 115.279 105.029C115.02 105.135 114.71 105.187 114.35 105.187ZM114.627 104.164C114.979 104.164 115.28 104.095 115.53 103.956C115.783 103.816 115.975 103.635 116.105 103.41C116.239 103.183 116.306 102.94 116.306 102.681V101.838C116.26 101.883 116.172 101.926 116.041 101.966C115.914 102.002 115.767 102.035 115.602 102.064C115.438 102.089 115.277 102.113 115.121 102.136C114.965 102.156 114.834 102.173 114.729 102.187C114.482 102.218 114.256 102.271 114.051 102.345C113.85 102.419 113.688 102.525 113.566 102.664C113.446 102.801 113.387 102.983 113.387 103.21C113.387 103.525 113.503 103.764 113.736 103.926C113.969 104.085 114.266 104.164 114.627 104.164ZM121.319 105.17C120.791 105.17 120.319 105.035 119.904 104.765C119.492 104.493 119.169 104.105 118.933 103.602C118.7 103.096 118.583 102.49 118.583 101.782C118.583 101.075 118.701 100.47 118.937 99.967C119.176 99.4641 119.502 99.0792 119.917 98.8121C120.332 98.5451 120.802 98.4116 121.328 98.4116C121.734 98.4116 122.061 98.4797 122.308 98.6161C122.558 98.7496 122.751 98.9059 122.887 99.0848C123.026 99.2638 123.134 99.4215 123.211 99.5579H123.288V96.315H124.562V105.042H123.318V104.024H123.211C123.134 104.163 123.024 104.322 122.879 104.501C122.737 104.68 122.541 104.836 122.291 104.97C122.041 105.103 121.717 105.17 121.319 105.17ZM121.6 104.083C121.967 104.083 122.276 103.987 122.529 103.794C122.785 103.598 122.978 103.326 123.109 102.98C123.242 102.633 123.309 102.23 123.309 101.77C123.309 101.315 123.244 100.917 123.113 100.576C122.982 100.235 122.791 99.9698 122.538 99.7795C122.285 99.5891 121.972 99.4939 121.6 99.4939C121.217 99.4939 120.897 99.5934 120.642 99.7922C120.386 99.9911 120.193 100.262 120.062 100.606C119.934 100.95 119.87 101.338 119.87 101.77C119.87 102.207 119.936 102.6 120.066 102.95C120.197 103.299 120.39 103.576 120.646 103.781C120.904 103.983 121.222 104.083 121.6 104.083ZM127.247 101.156V105.042H125.973V96.315H127.23V99.5621H127.311C127.464 99.2098 127.698 98.93 128.014 98.7226C128.329 98.5152 128.741 98.4116 129.25 98.4116C129.698 98.4116 130.09 98.5039 130.426 98.6885C130.764 98.8732 131.025 99.1488 131.21 99.5152C131.397 99.8789 131.491 100.333 131.491 100.879V105.042H130.217V101.032C130.217 100.552 130.093 100.18 129.846 99.9158C129.599 99.6488 129.255 99.5152 128.815 99.5152C128.514 99.5152 128.244 99.5792 128.005 99.707C127.769 99.8348 127.583 100.022 127.447 100.27C127.313 100.514 127.247 100.809 127.247 101.156ZM134.688 105.187C134.273 105.187 133.898 105.11 133.563 104.957C133.228 104.801 132.962 104.575 132.766 104.279C132.573 103.984 132.476 103.622 132.476 103.193C132.476 102.823 132.547 102.52 132.69 102.281C132.832 102.042 133.023 101.853 133.265 101.714C133.506 101.575 133.776 101.47 134.074 101.399C134.373 101.328 134.677 101.274 134.986 101.237C135.378 101.191 135.697 101.154 135.941 101.126C136.185 101.095 136.363 101.045 136.474 100.977C136.584 100.909 136.64 100.798 136.64 100.645V100.615C136.64 100.243 136.535 99.9542 136.324 99.7496C136.117 99.5451 135.807 99.4428 135.395 99.4428C134.967 99.4428 134.628 99.538 134.381 99.7283C134.137 99.9158 133.968 100.125 133.874 100.355L132.677 100.082C132.819 99.6843 133.026 99.3633 133.299 99.1189C133.574 98.8718 133.891 98.6928 134.249 98.582C134.607 98.4684 134.984 98.4116 135.378 98.4116C135.64 98.4116 135.917 98.4428 136.209 98.5053C136.505 98.565 136.78 98.6758 137.036 98.8377C137.295 98.9996 137.506 99.2312 137.671 99.5323C137.836 99.8306 137.918 100.218 137.918 100.696V105.042H136.674V104.147H136.623C136.54 104.312 136.417 104.474 136.252 104.633C136.087 104.792 135.876 104.924 135.617 105.029C135.359 105.135 135.049 105.187 134.688 105.187ZM134.965 104.164C135.317 104.164 135.618 104.095 135.868 103.956C136.121 103.816 136.313 103.635 136.444 103.41C136.577 103.183 136.644 102.94 136.644 102.681V101.838C136.599 101.883 136.511 101.926 136.38 101.966C136.252 102.002 136.106 102.035 135.941 102.064C135.776 102.089 135.616 102.113 135.459 102.136C135.303 102.156 135.172 102.173 135.067 102.187C134.82 102.218 134.594 102.271 134.39 102.345C134.188 102.419 134.026 102.525 133.904 102.664C133.785 102.801 133.725 102.983 133.725 103.21C133.725 103.525 133.842 103.764 134.074 103.926C134.307 104.085 134.604 104.164 134.965 104.164ZM141.112 105.187C140.697 105.187 140.322 105.11 139.987 104.957C139.652 104.801 139.386 104.575 139.19 104.279C138.997 103.984 138.9 103.622 138.9 103.193C138.9 102.823 138.972 102.52 139.114 102.281C139.256 102.042 139.447 101.853 139.689 101.714C139.93 101.575 140.2 101.47 140.498 101.399C140.797 101.328 141.101 101.274 141.41 101.237C141.802 101.191 142.121 101.154 142.365 101.126C142.609 101.095 142.787 101.045 142.898 100.977C143.008 100.909 143.064 100.798 143.064 100.645V100.615C143.064 100.243 142.959 99.9542 142.748 99.7496C142.541 99.5451 142.231 99.4428 141.82 99.4428C141.391 99.4428 141.052 99.538 140.805 99.7283C140.561 99.9158 140.392 100.125 140.298 100.355L139.101 100.082C139.243 99.6843 139.45 99.3633 139.723 99.1189C139.998 98.8718 140.315 98.6928 140.673 98.582C141.031 98.4684 141.408 98.4116 141.802 98.4116C142.064 98.4116 142.341 98.4428 142.633 98.5053C142.929 98.565 143.204 98.6758 143.46 98.8377C143.719 98.9996 143.93 99.2312 144.095 99.5323C144.26 99.8306 144.342 100.218 144.342 100.696V105.042H143.098V104.147H143.047C142.964 104.312 142.841 104.474 142.676 104.633C142.511 104.792 142.3 104.924 142.041 105.029C141.783 105.135 141.473 105.187 141.112 105.187ZM141.389 104.164C141.741 104.164 142.043 104.095 142.293 103.956C142.545 103.816 142.737 103.635 142.868 103.41C143.001 103.183 143.068 102.94 143.068 102.681V101.838C143.023 101.883 142.935 101.926 142.804 101.966C142.676 102.002 142.53 102.035 142.365 102.064C142.2 102.089 142.04 102.113 141.883 102.136C141.727 102.156 141.597 102.173 141.491 102.187C141.244 102.218 141.018 102.271 140.814 102.345C140.612 102.419 140.45 102.525 140.328 102.664C140.209 102.801 140.149 102.983 140.149 103.21C140.149 103.525 140.266 103.764 140.498 103.926C140.731 104.085 141.028 104.164 141.389 104.164ZM145.631 105.042V98.4968H146.863V99.5366H146.931C147.05 99.1843 147.261 98.9073 147.562 98.7056C147.866 98.501 148.209 98.3988 148.593 98.3988C148.673 98.3988 148.766 98.4016 148.874 98.4073C148.985 98.413 149.072 98.4201 149.134 98.4286V99.6473C149.083 99.6331 148.992 99.6175 148.861 99.6005C148.731 99.5806 148.6 99.5706 148.469 99.5706C148.168 99.5706 147.9 99.6346 147.664 99.7624C147.431 99.8874 147.246 100.062 147.11 100.287C146.974 100.508 146.905 100.761 146.905 101.045V105.042H145.631ZM155.712 98.4968V99.5195H152.013V98.4968H155.712ZM153.027 105.042V97.7383C153.027 97.3292 153.116 96.9897 153.295 96.7198C153.474 96.4471 153.712 96.2439 154.007 96.1104C154.303 95.9741 154.624 95.9059 154.97 95.9059C155.226 95.9059 155.445 95.9272 155.626 95.9698C155.808 96.0096 155.943 96.0465 156.031 96.0806L155.733 97.1118C155.673 97.0948 155.597 97.0749 155.503 97.0522C155.409 97.0266 155.295 97.0138 155.162 97.0138C154.852 97.0138 154.631 97.0905 154.497 97.2439C154.366 97.3973 154.301 97.6189 154.301 97.9087V105.042H153.027ZM156.618 105.042V98.4968H157.85V99.5366H157.918C158.037 99.1843 158.248 98.9073 158.549 98.7056C158.853 98.501 159.196 98.3988 159.58 98.3988C159.659 98.3988 159.753 98.4016 159.861 98.4073C159.972 98.413 160.059 98.4201 160.121 98.4286V99.6473C160.07 99.6331 159.979 99.6175 159.848 99.6005C159.718 99.5806 159.587 99.5706 159.456 99.5706C159.155 99.5706 158.887 99.6346 158.651 99.7624C158.418 99.8874 158.233 100.062 158.097 100.287C157.961 100.508 157.892 100.761 157.892 101.045V105.042H156.618ZM163.338 105.174C162.725 105.174 162.189 105.034 161.732 104.752C161.275 104.471 160.919 104.078 160.667 103.572C160.414 103.066 160.287 102.475 160.287 101.799C160.287 101.12 160.414 100.527 160.667 100.018C160.919 99.5096 161.275 99.1147 161.732 98.8334C162.189 98.5522 162.725 98.4116 163.338 98.4116C163.952 98.4116 164.488 98.5522 164.945 98.8334C165.402 99.1147 165.757 99.5096 166.01 100.018C166.263 100.527 166.39 101.12 166.39 101.799C166.39 102.475 166.263 103.066 166.01 103.572C165.757 104.078 165.402 104.471 164.945 104.752C164.488 105.034 163.952 105.174 163.338 105.174ZM163.343 104.105C163.74 104.105 164.07 104 164.331 103.789C164.593 103.579 164.786 103.299 164.911 102.95C165.039 102.6 165.103 102.216 165.103 101.795C165.103 101.377 165.039 100.994 164.911 100.645C164.786 100.292 164.593 100.01 164.331 99.7965C164.07 99.5834 163.74 99.4769 163.343 99.4769C162.942 99.4769 162.61 99.5834 162.346 99.7965C162.084 100.01 161.89 100.292 161.762 100.645C161.637 100.994 161.574 101.377 161.574 101.795C161.574 102.216 161.637 102.6 161.762 102.95C161.89 103.299 162.084 103.579 162.346 103.789C162.61 104 162.942 104.105 163.343 104.105ZM168.678 101.156V105.042H167.404V98.4968H168.627V99.5621H168.708C168.858 99.2155 169.094 98.9371 169.415 98.7269C169.739 98.5167 170.147 98.4116 170.638 98.4116C171.084 98.4116 171.475 98.5053 171.81 98.6928C172.145 98.8775 172.405 99.153 172.59 99.5195C172.775 99.886 172.867 100.339 172.867 100.879V105.042H171.593V101.032C171.593 100.558 171.469 100.187 171.222 99.9201C170.975 99.6502 170.635 99.5152 170.204 99.5152C169.908 99.5152 169.645 99.5792 169.415 99.707C169.188 99.8348 169.008 100.022 168.874 100.27C168.743 100.514 168.678 100.809 168.678 101.156ZM177.223 98.4968V99.5195H173.648V98.4968H177.223ZM174.607 96.9286H175.881V103.12C175.881 103.368 175.918 103.554 175.992 103.679C176.065 103.801 176.161 103.885 176.277 103.93C176.396 103.973 176.526 103.994 176.665 103.994C176.767 103.994 176.857 103.987 176.933 103.973C177.01 103.958 177.07 103.947 177.112 103.939L177.342 104.991C177.269 105.02 177.163 105.048 177.027 105.076C176.891 105.108 176.72 105.125 176.516 105.127C176.18 105.133 175.868 105.073 175.578 104.948C175.288 104.823 175.054 104.63 174.875 104.369C174.696 104.108 174.607 103.779 174.607 103.385V96.9286Z" fill="black"/>
<g filter="url(#filter4_dd_1586_1223)">
<path d="M194.674 18.7158C194.674 13.193 199.151 8.71582 204.674 8.71582H262.654C268.176 8.71582 272.654 13.193 272.654 18.7158V73.0681C272.654 78.591 268.176 83.0682 262.654 83.0682H204.674C199.151 83.0682 194.674 78.591 194.674 73.0682V18.7158Z" fill="#F0F0F3"/>
</g>
<g filter="url(#filter5_d_1586_1223)">
<ellipse cx="233.639" cy="44.9851" rx="15.7893" ry="15.4145" fill="url(#paint2_linear_1586_1223)" shape-rendering="crispEdges"/>
<path d="M233.639 29.0706C242.623 29.0706 249.928 36.1842 249.929 44.9846C249.929 53.7852 242.624 60.8997 233.639 60.8997C224.654 60.8995 217.35 53.7851 217.35 44.9846C217.35 36.1843 224.654 29.0707 233.639 29.0706Z" stroke="white" stroke-opacity="0.2" shape-rendering="crispEdges"/>
</g>
<g clip-path="url(#clip2_1586_1223)">
<path d="M233.639 37.8445C230.773 37.8445 228.478 39.0176 226.807 40.4138C225.147 41.7973 224.036 43.4549 223.511 44.5929C223.394 44.8448 223.394 45.1253 223.511 45.3771C224.036 46.5151 225.147 48.1728 226.807 49.5562C228.478 50.9525 230.773 52.1256 233.639 52.1256C236.505 52.1256 238.801 50.9525 240.471 49.5562C242.132 48.1696 243.242 46.5151 243.771 45.3771C243.888 45.1253 243.888 44.8448 243.771 44.5929C243.242 43.4549 242.132 41.7973 240.471 40.4138C238.801 39.0176 236.505 37.8445 233.639 37.8445ZM228.531 44.985C228.531 43.7676 229.069 42.6 230.027 41.7392C230.985 40.8783 232.284 40.3947 233.639 40.3947C234.994 40.3947 236.293 40.8783 237.251 41.7392C238.209 42.6 238.747 43.7676 238.747 44.985C238.747 46.2025 238.209 47.37 237.251 48.2309C236.293 49.0918 234.994 49.5754 233.639 49.5754C232.284 49.5754 230.985 49.0918 230.027 48.2309C229.069 47.37 228.531 46.2025 228.531 44.985ZM233.639 42.9449C233.639 44.0701 232.621 44.985 231.369 44.985C231.117 44.985 230.876 44.9468 230.649 44.8798C230.453 44.8225 230.226 44.9308 230.234 45.1157C230.244 45.3357 230.28 45.5556 230.347 45.7756C230.833 47.4077 232.703 48.3768 234.519 47.9401C236.335 47.5033 237.414 45.8234 236.928 44.1913C236.534 42.8684 235.232 41.979 233.785 41.9248C233.579 41.9184 233.458 42.1192 233.522 42.2978C233.597 42.5018 233.639 42.7185 233.639 42.9449Z" fill="white"/>
</g>
<path d="M198.269 105.042H196.871L200.012 96.315H201.533L204.674 105.042H203.276L200.809 97.9002H200.741L198.269 105.042ZM198.503 101.625H203.037V102.733H198.503V101.625ZM207.329 105.187C206.914 105.187 206.539 105.11 206.204 104.957C205.868 104.801 205.603 104.575 205.407 104.279C205.214 103.984 205.117 103.622 205.117 103.193C205.117 102.823 205.188 102.52 205.33 102.281C205.472 102.042 205.664 101.853 205.905 101.714C206.147 101.575 206.417 101.47 206.715 101.399C207.013 101.328 207.317 101.274 207.627 101.237C208.019 101.191 208.337 101.154 208.581 101.126C208.826 101.095 209.003 101.045 209.114 100.977C209.225 100.909 209.28 100.798 209.28 100.645V100.615C209.28 100.243 209.175 99.9542 208.965 99.7496C208.758 99.5451 208.448 99.4428 208.036 99.4428C207.607 99.4428 207.269 99.538 207.022 99.7283C206.777 99.9158 206.608 100.125 206.515 100.355L205.317 100.082C205.459 99.6843 205.667 99.3633 205.939 99.1189C206.215 98.8718 206.532 98.6928 206.89 98.582C207.248 98.4684 207.624 98.4116 208.019 98.4116C208.28 98.4116 208.557 98.4428 208.85 98.5053C209.145 98.565 209.421 98.6758 209.677 98.8377C209.935 98.9996 210.147 99.2312 210.312 99.5323C210.476 99.8306 210.559 100.218 210.559 100.696V105.042H209.314V104.147H209.263C209.181 104.312 209.057 104.474 208.893 104.633C208.728 104.792 208.516 104.924 208.258 105.029C207.999 105.135 207.689 105.187 207.329 105.187ZM207.606 104.164C207.958 104.164 208.259 104.095 208.509 103.956C208.762 103.816 208.954 103.635 209.084 103.41C209.218 103.183 209.285 102.94 209.285 102.681V101.838C209.239 101.883 209.151 101.926 209.02 101.966C208.893 102.002 208.746 102.035 208.581 102.064C208.417 102.089 208.256 102.113 208.1 102.136C207.944 102.156 207.813 102.173 207.708 102.187C207.461 102.218 207.235 102.271 207.03 102.345C206.829 102.419 206.667 102.525 206.545 102.664C206.425 102.801 206.366 102.983 206.366 103.21C206.366 103.525 206.482 103.764 206.715 103.926C206.948 104.085 207.245 104.164 207.606 104.164ZM214.298 105.17C213.77 105.17 213.298 105.035 212.883 104.765C212.471 104.493 212.148 104.105 211.912 103.602C211.679 103.096 211.562 102.49 211.562 101.782C211.562 101.075 211.68 100.47 211.916 99.967C212.155 99.4641 212.481 99.0792 212.896 98.8121C213.311 98.5451 213.781 98.4116 214.307 98.4116C214.713 98.4116 215.04 98.4797 215.287 98.6161C215.537 98.7496 215.73 98.9059 215.866 99.0848C216.005 99.2638 216.113 99.4215 216.19 99.5579H216.267V96.315H217.541V105.042H216.297V104.024H216.19C216.113 104.163 216.003 104.322 215.858 104.501C215.716 104.68 215.52 104.836 215.27 104.97C215.02 105.103 214.696 105.17 214.298 105.17ZM214.579 104.083C214.946 104.083 215.255 103.987 215.508 103.794C215.764 103.598 215.957 103.326 216.088 102.98C216.221 102.633 216.288 102.23 216.288 101.77C216.288 101.315 216.223 100.917 216.092 100.576C215.961 100.235 215.77 99.9698 215.517 99.7795C215.264 99.5891 214.951 99.4939 214.579 99.4939C214.196 99.4939 213.876 99.5934 213.621 99.7922C213.365 99.9911 213.172 100.262 213.041 100.606C212.913 100.95 212.849 101.338 212.849 101.77C212.849 102.207 212.915 102.6 213.045 102.95C213.176 103.299 213.369 103.576 213.625 103.781C213.883 103.983 214.201 104.083 214.579 104.083ZM220.226 101.156V105.042H218.952V96.315H220.209V99.5621H220.29C220.443 99.2098 220.677 98.93 220.993 98.7226C221.308 98.5152 221.72 98.4116 222.229 98.4116C222.677 98.4116 223.069 98.5039 223.405 98.6885C223.743 98.8732 224.004 99.1488 224.189 99.5152C224.376 99.8789 224.47 100.333 224.47 100.879V105.042H223.196V101.032C223.196 100.552 223.072 100.18 222.825 99.9158C222.578 99.6488 222.234 99.5152 221.794 99.5152C221.493 99.5152 221.223 99.5792 220.984 99.707C220.748 99.8348 220.562 100.022 220.426 100.27C220.292 100.514 220.226 100.809 220.226 101.156ZM227.667 105.187C227.252 105.187 226.877 105.11 226.542 104.957C226.207 104.801 225.941 104.575 225.745 104.279C225.552 103.984 225.455 103.622 225.455 103.193C225.455 102.823 225.526 102.52 225.669 102.281C225.811 102.042 226.002 101.853 226.244 101.714C226.485 101.575 226.755 101.47 227.053 101.399C227.352 101.328 227.656 101.274 227.965 101.237C228.357 101.191 228.676 101.154 228.92 101.126C229.164 101.095 229.342 101.045 229.453 100.977C229.563 100.909 229.619 100.798 229.619 100.645V100.615C229.619 100.243 229.514 99.9542 229.303 99.7496C229.096 99.5451 228.786 99.4428 228.374 99.4428C227.946 99.4428 227.607 99.538 227.36 99.7283C227.116 99.9158 226.947 100.125 226.853 100.355L225.656 100.082C225.798 99.6843 226.005 99.3633 226.278 99.1189C226.553 98.8718 226.87 98.6928 227.228 98.582C227.586 98.4684 227.963 98.4116 228.357 98.4116C228.619 98.4116 228.896 98.4428 229.188 98.5053C229.484 98.565 229.759 98.6758 230.015 98.8377C230.274 98.9996 230.485 99.2312 230.65 99.5323C230.815 99.8306 230.897 100.218 230.897 100.696V105.042H229.653V104.147H229.602C229.519 104.312 229.396 104.474 229.231 104.633C229.066 104.792 228.855 104.924 228.596 105.029C228.338 105.135 228.028 105.187 227.667 105.187ZM227.944 104.164C228.296 104.164 228.597 104.095 228.847 103.956C229.1 103.816 229.292 103.635 229.423 103.41C229.556 103.183 229.623 102.94 229.623 102.681V101.838C229.578 101.883 229.49 101.926 229.359 101.966C229.231 102.002 229.085 102.035 228.92 102.064C228.755 102.089 228.595 102.113 228.438 102.136C228.282 102.156 228.151 102.173 228.046 102.187C227.799 102.218 227.573 102.271 227.369 102.345C227.167 102.419 227.005 102.525 226.883 102.664C226.764 102.801 226.704 102.983 226.704 103.21C226.704 103.525 226.821 103.764 227.053 103.926C227.286 104.085 227.583 104.164 227.944 104.164ZM234.091 105.187C233.676 105.187 233.301 105.11 232.966 104.957C232.631 104.801 232.365 104.575 232.169 104.279C231.976 103.984 231.879 103.622 231.879 103.193C231.879 102.823 231.951 102.52 232.093 102.281C232.235 102.042 232.426 101.853 232.668 101.714C232.909 101.575 233.179 101.47 233.477 101.399C233.776 101.328 234.08 101.274 234.389 101.237C234.781 101.191 235.1 101.154 235.344 101.126C235.588 101.095 235.766 101.045 235.877 100.977C235.987 100.909 236.043 100.798 236.043 100.645V100.615C236.043 100.243 235.938 99.9542 235.727 99.7496C235.52 99.5451 235.21 99.4428 234.799 99.4428C234.37 99.4428 234.031 99.538 233.784 99.7283C233.54 99.9158 233.371 100.125 233.277 100.355L232.08 100.082C232.222 99.6843 232.429 99.3633 232.702 99.1189C232.977 98.8718 233.294 98.6928 233.652 98.582C234.01 98.4684 234.387 98.4116 234.781 98.4116C235.043 98.4116 235.32 98.4428 235.612 98.5053C235.908 98.565 236.183 98.6758 236.439 98.8377C236.698 98.9996 236.909 99.2312 237.074 99.5323C237.239 99.8306 237.321 100.218 237.321 100.696V105.042H236.077V104.147H236.026C235.943 104.312 235.82 104.474 235.655 104.633C235.49 104.792 235.279 104.924 235.02 105.029C234.762 105.135 234.452 105.187 234.091 105.187ZM234.368 104.164C234.72 104.164 235.022 104.095 235.272 103.956C235.524 103.816 235.716 103.635 235.847 103.41C235.98 103.183 236.047 102.94 236.047 102.681V101.838C236.002 101.883 235.914 101.926 235.783 101.966C235.655 102.002 235.509 102.035 235.344 102.064C235.179 102.089 235.019 102.113 234.862 102.136C234.706 102.156 234.576 102.173 234.47 102.187C234.223 102.218 233.997 102.271 233.793 102.345C233.591 102.419 233.429 102.525 233.307 102.664C233.188 102.801 233.128 102.983 233.128 103.21C233.128 103.525 233.245 103.764 233.477 103.926C233.71 104.085 234.007 104.164 234.368 104.164ZM238.61 105.042V98.4968H239.842V99.5366H239.91C240.029 99.1843 240.24 98.9073 240.541 98.7056C240.845 98.501 241.188 98.3988 241.572 98.3988C241.652 98.3988 241.745 98.4016 241.853 98.4073C241.964 98.413 242.051 98.4201 242.113 98.4286V99.6473C242.062 99.6331 241.971 99.6175 241.84 99.6005C241.71 99.5806 241.579 99.5706 241.448 99.5706C241.147 99.5706 240.879 99.6346 240.643 99.7624C240.41 99.8874 240.225 100.062 240.089 100.287C239.953 100.508 239.884 100.761 239.884 101.045V105.042H238.61ZM248.691 98.4968V99.5195H244.992V98.4968H248.691ZM246.006 105.042V97.7383C246.006 97.3292 246.095 96.9897 246.274 96.7198C246.453 96.4471 246.691 96.2439 246.986 96.1104C247.282 95.9741 247.603 95.9059 247.949 95.9059C248.205 95.9059 248.424 95.9272 248.605 95.9698C248.787 96.0096 248.922 96.0465 249.01 96.0806L248.712 97.1118C248.652 97.0948 248.576 97.0749 248.482 97.0522C248.388 97.0266 248.274 97.0138 248.141 97.0138C247.831 97.0138 247.61 97.0905 247.476 97.2439C247.345 97.3973 247.28 97.6189 247.28 97.9087V105.042H246.006ZM249.597 105.042V98.4968H250.829V99.5366H250.897C251.016 99.1843 251.227 98.9073 251.528 98.7056C251.832 98.501 252.175 98.3988 252.559 98.3988C252.638 98.3988 252.732 98.4016 252.84 98.4073C252.951 98.413 253.038 98.4201 253.1 98.4286V99.6473C253.049 99.6331 252.958 99.6175 252.827 99.6005C252.697 99.5806 252.566 99.5706 252.435 99.5706C252.134 99.5706 251.866 99.6346 251.63 99.7624C251.397 99.8874 251.212 100.062 251.076 100.287C250.94 100.508 250.871 100.761 250.871 101.045V105.042H249.597ZM256.317 105.174C255.704 105.174 255.168 105.034 254.711 104.752C254.254 104.471 253.898 104.078 253.646 103.572C253.393 103.066 253.266 102.475 253.266 101.799C253.266 101.12 253.393 100.527 253.646 100.018C253.898 99.5096 254.254 99.1147 254.711 98.8334C255.168 98.5522 255.704 98.4116 256.317 98.4116C256.931 98.4116 257.467 98.5522 257.924 98.8334C258.381 99.1147 258.736 99.5096 258.989 100.018C259.242 100.527 259.369 101.12 259.369 101.799C259.369 102.475 259.242 103.066 258.989 103.572C258.736 104.078 258.381 104.471 257.924 104.752C257.467 105.034 256.931 105.174 256.317 105.174ZM256.322 104.105C256.719 104.105 257.049 104 257.31 103.789C257.572 103.579 257.765 103.299 257.89 102.95C258.018 102.6 258.082 102.216 258.082 101.795C258.082 101.377 258.018 100.994 257.89 100.645C257.765 100.292 257.572 100.01 257.31 99.7965C257.049 99.5834 256.719 99.4769 256.322 99.4769C255.921 99.4769 255.589 99.5834 255.325 99.7965C255.063 100.01 254.869 100.292 254.741 100.645C254.616 100.994 254.553 101.377 254.553 101.795C254.553 102.216 254.616 102.6 254.741 102.95C254.869 103.299 255.063 103.579 255.325 103.789C255.589 104 255.921 104.105 256.322 104.105ZM261.657 101.156V105.042H260.383V98.4968H261.606V99.5621H261.687C261.837 99.2155 262.073 98.9371 262.394 98.7269C262.718 98.5167 263.126 98.4116 263.617 98.4116C264.063 98.4116 264.454 98.5053 264.789 98.6928C265.124 98.8775 265.384 99.153 265.569 99.5195C265.754 99.886 265.846 100.339 265.846 100.879V105.042H264.572V101.032C264.572 100.558 264.448 100.187 264.201 99.9201C263.954 99.6502 263.614 99.5152 263.183 99.5152C262.887 99.5152 262.624 99.5792 262.394 99.707C262.167 99.8348 261.987 100.022 261.853 100.27C261.722 100.514 261.657 100.809 261.657 101.156ZM270.202 98.4968V99.5195H266.627V98.4968H270.202ZM267.586 96.9286H268.86V103.12C268.86 103.368 268.897 103.554 268.971 103.679C269.044 103.801 269.14 103.885 269.256 103.93C269.375 103.973 269.505 103.994 269.644 103.994C269.746 103.994 269.836 103.987 269.912 103.973C269.989 103.958 270.049 103.947 270.091 103.939L270.321 104.991C270.248 105.02 270.142 105.048 270.006 105.076C269.87 105.108 269.699 105.125 269.495 105.127C269.159 105.133 268.847 105.073 268.557 104.948C268.267 104.823 268.033 104.63 267.854 104.369C267.675 104.108 267.586 103.779 267.586 103.385V96.9286Z" fill="black"/>
<g filter="url(#filter6_dd_1586_1223)">
<path d="M287.654 18.7158C287.654 13.193 292.131 8.71582 297.654 8.71582H355.633C361.156 8.71582 365.633 13.193 365.633 18.7158V73.0681C365.633 78.591 361.156 83.0682 355.633 83.0682H297.654C292.131 83.0682 287.654 78.591 287.654 73.0682V18.7158Z" fill="#F0F0F3"/>
</g>
<g filter="url(#filter7_d_1586_1223)">
<ellipse cx="326.619" cy="44.9851" rx="15.7893" ry="15.4145" fill="url(#paint3_linear_1586_1223)" shape-rendering="crispEdges"/>
<path d="M326.619 29.0706C335.603 29.0706 342.908 36.1842 342.909 44.9846C342.909 53.7852 335.604 60.8997 326.619 60.8997C317.634 60.8995 310.33 53.7851 310.33 44.9846C310.33 36.1843 317.634 29.0707 326.619 29.0706Z" stroke="white" stroke-opacity="0.2" shape-rendering="crispEdges"/>
</g>
<g clip-path="url(#clip3_1586_1223)">
<path d="M326.619 37.8445C323.753 37.8445 321.458 39.0176 319.787 40.4138C318.126 41.7973 317.016 43.4549 316.491 44.5929C316.374 44.8448 316.374 45.1253 316.491 45.3771C317.016 46.5151 318.126 48.1728 319.787 49.5562C321.458 50.9525 323.753 52.1256 326.619 52.1256C329.485 52.1256 331.781 50.9525 333.451 49.5562C335.112 48.1696 336.222 46.5151 336.751 45.3771C336.868 45.1253 336.868 44.8448 336.751 44.5929C336.222 43.4549 335.112 41.7973 333.451 40.4138C331.781 39.0176 329.485 37.8445 326.619 37.8445ZM321.511 44.985C321.511 43.7676 322.049 42.6 323.007 41.7392C323.965 40.8783 325.264 40.3947 326.619 40.3947C327.974 40.3947 329.273 40.8783 330.231 41.7392C331.189 42.6 331.727 43.7676 331.727 44.985C331.727 46.2025 331.189 47.37 330.231 48.2309C329.273 49.0918 327.974 49.5754 326.619 49.5754C325.264 49.5754 323.965 49.0918 323.007 48.2309C322.049 47.37 321.511 46.2025 321.511 44.985ZM326.619 42.9449C326.619 44.0701 325.601 44.985 324.349 44.985C324.097 44.985 323.856 44.9468 323.629 44.8798C323.433 44.8225 323.206 44.9308 323.214 45.1157C323.224 45.3357 323.26 45.5556 323.327 45.7756C323.813 47.4077 325.683 48.3768 327.499 47.9401C329.315 47.5033 330.394 45.8234 329.908 44.1913C329.514 42.8684 328.212 41.979 326.765 41.9248C326.559 41.9184 326.438 42.1192 326.502 42.2978C326.576 42.5018 326.619 42.7185 326.619 42.9449Z" fill="white"/>
</g>
<path d="M291.248 105.042H289.851L292.991 96.315H294.513L297.653 105.042H296.256L293.788 97.9002H293.72L291.248 105.042ZM291.483 101.625H296.017V102.733H291.483V101.625ZM300.308 105.187C299.893 105.187 299.518 105.11 299.183 104.957C298.848 104.801 298.582 104.575 298.386 104.279C298.193 103.984 298.096 103.622 298.096 103.193C298.096 102.823 298.167 102.52 298.31 102.281C298.452 102.042 298.643 101.853 298.885 101.714C299.126 101.575 299.396 101.47 299.694 101.399C299.993 101.328 300.297 101.274 300.606 101.237C300.998 101.191 301.317 101.154 301.561 101.126C301.805 101.095 301.983 101.045 302.094 100.977C302.204 100.909 302.26 100.798 302.26 100.645V100.615C302.26 100.243 302.155 99.9542 301.944 99.7496C301.737 99.5451 301.427 99.4428 301.015 99.4428C300.586 99.4428 300.248 99.538 300.001 99.7283C299.757 99.9158 299.588 100.125 299.494 100.355L298.297 100.082C298.439 99.6843 298.646 99.3633 298.919 99.1189C299.194 98.8718 299.511 98.6928 299.869 98.582C300.227 98.4684 300.604 98.4116 300.998 98.4116C301.26 98.4116 301.537 98.4428 301.829 98.5053C302.125 98.565 302.4 98.6758 302.656 98.8377C302.915 98.9996 303.126 99.2312 303.291 99.5323C303.456 99.8306 303.538 100.218 303.538 100.696V105.042H302.294V104.147H302.243C302.16 104.312 302.037 104.474 301.872 104.633C301.707 104.792 301.496 104.924 301.237 105.029C300.979 105.135 300.669 105.187 300.308 105.187ZM300.585 104.164C300.937 104.164 301.238 104.095 301.488 103.956C301.741 103.816 301.933 103.635 302.064 103.41C302.197 103.183 302.264 102.94 302.264 102.681V101.838C302.219 101.883 302.131 101.926 302 101.966C301.872 102.002 301.726 102.035 301.561 102.064C301.396 102.089 301.236 102.113 301.079 102.136C300.923 102.156 300.792 102.173 300.687 102.187C300.44 102.218 300.214 102.271 300.01 102.345C299.808 102.419 299.646 102.525 299.524 102.664C299.405 102.801 299.345 102.983 299.345 103.21C299.345 103.525 299.461 103.764 299.694 103.926C299.927 104.085 300.224 104.164 300.585 104.164ZM307.278 105.17C306.749 105.17 306.278 105.035 305.863 104.765C305.451 104.493 305.127 104.105 304.891 103.602C304.658 103.096 304.542 102.49 304.542 101.782C304.542 101.075 304.66 100.47 304.895 99.967C305.134 99.4641 305.461 99.0792 305.876 98.8121C306.29 98.5451 306.761 98.4116 307.286 98.4116C307.692 98.4116 308.019 98.4797 308.266 98.6161C308.516 98.7496 308.709 98.9059 308.846 99.0848C308.985 99.2638 309.093 99.4215 309.17 99.5579H309.246V96.315H310.52V105.042H309.276V104.024H309.17C309.093 104.163 308.982 104.322 308.837 104.501C308.695 104.68 308.499 104.836 308.249 104.97C307.999 105.103 307.675 105.17 307.278 105.17ZM307.559 104.083C307.925 104.083 308.235 103.987 308.488 103.794C308.743 103.598 308.937 103.326 309.067 102.98C309.201 102.633 309.268 102.23 309.268 101.77C309.268 101.315 309.202 100.917 309.072 100.576C308.941 100.235 308.749 99.9698 308.496 99.7795C308.243 99.5891 307.931 99.4939 307.559 99.4939C307.175 99.4939 306.856 99.5934 306.6 99.7922C306.344 99.9911 306.151 100.262 306.02 100.606C305.893 100.95 305.829 101.338 305.829 101.77C305.829 102.207 305.894 102.6 306.025 102.95C306.155 103.299 306.349 103.576 306.604 103.781C306.863 103.983 307.181 104.083 307.559 104.083ZM313.205 101.156V105.042H311.931V96.315H313.188V99.5621H313.269C313.422 99.2098 313.657 98.93 313.972 98.7226C314.288 98.5152 314.699 98.4116 315.208 98.4116C315.657 98.4116 316.049 98.5039 316.384 98.6885C316.722 98.8732 316.984 99.1488 317.168 99.5152C317.356 99.8789 317.449 100.333 317.449 100.879V105.042H316.175V101.032C316.175 100.552 316.052 100.18 315.805 99.9158C315.557 99.6488 315.214 99.5152 314.773 99.5152C314.472 99.5152 314.202 99.5792 313.964 99.707C313.728 99.8348 313.542 100.022 313.405 100.27C313.272 100.514 313.205 100.809 313.205 101.156ZM320.647 105.187C320.232 105.187 319.857 105.11 319.522 104.957C319.186 104.801 318.921 104.575 318.725 104.279C318.532 103.984 318.435 103.622 318.435 103.193C318.435 102.823 318.506 102.52 318.648 102.281C318.79 102.042 318.982 101.853 319.223 101.714C319.465 101.575 319.735 101.47 320.033 101.399C320.331 101.328 320.635 101.274 320.945 101.237C321.337 101.191 321.655 101.154 321.899 101.126C322.144 101.095 322.321 101.045 322.432 100.977C322.543 100.909 322.598 100.798 322.598 100.645V100.615C322.598 100.243 322.493 99.9542 322.283 99.7496C322.076 99.5451 321.766 99.4428 321.354 99.4428C320.925 99.4428 320.587 99.538 320.34 99.7283C320.095 99.9158 319.926 100.125 319.833 100.355L318.635 100.082C318.777 99.6843 318.985 99.3633 319.257 99.1189C319.533 98.8718 319.85 98.6928 320.208 98.582C320.566 98.4684 320.942 98.4116 321.337 98.4116C321.598 98.4116 321.875 98.4428 322.168 98.5053C322.463 98.565 322.739 98.6758 322.995 98.8377C323.253 98.9996 323.465 99.2312 323.63 99.5323C323.794 99.8306 323.877 100.218 323.877 100.696V105.042H322.632V104.147H322.581C322.499 104.312 322.375 104.474 322.211 104.633C322.046 104.792 321.834 104.924 321.576 105.029C321.317 105.135 321.007 105.187 320.647 105.187ZM320.924 104.164C321.276 104.164 321.577 104.095 321.827 103.956C322.08 103.816 322.272 103.635 322.402 103.41C322.536 103.183 322.603 102.94 322.603 102.681V101.838C322.557 101.883 322.469 101.926 322.338 101.966C322.211 102.002 322.064 102.035 321.899 102.064C321.735 102.089 321.574 102.113 321.418 102.136C321.262 102.156 321.131 102.173 321.026 102.187C320.779 102.218 320.553 102.271 320.348 102.345C320.147 102.419 319.985 102.525 319.863 102.664C319.743 102.801 319.684 102.983 319.684 103.21C319.684 103.525 319.8 103.764 320.033 103.926C320.266 104.085 320.563 104.164 320.924 104.164ZM327.071 105.187C326.656 105.187 326.281 105.11 325.946 104.957C325.61 104.801 325.345 104.575 325.149 104.279C324.956 103.984 324.859 103.622 324.859 103.193C324.859 102.823 324.93 102.52 325.072 102.281C325.214 102.042 325.406 101.853 325.647 101.714C325.889 101.575 326.159 101.47 326.457 101.399C326.755 101.328 327.059 101.274 327.369 101.237C327.761 101.191 328.079 101.154 328.323 101.126C328.568 101.095 328.745 101.045 328.856 100.977C328.967 100.909 329.022 100.798 329.022 100.645V100.615C329.022 100.243 328.917 99.9542 328.707 99.7496C328.5 99.5451 328.19 99.4428 327.778 99.4428C327.349 99.4428 327.011 99.538 326.764 99.7283C326.519 99.9158 326.35 100.125 326.257 100.355L325.059 100.082C325.201 99.6843 325.409 99.3633 325.681 99.1189C325.957 98.8718 326.274 98.6928 326.632 98.582C326.99 98.4684 327.366 98.4116 327.761 98.4116C328.022 98.4116 328.299 98.4428 328.592 98.5053C328.887 98.565 329.163 98.6758 329.419 98.8377C329.677 98.9996 329.889 99.2312 330.054 99.5323C330.218 99.8306 330.301 100.218 330.301 100.696V105.042H329.056V104.147H329.005C328.923 104.312 328.799 104.474 328.635 104.633C328.47 104.792 328.258 104.924 328 105.029C327.741 105.135 327.431 105.187 327.071 105.187ZM327.348 104.164C327.7 104.164 328.001 104.095 328.251 103.956C328.504 103.816 328.696 103.635 328.826 103.41C328.96 103.183 329.027 102.94 329.027 102.681V101.838C328.981 101.883 328.893 101.926 328.762 101.966C328.635 102.002 328.488 102.035 328.323 102.064C328.159 102.089 327.998 102.113 327.842 102.136C327.686 102.156 327.555 102.173 327.45 102.187C327.203 102.218 326.977 102.271 326.772 102.345C326.571 102.419 326.409 102.525 326.287 102.664C326.167 102.801 326.108 102.983 326.108 103.21C326.108 103.525 326.224 103.764 326.457 103.926C326.69 104.085 326.987 104.164 327.348 104.164ZM331.59 105.042V98.4968H332.821V99.5366H332.89C333.009 99.1843 333.219 98.9073 333.52 98.7056C333.824 98.501 334.168 98.3988 334.551 98.3988C334.631 98.3988 334.725 98.4016 334.833 98.4073C334.944 98.413 335.03 98.4201 335.093 98.4286V99.6473C335.042 99.6331 334.951 99.6175 334.82 99.6005C334.689 99.5806 334.559 99.5706 334.428 99.5706C334.127 99.5706 333.858 99.6346 333.622 99.7624C333.39 99.8874 333.205 100.062 333.069 100.287C332.932 100.508 332.864 100.761 332.864 101.045V105.042H331.59ZM341.67 98.4968V99.5195H337.971V98.4968H341.67ZM338.985 105.042V97.7383C338.985 97.3292 339.075 96.9897 339.254 96.7198C339.433 96.4471 339.67 96.2439 339.966 96.1104C340.261 95.9741 340.582 95.9059 340.929 95.9059C341.184 95.9059 341.403 95.9272 341.585 95.9698C341.767 96.0096 341.902 96.0465 341.99 96.0806L341.691 97.1118C341.632 97.0948 341.555 97.0749 341.461 97.0522C341.368 97.0266 341.254 97.0138 341.12 97.0138C340.811 97.0138 340.589 97.0905 340.456 97.2439C340.325 97.3973 340.26 97.6189 340.26 97.9087V105.042H338.985ZM342.577 105.042V98.4968H343.808V99.5366H343.876C343.996 99.1843 344.206 98.9073 344.507 98.7056C344.811 98.501 345.155 98.3988 345.538 98.3988C345.618 98.3988 345.712 98.4016 345.82 98.4073C345.93 98.413 346.017 98.4201 346.08 98.4286V99.6473C346.028 99.6331 345.938 99.6175 345.807 99.6005C345.676 99.5806 345.546 99.5706 345.415 99.5706C345.114 99.5706 344.845 99.6346 344.609 99.7624C344.376 99.8874 344.192 100.062 344.055 100.287C343.919 100.508 343.851 100.761 343.851 101.045V105.042H342.577ZM349.297 105.174C348.683 105.174 348.148 105.034 347.69 104.752C347.233 104.471 346.878 104.078 346.625 103.572C346.372 103.066 346.246 102.475 346.246 101.799C346.246 101.12 346.372 100.527 346.625 100.018C346.878 99.5096 347.233 99.1147 347.69 98.8334C348.148 98.5522 348.683 98.4116 349.297 98.4116C349.911 98.4116 350.446 98.5522 350.903 98.8334C351.361 99.1147 351.716 99.5096 351.969 100.018C352.222 100.527 352.348 101.12 352.348 101.799C352.348 102.475 352.222 103.066 351.969 103.572C351.716 104.078 351.361 104.471 350.903 104.752C350.446 105.034 349.911 105.174 349.297 105.174ZM349.301 104.105C349.699 104.105 350.028 104 350.29 103.789C350.551 103.579 350.744 103.299 350.869 102.95C350.997 102.6 351.061 102.216 351.061 101.795C351.061 101.377 350.997 100.994 350.869 100.645C350.744 100.292 350.551 100.01 350.29 99.7965C350.028 99.5834 349.699 99.4769 349.301 99.4769C348.901 99.4769 348.568 99.5834 348.304 99.7965C348.043 100.01 347.848 100.292 347.72 100.645C347.595 100.994 347.533 101.377 347.533 101.795C347.533 102.216 347.595 102.6 347.72 102.95C347.848 103.299 348.043 103.579 348.304 103.789C348.568 104 348.901 104.105 349.301 104.105ZM354.636 101.156V105.042H353.362V98.4968H354.585V99.5621H354.666C354.817 99.2155 355.053 98.9371 355.374 98.7269C355.698 98.5167 356.105 98.4116 356.597 98.4116C357.043 98.4116 357.433 98.5053 357.769 98.6928C358.104 98.8775 358.364 99.153 358.548 99.5195C358.733 99.886 358.825 100.339 358.825 100.879V105.042H357.551V101.032C357.551 100.558 357.428 100.187 357.181 99.9201C356.933 99.6502 356.594 99.5152 356.162 99.5152C355.867 99.5152 355.604 99.5792 355.374 99.707C355.146 99.8348 354.966 100.022 354.832 100.27C354.702 100.514 354.636 100.809 354.636 101.156ZM363.182 98.4968V99.5195H359.606V98.4968H363.182ZM360.565 96.9286H361.839V103.12C361.839 103.368 361.876 103.554 361.95 103.679C362.024 103.801 362.119 103.885 362.236 103.93C362.355 103.973 362.484 103.994 362.623 103.994C362.726 103.994 362.815 103.987 362.892 103.973C362.969 103.958 363.028 103.947 363.071 103.939L363.301 104.991C363.227 105.02 363.122 105.048 362.986 105.076C362.849 105.108 362.679 105.125 362.474 105.127C362.139 105.133 361.826 105.073 361.537 104.948C361.247 104.823 361.013 104.63 360.834 104.369C360.655 104.108 360.565 103.779 360.565 103.385V96.9286Z" fill="black"/>
<defs>
<filter id="filter0_dd_1586_1223" x="9.10759e-05" y="9.10759e-05" width="95.411" height="91.7838" filterUnits="userSpaceOnUse" color-interpolation-filters="sRGB">
<feFlood flood-opacity="0" result="BackgroundImageFix"/>
<feColorMatrix in="SourceAlpha" type="matrix" values="0 0 0 0 0 0 0 0 0 0 0 0 0 0 0 0 0 0 127 0" result="hardAlpha"/>
<feOffset dx="2.17893" dy="2.17893"/>
<feGaussianBlur stdDeviation="3.2684"/>
<feColorMatrix type="matrix" values="0 0 0 0 0.682353 0 0 0 0 0.682353 0 0 0 0 0.752941 0 0 0 0.4 0"/>
<feBlend mode="normal" in2="BackgroundImageFix" result="effect1_dropShadow_1586_1223"/>
<feColorMatrix in="SourceAlpha" type="matrix" values="0 0 0 0 0 0 0 0 0 0 0 0 0 0 0 0 0 0 127 0" result="hardAlpha"/>
<feOffset dx="-2.17893" dy="-2.17893"/>
<feGaussianBlur stdDeviation="3.2684"/>
<feColorMatrix type="matrix" values="0 0 0 0 1 0 0 0 0 1 0 0 0 0 1 0 0 0 1 0"/>
<feBlend mode="normal" in2="effect1_dropShadow_1586_1223" result="effect2_dropShadow_1586_1223"/>
<feBlend mode="normal" in="SourceGraphic" in2="effect2_dropShadow_1586_1223" result="shape"/>
</filter>
<filter id="filter1_d_1586_1223" x="28.8916" y="26.5706" width="37.5786" height="36.8291" filterUnits="userSpaceOnUse" color-interpolation-filters="sRGB">
<feFlood flood-opacity="0" result="BackgroundImageFix"/>
<feColorMatrix in="SourceAlpha" type="matrix" values="0 0 0 0 0 0 0 0 0 0 0 0 0 0 0 0 0 0 127 0" result="hardAlpha"/>
<feOffset/>
<feGaussianBlur stdDeviation="1"/>
<feComposite in2="hardAlpha" operator="out"/>
<feColorMatrix type="matrix" values="0 0 0 0 0 0 0 0 0 0 0 0 0 0 0 0 0 0 0.25 0"/>
<feBlend mode="normal" in2="BackgroundImageFix" result="effect1_dropShadow_1586_1223"/>
<feBlend mode="normal" in="SourceGraphic" in2="effect1_dropShadow_1586_1223" result="shape"/>
</filter>
<filter id="filter2_dd_1586_1223" x="92.9796" y="9.10759e-05" width="95.411" height="91.7838" filterUnits="userSpaceOnUse" color-interpolation-filters="sRGB">
<feFlood flood-opacity="0" result="BackgroundImageFix"/>
<feColorMatrix in="SourceAlpha" type="matrix" values="0 0 0 0 0 0 0 0 0 0 0 0 0 0 0 0 0 0 127 0" result="hardAlpha"/>
<feOffset dx="2.17893" dy="2.17893"/>
<feGaussianBlur stdDeviation="3.2684"/>
<feColorMatrix type="matrix" values="0 0 0 0 0.682353 0 0 0 0 0.682353 0 0 0 0 0.752941 0 0 0 0.4 0"/>
<feBlend mode="normal" in2="BackgroundImageFix" result="effect1_dropShadow_1586_1223"/>
<feColorMatrix in="SourceAlpha" type="matrix" values="0 0 0 0 0 0 0 0 0 0 0 0 0 0 0 0 0 0 127 0" result="hardAlpha"/>
<feOffset dx="-2.17893" dy="-2.17893"/>
<feGaussianBlur stdDeviation="3.2684"/>
<feColorMatrix type="matrix" values="0 0 0 0 1 0 0 0 0 1 0 0 0 0 1 0 0 0 1 0"/>
<feBlend mode="normal" in2="effect1_dropShadow_1586_1223" result="effect2_dropShadow_1586_1223"/>
<feBlend mode="normal" in="SourceGraphic" in2="effect2_dropShadow_1586_1223" result="shape"/>
</filter>
<filter id="filter3_d_1586_1223" x="121.871" y="26.5706" width="37.5786" height="36.8291" filterUnits="userSpaceOnUse" color-interpolation-filters="sRGB">
<feFlood flood-opacity="0" result="BackgroundImageFix"/>
<feColorMatrix in="SourceAlpha" type="matrix" values="0 0 0 0 0 0 0 0 0 0 0 0 0 0 0 0 0 0 127 0" result="hardAlpha"/>
<feOffset/>
<feGaussianBlur stdDeviation="1"/>
<feComposite in2="hardAlpha" operator="out"/>
<feColorMatrix type="matrix" values="0 0 0 0 0 0 0 0 0 0 0 0 0 0 0 0 0 0 0.25 0"/>
<feBlend mode="normal" in2="BackgroundImageFix" result="effect1_dropShadow_1586_1223"/>
<feBlend mode="normal" in="SourceGraphic" in2="effect1_dropShadow_1586_1223" result="shape"/>
</filter>
<filter id="filter4_dd_1586_1223" x="185.959" y="9.10759e-05" width="95.411" height="91.7838" filterUnits="userSpaceOnUse" color-interpolation-filters="sRGB">
<feFlood flood-opacity="0" result="BackgroundImageFix"/>
<feColorMatrix in="SourceAlpha" type="matrix" values="0 0 0 0 0 0 0 0 0 0 0 0 0 0 0 0 0 0 127 0" result="hardAlpha"/>
<feOffset dx="2.17893" dy="2.17893"/>
<feGaussianBlur stdDeviation="3.2684"/>
<feColorMatrix type="matrix" values="0 0 0 0 0.682353 0 0 0 0 0.682353 0 0 0 0 0.752941 0 0 0 0.4 0"/>
<feBlend mode="normal" in2="BackgroundImageFix" result="effect1_dropShadow_1586_1223"/>
<feColorMatrix in="SourceAlpha" type="matrix" values="0 0 0 0 0 0 0 0 0 0 0 0 0 0 0 0 0 0 127 0" result="hardAlpha"/>
<feOffset dx="-2.17893" dy="-2.17893"/>
<feGaussianBlur stdDeviation="3.2684"/>
<feColorMatrix type="matrix" values="0 0 0 0 1 0 0 0 0 1 0 0 0 0 1 0 0 0 1 0"/>
<feBlend mode="normal" in2="effect1_dropShadow_1586_1223" result="effect2_dropShadow_1586_1223"/>
<feBlend mode="normal" in="SourceGraphic" in2="effect2_dropShadow_1586_1223" result="shape"/>
</filter>
<filter id="filter5_d_1586_1223" x="214.85" y="26.5706" width="37.5786" height="36.8291" filterUnits="userSpaceOnUse" color-interpolation-filters="sRGB">
<feFlood flood-opacity="0" result="BackgroundImageFix"/>
<feColorMatrix in="SourceAlpha" type="matrix" values="0 0 0 0 0 0 0 0 0 0 0 0 0 0 0 0 0 0 127 0" result="hardAlpha"/>
<feOffset/>
<feGaussianBlur stdDeviation="1"/>
<feComposite in2="hardAlpha" operator="out"/>
<feColorMatrix type="matrix" values="0 0 0 0 0 0 0 0 0 0 0 0 0 0 0 0 0 0 0.25 0"/>
<feBlend mode="normal" in2="BackgroundImageFix" result="effect1_dropShadow_1586_1223"/>
<feBlend mode="normal" in="SourceGraphic" in2="effect1_dropShadow_1586_1223" result="shape"/>
</filter>
<filter id="filter6_dd_1586_1223" x="278.938" y="9.10759e-05" width="95.411" height="91.7838" filterUnits="userSpaceOnUse" color-interpolation-filters="sRGB">
<feFlood flood-opacity="0" result="BackgroundImageFix"/>
<feColorMatrix in="SourceAlpha" type="matrix" values="0 0 0 0 0 0 0 0 0 0 0 0 0 0 0 0 0 0 127 0" result="hardAlpha"/>
<feOffset dx="2.17893" dy="2.17893"/>
<feGaussianBlur stdDeviation="3.2684"/>
<feColorMatrix type="matrix" values="0 0 0 0 0.682353 0 0 0 0 0.682353 0 0 0 0 0.752941 0 0 0 0.4 0"/>
<feBlend mode="normal" in2="BackgroundImageFix" result="effect1_dropShadow_1586_1223"/>
<feColorMatrix in="SourceAlpha" type="matrix" values="0 0 0 0 0 0 0 0 0 0 0 0 0 0 0 0 0 0 127 0" result="hardAlpha"/>
<feOffset dx="-2.17893" dy="-2.17893"/>
<feGaussianBlur stdDeviation="3.2684"/>
<feColorMatrix type="matrix" values="0 0 0 0 1 0 0 0 0 1 0 0 0 0 1 0 0 0 1 0"/>
<feBlend mode="normal" in2="effect1_dropShadow_1586_1223" result="effect2_dropShadow_1586_1223"/>
<feBlend mode="normal" in="SourceGraphic" in2="effect2_dropShadow_1586_1223" result="shape"/>
</filter>
<filter id="filter7_d_1586_1223" x="307.83" y="26.5706" width="37.5786" height="36.8291" filterUnits="userSpaceOnUse" color-interpolation-filters="sRGB">
<feFlood flood-opacity="0" result="BackgroundImageFix"/>
<feColorMatrix in="SourceAlpha" type="matrix" values="0 0 0 0 0 0 0 0 0 0 0 0 0 0 0 0 0 0 127 0" result="hardAlpha"/>
<feOffset/>
<feGaussianBlur stdDeviation="1"/>
<feComposite in2="hardAlpha" operator="out"/>
<feColorMatrix type="matrix" values="0 0 0 0 0 0 0 0 0 0 0 0 0 0 0 0 0 0 0.25 0"/>
<feBlend mode="normal" in2="BackgroundImageFix" result="effect1_dropShadow_1586_1223"/>
<feBlend mode="normal" in="SourceGraphic" in2="effect1_dropShadow_1586_1223" result="shape"/>
</filter>
<linearGradient id="paint0_linear_1586_1223" x1="47.6809" y1="29.5706" x2="47.6809" y2="60.3996" gradientUnits="userSpaceOnUse">
<stop offset="1" stop-color="#000D2B"/>
</linearGradient>
<linearGradient id="paint1_linear_1586_1223" x1="140.66" y1="29.5706" x2="140.66" y2="60.3996" gradientUnits="userSpaceOnUse">
<stop offset="1" stop-color="#000D2B"/>
</linearGradient>
<linearGradient id="paint2_linear_1586_1223" x1="233.639" y1="29.5706" x2="233.639" y2="60.3996" gradientUnits="userSpaceOnUse">
<stop offset="1" stop-color="#000D2B"/>
</linearGradient>
<linearGradient id="paint3_linear_1586_1223" x1="326.619" y1="29.5706" x2="326.619" y2="60.3996" gradientUnits="userSpaceOnUse">
<stop offset="1" stop-color="#000D2B"/>
</linearGradient>
<clipPath id="clip0_1586_1223">
<rect width="20.4332" height="16.3212" fill="white" transform="translate(37.4639 36.8245)"/>
</clipPath>
<clipPath id="clip1_1586_1223">
<rect width="20.4332" height="16.3212" fill="white" transform="translate(130.443 36.8245)"/>
</clipPath>
<clipPath id="clip2_1586_1223">
<rect width="20.4332" height="16.3212" fill="white" transform="translate(223.422 36.8245)"/>
</clipPath>
<clipPath id="clip3_1586_1223">
<rect width="20.4332" height="16.3212" fill="white" transform="translate(316.402 36.8245)"/>
</clipPath>
</defs>
</svg>
