<svg width="83" height="76" viewBox="0 0 83 76" fill="none" xmlns="http://www.w3.org/2000/svg">
<rect x="19.6353" width="43" height="43" rx="10" fill="#FF0019"/>
<path fill-rule="evenodd" clip-rule="evenodd" d="M50.6328 14.3958H46.9348V17.6249H33.907V25.3749H46.9348V28.6041H50.6341C49.4584 30.3916 47.8566 31.8586 45.973 32.8733C44.0894 33.8879 41.983 34.4182 39.8435 34.4166C32.7097 34.4166 26.9269 28.6338 26.9269 21.4999C26.9269 14.366 32.7097 8.58325 39.8435 8.58325C41.9828 8.58181 44.0889 9.11227 45.9723 10.1269C47.8556 11.1415 49.4572 12.6085 50.6328 14.3958Z" fill="white"/>
<path fill-rule="evenodd" clip-rule="evenodd" d="M50.164 16.3333L55.3307 21.4999L50.164 26.6666H48.8724V23.4374H35.9557V19.5624H48.8724V16.3333H50.164Z" fill="white"/>
<path d="M21.6172 65V56.2727H23.1982V63.6747H27.0419V65H21.6172ZM31.201 65.1278C30.5618 65.1278 30.0078 64.9872 29.5391 64.706C29.0703 64.4247 28.7067 64.0312 28.4482 63.5256C28.1925 63.0199 28.0646 62.429 28.0646 61.7528C28.0646 61.0767 28.1925 60.4844 28.4482 59.9759C28.7067 59.4673 29.0703 59.0724 29.5391 58.7912C30.0078 58.5099 30.5618 58.3693 31.201 58.3693C31.8402 58.3693 32.3942 58.5099 32.8629 58.7912C33.3317 59.0724 33.6939 59.4673 33.9496 59.9759C34.2081 60.4844 34.3374 61.0767 34.3374 61.7528C34.3374 62.429 34.2081 63.0199 33.9496 63.5256C33.6939 64.0312 33.3317 64.4247 32.8629 64.706C32.3942 64.9872 31.8402 65.1278 31.201 65.1278ZM31.2095 63.892C31.5561 63.892 31.8459 63.7969 32.0788 63.6065C32.3118 63.4134 32.4851 63.1548 32.5987 62.831C32.7152 62.5071 32.7734 62.1463 32.7734 61.7486C32.7734 61.348 32.7152 60.9858 32.5987 60.6619C32.4851 60.3352 32.3118 60.0753 32.0788 59.8821C31.8459 59.6889 31.5561 59.5923 31.2095 59.5923C30.8544 59.5923 30.5589 59.6889 30.3232 59.8821C30.0902 60.0753 29.9155 60.3352 29.799 60.6619C29.6854 60.9858 29.6285 61.348 29.6285 61.7486C29.6285 62.1463 29.6854 62.5071 29.799 62.831C29.9155 63.1548 30.0902 63.4134 30.3232 63.6065C30.5589 63.7969 30.8544 63.892 31.2095 63.892ZM38.4933 67.5909C37.9393 67.5909 37.4634 67.5156 37.0657 67.3651C36.668 67.2173 36.3484 67.0185 36.1069 66.7685C35.8654 66.5185 35.6978 66.2415 35.604 65.9375L36.9933 65.6009C37.0558 65.7287 37.1467 65.8551 37.266 65.9801C37.3853 66.108 37.5458 66.2131 37.7475 66.2955C37.9521 66.3807 38.2092 66.4233 38.5188 66.4233C38.9563 66.4233 39.3185 66.3168 39.6055 66.1037C39.8924 65.8935 40.0359 65.5469 40.0359 65.0639V63.8239H39.9592C39.8796 63.983 39.7631 64.1463 39.6097 64.3139C39.4592 64.4815 39.2589 64.6222 39.0089 64.7358C38.7617 64.8494 38.4506 64.9062 38.0756 64.9062C37.5728 64.9062 37.1168 64.7884 36.7077 64.5526C36.3015 64.3139 35.9776 63.9588 35.7361 63.4872C35.4975 63.0128 35.3782 62.419 35.3782 61.706C35.3782 60.9872 35.4975 60.3807 35.7361 59.8864C35.9776 59.3892 36.3029 59.0128 36.712 58.7571C37.1211 58.4986 37.5771 58.3693 38.0799 58.3693C38.4634 58.3693 38.7788 58.4347 39.0259 58.5653C39.2759 58.6932 39.4748 58.848 39.6225 59.0298C39.7702 59.2088 39.8825 59.3778 39.9592 59.5369H40.0444V58.4545H41.5657V65.1065C41.5657 65.6662 41.4322 66.1293 41.1651 66.4957C40.8981 66.8622 40.533 67.1364 40.07 67.3182C39.6069 67.5 39.0813 67.5909 38.4933 67.5909ZM38.506 63.696C38.8327 63.696 39.1111 63.6165 39.3413 63.4574C39.5714 63.2983 39.7461 63.0696 39.8654 62.7713C39.9847 62.473 40.0444 62.1151 40.0444 61.6974C40.0444 61.2855 39.9847 60.9247 39.8654 60.6151C39.7489 60.3054 39.5756 60.0653 39.3455 59.8949C39.1183 59.7216 38.8384 59.6349 38.506 59.6349C38.1623 59.6349 37.8754 59.7244 37.6452 59.9034C37.4151 60.0824 37.2418 60.3281 37.1254 60.6406C37.0089 60.9503 36.9506 61.3026 36.9506 61.6974C36.9506 62.098 37.0089 62.4489 37.1254 62.75C37.2447 63.0483 37.4194 63.2812 37.6495 63.4489C37.8825 63.6136 38.168 63.696 38.506 63.696ZM46.0018 65.1278C45.3626 65.1278 44.8086 64.9872 44.3398 64.706C43.8711 64.4247 43.5075 64.0312 43.2489 63.5256C42.9933 63.0199 42.8654 62.429 42.8654 61.7528C42.8654 61.0767 42.9933 60.4844 43.2489 59.9759C43.5075 59.4673 43.8711 59.0724 44.3398 58.7912C44.8086 58.5099 45.3626 58.3693 46.0018 58.3693C46.641 58.3693 47.195 58.5099 47.6637 58.7912C48.1325 59.0724 48.4947 59.4673 48.7504 59.9759C49.0089 60.4844 49.1381 61.0767 49.1381 61.7528C49.1381 62.429 49.0089 63.0199 48.7504 63.5256C48.4947 64.0312 48.1325 64.4247 47.6637 64.706C47.195 64.9872 46.641 65.1278 46.0018 65.1278ZM46.0103 63.892C46.3569 63.892 46.6467 63.7969 46.8796 63.6065C47.1126 63.4134 47.2859 63.1548 47.3995 62.831C47.516 62.5071 47.5742 62.1463 47.5742 61.7486C47.5742 61.348 47.516 60.9858 47.3995 60.6619C47.2859 60.3352 47.1126 60.0753 46.8796 59.8821C46.6467 59.6889 46.3569 59.5923 46.0103 59.5923C45.6552 59.5923 45.3597 59.6889 45.1239 59.8821C44.891 60.0753 44.7163 60.3352 44.5998 60.6619C44.4861 60.9858 44.4293 61.348 44.4293 61.7486C44.4293 62.1463 44.4861 62.5071 44.5998 62.831C44.7163 63.1548 44.891 63.4134 45.1239 63.6065C45.3597 63.7969 45.6552 63.892 46.0103 63.892ZM54.6193 62.2472V58.4545H56.1619V65H54.6662V63.8366H54.598C54.4503 64.2031 54.2074 64.5028 53.8693 64.7358C53.5341 64.9687 53.1207 65.0852 52.6293 65.0852C52.2003 65.0852 51.821 64.9901 51.4915 64.7997C51.1648 64.6065 50.9091 64.3267 50.7244 63.9602C50.5398 63.5909 50.4474 63.1449 50.4474 62.6222V58.4545H51.9901V62.3835C51.9901 62.7983 52.1037 63.1278 52.331 63.3722C52.5582 63.6165 52.8565 63.7386 53.2259 63.7386C53.4531 63.7386 53.6733 63.6832 53.8864 63.5724C54.0994 63.4616 54.2741 63.2969 54.4105 63.0781C54.5497 62.8565 54.6193 62.5795 54.6193 62.2472ZM61.0167 58.4545V59.6477H57.2539V58.4545H61.0167ZM58.1829 56.8864H59.7255V63.0312C59.7255 63.2386 59.7567 63.3977 59.8192 63.5085C59.8846 63.6165 59.9698 63.6903 60.0749 63.7301C60.18 63.7699 60.2965 63.7898 60.4244 63.7898C60.5209 63.7898 60.609 63.7827 60.6886 63.7685C60.7709 63.7543 60.8334 63.7415 60.8761 63.7301L61.136 64.9361C61.0536 64.9645 60.9357 64.9957 60.7823 65.0298C60.6317 65.0639 60.4471 65.0838 60.2283 65.0895C59.842 65.1009 59.494 65.0426 59.1843 64.9148C58.8746 64.7841 58.6289 64.5824 58.4471 64.3097C58.2681 64.0369 58.18 63.696 58.1829 63.2869V56.8864Z" fill="#000D2B"/>
</svg>
