<svg width="83" height="111" viewBox="0 0 83 111" fill="none" xmlns="http://www.w3.org/2000/svg">
<path d="M21.8452 92.0725H23.4261V97.7742C23.4261 98.3992 23.2784 98.949 22.983 99.4234C22.6903 99.8978 22.2784 100.269 21.7472 100.536C21.2159 100.8 20.5952 100.932 19.8849 100.932C19.1719 100.932 18.5497 100.8 18.0185 100.536C17.4872 100.269 17.0753 99.8978 16.7827 99.4234C16.4901 98.949 16.3437 98.3992 16.3437 97.7742V92.0725H17.9247V97.6421C17.9247 98.0058 18.0043 98.3296 18.1633 98.6137C18.3253 98.8978 18.5526 99.1208 18.8452 99.2828C19.1378 99.4419 19.4844 99.5214 19.8849 99.5214C20.2855 99.5214 20.6321 99.4419 20.9247 99.2828C21.2202 99.1208 21.4474 98.8978 21.6065 98.6137C21.7656 98.3296 21.8452 98.0058 21.8452 97.6421V92.0725ZM30.2496 95.9845L28.8434 96.1379C28.8036 95.9958 28.734 95.8623 28.6346 95.7373C28.538 95.6123 28.4073 95.5115 28.2425 95.4347C28.0778 95.358 27.8761 95.3197 27.6374 95.3197C27.3164 95.3197 27.0465 95.3893 26.8278 95.5285C26.6119 95.6677 26.5053 95.8481 26.5082 96.0697C26.5053 96.26 26.5749 96.4149 26.717 96.5342C26.8619 96.6535 27.1005 96.7515 27.4329 96.8282L28.5494 97.0668C29.1687 97.2004 29.6289 97.412 29.93 97.7018C30.234 97.9916 30.3874 98.3708 30.3903 98.8396C30.3874 99.2515 30.2667 99.6151 30.0281 99.9305C29.7923 100.243 29.4641 100.487 29.0437 100.663C28.6232 100.84 28.1403 100.928 27.5948 100.928C26.7937 100.928 26.1488 100.76 25.6602 100.425C25.1715 100.087 24.8803 99.6166 24.7866 99.0143L26.2908 98.8694C26.359 99.1649 26.5039 99.3879 26.7255 99.5384C26.9471 99.689 27.2354 99.7643 27.5906 99.7643C27.957 99.7643 28.2511 99.689 28.4727 99.5384C28.6971 99.3879 28.8093 99.2018 28.8093 98.9802C28.8093 98.7927 28.7369 98.6379 28.592 98.5157C28.4499 98.3936 28.2283 98.2998 27.9272 98.2345L26.8107 98.0001C26.1829 97.8694 25.7184 97.6492 25.4173 97.3396C25.1161 97.0271 24.967 96.6322 24.9698 96.1549C24.967 95.7515 25.0763 95.4021 25.2979 95.1066C25.5224 94.8083 25.8334 94.5782 26.2312 94.4163C26.6317 94.2515 27.0934 94.1691 27.6161 94.1691C28.3832 94.1691 28.9869 94.3325 29.4272 94.6592C29.8704 94.9859 30.1445 95.4276 30.2496 95.9845ZM34.56 100.928C33.9038 100.928 33.337 100.791 32.8597 100.519C32.3853 100.243 32.0202 99.8538 31.7646 99.3509C31.5089 98.8453 31.381 98.2501 31.381 97.5654C31.381 96.8921 31.5089 96.3012 31.7646 95.7927C32.0231 95.2813 32.3839 94.8836 32.8469 94.5995C33.31 94.3126 33.854 94.1691 34.479 94.1691C34.8825 94.1691 35.2631 94.2345 35.6211 94.3651C35.9819 94.493 36.3001 94.6918 36.5756 94.9617C36.854 95.2316 37.0728 95.5754 37.2319 95.993C37.391 96.4078 37.4705 96.9021 37.4705 97.4759V97.949H32.1055V96.9092H35.9918C35.989 96.6137 35.9251 96.3509 35.8001 96.1208C35.6751 95.8879 35.5004 95.7046 35.2759 95.5711C35.0543 95.4376 34.7958 95.3708 34.5004 95.3708C34.185 95.3708 33.908 95.4475 33.6694 95.6009C33.4308 95.7515 33.2447 95.9504 33.1111 96.1975C32.9805 96.4418 32.9137 96.7103 32.9109 97.0029V97.9106C32.9109 98.2913 32.9805 98.618 33.1197 98.8907C33.2589 99.1606 33.4535 99.368 33.7035 99.5129C33.9535 99.6549 34.2461 99.7259 34.5813 99.7259C34.8058 99.7259 35.0089 99.6947 35.1907 99.6322C35.3725 99.5669 35.5302 99.4717 35.6637 99.3467C35.7972 99.2217 35.8981 99.0669 35.9663 98.8822L37.4066 99.0441C37.3157 99.4248 37.1424 99.7572 36.8867 100.041C36.6339 100.323 36.31 100.541 35.9151 100.698C35.5202 100.851 35.0685 100.928 34.56 100.928ZM38.7756 100.8V94.2543H40.2713V95.3453H40.3395C40.4588 94.9674 40.6633 94.6762 40.9531 94.4717C41.2457 94.2643 41.5795 94.1606 41.9545 94.1606C42.0398 94.1606 42.1349 94.1649 42.2401 94.1734C42.348 94.1791 42.4375 94.189 42.5085 94.2032V95.6222C42.4432 95.5995 42.3395 95.5796 42.1974 95.5626C42.0582 95.5427 41.9233 95.5328 41.7926 95.5328C41.5114 95.5328 41.2585 95.5938 41.0341 95.716C40.8125 95.8353 40.6378 96.0015 40.5099 96.2146C40.3821 96.4276 40.3182 96.6734 40.3182 96.9518V100.8H38.7756ZM46.5781 100.8V92.0725H48.1591V99.4745H52.0028V100.8H46.5781ZM53.3068 100.8V94.2543H54.8494V100.8H53.3068ZM54.0824 93.3254C53.8381 93.3254 53.6278 93.2444 53.4517 93.0825C53.2756 92.9177 53.1875 92.7203 53.1875 92.4901C53.1875 92.2572 53.2756 92.0597 53.4517 91.8978C53.6278 91.733 53.8381 91.6507 54.0824 91.6507C54.3295 91.6507 54.5398 91.733 54.7131 91.8978C54.8892 92.0597 54.9773 92.2572 54.9773 92.4901C54.9773 92.7203 54.8892 92.9177 54.7131 93.0825C54.5398 93.2444 54.3295 93.3254 54.0824 93.3254ZM61.609 95.9845L60.2028 96.1379C60.163 95.9958 60.0934 95.8623 59.994 95.7373C59.8974 95.6123 59.7667 95.5115 59.6019 95.4347C59.4371 95.358 59.2354 95.3197 58.9968 95.3197C58.6758 95.3197 58.4059 95.3893 58.1871 95.5285C57.9712 95.6677 57.8647 95.8481 57.8675 96.0697C57.8647 96.26 57.9343 96.4149 58.0763 96.5342C58.2212 96.6535 58.4599 96.7515 58.7923 96.8282L59.9087 97.0668C60.5281 97.2004 60.9883 97.412 61.2894 97.7018C61.5934 97.9916 61.7468 98.3708 61.7496 98.8396C61.7468 99.2515 61.6261 99.6151 61.3874 99.9305C61.1516 100.243 60.8235 100.487 60.4031 100.663C59.9826 100.84 59.4996 100.928 58.9542 100.928C58.1531 100.928 57.5082 100.76 57.0195 100.425C56.5309 100.087 56.2397 99.6166 56.1459 99.0143L57.6502 98.8694C57.7184 99.1649 57.8633 99.3879 58.0849 99.5384C58.3065 99.689 58.5948 99.7643 58.9499 99.7643C59.3164 99.7643 59.6104 99.689 59.832 99.5384C60.0565 99.3879 60.1687 99.2018 60.1687 98.9802C60.1687 98.7927 60.0962 98.6379 59.9513 98.5157C59.8093 98.3936 59.5877 98.2998 59.2866 98.2345L58.1701 98.0001C57.5423 97.8694 57.0778 97.6492 56.7766 97.3396C56.4755 97.0271 56.3263 96.6322 56.3292 96.1549C56.3263 95.7515 56.4357 95.4021 56.6573 95.1066C56.8817 94.8083 57.1928 94.5782 57.5906 94.4163C57.9911 94.2515 58.4528 94.1691 58.9755 94.1691C59.7425 94.1691 60.3462 94.3325 60.7866 94.6592C61.2298 94.9859 61.5039 95.4276 61.609 95.9845ZM66.2901 94.2543V95.4475H62.5273V94.2543H66.2901ZM63.4563 92.6862H64.9989V98.8311C64.9989 99.0384 65.0302 99.1975 65.0927 99.3083C65.158 99.4163 65.2433 99.4901 65.3484 99.5299C65.4535 99.5697 65.57 99.5896 65.6978 99.5896C65.7944 99.5896 65.8825 99.5825 65.962 99.5683C66.0444 99.5541 66.1069 99.5413 66.1495 99.5299L66.4094 100.736C66.3271 100.764 66.2092 100.796 66.0558 100.83C65.9052 100.864 65.7205 100.884 65.5018 100.889C65.1154 100.901 64.7674 100.842 64.4577 100.715C64.1481 100.584 63.9023 100.382 63.7205 100.109C63.5415 99.8367 63.4535 99.4958 63.4563 99.0867V92.6862Z" fill="#000D2B"/>
<rect x="5.22351" width="73.1294" height="73.1294" rx="10" fill="#000D2B"/>
<g clip-path="url(#clip0_2054_1494)">
<path d="M34.453 31.0634C34.453 29.2801 35.1614 27.5698 36.4224 26.3088C37.6834 25.0478 39.3937 24.3394 41.177 24.3394C42.9604 24.3394 44.6706 25.0478 45.9316 26.3088C47.1926 27.5698 47.9011 29.2801 47.9011 31.0634C47.9011 32.8467 47.1926 34.557 45.9316 35.818C44.6706 37.079 42.9604 37.7874 41.177 37.7874C39.3937 37.7874 37.6834 37.079 36.4224 35.818C35.1614 34.557 34.453 32.8467 34.453 31.0634ZM41.4827 48.7904H29.5628V46.3453C29.5628 44.3998 30.3356 42.5341 31.7113 41.1584C33.0869 39.7828 34.9527 39.01 36.8981 39.01H41.4827V48.7904ZM43.9278 39.01H54.3195V41.4551H43.9278V39.01ZM43.9278 42.6776H54.3195V45.1227H43.9278V42.6776ZM43.9278 46.3453H54.3195V48.7904H43.9278V46.3453Z" fill="white"/>
</g>
<defs>
<clipPath id="clip0_2054_1494">
<rect width="29.3412" height="29.3412" fill="white" transform="translate(27.1177 21.894)"/>
</clipPath>
</defs>
</svg>
