<svg width="65" height="64" viewBox="0 0 65 64" fill="none" xmlns="http://www.w3.org/2000/svg">
<rect width="64.9496" height="64" rx="32" fill="white"/>
<path d="M24.3747 17.6001C23.6586 17.6001 22.9718 17.8846 22.4655 18.3909C21.9591 18.8973 21.6747 19.584 21.6747 20.3001V43.7001C21.6747 44.4162 21.9591 45.1029 22.4655 45.6093C22.9718 46.1156 23.6586 46.4001 24.3747 46.4001H32.9373C32.4788 45.8449 32.0823 45.2413 31.7547 44.6001H24.3747C24.136 44.6001 23.9071 44.5053 23.7383 44.3365C23.5695 44.1677 23.4747 43.9388 23.4747 43.7001V20.3001C23.4747 20.0614 23.5695 19.8325 23.7383 19.6637C23.9071 19.4949 24.136 19.4001 24.3747 19.4001H36.9747C37.2134 19.4001 37.4423 19.4949 37.6111 19.6637C37.7799 19.8325 37.8747 20.0614 37.8747 20.3001V30.5727C38.4631 30.4063 39.0657 30.2949 39.6747 30.2397V20.3001C39.6747 19.584 39.3902 18.8973 38.8839 18.3909C38.3775 17.8846 37.6908 17.6001 36.9747 17.6001H24.3747ZM30.6747 40.1001C30.6747 39.7977 30.6879 39.4977 30.7143 39.2001H27.9747C27.736 39.2001 27.5071 39.2949 27.3383 39.4637C27.1695 39.6325 27.0747 39.8614 27.0747 40.1001C27.0747 40.3388 27.1695 40.5677 27.3383 40.7365C27.5071 40.9053 27.736 41.0001 27.9747 41.0001H30.7143C30.6886 40.7008 30.6754 40.4005 30.6747 40.1001ZM48.6747 40.1001C48.6747 42.2484 47.8213 44.3086 46.3022 45.8277C44.7832 47.3467 42.7229 48.2001 40.5747 48.2001C38.4264 48.2001 36.3662 47.3467 34.8471 45.8277C33.3281 44.3086 32.4747 42.2484 32.4747 40.1001C32.4747 37.9518 33.3281 35.8916 34.8471 34.3725C36.3662 32.8535 38.4264 32.0001 40.5747 32.0001C42.7229 32.0001 44.7832 32.8535 46.3022 34.3725C47.8213 35.8916 48.6747 37.9518 48.6747 40.1001ZM43.9119 38.0373C44.0809 37.8683 44.1758 37.6391 44.1758 37.4001C44.1758 37.1611 44.0809 36.9319 43.9119 36.7629C43.7429 36.5939 43.5137 36.499 43.2747 36.499C43.0357 36.499 42.8065 36.5939 42.6375 36.7629L40.5747 38.8275L38.5119 36.7629C38.3429 36.5939 38.1137 36.499 37.8747 36.499C37.6357 36.499 37.4065 36.5939 37.2375 36.7629C37.0685 36.9319 36.9735 37.1611 36.9735 37.4001C36.9735 37.6391 37.0685 37.8683 37.2375 38.0373L39.3021 40.1001L37.2375 42.1629C37.1538 42.2466 37.0874 42.3459 37.0421 42.4552C36.9969 42.5646 36.9735 42.6818 36.9735 42.8001C36.9735 42.9184 36.9969 43.0356 37.0421 43.1449C37.0874 43.2543 37.1538 43.3536 37.2375 43.4373C37.3212 43.521 37.4205 43.5874 37.5298 43.6326C37.6392 43.6779 37.7563 43.7012 37.8747 43.7012C37.993 43.7012 38.1102 43.6779 38.2195 43.6326C38.3289 43.5874 38.4282 43.521 38.5119 43.4373L40.5747 41.3727L42.6375 43.4373C42.7212 43.521 42.8205 43.5874 42.9298 43.6326C43.0392 43.6779 43.1563 43.7012 43.2747 43.7012C43.393 43.7012 43.5102 43.6779 43.6195 43.6326C43.7289 43.5874 43.8282 43.521 43.9119 43.4373C43.9956 43.3536 44.0619 43.2543 44.1072 43.1449C44.1525 43.0356 44.1758 42.9184 44.1758 42.8001C44.1758 42.6818 44.1525 42.5646 44.1072 42.4552C44.0619 42.3459 43.9956 42.2466 43.9119 42.1629L41.8473 40.1001L43.9119 38.0373Z" fill="#BD6F00"/>
</svg>
