<svg width="82" height="119" viewBox="0 0 82 119" fill="none" xmlns="http://www.w3.org/2000/svg">
<path d="M16.0795 101V92.2727H17.6605V99.6747H21.5043V101H16.0795ZM22.8082 101V94.4545H24.3509V101H22.8082ZM23.5838 93.5256C23.3395 93.5256 23.1293 93.4446 22.9531 93.2827C22.777 93.1179 22.6889 92.9205 22.6889 92.6903C22.6889 92.4574 22.777 92.2599 22.9531 92.098C23.1293 91.9332 23.3395 91.8509 23.5838 91.8509C23.831 91.8509 24.0412 91.9332 24.2145 92.098C24.3906 92.2599 24.4787 92.4574 24.4787 92.6903C24.4787 92.9205 24.3906 93.1179 24.2145 93.2827C24.0412 93.4446 23.831 93.5256 23.5838 93.5256ZM28.7923 101.128C28.1388 101.128 27.5778 100.984 27.109 100.697C26.6431 100.411 26.2837 100.014 26.0309 99.5085C25.7809 99 25.6559 98.4148 25.6559 97.7528C25.6559 97.0881 25.7837 96.5014 26.0394 95.9929C26.2951 95.4815 26.6559 95.0838 27.1218 94.7997C27.5906 94.5128 28.1445 94.3693 28.7837 94.3693C29.315 94.3693 29.7852 94.4673 30.1942 94.6634C30.6062 94.8565 30.9343 95.1307 31.1786 95.4858C31.4229 95.8381 31.5621 96.25 31.5962 96.7216H30.1218C30.0621 96.4062 29.9201 96.1435 29.6957 95.9332C29.4741 95.7202 29.1772 95.6136 28.805 95.6136C28.4897 95.6136 28.2127 95.6989 27.9741 95.8693C27.7354 96.0369 27.5494 96.2784 27.4158 96.5938C27.2852 96.9091 27.2198 97.2869 27.2198 97.7273C27.2198 98.1733 27.2852 98.5568 27.4158 98.8778C27.5465 99.196 27.7298 99.4418 27.9656 99.6151C28.2042 99.7855 28.484 99.8707 28.805 99.8707C29.0323 99.8707 29.2354 99.8281 29.4144 99.7429C29.5962 99.6548 29.7482 99.5284 29.8704 99.3636C29.9925 99.1989 30.0763 98.9986 30.1218 98.7628H31.5962C31.5593 99.2259 31.4229 99.6364 31.1871 99.9943C30.9513 100.349 30.6303 100.628 30.2241 100.83C29.8178 101.028 29.3406 101.128 28.7923 101.128ZM35.7607 101.128C35.1044 101.128 34.5376 100.991 34.0604 100.719C33.5859 100.443 33.2209 100.054 32.9652 99.5511C32.7095 99.0455 32.5817 98.4503 32.5817 97.7656C32.5817 97.0923 32.7095 96.5014 32.9652 95.9929C33.2237 95.4815 33.5845 95.0838 34.0476 94.7997C34.5107 94.5128 35.0547 94.3693 35.6797 94.3693C36.0831 94.3693 36.4638 94.4347 36.8217 94.5653C37.1825 94.6932 37.5007 94.892 37.7763 95.1619C38.0547 95.4318 38.2734 95.7756 38.4325 96.1932C38.5916 96.608 38.6712 97.1023 38.6712 97.6761V98.1491H33.3061V97.1094H37.1925C37.1896 96.8139 37.1257 96.5511 37.0007 96.321C36.8757 96.0881 36.701 95.9048 36.4766 95.7713C36.255 95.6378 35.9964 95.571 35.701 95.571C35.3857 95.571 35.1087 95.6477 34.87 95.8011C34.6314 95.9517 34.4453 96.1506 34.3118 96.3977C34.1811 96.642 34.1143 96.9105 34.1115 97.2031V98.1108C34.1115 98.4915 34.1811 98.8182 34.3203 99.0909C34.4595 99.3608 34.6541 99.5682 34.9041 99.7131C35.1541 99.8551 35.4467 99.9261 35.782 99.9261C36.0064 99.9261 36.2095 99.8949 36.3913 99.8324C36.5732 99.767 36.7308 99.6719 36.8643 99.5469C36.9979 99.4219 37.0987 99.267 37.1669 99.0824L38.6072 99.2443C38.5163 99.625 38.343 99.9574 38.0874 100.241C37.8345 100.523 37.5107 100.741 37.1158 100.898C36.7209 101.051 36.2692 101.128 35.7607 101.128ZM41.5188 97.1648V101H39.9762V94.4545H41.4506V95.5668H41.5273C41.6779 95.2003 41.918 94.9091 42.2475 94.6932C42.5799 94.4773 42.9904 94.3693 43.479 94.3693C43.9308 94.3693 44.3242 94.4659 44.6594 94.6591C44.9975 94.8523 45.2589 95.1321 45.4435 95.4986C45.631 95.8651 45.7234 96.3097 45.7205 96.8324V101H44.1779V97.071C44.1779 96.6335 44.0643 96.2912 43.837 96.044C43.6126 95.7969 43.3015 95.6733 42.9038 95.6733C42.6339 95.6733 42.3938 95.733 42.1836 95.8523C41.9762 95.9687 41.8129 96.1378 41.6935 96.3594C41.5771 96.581 41.5188 96.8494 41.5188 97.1648ZM52.462 96.1847L51.0558 96.3381C51.016 96.196 50.9464 96.0625 50.8469 95.9375C50.7504 95.8125 50.6197 95.7116 50.4549 95.6349C50.2901 95.5582 50.0884 95.5199 49.8498 95.5199C49.5288 95.5199 49.2589 95.5895 49.0401 95.7287C48.8242 95.8679 48.7177 96.0483 48.7205 96.2699C48.7177 96.4602 48.7873 96.6151 48.9293 96.7344C49.0742 96.8537 49.3129 96.9517 49.6452 97.0284L50.7617 97.267C51.381 97.4006 51.8413 97.6122 52.1424 97.902C52.4464 98.1918 52.5998 98.571 52.6026 99.0398C52.5998 99.4517 52.479 99.8153 52.2404 100.131C52.0046 100.443 51.6765 100.687 51.256 100.864C50.8356 101.04 50.3526 101.128 49.8072 101.128C49.006 101.128 48.3612 100.96 47.8725 100.625C47.3839 100.287 47.0927 99.8168 46.9989 99.2145L48.5032 99.0696C48.5714 99.3651 48.7163 99.5881 48.9379 99.7386C49.1594 99.8892 49.4478 99.9645 49.8029 99.9645C50.1694 99.9645 50.4634 99.8892 50.685 99.7386C50.9094 99.5881 51.0217 99.402 51.0217 99.1804C51.0217 98.9929 50.9492 98.8381 50.8043 98.7159C50.6623 98.5937 50.4407 98.5 50.1396 98.4347L49.0231 98.2003C48.3952 98.0696 47.9308 97.8494 47.6296 97.5398C47.3285 97.2273 47.1793 96.8324 47.1822 96.3551C47.1793 95.9517 47.2887 95.6023 47.5103 95.3068C47.7347 95.0085 48.0458 94.7784 48.4435 94.6165C48.8441 94.4517 49.3058 94.3693 49.8285 94.3693C50.5955 94.3693 51.1992 94.5327 51.6396 94.8594C52.0827 95.1861 52.3569 95.6278 52.462 96.1847ZM56.7724 101.128C56.1161 101.128 55.5494 100.991 55.0721 100.719C54.5977 100.443 54.2326 100.054 53.9769 99.5511C53.7212 99.0455 53.5934 98.4503 53.5934 97.7656C53.5934 97.0923 53.7212 96.5014 53.9769 95.9929C54.2354 95.4815 54.5962 95.0838 55.0593 94.7997C55.5224 94.5128 56.0664 94.3693 56.6914 94.3693C57.0948 94.3693 57.4755 94.4347 57.8335 94.5653C58.1942 94.6932 58.5124 94.892 58.788 95.1619C59.0664 95.4318 59.2852 95.7756 59.4442 96.1932C59.6033 96.608 59.6829 97.1023 59.6829 97.6761V98.1491H54.3178V97.1094H58.2042C58.2013 96.8139 58.1374 96.5511 58.0124 96.321C57.8874 96.0881 57.7127 95.9048 57.4883 95.7713C57.2667 95.6378 57.0082 95.571 56.7127 95.571C56.3974 95.571 56.1204 95.6477 55.8817 95.8011C55.6431 95.9517 55.457 96.1506 55.3235 96.3977C55.1928 96.642 55.1261 96.9105 55.1232 97.2031V98.1108C55.1232 98.4915 55.1928 98.8182 55.332 99.0909C55.4712 99.3608 55.6658 99.5682 55.9158 99.7131C56.1658 99.8551 56.4585 99.9261 56.7937 99.9261C57.0181 99.9261 57.2212 99.8949 57.4031 99.8324C57.5849 99.767 57.7425 99.6719 57.8761 99.5469C58.0096 99.4219 58.1104 99.267 58.1786 99.0824L59.619 99.2443C59.5281 99.625 59.3548 99.9574 59.0991 100.241C58.8462 100.523 58.5224 100.741 58.1275 100.898C57.7326 101.051 57.2809 101.128 56.7724 101.128ZM66.1612 96.1847L64.755 96.3381C64.7152 96.196 64.6456 96.0625 64.5462 95.9375C64.4496 95.8125 64.3189 95.7116 64.1541 95.6349C63.9893 95.5582 63.7876 95.5199 63.549 95.5199C63.228 95.5199 62.9581 95.5895 62.7393 95.7287C62.5234 95.8679 62.4169 96.0483 62.4197 96.2699C62.4169 96.4602 62.4865 96.6151 62.6286 96.7344C62.7734 96.8537 63.0121 96.9517 63.3445 97.0284L64.4609 97.267C65.0803 97.4006 65.5405 97.6122 65.8416 97.902C66.1456 98.1918 66.299 98.571 66.3018 99.0398C66.299 99.4517 66.1783 99.8153 65.9396 100.131C65.7038 100.443 65.3757 100.687 64.9553 100.864C64.5348 101.04 64.0518 101.128 63.5064 101.128C62.7053 101.128 62.0604 100.96 61.5717 100.625C61.0831 100.287 60.7919 99.8168 60.6982 99.2145L62.2024 99.0696C62.2706 99.3651 62.4155 99.5881 62.6371 99.7386C62.8587 99.8892 63.147 99.9645 63.5021 99.9645C63.8686 99.9645 64.1626 99.8892 64.3842 99.7386C64.6087 99.5881 64.7209 99.402 64.7209 99.1804C64.7209 98.9929 64.6484 98.8381 64.5036 98.7159C64.3615 98.5937 64.1399 98.5 63.8388 98.4347L62.7223 98.2003C62.0945 98.0696 61.63 97.8494 61.3288 97.5398C61.0277 97.2273 60.8786 96.8324 60.8814 96.3551C60.8786 95.9517 60.9879 95.6023 61.2095 95.3068C61.4339 95.0085 61.745 94.7784 62.1428 94.6165C62.5433 94.4517 63.005 94.3693 63.5277 94.3693C64.2947 94.3693 64.8984 94.5327 65.3388 94.8594C65.782 95.1861 66.0561 95.6278 66.1612 96.1847ZM20.7085 116V107.273H22.2894V110.967H26.3335V107.273H27.9187V116H26.3335V112.293H22.2894V116H20.7085ZM29.57 116V109.455H31.1126V116H29.57ZM30.3455 108.526C30.1012 108.526 29.891 108.445 29.7148 108.283C29.5387 108.118 29.4506 107.92 29.4506 107.69C29.4506 107.457 29.5387 107.26 29.7148 107.098C29.891 106.933 30.1012 106.851 30.3455 106.851C30.5927 106.851 30.8029 106.933 30.9762 107.098C31.1523 107.26 31.2404 107.457 31.2404 107.69C31.2404 107.92 31.1523 108.118 30.9762 108.283C30.8029 108.445 30.5927 108.526 30.3455 108.526ZM37.8722 111.185L36.4659 111.338C36.4261 111.196 36.3565 111.062 36.2571 110.938C36.1605 110.812 36.0298 110.712 35.8651 110.635C35.7003 110.558 35.4986 110.52 35.2599 110.52C34.9389 110.52 34.669 110.589 34.4503 110.729C34.2344 110.868 34.1278 111.048 34.1307 111.27C34.1278 111.46 34.1974 111.615 34.3395 111.734C34.4844 111.854 34.723 111.952 35.0554 112.028L36.1719 112.267C36.7912 112.401 37.2514 112.612 37.5526 112.902C37.8565 113.192 38.0099 113.571 38.0128 114.04C38.0099 114.452 37.8892 114.815 37.6506 115.131C37.4148 115.443 37.0866 115.687 36.6662 115.864C36.2457 116.04 35.7628 116.128 35.2173 116.128C34.4162 116.128 33.7713 115.96 33.2827 115.625C32.794 115.287 32.5028 114.817 32.4091 114.214L33.9134 114.07C33.9815 114.365 34.1264 114.588 34.348 114.739C34.5696 114.889 34.858 114.964 35.2131 114.964C35.5795 114.964 35.8736 114.889 36.0952 114.739C36.3196 114.588 36.4318 114.402 36.4318 114.18C36.4318 113.993 36.3594 113.838 36.2145 113.716C36.0724 113.594 35.8509 113.5 35.5497 113.435L34.4332 113.2C33.8054 113.07 33.3409 112.849 33.0398 112.54C32.7386 112.227 32.5895 111.832 32.5923 111.355C32.5895 110.952 32.6989 110.602 32.9205 110.307C33.1449 110.009 33.456 109.778 33.8537 109.616C34.2543 109.452 34.7159 109.369 35.2386 109.369C36.0057 109.369 36.6094 109.533 37.0497 109.859C37.4929 110.186 37.767 110.628 37.8722 111.185ZM42.5533 109.455V110.648H38.7905V109.455H42.5533ZM39.7195 107.886H41.2621V114.031C41.2621 114.239 41.2933 114.398 41.3558 114.509C41.4212 114.616 41.5064 114.69 41.6115 114.73C41.7166 114.77 41.8331 114.79 41.9609 114.79C42.0575 114.79 42.1456 114.783 42.2251 114.768C42.3075 114.754 42.37 114.741 42.4126 114.73L42.6726 115.936C42.5902 115.964 42.4723 115.996 42.3189 116.03C42.1683 116.064 41.9837 116.084 41.7649 116.089C41.3786 116.101 41.0305 116.043 40.7209 115.915C40.4112 115.784 40.1655 115.582 39.9837 115.31C39.8047 115.037 39.7166 114.696 39.7195 114.287V107.886ZM46.6282 116.128C45.989 116.128 45.435 115.987 44.9663 115.706C44.4975 115.425 44.1339 115.031 43.8754 114.526C43.6197 114.02 43.4918 113.429 43.4918 112.753C43.4918 112.077 43.6197 111.484 43.8754 110.976C44.1339 110.467 44.4975 110.072 44.9663 109.791C45.435 109.51 45.989 109.369 46.6282 109.369C47.2674 109.369 47.8214 109.51 48.2901 109.791C48.7589 110.072 49.1211 110.467 49.3768 110.976C49.6353 111.484 49.7646 112.077 49.7646 112.753C49.7646 113.429 49.6353 114.02 49.3768 114.526C49.1211 115.031 48.7589 115.425 48.2901 115.706C47.8214 115.987 47.2674 116.128 46.6282 116.128ZM46.6367 114.892C46.9833 114.892 47.2731 114.797 47.506 114.607C47.739 114.413 47.9123 114.155 48.0259 113.831C48.1424 113.507 48.2006 113.146 48.2006 112.749C48.2006 112.348 48.1424 111.986 48.0259 111.662C47.9123 111.335 47.739 111.075 47.506 110.882C47.2731 110.689 46.9833 110.592 46.6367 110.592C46.2816 110.592 45.9862 110.689 45.7504 110.882C45.5174 111.075 45.3427 111.335 45.2262 111.662C45.1126 111.986 45.0558 112.348 45.0558 112.749C45.0558 113.146 45.1126 113.507 45.2262 113.831C45.3427 114.155 45.5174 114.413 45.7504 114.607C45.9862 114.797 46.2816 114.892 46.6367 114.892ZM51.0739 116V109.455H52.5696V110.545H52.6378C52.7571 110.168 52.9616 109.876 53.2514 109.672C53.544 109.464 53.8778 109.361 54.2528 109.361C54.3381 109.361 54.4332 109.365 54.5384 109.374C54.6463 109.379 54.7358 109.389 54.8068 109.403V110.822C54.7415 110.8 54.6378 110.78 54.4957 110.763C54.3565 110.743 54.2216 110.733 54.0909 110.733C53.8097 110.733 53.5568 110.794 53.3324 110.916C53.1108 111.036 52.9361 111.202 52.8082 111.415C52.6804 111.628 52.6165 111.874 52.6165 112.152V116H51.0739ZM56.9897 118.455C56.7795 118.455 56.5849 118.438 56.4059 118.403C56.2298 118.372 56.0891 118.335 55.984 118.293L56.342 117.091C56.5664 117.156 56.7667 117.188 56.9428 117.185C57.119 117.182 57.2738 117.126 57.4073 117.018C57.5437 116.913 57.6587 116.737 57.7525 116.49L57.8846 116.136L55.511 109.455H57.1474L58.6559 114.398H58.7241L60.2369 109.455H61.8775L59.2567 116.793C59.1346 117.139 58.9727 117.436 58.771 117.683C58.5692 117.933 58.3221 118.124 58.0295 118.254C57.7397 118.388 57.3931 118.455 56.9897 118.455Z" fill="#000D2B"/>
<rect x="4.76465" width="73.1294" height="73.1294" rx="10" fill="#000D2B"/>
<g clip-path="url(#clip0_2114_558)">
<path d="M53.5549 36.5646C53.5549 29.8125 48.0815 24.3391 41.3294 24.3391C38.1285 24.3353 35.0546 25.5908 32.7715 27.8344V26.4786C32.7715 26.2354 32.6749 26.0022 32.503 25.8302C32.331 25.6583 32.0978 25.5617 31.8546 25.5617C31.6115 25.5617 31.3782 25.6583 31.2063 25.8302C31.0343 26.0022 30.9377 26.2354 30.9377 26.4786V30.7575C30.9377 31.2636 31.3485 31.6744 31.8546 31.6744H36.1336C36.3767 31.6744 36.61 31.5778 36.7819 31.4059C36.9539 31.2339 37.0505 31.0007 37.0505 30.7575C37.0505 30.5143 36.9539 30.2811 36.7819 30.1092C36.61 29.9372 36.3767 29.8406 36.1336 29.8406H33.406C34.6801 28.3401 36.3542 27.2323 38.2333 26.6462C40.1125 26.0601 42.1195 26.0198 44.0207 26.5299C45.9219 27.0401 47.639 28.0798 48.9723 29.5279C50.3056 30.976 51.2002 32.7731 51.5519 34.7099C51.9036 36.6466 51.698 38.6435 50.959 40.4679C50.22 42.2924 48.9779 43.8694 47.3775 45.0154C45.7771 46.1615 43.8841 46.8294 41.9188 46.9414C39.9535 47.0534 37.9969 46.6049 36.2766 45.6482L35.9465 45.4648L31.0734 46.823L32.4341 41.9524L32.2495 41.6223C31.3866 40.0765 30.9349 38.335 30.9377 36.5646C30.9377 35.7394 31.0343 34.9362 31.2152 34.166C31.313 33.798 31.2947 33.0804 30.5599 32.919C29.8105 32.7552 29.4963 33.353 29.4169 33.798C29.2071 34.7052 29.1029 35.6335 29.1039 36.5646C29.1014 38.5182 29.5689 40.4437 30.467 42.1786L29.1614 46.8524C29.0885 47.1134 29.0864 47.389 29.1552 47.6511C29.2239 47.9131 29.3611 48.1522 29.5527 48.3438C29.7443 48.5353 29.9834 48.6726 30.2454 48.7413C30.5075 48.8101 30.7831 48.8079 31.0441 48.7351L35.7216 47.4307C37.4549 48.3266 39.3782 48.7928 41.3294 48.7901C48.0815 48.7901 53.5549 43.3168 53.5549 36.5646ZM36.647 28.6792C38.0297 27.8587 39.6038 27.4162 41.2114 27.3961C42.819 27.3759 44.4037 27.7789 45.8065 28.5644C47.2092 29.35 48.3808 30.4906 49.2036 31.8719C50.0264 33.2531 50.4716 34.8265 50.4944 36.4341C50.5173 38.0417 50.1171 39.627 49.3339 41.0311C48.5507 42.4352 47.412 43.6087 46.0322 44.4338C44.6523 45.259 43.0798 45.7068 41.4722 45.7324C39.8647 45.758 38.2786 45.3605 36.8732 44.5797L36.103 44.1518L32.8339 45.0626L33.7471 41.7959L33.3168 41.0257C32.5557 39.6622 32.1575 38.1261 32.1603 36.5646C32.1603 35.8384 32.2446 35.1342 32.4036 34.4582C32.5196 34.0001 32.503 33.5184 32.3559 33.0694C32.3356 33.0111 32.3132 32.9536 32.2886 32.897H36.1336C36.6572 32.8984 37.1632 32.7077 37.5556 32.3611C37.9481 32.0144 38.1998 31.5359 38.2631 31.0161C38.3264 30.4963 38.1968 29.9713 37.899 29.5406C37.6011 29.1099 37.1557 28.8034 36.647 28.6792ZM40.4125 31.6744C40.1693 31.6744 39.9361 31.771 39.7641 31.943C39.5922 32.1149 39.4956 32.3482 39.4956 32.5913V38.0928C39.4956 38.5989 39.9063 39.0097 40.4125 39.0097H44.0801C44.3233 39.0097 44.5565 38.9131 44.7285 38.7412C44.9004 38.5692 44.997 38.336 44.997 38.0928C44.997 37.8496 44.9004 37.6164 44.7285 37.4445C44.5565 37.2725 44.3233 37.1759 44.0801 37.1759H41.3294V32.5913C41.3294 32.3482 41.2328 32.1149 41.0608 31.943C40.8889 31.771 40.6557 31.6744 40.4125 31.6744Z" fill="white"/>
</g>
<defs>
<clipPath id="clip0_2114_558">
<rect width="29.3412" height="29.3412" fill="white" transform="translate(26.6588 21.894)"/>
</clipPath>
</defs>
</svg>
