<svg width="65" height="64" viewBox="0 0 65 64" fill="none" xmlns="http://www.w3.org/2000/svg">
<rect width="64.9496" height="64" rx="32" fill="white"/>
<path d="M25.4747 22.6666H23.1414V20.3333H41.808V22.6666H39.4747V24.9999C39.4747 26.8841 38.5227 28.4008 37.3234 29.6398C36.5032 30.4868 35.5057 31.2673 34.4942 31.9999C35.5057 32.7326 36.5032 33.5131 37.3234 34.3601C38.5227 35.5991 39.4747 37.1158 39.4747 38.9999V41.3333H41.808V43.6666H23.1414V41.3333H25.4747V38.9999C25.4747 37.1158 26.4267 35.5991 27.626 34.3601C28.4462 33.5131 29.4437 32.7326 30.4552 31.9999C29.4437 31.2673 28.4462 30.4868 27.626 29.6398C26.4267 28.4008 25.4747 26.8841 25.4747 24.9999V22.6666ZM27.808 22.6666V24.9999C27.808 26.0324 28.3144 26.9949 29.3025 28.0169C30.1507 28.8931 31.2555 29.7133 32.4747 30.5743C33.6939 29.7133 34.7987 28.8931 35.6469 28.0169C36.635 26.9949 37.1414 26.0324 37.1414 24.9999V22.6666H27.808ZM32.4747 33.4256C31.2555 34.2866 30.1507 35.1068 29.3025 35.9829C28.3144 37.0049 27.808 37.9674 27.808 38.9999V41.3333H37.1414V38.9999C37.1414 37.9674 36.635 37.0049 35.6469 35.9829C34.7987 35.1068 33.6939 34.2866 32.4747 33.4256Z" fill="#AEB111"/>
</svg>
