<svg width="33" height="33" viewBox="0 0 33 33" fill="none" xmlns="http://www.w3.org/2000/svg">
<rect width="33" height="33" rx="16.5" fill="#D0D0D0"/>
<path opacity="0.5" d="M18.9439 6C17.7341 6 16.7599 6.97417 14.8116 8.9225L9.08325 14.6508L17.3491 22.9167L23.0774 17.1883C25.0258 15.24 25.9999 14.2658 25.9999 13.056C25.9999 11.845 25.0258 10.8708 23.0774 8.9225C21.1291 6.97417 20.1549 6 18.9439 6Z" fill="black"/>
<path d="M17.3492 22.9167L9.08333 14.6509L7.9225 15.8117C5.97417 17.76 5 18.7342 5 19.944C5 21.155 5.97417 22.1292 7.9225 24.0775C9.87083 26.0259 10.845 27 12.056 27C13.2658 27 14.24 26.0259 16.1883 24.0775L17.3492 22.9167Z" fill="black"/>
<path opacity="0.5" d="M12.0735 27C13.0022 26.993 13.7955 26.4097 15.0018 25.25H26C26.2321 25.25 26.4546 25.3422 26.6187 25.5063C26.7828 25.6704 26.875 25.8929 26.875 26.125C26.875 26.3571 26.7828 26.5796 26.6187 26.7437C26.4546 26.9078 26.2321 27 26 27H12.0735Z" fill="black"/>
</svg>
