<svg width="48" height="48" viewBox="0 0 48 48" fill="none" xmlns="http://www.w3.org/2000/svg">
<g filter="url(#filter0_d_1850_502)">
<circle cx="24" cy="24" r="21" fill="url(#paint0_linear_1850_502)" shape-rendering="crispEdges"/>
<circle cx="24" cy="24" r="21.5" stroke="white" stroke-opacity="0.2" shape-rendering="crispEdges"/>
</g>
<path d="M23.9985 26.4292C23.0976 26.4292 22.3322 26.114 21.7025 25.4836C21.0727 24.8531 20.7578 24.0875 20.7578 23.1869V17.7777C20.7578 16.877 21.0732 16.1115 21.7038 15.4809C22.3347 14.8506 23.1006 14.5354 24.0017 14.5354C24.9026 14.5354 25.668 14.8506 26.2977 15.4809C26.9275 16.1115 27.2424 16.877 27.2424 17.7777V23.1869C27.2424 24.0875 26.927 24.8531 26.2964 25.4836C25.6655 26.114 24.8996 26.4292 23.9985 26.4292ZM22.8891 33.0401V30.1696C21.1534 29.9385 19.7229 29.1584 18.5977 27.8296C17.4725 26.5007 16.9099 24.9532 16.9099 23.1869H19.1447C19.1447 24.5327 19.6184 25.6784 20.5658 26.6239C21.513 27.5695 22.6586 28.0423 24.0026 28.0423C25.3468 28.0423 26.4916 27.5689 27.4371 26.6221C28.3827 25.6753 28.8555 24.5303 28.8555 23.1869H31.0903C31.0903 24.9552 30.5277 26.5032 29.4025 27.8312C28.2773 29.159 26.8468 29.9385 25.1111 30.1696V33.0401H22.8891ZM24.0001 24C24.2305 24 24.4236 23.9221 24.5794 23.7662C24.7353 23.6104 24.8132 23.4173 24.8132 23.1869V17.7777C24.8132 17.5473 24.7353 17.3542 24.5794 17.1983C24.4236 17.0425 24.2305 16.9646 24.0001 16.9646C23.7697 16.9646 23.5766 17.0425 23.4208 17.1983C23.2649 17.3542 23.187 17.5473 23.187 17.7777V23.1869C23.187 23.4173 23.2649 23.6104 23.4208 23.7662C23.5766 23.9221 23.7697 24 24.0001 24Z" fill="#FBFCFD"/>
<defs>
<filter id="filter0_d_1850_502" x="0" y="0" width="48" height="48" filterUnits="userSpaceOnUse" color-interpolation-filters="sRGB">
<feFlood flood-opacity="0" result="BackgroundImageFix"/>
<feColorMatrix in="SourceAlpha" type="matrix" values="0 0 0 0 0 0 0 0 0 0 0 0 0 0 0 0 0 0 127 0" result="hardAlpha"/>
<feOffset/>
<feGaussianBlur stdDeviation="1"/>
<feComposite in2="hardAlpha" operator="out"/>
<feColorMatrix type="matrix" values="0 0 0 0 0 0 0 0 0 0 0 0 0 0 0 0 0 0 0.25 0"/>
<feBlend mode="normal" in2="BackgroundImageFix" result="effect1_dropShadow_1850_502"/>
<feBlend mode="normal" in="SourceGraphic" in2="effect1_dropShadow_1850_502" result="shape"/>
</filter>
<linearGradient id="paint0_linear_1850_502" x1="24" y1="3" x2="24" y2="45" gradientUnits="userSpaceOnUse">
<stop stop-color="#000D2B"/>
<stop offset="1" stop-color="#241C56"/>
</linearGradient>
</defs>
</svg>
