<svg width="74" height="74" viewBox="0 0 74 74" fill="none" xmlns="http://www.w3.org/2000/svg">
<rect width="73.1294" height="73.1294" rx="10" fill="#000D2B"/>
<g clip-path="url(#clip0_2054_1283)">
<path d="M39.055 37.8099C39.36 37.81 39.6543 37.9219 39.8822 38.1246C40.1101 38.3272 40.2557 38.6065 40.2914 38.9093L40.3001 39.055V46.5256C40.2998 46.843 40.1783 47.1482 39.9604 47.379C39.7425 47.6098 39.4448 47.7486 39.128 47.7672C38.8112 47.7858 38.4992 47.6827 38.2559 47.4791C38.0125 47.2754 37.8561 46.9864 37.8186 46.6713L37.8099 46.5256V39.055C37.8099 38.7248 37.9411 38.4081 38.1746 38.1746C38.4081 37.9411 38.7248 37.8099 39.055 37.8099ZM42.7903 43.4129C43.1206 43.4129 43.4372 43.5441 43.6707 43.7776C43.9043 44.0111 44.0354 44.3278 44.0354 44.658V46.5256C44.0354 46.8559 43.9043 47.1726 43.6707 47.4061C43.4372 47.6396 43.1206 47.7707 42.7903 47.7707C42.4601 47.7707 42.1434 47.6396 41.9099 47.4061C41.6764 47.1726 41.5452 46.8559 41.5452 46.5256V44.658C41.5452 44.3278 41.6764 44.0111 41.9099 43.7776C42.1434 43.5441 42.4601 43.4129 42.7903 43.4129ZM46.5256 37.8099C46.8306 37.81 47.125 37.9219 47.3528 38.1246C47.5807 38.3272 47.7263 38.6065 47.762 38.9093L47.7707 39.055V46.5256C47.7704 46.843 47.6489 47.1482 47.431 47.379C47.2132 47.6098 46.9154 47.7486 46.5986 47.7672C46.2818 47.7858 45.9699 47.6827 45.7265 47.4791C45.4831 47.2754 45.3267 46.9864 45.2893 46.6713L45.2805 46.5256V39.055C45.2805 38.7248 45.4117 38.4081 45.6452 38.1746C45.8787 37.9411 46.1954 37.8099 46.5256 37.8099ZM32.8295 37.8099C33.4899 37.8099 34.1233 38.0723 34.5903 38.5393C35.0574 39.0063 35.3197 39.6397 35.3197 40.3001V45.2805C35.3197 45.941 35.0574 46.5744 34.5903 47.0414C34.1233 47.5084 33.4899 47.7707 32.8295 47.7707H27.8491C27.1886 47.7707 26.5553 47.5084 26.0883 47.0414C25.6212 46.5744 25.3589 45.941 25.3589 45.2805V40.3001C25.3589 39.6397 25.6212 39.0063 26.0883 38.5393C26.5553 38.0723 27.1886 37.8099 27.8491 37.8099H32.8295ZM42.7903 37.8099C43.0953 37.81 43.3896 37.9219 43.6175 38.1246C43.8454 38.3272 43.991 38.6065 44.0267 38.9093L44.0354 39.055V40.9227C44.0351 41.24 43.9136 41.5453 43.6957 41.776C43.4779 42.0068 43.1801 42.1457 42.8633 42.1643C42.5465 42.1829 42.2345 42.0798 41.9912 41.8761C41.7478 41.6724 41.5914 41.3835 41.5539 41.0684L41.5452 40.9227V39.055C41.5452 38.7248 41.6764 38.4081 41.9099 38.1746C42.1434 37.9411 42.4601 37.8099 42.7903 37.8099ZM32.8295 25.3589C33.4899 25.3589 34.1233 25.6212 34.5903 26.0883C35.0574 26.5553 35.3197 27.1886 35.3197 27.8491V32.8295C35.3197 33.4899 35.0574 34.1233 34.5903 34.5903C34.1233 35.0574 33.4899 35.3197 32.8295 35.3197H27.8491C27.1886 35.3197 26.5553 35.0574 26.0883 34.5903C25.6212 34.1233 25.3589 33.4899 25.3589 32.8295V27.8491C25.3589 27.1886 25.6212 26.5553 26.0883 26.0883C26.5553 25.6212 27.1886 25.3589 27.8491 25.3589H32.8295ZM45.2805 25.3589C45.941 25.3589 46.5744 25.6212 47.0414 26.0883C47.5084 26.5553 47.7707 27.1886 47.7707 27.8491V32.8295C47.7707 33.4899 47.5084 34.1233 47.0414 34.5903C46.5744 35.0574 45.941 35.3197 45.2805 35.3197H40.3001C39.6397 35.3197 39.0063 35.0574 38.5393 34.5903C38.0723 34.1233 37.8099 33.4899 37.8099 32.8295V27.8491C37.8099 27.1886 38.0723 26.5553 38.5393 26.0883C39.0063 25.6212 39.6397 25.3589 40.3001 25.3589H45.2805Z" fill="white"/>
</g>
<defs>
<clipPath id="clip0_2054_1283">
<rect width="29.8825" height="29.8825" fill="white" transform="translate(21.6235 21.6235)"/>
</clipPath>
</defs>
</svg>
