<svg width="19" height="19" viewBox="0 0 19 19" fill="none" xmlns="http://www.w3.org/2000/svg">
<path d="M7.68708 5.3122L8.70833 4.28303V13.4584C8.70833 13.6684 8.79174 13.8698 8.94021 14.0182C9.08867 14.1667 9.29004 14.2501 9.5 14.2501C9.70996 14.2501 9.91133 14.1667 10.0598 14.0182C10.2083 13.8698 10.2917 13.6684 10.2917 13.4584V4.28303L11.3129 5.3122C11.3865 5.3864 11.4741 5.4453 11.5705 5.48549C11.667 5.52568 11.7705 5.54637 11.875 5.54637C11.9795 5.54637 12.083 5.52568 12.1795 5.48549C12.2759 5.4453 12.3635 5.3864 12.4371 5.3122C12.5113 5.2386 12.5702 5.15104 12.6104 5.05457C12.6506 4.9581 12.6713 4.85462 12.6713 4.75011C12.6713 4.64561 12.6506 4.54213 12.6104 4.44566C12.5702 4.34919 12.5113 4.26163 12.4371 4.18803L10.0621 1.81303C9.98849 1.73883 9.90093 1.67993 9.80446 1.63974C9.70799 1.59955 9.60451 1.57886 9.5 1.57886C9.39549 1.57886 9.29202 1.59955 9.19554 1.63974C9.09907 1.67993 9.01151 1.73883 8.93792 1.81303L6.56292 4.18803C6.41384 4.33711 6.33009 4.53929 6.33009 4.75011C6.33009 4.96094 6.41384 5.16312 6.56292 5.3122C6.71199 5.46127 6.91418 5.54502 7.125 5.54502C7.33582 5.54502 7.53801 5.46127 7.68708 5.3122ZM14.25 7.12511H12.6667C12.4567 7.12511 12.2553 7.20852 12.1069 7.35699C11.9584 7.50546 11.875 7.70682 11.875 7.91678C11.875 8.12674 11.9584 8.32811 12.1069 8.47657C12.2553 8.62504 12.4567 8.70845 12.6667 8.70845H14.25C14.46 8.70845 14.6613 8.79186 14.8098 8.94032C14.9583 9.08879 15.0417 9.29015 15.0417 9.50012V15.0418C15.0417 15.2517 14.9583 15.4531 14.8098 15.6016C14.6613 15.75 14.46 15.8334 14.25 15.8334H4.75C4.54004 15.8334 4.33867 15.75 4.19021 15.6016C4.04174 15.4531 3.95833 15.2517 3.95833 15.0418V9.50012C3.95833 9.29015 4.04174 9.08879 4.19021 8.94032C4.33867 8.79186 4.54004 8.70845 4.75 8.70845H6.33333C6.5433 8.70845 6.74466 8.62504 6.89313 8.47657C7.04159 8.32811 7.125 8.12674 7.125 7.91678C7.125 7.70682 7.04159 7.50546 6.89313 7.35699C6.74466 7.20852 6.5433 7.12511 6.33333 7.12511H4.75C4.12011 7.12511 3.51602 7.37534 3.07062 7.82074C2.62522 8.26614 2.375 8.87023 2.375 9.50012V15.0418C2.375 15.6717 2.62522 16.2758 3.07062 16.7212C3.51602 17.1666 4.12011 17.4168 4.75 17.4168H14.25C14.8799 17.4168 15.484 17.1666 15.9294 16.7212C16.3748 16.2758 16.625 15.6717 16.625 15.0418V9.50012C16.625 8.87023 16.3748 8.26614 15.9294 7.82074C15.484 7.37534 14.8799 7.12511 14.25 7.12511Z" fill="black"/>
</svg>
