<svg width="25" height="24" viewBox="0 0 25 24" fill="none" xmlns="http://www.w3.org/2000/svg">
<g clip-path="url(#clip0_1586_1640)">
<path d="M4.76203 18.2858V19.4286V3.42864V18.2858ZM5.1284 21.1429C4.53475 21.1429 4.02761 20.9411 3.60697 20.5375C3.18654 20.1337 2.97632 19.6468 2.97632 19.0769V3.78036C2.97632 3.21045 3.18654 2.72359 3.60697 2.31978C4.02761 1.91617 4.53475 1.71436 5.1284 1.71436H21.0623C21.656 1.71436 22.1631 1.91617 22.5838 2.31978C23.0042 2.72359 23.2144 3.21045 23.2144 3.78036V6.89035H21.4287V3.78036C21.4287 3.67769 21.3944 3.5934 21.3257 3.5275C21.2571 3.46159 21.1693 3.42864 21.0623 3.42864H5.1284C5.02146 3.42864 4.93366 3.46159 4.86501 3.5275C4.79636 3.5934 4.76203 3.67769 4.76203 3.78036V19.0769C4.76203 19.1796 4.79636 19.2639 4.86501 19.3298C4.93366 19.3957 5.02146 19.4286 5.1284 19.4286H21.0623C21.1693 19.4286 21.2571 19.3957 21.3257 19.3298C21.3944 19.2639 21.4287 19.1796 21.4287 19.0769V15.9669H23.2144V19.0769C23.2144 19.6468 23.0042 20.1337 22.5838 20.5375C22.1631 20.9411 21.656 21.1429 21.0623 21.1429H5.1284ZM14.6522 16.5715C14.0586 16.5715 13.5514 16.3697 13.1308 15.9661C12.7103 15.5623 12.5001 15.0754 12.5001 14.5055V8.35178C12.5001 7.78188 12.7103 7.29502 13.1308 6.89121C13.5514 6.48759 14.0586 6.28578 14.6522 6.28578H22.2528C22.8465 6.28578 23.3536 6.48759 23.7742 6.89121C24.1947 7.29502 24.4049 7.78188 24.4049 8.35178V14.5055C24.4049 15.0754 24.1947 15.5623 23.7742 15.9661C23.3536 16.3697 22.8465 16.5715 22.2528 16.5715H14.6522ZM22.2528 14.8572C22.3598 14.8572 22.4475 14.8243 22.5162 14.7584C22.5848 14.6925 22.6192 14.6082 22.6192 14.5055V8.35178C22.6192 8.24912 22.5848 8.16483 22.5162 8.09893C22.4475 8.03302 22.3598 8.00007 22.2528 8.00007H14.6522C14.5453 8.00007 14.4575 8.03302 14.3888 8.09893C14.3202 8.16483 14.2858 8.24912 14.2858 8.35178V14.5055C14.2858 14.6082 14.3202 14.6925 14.3888 14.7584C14.4575 14.8243 14.5453 14.8572 14.6522 14.8572H22.2528ZM17.8573 13.1429C18.3533 13.1429 18.7749 12.9763 19.1222 12.6429C19.4694 12.3096 19.643 11.9048 19.643 11.4286C19.643 10.9525 19.4694 10.5477 19.1222 10.2144C18.7749 9.88102 18.3533 9.71436 17.8573 9.71436C17.3612 9.71436 16.9396 9.88102 16.5924 10.2144C16.2452 10.5477 16.0716 10.9525 16.0716 11.4286C16.0716 11.9048 16.2452 12.3096 16.5924 12.6429C16.9396 12.9763 17.3612 13.1429 17.8573 13.1429Z" fill="black"/>
</g>
<defs>
<clipPath id="clip0_1586_1640">
<rect width="25" height="24" fill="white"/>
</clipPath>
</defs>
</svg>
