<svg width="60" height="64" viewBox="0 0 60 64" fill="none" xmlns="http://www.w3.org/2000/svg">
<rect width="59.0904" height="64" rx="29.5452" fill="white"/>
<g clip-path="url(#clip0_2114_571)">
<path d="M24.2327 15C24.2327 23.9781 19.3983 32 12.5452 32C19.3983 32 24.2327 40.0219 24.2327 49C24.2327 40.0219 29.067 32 35.9202 32C29.067 32 24.2327 23.9781 24.2327 15Z" fill="#FFE54D"/>
<path d="M40.7014 15C40.7014 19.4625 38.2577 23.5 34.8577 23.5C38.2577 23.5 40.7014 27.5375 40.7014 32C40.7014 27.5375 43.1452 23.5 46.5452 23.5C43.1452 23.5 40.7014 19.4625 40.7014 15Z" fill="#6ADBC6"/>
<path d="M38.0452 32C38.0452 36.4625 35.6014 40.5 32.2014 40.5C35.6014 40.5 38.0452 44.5375 38.0452 49C38.0452 44.5375 40.4889 40.5 43.8889 40.5C40.4889 40.5 38.0452 36.4625 38.0452 32Z" fill="#FF73C0"/>
</g>
<defs>
<clipPath id="clip0_2114_571">
<rect width="34" height="34" fill="white" transform="translate(12.5452 15)"/>
</clipPath>
</defs>
</svg>
