<svg width="20" height="19" viewBox="0 0 20 19" fill="none" xmlns="http://www.w3.org/2000/svg">
<path d="M9.16145 19C8.91114 19 8.66083 18.9525 8.41051 18.8575C8.1602 18.7625 7.93492 18.62 7.73467 18.43L0.57572 11.6375C0.375469 11.4475 0.229453 11.2377 0.137672 11.0081C0.0458907 10.7785 0 10.545 0 10.3075C0 10.07 0.0458907 9.8325 0.137672 9.595C0.229453 9.3575 0.375469 9.14375 0.57572 8.95375L9.38673 0.57C9.5703 0.395833 9.78723 0.257292 10.0375 0.154375C10.2879 0.0514583 10.5465 0 10.8135 0H17.9975C18.5482 0 19.0196 0.186042 19.4118 0.558125C19.8039 0.930208 20 1.3775 20 1.9V8.71625C20 8.96958 19.9499 9.21104 19.8498 9.44063C19.7497 9.67021 19.6078 9.87208 19.4243 10.0463L10.5882 18.43C10.388 18.62 10.1627 18.7625 9.91239 18.8575C9.66208 18.9525 9.41177 19 9.16145 19ZM9.16145 17.1L17.9975 8.6925V1.9H10.8385L2.0025 10.3075L9.16145 17.1ZM15.4944 5.7C15.9116 5.7 16.2662 5.56146 16.5582 5.28437C16.8502 5.00729 16.9962 4.67083 16.9962 4.275C16.9962 3.87917 16.8502 3.54271 16.5582 3.26562C16.2662 2.98854 15.9116 2.85 15.4944 2.85C15.0772 2.85 14.7226 2.98854 14.4305 3.26562C14.1385 3.54271 13.9925 3.87917 13.9925 4.275C13.9925 4.67083 14.1385 5.00729 14.4305 5.28437C14.7226 5.56146 15.0772 5.7 15.4944 5.7Z" fill="black"/>
</svg>
