<svg width="338" height="54" viewBox="0 0 338 54" fill="none" xmlns="http://www.w3.org/2000/svg">
<rect width="107" height="54" rx="8" fill="#D7E3FF"/>
<path d="M44.3364 19.5H41.379V10.7727H44.3961C45.2626 10.7727 46.0069 10.9474 46.629 11.2969C47.254 11.6435 47.7342 12.142 48.0694 12.7926C48.4046 13.4432 48.5722 14.2216 48.5722 15.1278C48.5722 16.0369 48.4032 16.8182 48.0651 17.4716C47.7299 18.125 47.2455 18.6264 46.612 18.9759C45.9813 19.3253 45.2228 19.5 44.3364 19.5ZM42.96 18.1321H44.2597C44.8677 18.1321 45.3748 18.0213 45.781 17.7997C46.1873 17.5753 46.4927 17.2415 46.6972 16.7983C46.9018 16.3523 47.004 15.7955 47.004 15.1278C47.004 14.4602 46.9018 13.9062 46.6972 13.4659C46.4927 13.0227 46.1901 12.6918 45.7896 12.473C45.3918 12.2514 44.8975 12.1406 44.3066 12.1406H42.96V18.1321ZM51.4817 19.6321C51.0669 19.6321 50.6933 19.5582 50.361 19.4105C50.0314 19.2599 49.77 19.0384 49.5769 18.7457C49.3865 18.4531 49.2914 18.0923 49.2914 17.6634C49.2914 17.294 49.3595 16.9886 49.4959 16.7472C49.6323 16.5057 49.8183 16.3125 50.0541 16.1676C50.2899 16.0227 50.5556 15.9134 50.851 15.8395C51.1493 15.7628 51.4575 15.7074 51.7757 15.6733C52.1593 15.6335 52.4703 15.598 52.709 15.5668C52.9476 15.5327 53.1209 15.4815 53.2289 15.4134C53.3397 15.3423 53.395 15.233 53.395 15.0852V15.0597C53.395 14.7386 53.2999 14.4901 53.1095 14.3139C52.9192 14.1378 52.645 14.0497 52.2871 14.0497C51.9093 14.0497 51.6095 14.1321 51.3879 14.2969C51.1692 14.4616 51.0215 14.6562 50.9448 14.8807L49.5044 14.6761C49.6181 14.2784 49.8056 13.946 50.0669 13.679C50.3283 13.4091 50.6479 13.2074 51.0257 13.0739C51.4036 12.9375 51.8212 12.8693 52.2786 12.8693C52.5939 12.8693 52.9078 12.9062 53.2203 12.9801C53.5328 13.054 53.8183 13.1761 54.0769 13.3466C54.3354 13.5142 54.5428 13.7429 54.699 14.0327C54.8581 14.3224 54.9377 14.6847 54.9377 15.1193V19.5H53.4547V18.6009H53.4036C53.3098 18.7827 53.1777 18.9531 53.0073 19.1122C52.8397 19.2685 52.628 19.3949 52.3723 19.4915C52.1195 19.5852 51.8226 19.6321 51.4817 19.6321ZM51.8823 18.4986C52.1919 18.4986 52.4604 18.4375 52.6877 18.3153C52.9149 18.1903 53.0897 18.0256 53.2118 17.821C53.3368 17.6165 53.3993 17.3935 53.3993 17.152V16.3807C53.351 16.4205 53.2686 16.4574 53.1522 16.4915C53.0385 16.5256 52.9107 16.5554 52.7686 16.581C52.6266 16.6065 52.486 16.6293 52.3468 16.6491C52.2075 16.669 52.0868 16.6861 51.9845 16.7003C51.7544 16.7315 51.5485 16.7827 51.3666 16.8537C51.1848 16.9247 51.0414 17.0241 50.9362 17.152C50.8311 17.277 50.7786 17.4389 50.7786 17.6378C50.7786 17.9219 50.8823 18.1364 51.0897 18.2812C51.297 18.4261 51.5612 18.4986 51.8823 18.4986ZM59.3493 12.9545V14.1477H55.5865V12.9545H59.3493ZM56.5155 11.3864H58.0581V17.5312C58.0581 17.7386 58.0893 17.8977 58.1518 18.0085C58.2172 18.1165 58.3024 18.1903 58.4075 18.2301C58.5126 18.2699 58.6291 18.2898 58.7569 18.2898C58.8535 18.2898 58.9416 18.2827 59.0211 18.2685C59.1035 18.2543 59.166 18.2415 59.2086 18.2301L59.4686 19.4361C59.3862 19.4645 59.2683 19.4957 59.1149 19.5298C58.9643 19.5639 58.7797 19.5838 58.5609 19.5895C58.1745 19.6009 57.8265 19.5426 57.5169 19.4148C57.2072 19.2841 56.9615 19.0824 56.7797 18.8097C56.6007 18.5369 56.5126 18.196 56.5155 17.7869V11.3864ZM63.0588 19.6278C62.4026 19.6278 61.8358 19.4915 61.3585 19.2188C60.8841 18.9432 60.519 18.554 60.2634 18.0511C60.0077 17.5455 59.8798 16.9503 59.8798 16.2656C59.8798 15.5923 60.0077 15.0014 60.2634 14.4929C60.5219 13.9815 60.8827 13.5838 61.3457 13.2997C61.8088 13.0128 62.3528 12.8693 62.9778 12.8693C63.3813 12.8693 63.7619 12.9347 64.1199 13.0653C64.4807 13.1932 64.7989 13.392 65.0744 13.6619C65.3528 13.9318 65.5716 14.2756 65.7307 14.6932C65.8898 15.108 65.9693 15.6023 65.9693 16.1761V16.6491H60.6043V15.6094H64.4906C64.4878 15.3139 64.4239 15.0511 64.2989 14.821C64.1739 14.5881 63.9992 14.4048 63.7747 14.2713C63.5531 14.1378 63.2946 14.071 62.9992 14.071C62.6838 14.071 62.4068 14.1477 62.1682 14.3011C61.9295 14.4517 61.7435 14.6506 61.6099 14.8977C61.4793 15.142 61.4125 15.4105 61.4097 15.7031V16.6108C61.4097 16.9915 61.4793 17.3182 61.6185 17.5909C61.7577 17.8608 61.9523 18.0682 62.2023 18.2131C62.4523 18.3551 62.7449 18.4261 63.0801 18.4261C63.3045 18.4261 63.5077 18.3949 63.6895 18.3324C63.8713 18.267 64.029 18.1719 64.1625 18.0469C64.296 17.9219 64.3969 17.767 64.4651 17.5824L65.9054 17.7443C65.8145 18.125 65.6412 18.4574 65.3855 18.7415C65.1327 19.0227 64.8088 19.2415 64.4139 19.3977C64.019 19.5511 63.5673 19.6278 63.0588 19.6278Z" fill="black"/>
<path d="M13.255 33.3182V43.5H11.1023V35.3615H11.0426L8.71094 36.8232V34.9141L11.2315 33.3182H13.255ZM15.2669 43.5V41.9489L18.8912 38.593C19.1994 38.2947 19.4579 38.0263 19.6668 37.7876C19.8789 37.549 20.0396 37.3153 20.149 37.0866C20.2584 36.8546 20.3131 36.6044 20.3131 36.3359C20.3131 36.0376 20.2451 35.7808 20.1092 35.5653C19.9733 35.3466 19.7877 35.1792 19.5524 35.0632C19.3171 34.9439 19.0503 34.8842 18.752 34.8842C18.4404 34.8842 18.1686 34.9472 17.9366 35.0732C17.7046 35.1991 17.5257 35.3797 17.3997 35.6151C17.2738 35.8504 17.2108 36.1304 17.2108 36.4553H15.1675C15.1675 35.7891 15.3183 35.2107 15.6199 34.7202C15.9215 34.2296 16.3441 33.8501 16.8876 33.5817C17.4312 33.3132 18.0576 33.179 18.7669 33.179C19.4961 33.179 20.1308 33.3082 20.671 33.5668C21.2146 33.822 21.6372 34.1766 21.9388 34.6307C22.2404 35.0848 22.3912 35.6051 22.3912 36.1918C22.3912 36.5762 22.315 36.9557 22.1625 37.3303C22.0133 37.7048 21.7465 38.1207 21.3621 38.5781C20.9776 39.0322 20.4357 39.5774 19.7364 40.2138L18.2498 41.6705V41.7401H22.5254V43.5H15.2669ZM28.1318 32.8409L24.8505 45.0312H23.026L26.3072 32.8409H28.1318ZM32.7165 43.7237C31.8614 43.7204 31.1256 43.5099 30.5091 43.0923C29.896 42.6747 29.4237 42.0698 29.0922 41.2777C28.7641 40.4856 28.6017 39.5327 28.605 38.419C28.605 37.3087 28.7691 36.3625 29.0972 35.5803C29.4286 34.7981 29.9009 34.2031 30.5141 33.7955C31.1306 33.3845 31.8647 33.179 32.7165 33.179C33.5683 33.179 34.3008 33.3845 34.914 33.7955C35.5304 34.2064 36.0044 34.803 36.3358 35.5852C36.6673 36.3641 36.8313 37.3087 36.828 38.419C36.828 39.536 36.6623 40.4905 36.3309 41.2827C36.0027 42.0748 35.5321 42.6797 34.9189 43.0973C34.3058 43.5149 33.5716 43.7237 32.7165 43.7237ZM32.7165 41.9389C33.2999 41.9389 33.7655 41.6456 34.1135 41.0589C34.4615 40.4723 34.6339 39.5923 34.6306 38.419C34.6306 37.6468 34.551 37.0038 34.3919 36.4901C34.2362 35.9763 34.0141 35.5902 33.7258 35.3317C33.4407 35.0732 33.1043 34.9439 32.7165 34.9439C32.1365 34.9439 31.6725 35.2339 31.3245 35.8139C30.9765 36.3939 30.8008 37.2623 30.7975 38.419C30.7975 39.2012 30.8754 39.8542 31.0312 40.3778C31.1902 40.8982 31.414 41.2893 31.7023 41.5511C31.9907 41.8097 32.3287 41.9389 32.7165 41.9389ZM37.955 43.5V41.9489L41.5793 38.593C41.8875 38.2947 42.1461 38.0263 42.3549 37.7876C42.567 37.549 42.7277 37.3153 42.8371 37.0866C42.9465 36.8546 43.0012 36.6044 43.0012 36.3359C43.0012 36.0376 42.9332 35.7808 42.7973 35.5653C42.6614 35.3466 42.4758 35.1792 42.2405 35.0632C42.0052 34.9439 41.7384 34.8842 41.4401 34.8842C41.1285 34.8842 40.8568 34.9472 40.6247 35.0732C40.3927 35.1991 40.2138 35.3797 40.0878 35.6151C39.9619 35.8504 39.8989 36.1304 39.8989 36.4553H37.8556C37.8556 35.7891 38.0064 35.2107 38.308 34.7202C38.6096 34.2296 39.0322 33.8501 39.5757 33.5817C40.1193 33.3132 40.7457 33.179 41.455 33.179C42.1842 33.179 42.8189 33.3082 43.3591 33.5668C43.9027 33.822 44.3253 34.1766 44.6269 34.6307C44.9285 35.0848 45.0793 35.6051 45.0793 36.1918C45.0793 36.5762 45.0031 36.9557 44.8506 37.3303C44.7015 37.7048 44.4346 38.1207 44.0502 38.5781C43.6657 39.0322 43.1238 39.5774 42.4245 40.2138L40.938 41.6705V41.7401H45.2135V43.5H37.955ZM50.8199 32.8409L47.5387 45.0312H45.7141L48.9953 32.8409H50.8199ZM51.4124 43.5V41.9489L55.0367 38.593C55.345 38.2947 55.6035 38.0263 55.8123 37.7876C56.0244 37.549 56.1852 37.3153 56.2945 37.0866C56.4039 36.8546 56.4586 36.6044 56.4586 36.3359C56.4586 36.0376 56.3907 35.7808 56.2548 35.5653C56.1189 35.3466 55.9333 35.1792 55.698 35.0632C55.4626 34.9439 55.1958 34.8842 54.8975 34.8842C54.586 34.8842 54.3142 34.9472 54.0822 35.0732C53.8502 35.1991 53.6712 35.3797 53.5453 35.6151C53.4193 35.8504 53.3563 36.1304 53.3563 36.4553H51.313C51.313 35.7891 51.4638 35.2107 51.7654 34.7202C52.067 34.2296 52.4896 33.8501 53.0332 33.5817C53.5767 33.3132 54.2032 33.179 54.9124 33.179C55.6416 33.179 56.2763 33.3082 56.8166 33.5668C57.3601 33.822 57.7827 34.1766 58.0843 34.6307C58.3859 35.0848 58.5367 35.6051 58.5367 36.1918C58.5367 36.5762 58.4605 36.9557 58.308 37.3303C58.1589 37.7048 57.8921 38.1207 57.5076 38.5781C57.1231 39.0322 56.5812 39.5774 55.8819 40.2138L54.3954 41.6705V41.7401H58.671V43.5H51.4124ZM63.815 43.7237C62.9599 43.7204 62.2241 43.5099 61.6076 43.0923C60.9944 42.6747 60.5221 42.0698 60.1907 41.2777C59.8626 40.4856 59.7002 39.5327 59.7035 38.419C59.7035 37.3087 59.8675 36.3625 60.1957 35.5803C60.5271 34.7981 60.9994 34.2031 61.6126 33.7955C62.2291 33.3845 62.9632 33.179 63.815 33.179C64.6668 33.179 65.3993 33.3845 66.0124 33.7955C66.6289 34.2064 67.1029 34.803 67.4343 35.5852C67.7657 36.3641 67.9298 37.3087 67.9265 38.419C67.9265 39.536 67.7608 40.4905 67.4293 41.2827C67.1012 42.0748 66.6306 42.6797 66.0174 43.0973C65.4042 43.5149 64.6701 43.7237 63.815 43.7237ZM63.815 41.9389C64.3983 41.9389 64.864 41.6456 65.212 41.0589C65.56 40.4723 65.7324 39.5923 65.7291 38.419C65.7291 37.6468 65.6495 37.0038 65.4904 36.4901C65.3346 35.9763 65.1126 35.5902 64.8242 35.3317C64.5392 35.0732 64.2028 34.9439 63.815 34.9439C63.235 34.9439 62.771 35.2339 62.4229 35.8139C62.0749 36.3939 61.8993 37.2623 61.896 38.419C61.896 39.2012 61.9738 39.8542 62.1296 40.3778C62.2887 40.8982 62.5124 41.2893 62.8008 41.5511C63.0891 41.8097 63.4272 41.9389 63.815 41.9389ZM69.0535 43.5V41.9489L72.6778 38.593C72.986 38.2947 73.2445 38.0263 73.4533 37.7876C73.6655 37.549 73.8262 37.3153 73.9356 37.0866C74.0449 36.8546 74.0996 36.6044 74.0996 36.3359C74.0996 36.0376 74.0317 35.7808 73.8958 35.5653C73.7599 35.3466 73.5743 35.1792 73.339 35.0632C73.1037 34.9439 72.8369 34.8842 72.5386 34.8842C72.227 34.8842 71.9552 34.9472 71.7232 35.0732C71.4912 35.1991 71.3122 35.3797 71.1863 35.6151C71.0603 35.8504 70.9974 36.1304 70.9974 36.4553H68.954C68.954 35.7891 69.1048 35.2107 69.4065 34.7202C69.7081 34.2296 70.1306 33.8501 70.6742 33.5817C71.2178 33.3132 71.8442 33.179 72.5535 33.179C73.2826 33.179 73.9173 33.3082 74.4576 33.5668C75.0012 33.822 75.4237 34.1766 75.7253 34.6307C76.027 35.0848 76.1778 35.6051 76.1778 36.1918C76.1778 36.5762 76.1015 36.9557 75.9491 37.3303C75.7999 37.7048 75.5331 38.1207 75.1486 38.5781C74.7642 39.0322 74.2223 39.5774 73.5229 40.2138L72.0364 41.6705V41.7401H76.312V43.5H69.0535ZM77.4638 43.5V41.9489L81.0881 38.593C81.3964 38.2947 81.6549 38.0263 81.8637 37.7876C82.0758 37.549 82.2366 37.3153 82.3459 37.0866C82.4553 36.8546 82.51 36.6044 82.51 36.3359C82.51 36.0376 82.4421 35.7808 82.3062 35.5653C82.1703 35.3466 81.9847 35.1792 81.7493 35.0632C81.514 34.9439 81.2472 34.8842 80.9489 34.8842C80.6374 34.8842 80.3656 34.9472 80.1336 35.0732C79.9016 35.1991 79.7226 35.3797 79.5966 35.6151C79.4707 35.8504 79.4077 36.1304 79.4077 36.4553H77.3644C77.3644 35.7891 77.5152 35.2107 77.8168 34.7202C78.1184 34.2296 78.541 33.8501 79.0846 33.5817C79.6281 33.3132 80.2546 33.179 80.9638 33.179C81.693 33.179 82.3277 33.3082 82.868 33.5668C83.4115 33.822 83.8341 34.1766 84.1357 34.6307C84.4373 35.0848 84.5881 35.6051 84.5881 36.1918C84.5881 36.5762 84.5119 36.9557 84.3594 37.3303C84.2103 37.7048 83.9435 38.1207 83.559 38.5781C83.1745 39.0322 82.6326 39.5774 81.9333 40.2138L80.4468 41.6705V41.7401H84.7224V43.5H77.4638Z" fill="black"/>
<path d="M24.9711 9C25.1011 9 25.2257 9.05162 25.3176 9.14352C25.4095 9.23541 25.4611 9.36004 25.4611 9.49V10.4063H30.723V9.4963C30.723 9.36634 30.7746 9.24171 30.8665 9.14982C30.9584 9.05792 31.083 9.0063 31.213 9.0063C31.343 9.0063 31.4676 9.05792 31.5595 9.14982C31.6514 9.24171 31.703 9.36634 31.703 9.4963V10.4063H33.6C33.9712 10.4063 34.3272 10.5537 34.5897 10.8161C34.8522 11.0785 34.9998 11.4344 35 11.8056V21.6007C34.9998 21.9719 34.8522 22.3278 34.5897 22.5902C34.3272 22.8526 33.9712 23 33.6 23H22.4C22.0288 23 21.6728 22.8526 21.4103 22.5902C21.1478 22.3278 21.0002 21.9719 21 21.6007V11.8056C21.0002 11.4344 21.1478 11.0785 21.4103 10.8161C21.6728 10.5537 22.0288 10.4063 22.4 10.4063H24.4811V9.4893C24.4813 9.35947 24.533 9.23501 24.6249 9.14327C24.7167 9.05153 24.8413 9 24.9711 9ZM21.98 14.4194V21.6007C21.98 21.6559 21.9909 21.7105 22.012 21.7614C22.0331 21.8124 22.064 21.8587 22.103 21.8977C22.142 21.9367 22.1883 21.9676 22.2393 21.9887C22.2902 22.0098 22.3448 22.0207 22.4 22.0207H33.6C33.6552 22.0207 33.7098 22.0098 33.7607 21.9887C33.8117 21.9676 33.858 21.9367 33.897 21.8977C33.936 21.8587 33.9669 21.8124 33.988 21.7614C34.0091 21.7105 34.02 21.6559 34.02 21.6007V14.4292L21.98 14.4194ZM25.6669 19.2333V20.3995H24.5V19.2333H25.6669ZM28.5831 19.2333V20.3995H27.4169V19.2333H28.5831ZM31.5 19.2333V20.3995H30.3331V19.2333H31.5ZM25.6669 16.4494V17.6156H24.5V16.4494H25.6669ZM28.5831 16.4494V17.6156H27.4169V16.4494H28.5831ZM31.5 16.4494V17.6156H30.3331V16.4494H31.5ZM24.4811 11.3856H22.4C22.3448 11.3856 22.2902 11.3965 22.2393 11.4176C22.1883 11.4387 22.142 11.4696 22.103 11.5086C22.064 11.5476 22.0331 11.5939 22.012 11.6449C21.9909 11.6958 21.98 11.7504 21.98 11.8056V13.4401L34.02 13.4499V11.8056C34.02 11.7504 34.0091 11.6958 33.988 11.6449C33.9669 11.5939 33.936 11.5476 33.897 11.5086C33.858 11.4696 33.8117 11.4387 33.7607 11.4176C33.7098 11.3965 33.6552 11.3856 33.6 11.3856H31.703V12.0359C31.703 12.1659 31.6514 12.2905 31.5595 12.3824C31.4676 12.4743 31.343 12.5259 31.213 12.5259C31.083 12.5259 30.9584 12.4743 30.8665 12.3824C30.7746 12.2905 30.723 12.1659 30.723 12.0359V11.3856H25.4611V12.0296C25.4611 12.1596 25.4095 12.2842 25.3176 12.3761C25.2257 12.468 25.1011 12.5196 24.9711 12.5196C24.8411 12.5196 24.7165 12.468 24.6246 12.3761C24.5327 12.2842 24.4811 12.1596 24.4811 12.0296V11.3856Z" fill="black"/>
<rect x="113" width="107" height="54" rx="8" fill="#F5DEFF"/>
<path d="M142.75 15.5C142.75 12.0481 145.548 9.25 149 9.25C152.452 9.25 155.25 12.0481 155.25 15.5C155.25 18.9519 152.452 21.75 149 21.75C145.548 21.75 142.75 18.9519 142.75 15.5Z" stroke="black" stroke-width="1.5" stroke-linecap="square"/>
<path d="M149 12.0625V15.5L150.875 17.375" stroke="black" stroke-width="1.5" stroke-linecap="square"/>
<path d="M162.977 12.598V11.2727H169.94V12.598H167.243V20H165.675V12.598H162.977ZM170.806 20V13.4545H172.349V20H170.806ZM171.582 12.5256C171.338 12.5256 171.128 12.4446 170.951 12.2827C170.775 12.1179 170.687 11.9205 170.687 11.6903C170.687 11.4574 170.775 11.2599 170.951 11.098C171.128 10.9332 171.338 10.8509 171.582 10.8509C171.829 10.8509 172.039 10.9332 172.213 11.098C172.389 11.2599 172.477 11.4574 172.477 11.6903C172.477 11.9205 172.389 12.1179 172.213 12.2827C172.039 12.4446 171.829 12.5256 171.582 12.5256ZM173.527 20V13.4545H175.002V14.5668H175.079C175.215 14.1918 175.441 13.8991 175.756 13.6889C176.071 13.4759 176.448 13.3693 176.885 13.3693C177.329 13.3693 177.702 13.4773 178.006 13.6932C178.313 13.9062 178.529 14.1974 178.654 14.5668H178.722C178.867 14.2031 179.111 13.9134 179.455 13.6974C179.802 13.4787 180.212 13.3693 180.686 13.3693C181.289 13.3693 181.78 13.5597 182.161 13.9403C182.542 14.321 182.732 14.8764 182.732 15.6065V20H181.185V15.8452C181.185 15.4389 181.077 15.142 180.861 14.9545C180.645 14.7642 180.381 14.669 180.069 14.669C179.696 14.669 179.405 14.7855 179.195 15.0185C178.988 15.2486 178.884 15.5483 178.884 15.9176V20H177.371V15.7812C177.371 15.4432 177.269 15.1733 177.064 14.9716C176.863 14.7699 176.598 14.669 176.272 14.669C176.05 14.669 175.848 14.7259 175.667 14.8395C175.485 14.9503 175.34 15.108 175.232 15.3125C175.124 15.5142 175.07 15.75 175.07 16.0199V20H173.527ZM186.787 20.1278C186.13 20.1278 185.564 19.9915 185.086 19.7188C184.612 19.4432 184.247 19.054 183.991 18.5511C183.736 18.0455 183.608 17.4503 183.608 16.7656C183.608 16.0923 183.736 15.5014 183.991 14.9929C184.25 14.4815 184.611 14.0838 185.074 13.7997C185.537 13.5128 186.081 13.3693 186.706 13.3693C187.109 13.3693 187.49 13.4347 187.848 13.5653C188.209 13.6932 188.527 13.892 188.802 14.1619C189.081 14.4318 189.299 14.7756 189.459 15.1932C189.618 15.608 189.697 16.1023 189.697 16.6761V17.1491H184.332V16.1094H188.218C188.216 15.8139 188.152 15.5511 188.027 15.321C187.902 15.0881 187.727 14.9048 187.503 14.7713C187.281 14.6378 187.022 14.571 186.727 14.571C186.412 14.571 186.135 14.6477 185.896 14.8011C185.657 14.9517 185.471 15.1506 185.338 15.3977C185.207 15.642 185.14 15.9105 185.138 16.2031V17.1108C185.138 17.4915 185.207 17.8182 185.346 18.0909C185.486 18.3608 185.68 18.5682 185.93 18.7131C186.18 18.8551 186.473 18.9261 186.808 18.9261C187.032 18.9261 187.236 18.8949 187.417 18.8324C187.599 18.767 187.757 18.6719 187.89 18.5469C188.024 18.4219 188.125 18.267 188.193 18.0824L189.633 18.2443C189.542 18.625 189.369 18.9574 189.113 19.2415C188.861 19.5227 188.537 19.7415 188.142 19.8977C187.747 20.0511 187.295 20.1278 186.787 20.1278Z" fill="black"/>
<path d="M141.163 32.8182V43H139.011V34.8615H138.951L136.619 36.3232V34.4141L139.14 32.8182H141.163ZM143.021 41.2102V39.5149L147.272 32.8182H148.734V35.1648H147.869L145.189 39.4055V39.4851H151.229V41.2102H143.021ZM147.908 43V40.6932L147.948 39.9425V32.8182H149.967V43H147.908ZM153.513 41.8168C153.185 41.8168 152.904 41.7008 152.668 41.4688C152.436 41.2367 152.32 40.955 152.32 40.6236C152.32 40.2988 152.436 40.0204 152.668 39.7884C152.904 39.5563 153.185 39.4403 153.513 39.4403C153.832 39.4403 154.11 39.5563 154.349 39.7884C154.587 40.0204 154.707 40.2988 154.707 40.6236C154.707 40.8423 154.65 41.0429 154.538 41.2251C154.428 41.4041 154.284 41.5483 154.105 41.6577C153.926 41.7637 153.729 41.8168 153.513 41.8168ZM153.513 36.8203C153.185 36.8203 152.904 36.7043 152.668 36.4723C152.436 36.2403 152.32 35.9586 152.32 35.6271C152.32 35.3023 152.436 35.0256 152.668 34.7969C152.904 34.5649 153.185 34.4489 153.513 34.4489C153.832 34.4489 154.11 34.5649 154.349 34.7969C154.587 35.0256 154.707 35.3023 154.707 35.6271C154.707 35.8492 154.65 36.0514 154.538 36.2337C154.428 36.4126 154.284 36.5552 154.105 36.6612C153.926 36.7673 153.729 36.8203 153.513 36.8203ZM160.01 43.2237C159.155 43.2204 158.419 43.0099 157.802 42.5923C157.189 42.1747 156.717 41.5698 156.385 40.7777C156.057 39.9856 155.895 39.0327 155.898 37.919C155.898 36.8087 156.062 35.8625 156.39 35.0803C156.722 34.2981 157.194 33.7031 157.807 33.2955C158.424 32.8845 159.158 32.679 160.01 32.679C160.862 32.679 161.594 32.8845 162.207 33.2955C162.824 33.7064 163.298 34.303 163.629 35.0852C163.961 35.8641 164.125 36.8087 164.121 37.919C164.121 39.036 163.956 39.9905 163.624 40.7827C163.296 41.5748 162.825 42.1797 162.212 42.5973C161.599 43.0149 160.865 43.2237 160.01 43.2237ZM160.01 41.4389C160.593 41.4389 161.059 41.1456 161.407 40.5589C161.755 39.9723 161.927 39.0923 161.924 37.919C161.924 37.1468 161.844 36.5038 161.685 35.9901C161.529 35.4763 161.307 35.0902 161.019 34.8317C160.734 34.5732 160.398 34.4439 160.01 34.4439C159.43 34.4439 158.966 34.7339 158.618 35.3139C158.27 35.8939 158.094 36.7623 158.091 37.919C158.091 38.7012 158.169 39.3542 158.324 39.8778C158.483 40.3982 158.707 40.7893 158.996 41.0511C159.284 41.3097 159.622 41.4389 160.01 41.4389ZM168.967 43.1392C168.264 43.1392 167.638 43.0099 167.088 42.7514C166.541 42.4929 166.107 42.1366 165.785 41.6825C165.464 41.2285 165.296 40.7081 165.283 40.1214H167.371C167.394 40.5159 167.56 40.8357 167.868 41.081C168.177 41.3262 168.543 41.4489 168.967 41.4489C169.305 41.4489 169.603 41.3743 169.862 41.2251C170.124 41.0727 170.328 40.8622 170.473 40.5938C170.623 40.322 170.697 40.0104 170.697 39.6591C170.697 39.3011 170.621 38.9863 170.468 38.7145C170.319 38.4427 170.112 38.2306 169.847 38.0781C169.582 37.9257 169.279 37.8478 168.937 37.8445C168.639 37.8445 168.349 37.9058 168.067 38.0284C167.789 38.151 167.572 38.3184 167.416 38.5305L165.502 38.1875L165.984 32.8182H172.208V34.5781H167.759L167.495 37.1286H167.555C167.734 36.8767 168.004 36.6679 168.365 36.5021C168.727 36.3364 169.131 36.2536 169.578 36.2536C170.192 36.2536 170.739 36.3977 171.219 36.6861C171.7 36.9744 172.079 37.3705 172.358 37.8743C172.636 38.3748 172.774 38.9515 172.77 39.6044C172.774 40.2905 172.614 40.9003 172.293 41.4339C171.975 41.9643 171.529 42.3819 170.956 42.6868C170.386 42.9884 169.723 43.1392 168.967 43.1392ZM176.716 45.8636V35.3636H178.804V36.6463H178.898C178.991 36.4408 179.125 36.232 179.301 36.0199C179.48 35.8045 179.712 35.6255 179.997 35.483C180.285 35.3371 180.643 35.2642 181.071 35.2642C181.628 35.2642 182.141 35.41 182.612 35.7017C183.083 35.9901 183.459 36.4259 183.741 37.0092C184.022 37.5893 184.163 38.3168 184.163 39.1918C184.163 40.0436 184.026 40.7628 183.751 41.3494C183.479 41.9328 183.108 42.3752 182.637 42.6768C182.17 42.9751 181.646 43.1243 181.066 43.1243C180.655 43.1243 180.305 43.0563 180.017 42.9205C179.732 42.7846 179.498 42.6139 179.316 42.4084C179.134 42.1996 178.994 41.9891 178.898 41.777H178.834V45.8636H176.716ZM178.789 39.1818C178.789 39.6359 178.852 40.032 178.978 40.37C179.104 40.7081 179.286 40.9716 179.525 41.1605C179.763 41.3461 180.053 41.4389 180.395 41.4389C180.739 41.4389 181.031 41.3445 181.27 41.1555C181.508 40.9633 181.689 40.6982 181.812 40.3601C181.938 40.0187 182.001 39.6259 182.001 39.1818C182.001 38.741 181.939 38.3532 181.817 38.0185C181.694 37.6837 181.513 37.4219 181.275 37.233C181.036 37.044 180.743 36.9496 180.395 36.9496C180.05 36.9496 179.758 37.0407 179.52 37.223C179.284 37.4053 179.104 37.6638 178.978 37.9986C178.852 38.3333 178.789 38.7277 178.789 39.1818ZM185.167 43V35.3636H187.186V36.7109H187.275C187.434 36.2635 187.699 35.9105 188.071 35.652C188.442 35.3935 188.886 35.2642 189.403 35.2642C189.927 35.2642 190.372 35.3951 190.74 35.657C191.108 35.9155 191.353 36.2668 191.476 36.7109H191.556C191.711 36.2734 191.993 35.9238 192.401 35.6619C192.812 35.3968 193.297 35.2642 193.858 35.2642C194.57 35.2642 195.148 35.4912 195.593 35.9453C196.04 36.3961 196.264 37.0357 196.264 37.8643V43H194.151V38.282C194.151 37.8577 194.038 37.5395 193.813 37.3274C193.587 37.1153 193.306 37.0092 192.968 37.0092C192.583 37.0092 192.283 37.1319 192.068 37.3771C191.852 37.6191 191.745 37.9389 191.745 38.3366V43H189.691V38.2372C189.691 37.8627 189.584 37.5644 189.368 37.3423C189.156 37.1203 188.876 37.0092 188.528 37.0092C188.293 37.0092 188.081 37.0689 187.892 37.1882C187.706 37.3042 187.559 37.4683 187.449 37.6804C187.34 37.8892 187.285 38.1345 187.285 38.4162V43H185.167Z" fill="black"/>
<rect x="226" width="112" height="54" rx="8" fill="#C8FEE0"/>
<g clip-path="url(#clip0_1586_721)">
<path d="M243.82 8.52817C243.395 8.41333 242.953 8.64536 242.83 9.0438L239.63 19.5438C239.508 19.9422 239.755 20.3571 240.18 20.4719C240.605 20.5868 241.048 20.3547 241.17 19.9563L244.37 9.4563C244.493 9.05786 244.245 8.64302 243.82 8.52817ZM245.835 11.343C245.523 11.636 245.523 12.1118 245.835 12.4047L248.068 14.5L245.833 16.5954C245.52 16.8883 245.52 17.3641 245.833 17.6571C246.145 17.95 246.653 17.95 246.965 17.6571L249.765 15.0321C250.078 14.7391 250.078 14.2633 249.765 13.9704L246.965 11.3454C246.653 11.0524 246.145 11.0524 245.833 11.3454L245.835 11.343ZM238.168 11.343C237.855 11.05 237.348 11.05 237.035 11.343L234.235 13.968C233.923 14.261 233.923 14.7368 234.235 15.0297L237.035 17.6547C237.348 17.9477 237.855 17.9477 238.168 17.6547C238.48 17.3618 238.48 16.886 238.168 16.593L235.933 14.5L238.168 12.4047C238.48 12.1118 238.48 11.636 238.168 11.343Z" fill="black"/>
</g>
<path d="M262.604 12.6719C262.564 12.2997 262.396 12.0099 262.101 11.8026C261.808 11.5952 261.428 11.4915 260.959 11.4915C260.629 11.4915 260.347 11.5412 260.111 11.6406C259.875 11.7401 259.695 11.875 259.57 12.0455C259.445 12.2159 259.381 12.4105 259.378 12.6293C259.378 12.8111 259.419 12.9687 259.501 13.1023C259.587 13.2358 259.702 13.3494 259.847 13.4432C259.991 13.5341 260.152 13.6108 260.328 13.6733C260.504 13.7358 260.682 13.7884 260.861 13.831L261.679 14.0355C262.009 14.1122 262.325 14.2159 262.629 14.3466C262.936 14.4773 263.21 14.642 263.452 14.8409C263.696 15.0398 263.889 15.2798 264.031 15.5611C264.173 15.8423 264.244 16.1719 264.244 16.5497C264.244 17.0611 264.114 17.5114 263.852 17.9006C263.591 18.2869 263.213 18.5895 262.719 18.8082C262.227 19.0241 261.632 19.1321 260.933 19.1321C260.254 19.1321 259.665 19.027 259.165 18.8168C258.668 18.6065 258.278 18.2997 257.997 17.8963C257.719 17.4929 257.568 17.0014 257.545 16.4219H259.101C259.124 16.7259 259.217 16.9787 259.382 17.1804C259.547 17.3821 259.761 17.5327 260.026 17.6321C260.293 17.7315 260.591 17.7812 260.92 17.7812C261.264 17.7812 261.565 17.7301 261.824 17.6278C262.085 17.5227 262.29 17.3778 262.438 17.1932C262.585 17.0057 262.661 16.7869 262.663 16.5369C262.661 16.3097 262.594 16.1222 262.463 15.9744C262.332 15.8239 262.149 15.6989 261.913 15.5994C261.68 15.4972 261.408 15.4062 261.095 15.3267L260.102 15.071C259.384 14.8864 258.815 14.6065 258.398 14.2315C257.983 13.8537 257.776 13.3523 257.776 12.7273C257.776 12.2131 257.915 11.7628 258.193 11.3764C258.474 10.9901 258.857 10.6903 259.339 10.4773C259.822 10.2614 260.369 10.1534 260.98 10.1534C261.599 10.1534 262.142 10.2614 262.608 10.4773C263.077 10.6903 263.445 10.9872 263.712 11.3679C263.979 11.7457 264.116 12.1804 264.125 12.6719H262.604ZM268.075 19.1278C267.419 19.1278 266.852 18.9915 266.375 18.7188C265.901 18.4432 265.536 18.054 265.28 17.5511C265.024 17.0455 264.896 16.4503 264.896 15.7656C264.896 15.0923 265.024 14.5014 265.28 13.9929C265.538 13.4815 265.899 13.0838 266.362 12.7997C266.825 12.5128 267.369 12.3693 267.994 12.3693C268.398 12.3693 268.778 12.4347 269.136 12.5653C269.497 12.6932 269.815 12.892 270.091 13.1619C270.369 13.4318 270.588 13.7756 270.747 14.1932C270.906 14.608 270.986 15.1023 270.986 15.6761V16.1491H265.621V15.1094H269.507C269.504 14.8139 269.44 14.5511 269.315 14.321C269.19 14.0881 269.016 13.9048 268.791 13.7713C268.57 13.6378 268.311 13.571 268.016 13.571C267.7 13.571 267.423 13.6477 267.185 13.8011C266.946 13.9517 266.76 14.1506 266.626 14.3977C266.496 14.642 266.429 14.9105 266.426 15.2031V16.1108C266.426 16.4915 266.496 16.8182 266.635 17.0909C266.774 17.3608 266.969 17.5682 267.219 17.7131C267.469 17.8551 267.761 17.9261 268.097 17.9261C268.321 17.9261 268.524 17.8949 268.706 17.8324C268.888 17.767 269.045 17.6719 269.179 17.5469C269.313 17.4219 269.413 17.267 269.482 17.0824L270.922 17.2443C270.831 17.625 270.658 17.9574 270.402 18.2415C270.149 18.5227 269.825 18.7415 269.43 18.8977C269.036 19.0511 268.584 19.1278 268.075 19.1278ZM274.738 19.1278C274.085 19.1278 273.523 18.9844 273.055 18.6974C272.589 18.4105 272.229 18.0142 271.977 17.5085C271.727 17 271.602 16.4148 271.602 15.7528C271.602 15.0881 271.729 14.5014 271.985 13.9929C272.241 13.4815 272.602 13.0838 273.068 12.7997C273.536 12.5128 274.09 12.3693 274.729 12.3693C275.261 12.3693 275.731 12.4673 276.14 12.6634C276.552 12.8565 276.88 13.1307 277.124 13.4858C277.369 13.8381 277.508 14.25 277.542 14.7216H276.068C276.008 14.4062 275.866 14.1435 275.641 13.9332C275.42 13.7202 275.123 13.6136 274.751 13.6136C274.435 13.6136 274.158 13.6989 273.92 13.8693C273.681 14.0369 273.495 14.2784 273.362 14.5938C273.231 14.9091 273.166 15.2869 273.166 15.7273C273.166 16.1733 273.231 16.5568 273.362 16.8778C273.492 17.196 273.675 17.4418 273.911 17.6151C274.15 17.7855 274.43 17.8707 274.751 17.8707C274.978 17.8707 275.181 17.8281 275.36 17.7429C275.542 17.6548 275.694 17.5284 275.816 17.3636C275.938 17.1989 276.022 16.9986 276.068 16.7628H277.542C277.505 17.2259 277.369 17.6364 277.133 17.9943C276.897 18.3494 276.576 18.6278 276.17 18.8295C275.764 19.0284 275.286 19.1278 274.738 19.1278ZM282.573 16.2472V12.4545H284.115V19H282.619V17.8366H282.551C282.403 18.2031 282.161 18.5028 281.823 18.7358C281.487 18.9687 281.074 19.0852 280.582 19.0852C280.153 19.0852 279.774 18.9901 279.445 18.7997C279.118 18.6065 278.862 18.3267 278.678 17.9602C278.493 17.5909 278.401 17.1449 278.401 16.6222V12.4545H279.943V16.3835C279.943 16.7983 280.057 17.1278 280.284 17.3722C280.511 17.6165 280.81 17.7386 281.179 17.7386C281.406 17.7386 281.626 17.6832 281.84 17.5724C282.053 17.4616 282.227 17.2969 282.364 17.0781C282.503 16.8565 282.573 16.5795 282.573 16.2472ZM285.293 19V12.4545H286.789V13.5455H286.857C286.977 13.1676 287.181 12.8764 287.471 12.6719C287.764 12.4645 288.097 12.3608 288.472 12.3608C288.558 12.3608 288.653 12.3651 288.758 12.3736C288.866 12.3793 288.955 12.3892 289.026 12.4034V13.8224C288.961 13.7997 288.857 13.7798 288.715 13.7628C288.576 13.7429 288.441 13.733 288.31 13.733C288.029 13.733 287.776 13.794 287.552 13.9162C287.33 14.0355 287.156 14.2017 287.028 14.4148C286.9 14.6278 286.836 14.8736 286.836 15.152V19H285.293ZM292.271 19.1278C291.615 19.1278 291.048 18.9915 290.571 18.7188C290.097 18.4432 289.732 18.054 289.476 17.5511C289.22 17.0455 289.092 16.4503 289.092 15.7656C289.092 15.0923 289.22 14.5014 289.476 13.9929C289.735 13.4815 290.095 13.0838 290.558 12.7997C291.021 12.5128 291.565 12.3693 292.19 12.3693C292.594 12.3693 292.975 12.4347 293.333 12.5653C293.693 12.6932 294.011 12.892 294.287 13.1619C294.565 13.4318 294.784 13.7756 294.943 14.1932C295.102 14.608 295.182 15.1023 295.182 15.6761V16.1491H289.817V15.1094H293.703C293.7 14.8139 293.636 14.5511 293.511 14.321C293.386 14.0881 293.212 13.9048 292.987 13.7713C292.766 13.6378 292.507 13.571 292.212 13.571C291.896 13.571 291.619 13.6477 291.381 13.8011C291.142 13.9517 290.956 14.1506 290.823 14.3977C290.692 14.642 290.625 14.9105 290.622 15.2031V16.1108C290.622 16.4915 290.692 16.8182 290.831 17.0909C290.97 17.3608 291.165 17.5682 291.415 17.7131C291.665 17.8551 291.958 17.9261 292.293 17.9261C292.517 17.9261 292.72 17.8949 292.902 17.8324C293.084 17.767 293.242 17.6719 293.375 17.5469C293.509 17.4219 293.61 17.267 293.678 17.0824L295.118 17.2443C295.027 17.625 294.854 17.9574 294.598 18.2415C294.345 18.5227 294.021 18.7415 293.627 18.8977C293.232 19.0511 292.78 19.1278 292.271 19.1278ZM301.503 19.1278C300.849 19.1278 300.288 18.9844 299.819 18.6974C299.354 18.4105 298.994 18.0142 298.741 17.5085C298.491 17 298.366 16.4148 298.366 15.7528C298.366 15.0881 298.494 14.5014 298.75 13.9929C299.006 13.4815 299.366 13.0838 299.832 12.7997C300.301 12.5128 300.855 12.3693 301.494 12.3693C302.025 12.3693 302.496 12.4673 302.905 12.6634C303.317 12.8565 303.645 13.1307 303.889 13.4858C304.133 13.8381 304.273 14.25 304.307 14.7216H302.832C302.773 14.4062 302.631 14.1435 302.406 13.9332C302.184 13.7202 301.888 13.6136 301.515 13.6136C301.2 13.6136 300.923 13.6989 300.684 13.8693C300.446 14.0369 300.26 14.2784 300.126 14.5938C299.996 14.9091 299.93 15.2869 299.93 15.7273C299.93 16.1733 299.996 16.5568 300.126 16.8778C300.257 17.196 300.44 17.4418 300.676 17.6151C300.915 17.7855 301.194 17.8707 301.515 17.8707C301.743 17.8707 301.946 17.8281 302.125 17.7429C302.307 17.6548 302.459 17.5284 302.581 17.3636C302.703 17.1989 302.787 16.9986 302.832 16.7628H304.307C304.27 17.2259 304.133 17.6364 303.898 17.9943C303.662 18.3494 303.341 18.6278 302.934 18.8295C302.528 19.0284 302.051 19.1278 301.503 19.1278ZM308.02 19.1278C307.381 19.1278 306.827 18.9872 306.359 18.706C305.89 18.4247 305.526 18.0312 305.268 17.5256C305.012 17.0199 304.884 16.429 304.884 15.7528C304.884 15.0767 305.012 14.4844 305.268 13.9759C305.526 13.4673 305.89 13.0724 306.359 12.7912C306.827 12.5099 307.381 12.3693 308.02 12.3693C308.66 12.3693 309.214 12.5099 309.682 12.7912C310.151 13.0724 310.513 13.4673 310.769 13.9759C311.028 14.4844 311.157 15.0767 311.157 15.7528C311.157 16.429 311.028 17.0199 310.769 17.5256C310.513 18.0312 310.151 18.4247 309.682 18.706C309.214 18.9872 308.66 19.1278 308.02 19.1278ZM308.029 17.892C308.376 17.892 308.665 17.7969 308.898 17.6065C309.131 17.4134 309.305 17.1548 309.418 16.831C309.535 16.5071 309.593 16.1463 309.593 15.7486C309.593 15.348 309.535 14.9858 309.418 14.6619C309.305 14.3352 309.131 14.0753 308.898 13.8821C308.665 13.6889 308.376 13.5923 308.029 13.5923C307.674 13.5923 307.378 13.6889 307.143 13.8821C306.91 14.0753 306.735 14.3352 306.618 14.6619C306.505 14.9858 306.448 15.348 306.448 15.7486C306.448 16.1463 306.505 16.5071 306.618 16.831C306.735 17.1548 306.91 17.4134 307.143 17.6065C307.378 17.7969 307.674 17.892 308.029 17.892ZM314.487 19.1151C313.973 19.1151 313.513 18.983 313.106 18.7188C312.7 18.4545 312.379 18.071 312.143 17.5682C311.908 17.0653 311.79 16.4545 311.79 15.7358C311.79 15.0085 311.909 14.3949 312.148 13.8949C312.389 13.392 312.714 13.0128 313.123 12.7571C313.533 12.4986 313.989 12.3693 314.491 12.3693C314.875 12.3693 315.19 12.4347 315.437 12.5653C315.685 12.6932 315.881 12.848 316.025 13.0298C316.17 13.2088 316.283 13.3778 316.362 13.5369H316.426V10.2727H317.973V19H316.456V17.9688H316.362C316.283 18.1278 316.167 18.2969 316.017 18.4759C315.866 18.652 315.667 18.8026 315.42 18.9276C315.173 19.0526 314.862 19.1151 314.487 19.1151ZM314.917 17.8494C315.244 17.8494 315.523 17.7614 315.753 17.5852C315.983 17.4062 316.158 17.1577 316.277 16.8395C316.396 16.5213 316.456 16.1506 316.456 15.7273C316.456 15.304 316.396 14.9361 316.277 14.6236C316.16 14.3111 315.987 14.0682 315.757 13.8949C315.53 13.7216 315.25 13.6349 314.917 13.6349C314.574 13.6349 314.287 13.7244 314.057 13.9034C313.827 14.0824 313.653 14.3295 313.537 14.6449C313.42 14.9602 313.362 15.321 313.362 15.7273C313.362 16.1364 313.42 16.5014 313.537 16.8224C313.656 17.1406 313.831 17.392 314.061 17.5767C314.294 17.7585 314.579 17.8494 314.917 17.8494ZM322.106 19.1278C321.45 19.1278 320.883 18.9915 320.406 18.7188C319.932 18.4432 319.567 18.054 319.311 17.5511C319.055 17.0455 318.927 16.4503 318.927 15.7656C318.927 15.0923 319.055 14.5014 319.311 13.9929C319.57 13.4815 319.93 13.0838 320.393 12.7997C320.856 12.5128 321.4 12.3693 322.025 12.3693C322.429 12.3693 322.81 12.4347 323.168 12.5653C323.528 12.6932 323.846 12.892 324.122 13.1619C324.4 13.4318 324.619 13.7756 324.778 14.1932C324.937 14.608 325.017 15.1023 325.017 15.6761V16.1491H319.652V15.1094H323.538C323.535 14.8139 323.471 14.5511 323.346 14.321C323.221 14.0881 323.047 13.9048 322.822 13.7713C322.601 13.6378 322.342 13.571 322.047 13.571C321.731 13.571 321.454 13.6477 321.216 13.8011C320.977 13.9517 320.791 14.1506 320.658 14.3977C320.527 14.642 320.46 14.9105 320.457 15.2031V16.1108C320.457 16.4915 320.527 16.8182 320.666 17.0909C320.805 17.3608 321 17.5682 321.25 17.7131C321.5 17.8551 321.793 17.9261 322.128 17.9261C322.352 17.9261 322.555 17.8949 322.737 17.8324C322.919 17.767 323.077 17.6719 323.21 17.5469C323.344 17.4219 323.445 17.267 323.513 17.0824L324.953 17.2443C324.862 17.625 324.689 17.9574 324.433 18.2415C324.18 18.5227 323.856 18.7415 323.462 18.8977C323.067 19.0511 322.615 19.1278 322.106 19.1278Z" fill="black"/>
<path d="M243.025 38V36.4489L246.649 33.093C246.957 32.7947 247.216 32.5263 247.425 32.2876C247.637 32.049 247.797 31.8153 247.907 31.5866C248.016 31.3546 248.071 31.1044 248.071 30.8359C248.071 30.5376 248.003 30.2808 247.867 30.0653C247.731 29.8466 247.546 29.6792 247.31 29.5632C247.075 29.4439 246.808 29.3842 246.51 29.3842C246.198 29.3842 245.926 29.4472 245.694 29.5732C245.462 29.6991 245.283 29.8797 245.157 30.1151C245.032 30.3504 244.969 30.6304 244.969 30.9553H242.925C242.925 30.2891 243.076 29.7107 243.378 29.2202C243.679 28.7296 244.102 28.3501 244.645 28.0817C245.189 27.8132 245.815 27.679 246.525 27.679C247.254 27.679 247.889 27.8082 248.429 28.0668C248.972 28.322 249.395 28.6766 249.697 29.1307C249.998 29.5848 250.149 30.1051 250.149 30.6918C250.149 31.0762 250.073 31.4557 249.92 31.8303C249.771 32.2048 249.504 32.6207 249.12 33.0781C248.735 33.5322 248.193 34.0774 247.494 34.7138L246.008 36.1705V36.2401H250.283V38H243.025ZM255.154 38.1392C254.451 38.1392 253.825 38.0099 253.275 37.7514C252.728 37.4929 252.293 37.1366 251.972 36.6825C251.65 36.2285 251.483 35.7081 251.47 35.1214H253.558C253.581 35.5159 253.747 35.8357 254.055 36.081C254.363 36.3262 254.73 36.4489 255.154 36.4489C255.492 36.4489 255.79 36.3743 256.049 36.2251C256.31 36.0727 256.514 35.8622 256.66 35.5938C256.809 35.322 256.884 35.0104 256.884 34.6591C256.884 34.3011 256.808 33.9863 256.655 33.7145C256.506 33.4427 256.299 33.2306 256.034 33.0781C255.769 32.9257 255.465 32.8478 255.124 32.8445C254.826 32.8445 254.536 32.9058 254.254 33.0284C253.976 33.151 253.758 33.3184 253.603 33.5305L251.689 33.1875L252.171 27.8182H258.395V29.5781H253.946L253.682 32.1286H253.742C253.921 31.8767 254.191 31.6679 254.552 31.5021C254.913 31.3364 255.318 31.2536 255.765 31.2536C256.378 31.2536 256.925 31.3977 257.406 31.6861C257.886 31.9744 258.266 32.3705 258.544 32.8743C258.823 33.3748 258.96 33.9515 258.957 34.6044C258.96 35.2905 258.801 35.9003 258.48 36.4339C258.162 36.9643 257.716 37.3819 257.142 37.6868C256.572 37.9884 255.909 38.1392 255.154 38.1392ZM259.896 36.2102V34.5149L264.147 27.8182H265.609V30.1648H264.744L262.064 34.4055V34.4851H268.104V36.2102H259.896ZM264.783 38V35.6932L264.823 34.9425V27.8182H266.842V38H264.783ZM272.849 38.1392C272.147 38.1392 271.52 38.0099 270.97 37.7514C270.423 37.4929 269.989 37.1366 269.668 36.6825C269.346 36.2285 269.179 35.7081 269.166 35.1214H271.254C271.277 35.5159 271.443 35.8357 271.751 36.081C272.059 36.3262 272.425 36.4489 272.849 36.4489C273.188 36.4489 273.486 36.3743 273.744 36.2251C274.006 36.0727 274.21 35.8622 274.356 35.5938C274.505 35.322 274.58 35.0104 274.58 34.6591C274.58 34.3011 274.503 33.9863 274.351 33.7145C274.202 33.4427 273.995 33.2306 273.729 33.0781C273.464 32.9257 273.161 32.8478 272.82 32.8445C272.521 32.8445 272.231 32.9058 271.95 33.0284C271.671 33.151 271.454 33.3184 271.298 33.5305L269.384 33.1875L269.867 27.8182H276.091V29.5781H271.641L271.378 32.1286H271.438C271.617 31.8767 271.887 31.6679 272.248 31.5021C272.609 31.3364 273.014 31.2536 273.461 31.2536C274.074 31.2536 274.621 31.3977 275.102 31.6861C275.582 31.9744 275.962 32.3705 276.24 32.8743C276.519 33.3748 276.656 33.9515 276.653 34.6044C276.656 35.2905 276.497 35.9003 276.175 36.4339C275.857 36.9643 275.412 37.3819 274.838 37.6868C274.268 37.9884 273.605 38.1392 272.849 38.1392ZM277.592 36.2102V34.5149L281.843 27.8182H283.304V30.1648H282.439L279.76 34.4055V34.4851H285.8V36.2102H277.592ZM282.479 38V35.6932L282.519 34.9425V27.8182H284.537V38H282.479ZM290.545 38.1392C289.843 38.1392 289.216 38.0099 288.666 37.7514C288.119 37.4929 287.685 37.1366 287.363 36.6825C287.042 36.2285 286.875 35.7081 286.861 35.1214H288.949C288.973 35.5159 289.138 35.8357 289.446 36.081C289.755 36.3262 290.121 36.4489 290.545 36.4489C290.883 36.4489 291.182 36.3743 291.44 36.2251C291.702 36.0727 291.906 35.8622 292.052 35.5938C292.201 35.322 292.275 35.0104 292.275 34.6591C292.275 34.3011 292.199 33.9863 292.047 33.7145C291.897 33.4427 291.69 33.2306 291.425 33.0781C291.16 32.9257 290.857 32.8478 290.515 32.8445C290.217 32.8445 289.927 32.9058 289.645 33.0284C289.367 33.151 289.15 33.3184 288.994 33.5305L287.08 33.1875L287.562 27.8182H293.787V29.5781H289.337L289.074 32.1286H289.133C289.312 31.8767 289.582 31.6679 289.944 31.5021C290.305 31.3364 290.709 31.2536 291.157 31.2536C291.77 31.2536 292.317 31.3977 292.797 31.6861C293.278 31.9744 293.657 32.3705 293.936 32.8743C294.214 33.3748 294.352 33.9515 294.348 34.6044C294.352 35.2905 294.193 35.9003 293.871 36.4339C293.553 36.9643 293.107 37.3819 292.534 37.6868C291.964 37.9884 291.301 38.1392 290.545 38.1392ZM295.288 36.2102V34.5149L299.538 27.8182H301V30.1648H300.135L297.455 34.4055V34.4851H303.496V36.2102H295.288ZM300.175 38V35.6932L300.215 34.9425V27.8182H302.233V38H300.175ZM308.241 38.1392C307.538 38.1392 306.912 38.0099 306.362 37.7514C305.815 37.4929 305.381 37.1366 305.059 36.6825C304.738 36.2285 304.57 35.7081 304.557 35.1214H306.645C306.668 35.5159 306.834 35.8357 307.142 36.081C307.45 36.3262 307.817 36.4489 308.241 36.4489C308.579 36.4489 308.877 36.3743 309.136 36.2251C309.398 36.0727 309.601 35.8622 309.747 35.5938C309.896 35.322 309.971 35.0104 309.971 34.6591C309.971 34.3011 309.895 33.9863 309.742 33.7145C309.593 33.4427 309.386 33.2306 309.121 33.0781C308.856 32.9257 308.552 32.8478 308.211 32.8445C307.913 32.8445 307.623 32.9058 307.341 33.0284C307.063 33.151 306.846 33.3184 306.69 33.5305L304.776 33.1875L305.258 27.8182H311.482V29.5781H307.033L306.769 32.1286H306.829C307.008 31.8767 307.278 31.6679 307.639 31.5021C308.001 31.3364 308.405 31.2536 308.852 31.2536C309.466 31.2536 310.012 31.3977 310.493 31.6861C310.974 31.9744 311.353 32.3705 311.632 32.8743C311.91 33.3748 312.048 33.9515 312.044 34.6044C312.048 35.2905 311.888 35.9003 311.567 36.4339C311.249 36.9643 310.803 37.3819 310.23 37.6868C309.659 37.9884 308.997 38.1392 308.241 38.1392ZM312.983 36.2102V34.5149L317.234 27.8182H318.696V30.1648H317.831L315.151 34.4055V34.4851H321.192V36.2102H312.983ZM317.871 38V35.6932L317.91 34.9425V27.8182H319.929V38H317.871Z" fill="black"/>
<defs>
<clipPath id="clip0_1586_721">
<rect width="16" height="12" fill="white" transform="translate(234 8.5)"/>
</clipPath>
</defs>
</svg>
