<svg width="83" height="120" viewBox="0 0 83 120" fill="none" xmlns="http://www.w3.org/2000/svg">
<path d="M20.2566 93.598V92.2727H27.2196V93.598H24.5222V101H22.954V93.598H20.2566ZM27.8141 101V94.4545H29.3098V95.5455H29.378C29.4973 95.1676 29.7019 94.8764 29.9917 94.6719C30.2843 94.4645 30.6181 94.3608 30.9931 94.3608C31.0783 94.3608 31.1735 94.3651 31.2786 94.3736C31.3865 94.3793 31.476 94.3892 31.5471 94.4034V95.8224C31.4817 95.7997 31.378 95.7798 31.236 95.7628C31.0968 95.7429 30.9618 95.733 30.8311 95.733C30.5499 95.733 30.2971 95.794 30.0726 95.9162C29.851 96.0355 29.6763 96.2017 29.5485 96.4148C29.4206 96.6278 29.3567 96.8736 29.3567 97.152V101H27.8141ZM34.3382 101.132C33.9235 101.132 33.5499 101.058 33.2175 100.911C32.888 100.76 32.6266 100.538 32.4334 100.246C32.2431 99.9531 32.1479 99.5923 32.1479 99.1634C32.1479 98.794 32.2161 98.4886 32.3525 98.2472C32.4888 98.0057 32.6749 97.8125 32.9107 97.6676C33.1465 97.5227 33.4121 97.4134 33.7076 97.3395C34.0059 97.2628 34.3141 97.2074 34.6323 97.1733C35.0158 97.1335 35.3269 97.098 35.5655 97.0668C35.8042 97.0327 35.9775 96.9815 36.0854 96.9134C36.1962 96.8423 36.2516 96.733 36.2516 96.5852V96.5597C36.2516 96.2386 36.1564 95.9901 35.9661 95.8139C35.7757 95.6378 35.5016 95.5497 35.1436 95.5497C34.7658 95.5497 34.4661 95.6321 34.2445 95.7969C34.0257 95.9616 33.878 96.1562 33.8013 96.3807L32.361 96.1761C32.4746 95.7784 32.6621 95.446 32.9235 95.179C33.1848 94.9091 33.5044 94.7074 33.8823 94.5739C34.2601 94.4375 34.6777 94.3693 35.1351 94.3693C35.4505 94.3693 35.7644 94.4062 36.0769 94.4801C36.3894 94.554 36.6749 94.6761 36.9334 94.8466C37.1919 95.0142 37.3993 95.2429 37.5556 95.5327C37.7147 95.8224 37.7942 96.1847 37.7942 96.6193V101H36.3113V100.101H36.2601C36.1664 100.283 36.0343 100.453 35.8638 100.612C35.6962 100.768 35.4846 100.895 35.2289 100.991C34.976 101.085 34.6792 101.132 34.3382 101.132ZM34.7388 99.9986C35.0485 99.9986 35.3169 99.9375 35.5442 99.8153C35.7715 99.6903 35.9462 99.5256 36.0684 99.321C36.1934 99.1165 36.2559 98.8935 36.2559 98.652V97.8807C36.2076 97.9205 36.1252 97.9574 36.0087 97.9915C35.8951 98.0256 35.7672 98.0554 35.6252 98.081C35.4831 98.1065 35.3425 98.1293 35.2033 98.1491C35.0641 98.169 34.9434 98.1861 34.8411 98.2003C34.611 98.2315 34.405 98.2827 34.2232 98.3537C34.0414 98.4247 33.8979 98.5241 33.7928 98.652C33.6877 98.777 33.6351 98.9389 33.6351 99.1378C33.6351 99.4219 33.7388 99.6364 33.9462 99.7812C34.1536 99.9261 34.4178 99.9986 34.7388 99.9986ZM39.3453 101V94.4545H40.888V101H39.3453ZM40.1209 93.5256C39.8766 93.5256 39.6664 93.4446 39.4902 93.2827C39.3141 93.1179 39.226 92.9205 39.226 92.6903C39.226 92.4574 39.3141 92.2599 39.4902 92.098C39.6664 91.9332 39.8766 91.8509 40.1209 91.8509C40.3681 91.8509 40.5783 91.9332 40.7516 92.098C40.9277 92.2599 41.0158 92.4574 41.0158 92.6903C41.0158 92.9205 40.9277 93.1179 40.7516 93.2827C40.5783 93.4446 40.3681 93.5256 40.1209 93.5256ZM44.0169 97.1648V101H42.4743V94.4545H43.9487V95.5668H44.0254C44.176 95.2003 44.416 94.9091 44.7456 94.6932C45.0779 94.4773 45.4885 94.3693 45.9771 94.3693C46.4288 94.3693 46.8223 94.4659 47.1575 94.6591C47.4956 94.8523 47.7569 95.1321 47.9416 95.4986C48.1291 95.8651 48.2214 96.3097 48.2186 96.8324V101H46.676V97.071C46.676 96.6335 46.5623 96.2912 46.335 96.044C46.1106 95.7969 45.7995 95.6733 45.4018 95.6733C45.1319 95.6733 44.8919 95.733 44.6816 95.8523C44.4743 95.9687 44.3109 96.1378 44.1916 96.3594C44.0751 96.581 44.0169 96.8494 44.0169 97.1648ZM52.6845 101.128C52.0282 101.128 51.4615 100.991 50.9842 100.719C50.5098 100.443 50.1447 100.054 49.889 99.5511C49.6333 99.0455 49.5055 98.4503 49.5055 97.7656C49.5055 97.0923 49.6333 96.5014 49.889 95.9929C50.1475 95.4815 50.5083 95.0838 50.9714 94.7997C51.4345 94.5128 51.9785 94.3693 52.6035 94.3693C53.0069 94.3693 53.3876 94.4347 53.7456 94.5653C54.1064 94.6932 54.4245 94.892 54.7001 95.1619C54.9785 95.4318 55.1973 95.7756 55.3564 96.1932C55.5154 96.608 55.595 97.1023 55.595 97.6761V98.1491H50.2299V97.1094H54.1163C54.1135 96.8139 54.0495 96.5511 53.9245 96.321C53.7995 96.0881 53.6248 95.9048 53.4004 95.7713C53.1788 95.6378 52.9203 95.571 52.6248 95.571C52.3095 95.571 52.0325 95.6477 51.7939 95.8011C51.5552 95.9517 51.3691 96.1506 51.2356 96.3977C51.1049 96.642 51.0382 96.9105 51.0353 97.2031V98.1108C51.0353 98.4915 51.1049 98.8182 51.2441 99.0909C51.3833 99.3608 51.5779 99.5682 51.8279 99.7131C52.0779 99.8551 52.3706 99.9261 52.7058 99.9261C52.9302 99.9261 53.1333 99.8949 53.3152 99.8324C53.497 99.767 53.6547 99.6719 53.7882 99.5469C53.9217 99.4219 54.0225 99.267 54.0907 99.0824L55.5311 99.2443C55.4402 99.625 55.2669 99.9574 55.0112 100.241C54.7583 100.523 54.4345 100.741 54.0396 100.898C53.6447 101.051 53.193 101.128 52.6845 101.128ZM59.7978 101.128C59.1415 101.128 58.5748 100.991 58.0975 100.719C57.623 100.443 57.258 100.054 57.0023 99.5511C56.7466 99.0455 56.6188 98.4503 56.6188 97.7656C56.6188 97.0923 56.7466 96.5014 57.0023 95.9929C57.2608 95.4815 57.6216 95.0838 58.0847 94.7997C58.5478 94.5128 59.0918 94.3693 59.7168 94.3693C60.1202 94.3693 60.5009 94.4347 60.8588 94.5653C61.2196 94.6932 61.5378 94.892 61.8134 95.1619C62.0918 95.4318 62.3105 95.7756 62.4696 96.1932C62.6287 96.608 62.7083 97.1023 62.7083 97.6761V98.1491H57.3432V97.1094H61.2296C61.2267 96.8139 61.1628 96.5511 61.0378 96.321C60.9128 96.0881 60.7381 95.9048 60.5137 95.7713C60.2921 95.6378 60.0336 95.571 59.7381 95.571C59.4228 95.571 59.1458 95.6477 58.9071 95.8011C58.6685 95.9517 58.4824 96.1506 58.3489 96.3977C58.2182 96.642 58.1515 96.9105 58.1486 97.2031V98.1108C58.1486 98.4915 58.2182 98.8182 58.3574 99.0909C58.4966 99.3608 58.6912 99.5682 58.9412 99.7131C59.1912 99.8551 59.4838 99.9261 59.8191 99.9261C60.0435 99.9261 60.2466 99.8949 60.4284 99.8324C60.6103 99.767 60.7679 99.6719 60.9015 99.5469C61.035 99.4219 61.1358 99.267 61.204 99.0824L62.6444 99.2443C62.5534 99.625 62.3801 99.9574 62.1245 100.241C61.8716 100.523 61.5478 100.741 61.1529 100.898C60.758 101.051 60.3063 101.128 59.7978 101.128ZM21.7843 107.273L24.0556 114.142H24.1451L26.4121 107.273H28.1507L25.074 116H23.1223L20.0499 107.273H21.7843ZM29.2321 116V109.455H30.7747V116H29.2321ZM30.0076 108.526C29.7633 108.526 29.5531 108.445 29.377 108.283C29.2008 108.118 29.1127 107.92 29.1127 107.69C29.1127 107.457 29.2008 107.26 29.377 107.098C29.5531 106.933 29.7633 106.851 30.0076 106.851C30.2548 106.851 30.465 106.933 30.6383 107.098C30.8145 107.26 30.9025 107.457 30.9025 107.69C30.9025 107.92 30.8145 108.118 30.6383 108.283C30.465 108.445 30.2548 108.526 30.0076 108.526ZM34.79 116.115C34.2757 116.115 33.8155 115.983 33.4093 115.719C33.003 115.455 32.682 115.071 32.4462 114.568C32.2104 114.065 32.0925 113.455 32.0925 112.736C32.0925 112.009 32.2118 111.395 32.4505 110.895C32.6919 110.392 33.0172 110.013 33.4263 109.757C33.8354 109.499 34.2914 109.369 34.7942 109.369C35.1777 109.369 35.4931 109.435 35.7402 109.565C35.9874 109.693 36.1834 109.848 36.3283 110.03C36.4732 110.209 36.5854 110.378 36.665 110.537H36.7289V107.273H38.2757V116H36.7587V114.969H36.665C36.5854 115.128 36.4703 115.297 36.3198 115.476C36.1692 115.652 35.9703 115.803 35.7232 115.928C35.476 116.053 35.165 116.115 34.79 116.115ZM35.2203 114.849C35.5471 114.849 35.8255 114.761 36.0556 114.585C36.2857 114.406 36.4604 114.158 36.5797 113.839C36.699 113.521 36.7587 113.151 36.7587 112.727C36.7587 112.304 36.699 111.936 36.5797 111.624C36.4632 111.311 36.29 111.068 36.0598 110.895C35.8326 110.722 35.5527 110.635 35.2203 110.635C34.8766 110.635 34.5897 110.724 34.3596 110.903C34.1294 111.082 33.9561 111.33 33.8397 111.645C33.7232 111.96 33.665 112.321 33.665 112.727C33.665 113.136 33.7232 113.501 33.8397 113.822C33.959 114.141 34.1337 114.392 34.3638 114.577C34.5968 114.759 34.8823 114.849 35.2203 114.849ZM42.8173 116.128C42.161 116.128 41.5943 115.991 41.117 115.719C40.6426 115.443 40.2775 115.054 40.0218 114.551C39.7662 114.045 39.6383 113.45 39.6383 112.766C39.6383 112.092 39.7662 111.501 40.0218 110.993C40.2804 110.482 40.6412 110.084 41.1042 109.8C41.5673 109.513 42.1113 109.369 42.7363 109.369C43.1397 109.369 43.5204 109.435 43.8784 109.565C44.2392 109.693 44.5574 109.892 44.8329 110.162C45.1113 110.432 45.3301 110.776 45.4892 111.193C45.6483 111.608 45.7278 112.102 45.7278 112.676V113.149H40.3627V112.109H44.2491C44.2463 111.814 44.1824 111.551 44.0574 111.321C43.9324 111.088 43.7576 110.905 43.5332 110.771C43.3116 110.638 43.0531 110.571 42.7576 110.571C42.4423 110.571 42.1653 110.648 41.9267 110.801C41.688 110.952 41.502 111.151 41.3684 111.398C41.2377 111.642 41.171 111.911 41.1681 112.203V113.111C41.1681 113.491 41.2377 113.818 41.377 114.091C41.5162 114.361 41.7108 114.568 41.9608 114.713C42.2108 114.855 42.5034 114.926 42.8386 114.926C43.063 114.926 43.2662 114.895 43.448 114.832C43.6298 114.767 43.7875 114.672 43.921 114.547C44.0545 114.422 44.1554 114.267 44.2235 114.082L45.6639 114.244C45.573 114.625 45.3997 114.957 45.144 115.241C44.8912 115.523 44.5673 115.741 44.1724 115.898C43.7775 116.051 43.3258 116.128 42.8173 116.128ZM49.888 116.128C49.2488 116.128 48.6948 115.987 48.226 115.706C47.7573 115.425 47.3936 115.031 47.1351 114.526C46.8794 114.02 46.7516 113.429 46.7516 112.753C46.7516 112.077 46.8794 111.484 47.1351 110.976C47.3936 110.467 47.7573 110.072 48.226 109.791C48.6948 109.51 49.2488 109.369 49.888 109.369C50.5272 109.369 51.0811 109.51 51.5499 109.791C52.0186 110.072 52.3809 110.467 52.6365 110.976C52.8951 111.484 53.0243 112.077 53.0243 112.753C53.0243 113.429 52.8951 114.02 52.6365 114.526C52.3809 115.031 52.0186 115.425 51.5499 115.706C51.0811 115.987 50.5272 116.128 49.888 116.128ZM49.8965 114.892C50.2431 114.892 50.5328 114.797 50.7658 114.607C50.9988 114.413 51.1721 114.155 51.2857 113.831C51.4022 113.507 51.4604 113.146 51.4604 112.749C51.4604 112.348 51.4022 111.986 51.2857 111.662C51.1721 111.335 50.9988 111.075 50.7658 110.882C50.5328 110.689 50.2431 110.592 49.8965 110.592C49.5414 110.592 49.2459 110.689 49.0101 110.882C48.7772 111.075 48.6025 111.335 48.486 111.662C48.3723 111.986 48.3155 112.348 48.3155 112.749C48.3155 113.146 48.3723 113.507 48.486 113.831C48.6025 114.155 48.7772 114.413 49.0101 114.607C49.2459 114.797 49.5414 114.892 49.8965 114.892ZM59.5069 111.185L58.1007 111.338C58.0609 111.196 57.9913 111.062 57.8919 110.938C57.7953 110.812 57.6646 110.712 57.4998 110.635C57.335 110.558 57.1333 110.52 56.8947 110.52C56.5737 110.52 56.3038 110.589 56.085 110.729C55.8691 110.868 55.7626 111.048 55.7654 111.27C55.7626 111.46 55.8322 111.615 55.9743 111.734C56.1191 111.854 56.3578 111.952 56.6902 112.028L57.8066 112.267C58.426 112.401 58.8862 112.612 59.1873 112.902C59.4913 113.192 59.6447 113.571 59.6476 114.04C59.6447 114.452 59.524 114.815 59.2853 115.131C59.0495 115.443 58.7214 115.687 58.301 115.864C57.8805 116.04 57.3975 116.128 56.8521 116.128C56.051 116.128 55.4061 115.96 54.9174 115.625C54.4288 115.287 54.1376 114.817 54.0439 114.214L55.5481 114.07C55.6163 114.365 55.7612 114.588 55.9828 114.739C56.2044 114.889 56.4927 114.964 56.8478 114.964C57.2143 114.964 57.5083 114.889 57.7299 114.739C57.9544 114.588 58.0666 114.402 58.0666 114.18C58.0666 113.993 57.9941 113.838 57.8493 113.716C57.7072 113.594 57.4856 113.5 57.1845 113.435L56.068 113.2C55.4402 113.07 54.9757 112.849 54.6745 112.54C54.3734 112.227 54.2243 111.832 54.2271 111.355C54.2243 110.952 54.3336 110.602 54.5552 110.307C54.7797 110.009 55.0907 109.778 55.4885 109.616C55.889 109.452 56.3507 109.369 56.8734 109.369C57.6404 109.369 58.2441 109.533 58.6845 109.859C59.1277 110.186 59.4018 110.628 59.5069 111.185Z" fill="#000D2B"/>
<rect x="5.49414" width="73.1294" height="73.1294" rx="10" fill="#000D2B"/>
<g clip-path="url(#clip0_2114_550)">
<path d="M39.9652 42.5428H46.7668V34.5722H52.6757C52.546 32.091 51.647 29.7118 50.1034 27.765C48.5597 25.8181 46.4482 24.4003 44.0619 23.7083C41.6757 23.0164 39.1332 23.0847 36.7876 23.9038C34.4419 24.7228 32.4095 26.252 30.9727 28.2789C29.5358 30.3058 28.7658 32.7299 28.7695 35.2144C28.7733 37.6989 29.5506 40.1206 30.9936 42.1432C32.4366 44.1658 34.4736 45.6888 36.8217 46.5008C39.1698 47.3127 41.7125 47.3734 44.0967 46.6742L39.9652 42.5428ZM37.4306 35.2018C37.4306 34.545 37.6253 33.9029 37.9903 33.3567C38.3552 32.8106 38.8739 32.3849 39.4807 32.1336C40.0876 31.8822 40.7553 31.8164 41.3996 31.9446C42.0438 32.0727 42.6356 32.389 43.1 32.8535C43.5645 33.3179 43.8808 33.9097 44.0089 34.5539C44.1371 35.1982 44.0713 35.8659 43.8199 36.4728C43.5686 37.0796 43.1429 37.5983 42.5967 37.9632C42.0506 38.3282 41.4085 38.5229 40.7517 38.5229C39.8708 38.5229 39.0261 38.173 38.4033 37.5502C37.7805 36.9274 37.4306 36.0827 37.4306 35.2018Z" fill="white"/>
<path d="M55.403 44.5353H51.4177V36.5647H48.7608V44.5353H44.7755L50.0892 49.849L55.403 44.5353Z" fill="white"/>
</g>
<defs>
<clipPath id="clip0_2114_550">
<rect width="31.8824" height="31.8824" fill="white" transform="translate(26.1177 20.6235)"/>
</clipPath>
</defs>
</svg>
