<svg width="63" height="63" viewBox="0 0 63 63" fill="none" xmlns="http://www.w3.org/2000/svg">
<g filter="url(#filter0_d_1586_1916)">
<rect x="4" width="55" height="55" rx="27.5" fill="white" shape-rendering="crispEdges"/>
<path d="M30.2213 20.5574C30.2238 21.2989 30.0744 22.033 29.7821 22.7145C29.3628 23.7419 28.648 24.6217 27.7282 25.2426C26.8084 25.8634 25.7251 26.1973 24.6154 26.202C23.4991 26.202 22.4078 25.8709 21.4795 25.2507C20.5513 24.6304 19.8279 23.7489 19.4007 22.7175C18.9734 21.6861 18.8617 20.5512 19.0794 19.4562C19.2972 18.3613 19.8348 17.3556 20.6242 16.5662C21.1486 16.0401 21.7716 15.6227 22.4576 15.3379C23.1436 15.0531 23.8791 14.9065 24.6219 14.9065C25.3647 14.9065 26.1001 15.0531 26.7862 15.3379C27.4722 15.6227 28.0952 16.0401 28.6196 16.5662C29.6664 17.6325 30.2591 19.0632 30.2729 20.5574H30.2213ZM44.1067 20.5574C44.1098 21.2977 43.9648 22.031 43.6804 22.7145C43.3702 23.4023 42.9319 24.0248 42.3888 24.5487C41.328 25.608 39.8902 26.2029 38.3911 26.2029C36.8919 26.2029 35.4541 25.608 34.3933 24.5487C33.3348 23.4901 32.7402 22.0544 32.7402 20.5574C32.7402 19.0604 33.3348 17.6247 34.3933 16.5662C34.9156 16.0385 35.5372 15.6196 36.2222 15.3336C36.9073 15.0476 37.6422 14.9002 38.3846 14.8999C39.8871 14.9042 41.3268 15.5033 42.3888 16.5662C42.9257 17.0841 43.3542 17.7037 43.6492 18.389C43.9441 19.0743 44.0996 19.8114 44.1067 20.5574ZM30.2213 34.4428C30.2175 35.1905 30.0591 35.9293 29.7563 36.6128C29.481 37.3007 29.0678 37.9249 28.5421 38.447C28.0173 38.9738 27.3931 39.3913 26.7058 39.6751C26.0184 39.9589 25.2816 40.1034 24.5379 40.1003C23.4216 40.1003 22.3303 39.7692 21.402 39.149C20.4738 38.5288 19.7504 37.6472 19.3232 36.6158C18.8959 35.5844 18.7842 34.4495 19.0019 33.3546C19.2197 32.2597 19.7573 31.2539 20.5467 30.4645C21.0711 29.9384 21.6941 29.521 22.3801 29.2362C23.0661 28.9514 23.8016 28.8048 24.5444 28.8048C25.2872 28.8048 26.0226 28.9514 26.7087 29.2362C27.3947 29.521 28.0177 29.9384 28.5421 30.4645C29.5889 31.5308 30.1816 32.9615 30.1954 34.4557L30.2213 34.4428ZM44.1067 34.4428C44.1041 35.5581 43.7712 36.6476 43.15 37.5739C42.5288 38.5002 41.6471 39.2217 40.6162 39.6473C39.5853 40.0729 38.4515 40.1836 37.3577 39.9654C36.264 39.7472 35.2594 39.2098 34.4708 38.4212C33.6822 37.6326 33.1448 36.628 32.9266 35.5343C32.7084 34.4405 32.8191 33.3067 33.2447 32.2758C33.6704 31.2449 34.3918 30.3632 35.3181 29.742C36.2444 29.1208 37.3339 28.7879 38.4492 28.7853C39.9511 28.7924 41.3898 29.3911 42.4533 30.4516C42.9786 30.9749 43.3952 31.5969 43.6789 32.2819C43.9627 32.967 44.1081 33.7014 44.1067 34.4428Z" fill="#000D2B"/>
</g>
<defs>
<filter id="filter0_d_1586_1916" x="0" y="0" width="63" height="63" filterUnits="userSpaceOnUse" color-interpolation-filters="sRGB">
<feFlood flood-opacity="0" result="BackgroundImageFix"/>
<feColorMatrix in="SourceAlpha" type="matrix" values="0 0 0 0 0 0 0 0 0 0 0 0 0 0 0 0 0 0 127 0" result="hardAlpha"/>
<feOffset dy="4"/>
<feGaussianBlur stdDeviation="2"/>
<feComposite in2="hardAlpha" operator="out"/>
<feColorMatrix type="matrix" values="0 0 0 0 0.0999999 0 0 0 0 0.0999999 0 0 0 0 0.0999999 0 0 0 0.23 0"/>
<feBlend mode="normal" in2="BackgroundImageFix" result="effect1_dropShadow_1586_1916"/>
<feBlend mode="normal" in="SourceGraphic" in2="effect1_dropShadow_1586_1916" result="shape"/>
</filter>
</defs>
</svg>
