<svg width="84" height="32" viewBox="0 0 84 32" fill="none" xmlns="http://www.w3.org/2000/svg">
<rect width="84" height="32" rx="8" fill="#000D2B"/>
<path d="M22.6379 16.4166C22.6309 15.2178 23.174 14.3143 24.2709 13.648C23.6574 12.7691 22.7293 12.2857 21.5059 12.1926C20.3475 12.1012 19.0801 12.8676 18.616 12.8676C18.1256 12.8676 17.0041 12.2242 16.1217 12.2242C14.3006 12.2523 12.3652 13.6762 12.3652 16.573C12.3652 17.4291 12.5217 18.3133 12.8346 19.2238C13.2529 20.4227 14.7611 23.36 16.3344 23.3125C17.157 23.2932 17.7389 22.7289 18.8094 22.7289C19.8482 22.7289 20.3861 23.3125 21.3037 23.3125C22.891 23.2896 24.2551 20.6195 24.6523 19.4172C22.5236 18.4135 22.6379 16.4781 22.6379 16.4166ZM22.4516 21.11C22.2002 21.4598 21.9471 21.7357 21.715 21.9133C21.5305 22.0539 21.3881 22.1137 21.2932 22.1172C21.135 22.1154 20.982 22.0768 20.6832 21.9625C20.6621 21.9537 20.6393 21.9449 20.6094 21.9344L20.532 21.9045C20.2262 21.7867 20.0434 21.7234 19.8096 21.6619C19.4826 21.5775 19.1574 21.5318 18.8094 21.5318C18.4543 21.5318 18.1203 21.5758 17.7881 21.6584C17.5437 21.7199 17.3381 21.7885 17.0375 21.901C17.0252 21.9062 16.8951 21.9555 16.8582 21.9695C16.7967 21.9924 16.7492 22.01 16.7053 22.0258C16.5225 22.0891 16.4064 22.1154 16.3027 22.1172C16.2904 22.1172 16.2799 22.1154 16.2711 22.1137C16.2518 22.1102 16.2271 22.1031 16.199 22.0908C16.1199 22.0592 16.025 22.0012 15.9178 21.9186C15.6717 21.727 15.401 21.4264 15.125 21.0414C14.6416 20.3629 14.1846 19.4629 13.9648 18.8318C13.6941 18.0443 13.5605 17.2902 13.5605 16.5713C13.5605 15.5131 13.8734 14.708 14.4113 14.1613C14.8736 13.6937 15.4959 13.4318 16.1305 13.4178C16.2342 13.4195 16.3854 13.4441 16.577 13.4969C16.7281 13.5373 16.8934 13.5918 17.1166 13.6709C17.1834 13.6955 17.4137 13.7781 17.4418 13.7887C17.5771 13.8379 17.6791 13.873 17.7793 13.9047C18.0992 14.0066 18.3471 14.0629 18.616 14.0629C18.8885 14.0629 19.1223 14.0049 19.4545 13.8906C19.5793 13.8484 20.0328 13.6797 20.1137 13.6516C20.5637 13.4916 20.8959 13.4055 21.1824 13.3844C21.2668 13.3773 21.3424 13.3773 21.4145 13.3826C21.8135 13.4143 22.1545 13.4934 22.4445 13.6252C21.7836 14.3881 21.4426 15.3215 21.4443 16.4096C21.4391 16.668 21.4602 16.9668 21.534 17.3201C21.6465 17.8562 21.8609 18.3871 22.2002 18.8846C22.4586 19.2625 22.7785 19.6035 23.1617 19.9006C22.9596 20.3172 22.7117 20.7479 22.4516 21.11ZM20.7904 11.0553C21.6816 9.99707 21.6008 9.03379 21.5744 8.6875C20.7869 8.7332 19.8764 9.22363 19.3578 9.82656C18.7865 10.4734 18.4508 11.2732 18.5229 12.175C19.3736 12.24 20.1506 11.8023 20.7904 11.0553Z" fill="white"/>
<path d="M35.9418 11.7727V20.5H34.3608V11.7727H35.9418ZM37.6538 20.5V11.7727H40.9265C41.5969 11.7727 42.1594 11.8977 42.614 12.1477C43.0714 12.3977 43.4165 12.7415 43.6495 13.179C43.8853 13.6136 44.0032 14.108 44.0032 14.6619C44.0032 15.2216 43.8853 15.7187 43.6495 16.1534C43.4137 16.5881 43.0657 16.9304 42.6055 17.1804C42.1452 17.4276 41.5785 17.5511 40.9052 17.5511H38.7362V16.2514H40.6921C41.0842 16.2514 41.4052 16.1832 41.6552 16.0469C41.9052 15.9105 42.0898 15.723 42.2092 15.4844C42.3313 15.2457 42.3924 14.9716 42.3924 14.6619C42.3924 14.3523 42.3313 14.0795 42.2092 13.8438C42.0898 13.608 41.9038 13.4247 41.6509 13.294C41.4009 13.1605 41.0785 13.0938 40.6836 13.0938H39.2347V20.5H37.6538ZM46.8509 16.6648V20.5H45.3082V11.7727H46.8168V15.0668H46.8935C47.0469 14.6974 47.2841 14.4062 47.6051 14.1932C47.929 13.9773 48.3409 13.8693 48.8409 13.8693C49.2955 13.8693 49.6918 13.9645 50.0298 14.1548C50.3679 14.3452 50.6293 14.6236 50.8139 14.9901C51.0014 15.3565 51.0952 15.804 51.0952 16.3324V20.5H49.5526V16.571C49.5526 16.1307 49.4389 15.7884 49.2116 15.544C48.9872 15.2969 48.6719 15.1733 48.2656 15.1733C47.9929 15.1733 47.7486 15.233 47.5327 15.3523C47.3196 15.4687 47.152 15.6378 47.0298 15.8594C46.9105 16.081 46.8509 16.3494 46.8509 16.6648ZM55.5227 20.6278C54.8835 20.6278 54.3295 20.4872 53.8608 20.206C53.392 19.9247 53.0284 19.5312 52.7699 19.0256C52.5142 18.5199 52.3864 17.929 52.3864 17.2528C52.3864 16.5767 52.5142 15.9844 52.7699 15.4759C53.0284 14.9673 53.392 14.5724 53.8608 14.2912C54.3295 14.0099 54.8835 13.8693 55.5227 13.8693C56.1619 13.8693 56.7159 14.0099 57.1847 14.2912C57.6534 14.5724 58.0156 14.9673 58.2713 15.4759C58.5298 15.9844 58.6591 16.5767 58.6591 17.2528C58.6591 17.929 58.5298 18.5199 58.2713 19.0256C58.0156 19.5312 57.6534 19.9247 57.1847 20.206C56.7159 20.4872 56.1619 20.6278 55.5227 20.6278ZM55.5312 19.392C55.8778 19.392 56.1676 19.2969 56.4006 19.1065C56.6335 18.9134 56.8068 18.6548 56.9205 18.331C57.0369 18.0071 57.0952 17.6463 57.0952 17.2486C57.0952 16.848 57.0369 16.4858 56.9205 16.1619C56.8068 15.8352 56.6335 15.5753 56.4006 15.3821C56.1676 15.1889 55.8778 15.0923 55.5312 15.0923C55.1761 15.0923 54.8807 15.1889 54.6449 15.3821C54.4119 15.5753 54.2372 15.8352 54.1207 16.1619C54.0071 16.4858 53.9503 16.848 53.9503 17.2486C53.9503 17.6463 54.0071 18.0071 54.1207 18.331C54.2372 18.6548 54.4119 18.9134 54.6449 19.1065C54.8807 19.2969 55.1761 19.392 55.5312 19.392ZM61.511 16.6648V20.5H59.9684V13.9545H61.4428V15.0668H61.5195C61.6701 14.7003 61.9102 14.4091 62.2397 14.1932C62.5721 13.9773 62.9826 13.8693 63.4712 13.8693C63.9229 13.8693 64.3164 13.9659 64.6516 14.1591C64.9897 14.3523 65.2511 14.6321 65.4357 14.9986C65.6232 15.3651 65.7156 15.8097 65.7127 16.3324V20.5H64.1701V16.571C64.1701 16.1335 64.0565 15.7912 63.8292 15.544C63.6048 15.2969 63.2937 15.1733 62.896 15.1733C62.6261 15.1733 62.386 15.233 62.1758 15.3523C61.9684 15.4687 61.805 15.6378 61.6857 15.8594C61.5692 16.081 61.511 16.3494 61.511 16.6648ZM70.1786 20.6278C69.5224 20.6278 68.9556 20.4915 68.4783 20.2188C68.0039 19.9432 67.6388 19.554 67.3832 19.0511C67.1275 18.5455 66.9996 17.9503 66.9996 17.2656C66.9996 16.5923 67.1275 16.0014 67.3832 15.4929C67.6417 14.9815 68.0025 14.5838 68.4656 14.2997C68.9286 14.0128 69.4727 13.8693 70.0977 13.8693C70.5011 13.8693 70.8817 13.9347 71.2397 14.0653C71.6005 14.1932 71.9187 14.392 72.1942 14.6619C72.4727 14.9318 72.6914 15.2756 72.8505 15.6932C73.0096 16.108 73.0891 16.6023 73.0891 17.1761V17.6491H67.7241V16.6094H71.6104C71.6076 16.3139 71.5437 16.0511 71.4187 15.821C71.2937 15.5881 71.119 15.4048 70.8945 15.2713C70.6729 15.1378 70.4144 15.071 70.119 15.071C69.8036 15.071 69.5266 15.1477 69.288 15.3011C69.0494 15.4517 68.8633 15.6506 68.7298 15.8977C68.5991 16.142 68.5323 16.4105 68.5295 16.7031V17.6108C68.5295 17.9915 68.5991 18.3182 68.7383 18.5909C68.8775 18.8608 69.0721 19.0682 69.3221 19.2131C69.5721 19.3551 69.8647 19.4261 70.1999 19.4261C70.4244 19.4261 70.6275 19.3949 70.8093 19.3324C70.9911 19.267 71.1488 19.1719 71.2823 19.0469C71.4158 18.9219 71.5167 18.767 71.5849 18.5824L73.0252 18.7443C72.9343 19.125 72.761 19.4574 72.5053 19.7415C72.2525 20.0227 71.9286 20.2415 71.5337 20.3977C71.1388 20.5511 70.6871 20.6278 70.1786 20.6278Z" fill="white"/>
</svg>
