<svg width="26" height="24" viewBox="0 0 26 24" fill="none" xmlns="http://www.w3.org/2000/svg">
<g clip-path="url(#clip0_1586_1103)">
<path d="M9.60554 5.00012H7.47098C6.90486 5.00012 6.36193 5.21084 5.96162 5.58591C5.56132 5.96098 5.33643 6.46969 5.33643 7.00012V19.0001C5.33643 19.5306 5.56132 20.0393 5.96162 20.4143C6.36193 20.7894 6.90486 21.0001 7.47098 21.0001H18.1438C18.7099 21.0001 19.2528 20.7894 19.6531 20.4143C20.0534 20.0393 20.2783 19.5306 20.2783 19.0001V7.00012C20.2783 6.46969 20.0534 5.96098 19.6531 5.58591C19.2528 5.21084 18.7099 5.00012 18.1438 5.00012H16.0092" stroke="black" stroke-width="2" stroke-linecap="round" stroke-linejoin="round"/>
<path d="M13.8746 3.00012H11.74C10.5611 3.00012 9.60547 3.89555 9.60547 5.00012C9.60547 6.10469 10.5611 7.00012 11.74 7.00012H13.8746C15.0535 7.00012 16.0091 6.10469 16.0091 5.00012C16.0091 3.89555 15.0535 3.00012 13.8746 3.00012Z" stroke="#0C092A" stroke-width="2" stroke-linecap="round" stroke-linejoin="round"/>
</g>
<defs>
<clipPath id="clip0_1586_1103">
<rect width="25.6147" height="24" fill="white"/>
</clipPath>
</defs>
</svg>
