<svg width="78" height="62" viewBox="0 0 78 62" fill="none" xmlns="http://www.w3.org/2000/svg">
<path d="M38.7256 0C38.8037 1.98006 41.6813 2.13087 41.966 0.169821C41.8367 2.1472 44.6828 2.59798 45.1708 0.677423C44.8356 2.63046 47.619 3.37627 48.3051 1.51725C47.7675 3.42453 50.4577 4.4572 51.3344 2.68009C50.6004 4.52073 53.1679 5.82895 54.2256 4.15321C53.3032 5.90705 55.7199 7.47648 56.9469 5.92047C55.8463 7.56828 58.0857 9.38173 59.4686 7.96251C58.2018 9.48624 60.2393 11.5238 61.7631 10.257C60.3439 11.6399 62.1573 13.8793 63.8051 12.7787C62.2491 14.0057 63.8185 16.4224 65.5724 15.5C63.8966 16.5577 65.2049 19.1252 67.0455 18.3912C65.2684 19.2679 66.301 21.9581 68.2083 21.4205C66.3493 22.1066 67.0951 24.89 69.0482 24.5547C67.1276 25.0428 67.5784 27.8889 69.5558 27.7596C67.5947 28.0443 67.7455 30.9219 69.7256 31C67.7455 31.0781 67.5947 33.9557 69.5558 34.2404C67.5784 34.1111 67.1276 36.9572 69.0482 37.4453C67.0951 37.11 66.3493 39.8934 68.2083 40.5795C66.3011 40.0419 65.2684 42.7321 67.0455 43.6088C65.2049 42.8748 63.8966 45.4423 65.5724 46.5C63.8185 45.5776 62.2491 47.9943 63.8051 49.2213C62.1573 48.1207 60.3439 50.3601 61.7631 51.743C60.2393 50.4762 58.2018 52.5138 59.4686 54.0375C58.0857 52.6183 55.8463 54.4317 56.9469 56.0795C55.7199 54.5235 53.3032 56.093 54.2256 57.8468C53.1679 56.171 50.6004 57.4793 51.3344 59.3199C50.4577 57.5428 47.7675 58.5755 48.3051 60.4827C47.619 58.6237 44.8356 59.3695 45.1708 61.3226C44.6828 59.402 41.8367 59.8528 41.966 61.8302C41.6813 59.8691 38.8037 60.0199 38.7256 62C38.6475 60.0199 35.7698 59.8691 35.4852 61.8302C35.6145 59.8528 32.7684 59.402 32.2803 61.3226C32.6156 59.3695 29.8322 58.6237 29.1461 60.4827C29.6837 58.5755 26.9935 57.5428 26.1167 59.3199C26.8508 57.4793 24.2833 56.171 23.2256 57.8468C24.148 56.093 21.7313 54.5235 20.5042 56.0795C21.6049 54.4317 19.3655 52.6183 17.9825 54.0375C19.2494 52.5138 17.2118 50.4762 15.6881 51.743C17.1073 50.3601 15.2939 48.1207 13.6461 49.2213C15.2021 47.9943 13.6326 45.5776 11.8788 46.5C13.5545 45.4423 12.2463 42.8748 10.4057 43.6088C12.1828 42.7321 11.1501 40.0419 9.24283 40.5795C11.1019 39.8934 10.356 37.11 8.40301 37.4453C10.3236 36.9572 9.87279 34.1111 7.89541 34.2404C9.85646 33.9557 9.70565 31.0781 7.72559 31C9.70565 30.9219 9.85646 28.0443 7.89541 27.7596C9.87279 27.8889 10.3236 25.0428 8.40301 24.5547C10.356 24.89 11.1019 22.1066 9.24283 21.4205C11.1501 21.9581 12.1828 19.2679 10.4057 18.3912C12.2463 19.1252 13.5545 16.5577 11.8788 15.5C13.6326 16.4224 15.2021 14.0057 13.6461 12.7787C15.2939 13.8793 17.1073 11.6399 15.6881 10.257C17.2118 11.5238 19.2494 9.48624 17.9825 7.96251C19.3655 9.38173 21.6049 7.56828 20.5042 5.92047C21.7313 7.47648 24.148 5.90704 23.2256 4.15321C24.2833 5.82895 26.8508 4.52073 26.1167 2.68009C26.9935 4.4572 29.6837 3.42453 29.1461 1.51725C29.8322 3.37627 32.6156 2.63045 32.2803 0.677423C32.7684 2.59798 35.6145 2.1472 35.4852 0.169821C35.7698 2.13087 38.6475 1.98006 38.7256 0Z" fill="#42A056"/>
<circle cx="38.7256" cy="31" r="25" fill="#E8FFE0"/>
<g filter="url(#filter0_d_1682_341)">
<rect x="2.72559" y="32.5135" width="69.6636" height="18.5044" rx="5" transform="rotate(-17.5644 2.72559 32.5135)" fill="#C3EDCC" shape-rendering="crispEdges"/>
<path d="M26.2277 39.2389L23.594 30.9185L27.0311 29.8305C27.654 29.6334 28.2302 29.5851 28.7597 29.6856C29.291 29.7827 29.7485 30.0088 30.1321 30.3642C30.5149 30.7168 30.7968 31.1789 30.9777 31.7504C31.1594 32.3246 31.1925 32.8668 31.0769 33.3772C30.9632 33.884 30.7121 34.3285 30.3235 34.7108C29.9349 35.093 29.4224 35.3849 28.7859 35.5863L26.6652 36.2576L26.1637 34.6732L27.9106 34.1202C28.214 34.0242 28.4505 33.8912 28.6202 33.7213C28.7926 33.5505 28.9016 33.3536 28.9472 33.1306C28.992 32.9048 28.9741 32.6647 28.8935 32.4101C28.8121 32.1528 28.6889 31.9474 28.5242 31.7939C28.3585 31.6378 28.1565 31.5408 27.9181 31.5031C27.6796 31.4653 27.4101 31.494 27.1095 31.5892L26.1182 31.9029L28.2388 38.6023L26.2277 39.2389ZM34.4851 36.6251L32.3238 37.3093L32.4974 28.1002L35.1747 27.2528L40.6157 34.6846L38.4544 35.3687L34.5301 29.7632L34.4651 29.7838L34.4851 36.6251ZM33.1602 33.4419L37.6779 32.0119L38.1614 33.5394L33.6437 34.9695L33.1602 33.4419ZM40.8889 25.444L43.5226 33.7644L41.5116 34.401L38.8779 26.0806L40.8889 25.444ZM47.8605 32.3913L44.7851 33.3648L42.1514 25.0444L45.2228 24.0722C46.0705 23.8039 46.8532 23.7394 47.5708 23.8788C48.2902 24.0146 48.915 24.3413 49.4454 24.8588C49.9748 25.3736 50.3763 26.0629 50.6498 26.9269C50.9241 27.7937 50.9933 28.5912 50.8574 29.3196C50.7241 30.0471 50.4028 30.6748 49.8934 31.2025C49.3832 31.7276 48.7056 32.1238 47.8605 32.3913ZM46.2534 31.0138L47.2407 30.7013C47.7065 30.5539 48.0757 30.3506 48.3483 30.0915C48.6228 29.8288 48.786 29.4925 48.838 29.0827C48.8919 28.6693 48.8242 28.1634 48.6347 27.5648C48.4452 26.9662 48.2104 26.5161 47.9301 26.2145C47.6491 25.9101 47.3198 25.7312 46.9423 25.6779C46.5667 25.621 46.1406 25.6679 45.6639 25.8188L44.7051 26.1223L46.2534 31.0138Z" fill="#42A056"/>
</g>
<defs>
<filter id="filter0_d_1682_341" x="-1.27441" y="8.4906" width="80" height="46.6647" filterUnits="userSpaceOnUse" color-interpolation-filters="sRGB">
<feFlood flood-opacity="0" result="BackgroundImageFix"/>
<feColorMatrix in="SourceAlpha" type="matrix" values="0 0 0 0 0 0 0 0 0 0 0 0 0 0 0 0 0 0 127 0" result="hardAlpha"/>
<feOffset dy="1"/>
<feGaussianBlur stdDeviation="2"/>
<feComposite in2="hardAlpha" operator="out"/>
<feColorMatrix type="matrix" values="0 0 0 0 0 0 0 0 0 0 0 0 0 0 0 0 0 0 0.25 0"/>
<feBlend mode="normal" in2="BackgroundImageFix" result="effect1_dropShadow_1682_341"/>
<feBlend mode="normal" in="SourceGraphic" in2="effect1_dropShadow_1682_341" result="shape"/>
</filter>
</defs>
</svg>
