<svg width="24" height="24" viewBox="0 0 24 24" fill="none" xmlns="http://www.w3.org/2000/svg">
<path d="M12 24C18.6274 24 24 18.6274 24 12C24 5.37258 18.6274 0 12 0C5.37258 0 0 5.37258 0 12C0 18.6274 5.37258 24 12 24Z" fill="black"/>
<path d="M16.5997 11.0667H12.9331V7.40008C12.9331 6.99528 12.6045 6.66675 12.1997 6.66675C11.7949 6.66675 11.4664 6.99528 11.4664 7.40008V11.0667H7.79974C7.39494 11.0667 7.06641 11.3953 7.06641 11.8001C7.06641 12.2049 7.39494 12.5334 7.79974 12.5334H11.4664V16.2001C11.4664 16.6049 11.7949 16.9334 12.1997 16.9334C12.6045 16.9334 12.9331 16.6049 12.9331 16.2001V12.5334H16.5997C17.0045 12.5334 17.3331 12.2049 17.3331 11.8001C17.3331 11.3953 17.0045 11.0667 16.5997 11.0667Z" fill="#F1F1F1"/>
</svg>
