<svg width="18" height="19" viewBox="0 0 18 19" fill="none" xmlns="http://www.w3.org/2000/svg">
<path d="M15.213 11.6102V4.90188L10.1713 1.21517L5.12967 4.90092V7.48075H4.213V4.44188L10.1713 0L16.1297 4.44092V11.6093L15.213 11.6102ZM10.7177 5.54588H11.4583V4.77154H10.7177V5.54588ZM8.88433 5.54588H9.625V4.77154H8.88433V5.54588ZM10.7177 7.46254H11.4583V6.68821H10.7177V7.46254ZM8.88433 7.46254H9.625V6.68821H8.88433V7.46254ZM3.66667 15.3324L10.6013 17.4474L16.0912 15.6745C16.0728 15.3838 15.9897 15.1743 15.8418 15.0458C15.6927 14.9174 15.5244 14.8532 15.3368 14.8532H10.9872C10.5997 14.8532 10.2483 14.8372 9.933 14.8053C9.61767 14.7733 9.29531 14.6973 8.96592 14.5772L6.95842 13.8891L7.26825 12.9423L9.1245 13.6438C9.41906 13.7607 9.75395 13.831 10.1292 13.8546C10.5038 13.8776 11.0171 13.891 11.6692 13.8949C11.6692 13.5959 11.6166 13.3544 11.5115 13.1704C11.4064 12.9864 11.2558 12.858 11.0596 12.7851L5.78508 10.7611C5.75025 10.749 5.71786 10.74 5.68792 10.7343C5.65797 10.7285 5.62589 10.7253 5.59167 10.7247H3.66667V15.3324ZM0 17.5806V9.76638H5.56967C5.65522 9.76638 5.74322 9.7766 5.83367 9.79704C5.92411 9.81749 6.00814 9.84113 6.08575 9.86796L11.3832 11.8968C11.7113 12.0271 11.9937 12.2612 12.2302 12.5992C12.4673 12.9372 12.5858 13.3691 12.5858 13.8949H15.3358C15.8883 13.8949 16.3112 14.0754 16.6045 14.4363C16.8984 14.7979 17.0454 15.2563 17.0454 15.8115V16.4009L10.6471 18.4652L3.66575 16.3377V17.5806H0ZM0.916667 16.6223H2.75V10.7247H0.916667V16.6223Z" fill="#030303"/>
</svg>
