<svg width="78" height="62" viewBox="0 0 78 62" fill="none" xmlns="http://www.w3.org/2000/svg">
<path d="M38.7256 0C38.8037 1.98006 41.6813 2.13087 41.966 0.169821C41.8367 2.1472 44.6828 2.59798 45.1708 0.677423C44.8356 2.63046 47.619 3.37627 48.3051 1.51725C47.7675 3.42453 50.4577 4.4572 51.3344 2.68009C50.6004 4.52073 53.1679 5.82895 54.2256 4.15321C53.3032 5.90705 55.7199 7.47648 56.9469 5.92047C55.8463 7.56828 58.0857 9.38173 59.4686 7.96251C58.2018 9.48624 60.2393 11.5238 61.7631 10.257C60.3439 11.6399 62.1573 13.8793 63.8051 12.7787C62.2491 14.0057 63.8185 16.4224 65.5724 15.5C63.8966 16.5577 65.2049 19.1252 67.0455 18.3912C65.2684 19.2679 66.301 21.9581 68.2083 21.4205C66.3493 22.1066 67.0951 24.89 69.0482 24.5547C67.1276 25.0428 67.5784 27.8889 69.5558 27.7596C67.5947 28.0443 67.7455 30.9219 69.7256 31C67.7455 31.0781 67.5947 33.9557 69.5558 34.2404C67.5784 34.1111 67.1276 36.9572 69.0482 37.4453C67.0951 37.11 66.3493 39.8934 68.2083 40.5795C66.3011 40.0419 65.2684 42.7321 67.0455 43.6088C65.2049 42.8748 63.8966 45.4423 65.5724 46.5C63.8185 45.5776 62.2491 47.9943 63.8051 49.2213C62.1573 48.1207 60.3439 50.3601 61.7631 51.743C60.2393 50.4762 58.2018 52.5138 59.4686 54.0375C58.0857 52.6183 55.8463 54.4317 56.9469 56.0795C55.7199 54.5235 53.3032 56.093 54.2256 57.8468C53.1679 56.171 50.6004 57.4793 51.3344 59.3199C50.4577 57.5428 47.7675 58.5755 48.3051 60.4827C47.619 58.6237 44.8356 59.3695 45.1708 61.3226C44.6828 59.402 41.8367 59.8528 41.966 61.8302C41.6813 59.8691 38.8037 60.0199 38.7256 62C38.6475 60.0199 35.7698 59.8691 35.4852 61.8302C35.6145 59.8528 32.7684 59.402 32.2803 61.3226C32.6156 59.3695 29.8322 58.6237 29.1461 60.4827C29.6837 58.5755 26.9935 57.5428 26.1167 59.3199C26.8508 57.4793 24.2833 56.171 23.2256 57.8468C24.148 56.093 21.7313 54.5235 20.5042 56.0795C21.6049 54.4317 19.3655 52.6183 17.9825 54.0375C19.2494 52.5138 17.2118 50.4762 15.6881 51.743C17.1073 50.3601 15.2939 48.1207 13.6461 49.2213C15.2021 47.9943 13.6326 45.5776 11.8788 46.5C13.5545 45.4423 12.2463 42.8748 10.4057 43.6088C12.1828 42.7321 11.1501 40.0419 9.24283 40.5795C11.1019 39.8934 10.356 37.11 8.40301 37.4453C10.3236 36.9572 9.87279 34.1111 7.89541 34.2404C9.85646 33.9557 9.70565 31.0781 7.72559 31C9.70565 30.9219 9.85646 28.0443 7.89541 27.7596C9.87279 27.8889 10.3236 25.0428 8.40301 24.5547C10.356 24.89 11.1019 22.1066 9.24283 21.4205C11.1501 21.9581 12.1828 19.2679 10.4057 18.3912C12.2463 19.1252 13.5545 16.5577 11.8788 15.5C13.6326 16.4224 15.2021 14.0057 13.6461 12.7787C15.2939 13.8793 17.1073 11.6399 15.6881 10.257C17.2118 11.5238 19.2494 9.48624 17.9825 7.96251C19.3655 9.38173 21.6049 7.56828 20.5042 5.92047C21.7313 7.47648 24.148 5.90704 23.2256 4.15321C24.2833 5.82895 26.8508 4.52073 26.1167 2.68009C26.9935 4.4572 29.6837 3.42453 29.1461 1.51725C29.8322 3.37627 32.6156 2.63045 32.2803 0.677423C32.7684 2.59798 35.6145 2.1472 35.4852 0.169821C35.7698 2.13087 38.6475 1.98006 38.7256 0Z" fill="#EF010E"/>
<circle cx="38.7256" cy="31" r="25" fill="#FFE2E4"/>
<g filter="url(#filter0_d_1586_1291)">
<rect x="2.72559" y="32.5137" width="69.6636" height="18.5044" rx="5" transform="rotate(-17.5644 2.72559 32.5137)" fill="white" shape-rendering="crispEdges"/>
<path d="M20.445 32.9161L22.452 32.2808L24.1507 37.6477C24.3471 38.2679 24.3705 38.855 24.221 39.4088C24.0707 39.96 23.7713 40.4451 23.3229 40.8642C22.8736 41.2806 22.2996 41.5993 21.6008 41.8205C20.8939 42.0443 20.2369 42.1152 19.6299 42.0332C19.022 41.9485 18.4994 41.7235 18.062 41.3584C17.6237 40.9905 17.3064 40.4965 17.1101 39.8763L15.4113 34.5095L17.4224 33.8729L19.0658 39.065C19.1567 39.3521 19.3 39.5883 19.4958 39.7737C19.6942 39.9582 19.9274 40.0781 20.1952 40.1334C20.463 40.1887 20.7472 40.1687 21.0478 40.0736C21.3485 39.9784 21.591 39.8316 21.7755 39.6331C21.9628 39.4338 22.0844 39.2016 22.1406 38.9365C22.1967 38.6714 22.1794 38.3953 22.0885 38.1082L20.445 32.9161ZM30.7937 29.6404L33.4274 37.9608L31.721 38.5009L26.8899 34.7469L26.8371 34.7636L28.3571 39.5657L26.3461 40.2023L23.7124 31.8819L25.4431 31.334L30.2351 35.0915L30.3042 35.0696L28.7867 30.2757L30.7937 29.6404ZM34.6919 37.5605L32.0582 29.2401L35.4952 28.1522C36.1182 27.955 36.6944 27.9067 37.2239 28.0073C37.7552 28.1043 38.2127 28.3305 38.5963 28.6858C38.9791 29.0385 39.2609 29.5005 39.4418 30.072C39.6236 30.6462 39.6567 31.1885 39.5411 31.6989C39.4274 32.2057 39.1762 32.6502 38.7877 33.0324C38.3991 33.4147 37.8866 33.7065 37.2501 33.908L35.1294 34.5793L34.6278 32.9948L36.3748 32.4419C36.6782 32.3458 36.9147 32.2129 37.0844 32.0429C37.2568 31.8722 37.3658 31.6752 37.4114 31.4522C37.4562 31.2265 37.4383 30.9863 37.3577 30.7317C37.2762 30.4744 37.1531 30.269 36.9883 30.1156C36.8227 29.9594 36.6206 29.8625 36.3822 29.8247C36.1438 29.7869 35.8743 29.8156 35.5736 29.9108L34.5823 30.2246L36.7029 36.924L34.6919 37.5605ZM42.9493 34.9468L40.788 35.6309L40.9616 26.4219L43.6389 25.5744L49.0799 33.0062L46.9186 33.6904L42.9943 28.0849L42.9293 28.1054L42.9493 34.9468ZM41.6244 31.7635L46.1421 30.3335L46.6256 31.8611L42.1079 33.2911L41.6244 31.7635ZM49.3531 23.7657L51.9868 32.0861L49.9757 32.7227L47.342 24.4023L49.3531 23.7657ZM56.3247 30.713L53.2493 31.6865L50.6156 23.3661L53.687 22.3939C54.5347 22.1255 55.3174 22.0611 56.0349 22.2004C56.7543 22.3363 57.3792 22.6629 57.9095 23.1804C58.439 23.6952 58.8405 24.3846 59.114 25.2486C59.3883 26.1153 59.4575 26.9129 59.3215 27.6413C59.1883 28.3688 58.867 28.9964 58.3576 29.5242C57.8474 30.0492 57.1698 30.4455 56.3247 30.713ZM54.7176 29.3355L55.7048 29.023C56.1707 28.8755 56.5399 28.6722 56.8125 28.4131C57.0869 28.1504 57.2502 27.8142 57.3022 27.4044C57.3561 26.991 57.2883 26.485 57.0989 25.8864C56.9094 25.2879 56.6745 24.8378 56.3943 24.5361C56.1132 24.2317 55.784 24.0529 55.4065 23.9995C55.0309 23.9426 54.6048 23.9896 54.1281 24.1405L53.1693 24.444L54.7176 29.3355Z" fill="#EF010E"/>
</g>
<defs>
<filter id="filter0_d_1586_1291" x="-1.27441" y="8.49072" width="80" height="46.6646" filterUnits="userSpaceOnUse" color-interpolation-filters="sRGB">
<feFlood flood-opacity="0" result="BackgroundImageFix"/>
<feColorMatrix in="SourceAlpha" type="matrix" values="0 0 0 0 0 0 0 0 0 0 0 0 0 0 0 0 0 0 127 0" result="hardAlpha"/>
<feOffset dy="1"/>
<feGaussianBlur stdDeviation="2"/>
<feComposite in2="hardAlpha" operator="out"/>
<feColorMatrix type="matrix" values="0 0 0 0 0 0 0 0 0 0 0 0 0 0 0 0 0 0 0.25 0"/>
<feBlend mode="normal" in2="BackgroundImageFix" result="effect1_dropShadow_1586_1291"/>
<feBlend mode="normal" in="SourceGraphic" in2="effect1_dropShadow_1586_1291" result="shape"/>
</filter>
</defs>
</svg>
