<svg width="74" height="74" viewBox="0 0 74 74" fill="none" xmlns="http://www.w3.org/2000/svg">
<rect width="73.1294" height="73.1294" rx="10" fill="#000D2B"/>
<g clip-path="url(#clip0_2114_531)">
<path d="M29.2294 31.0631C29.2294 29.2798 29.9379 27.5695 31.1989 26.3085C32.4599 25.0475 34.1701 24.3391 35.9535 24.3391C37.7368 24.3391 39.4471 25.0475 40.7081 26.3085C41.9691 27.5695 42.6775 29.2798 42.6775 31.0631C42.6775 32.8465 41.9691 34.5567 40.7081 35.8177C39.4471 37.0787 37.7368 37.7872 35.9535 37.7872C34.1701 37.7872 32.4599 37.0787 31.1989 35.8177C29.9379 34.5567 29.2294 32.8465 29.2294 31.0631ZM36.2591 48.7901H24.3392V46.345C24.3392 44.3996 25.1121 42.5338 26.4877 41.1582C27.8633 39.7825 29.7291 39.0097 31.6745 39.0097H36.2591V48.7901ZM38.7042 39.0097H49.0959V41.4548H38.7042V39.0097ZM38.7042 42.6774H49.0959V45.1225H38.7042V42.6774ZM38.7042 46.345H49.0959V48.7901H38.7042V46.345Z" fill="white"/>
</g>
<defs>
<clipPath id="clip0_2114_531">
<rect width="29.3412" height="29.3412" fill="white" transform="translate(21.8942 21.894)"/>
</clipPath>
</defs>
</svg>
